M48
;DRILL file {KiCad 5.0.2+dfsg1-1} date Fri 24 Dec 2021 09:44:06 AM GMT
;FORMAT={-:-/ absolute / inch / decimal}
FMAT,2
INCH,TZ
T1C0.0157
T2C0.0197
T3C0.0276
T4C0.0315
T5C0.0394
T6C0.1063
%
G90
G05
T1
X4.Y-5.
X4.05Y-5.05
X4.45Y-4.55
X4.45Y-5.15
X4.5Y-5.
X4.65Y-4.
X4.65Y-4.55
X4.7Y-3.9
X4.7Y-4.45
X4.7Y-4.5
X4.7Y-4.75
X4.75Y-3.8
X4.75Y-4.7
X4.95Y-4.8
X5.Y-3.95
X5.Y-4.4
X5.Y-4.6
X5.05Y-4.9
X5.05Y-5.15
X5.25Y-5.
X5.3Y-4.85
X5.35Y-5.1
T2
X5.2703Y-5.35
X5.2936Y-5.2936
X5.2936Y-5.4064
X5.35Y-5.2703
X5.35Y-5.4297
X5.4064Y-5.2936
X5.4064Y-5.4064
X5.4297Y-5.35
X5.2703Y-3.15
X5.2936Y-3.0936
X5.2936Y-3.2064
X5.35Y-3.0703
X5.35Y-3.2297
X5.4064Y-3.0936
X5.4064Y-3.2064
X5.4297Y-3.15
X3.3703Y-3.15
X3.3936Y-3.0936
X3.3936Y-3.2064
X3.45Y-3.0703
X3.45Y-3.2297
X3.5064Y-3.0936
X3.5064Y-3.2064
X3.5297Y-3.15
X3.3703Y-5.35
X3.3936Y-5.2936
X3.3936Y-5.4064
X3.45Y-5.2703
X3.45Y-5.4297
X3.5064Y-5.2936
X3.5064Y-5.4064
X3.5297Y-5.35
T3
X5.35Y-3.85
X5.35Y-4.15
X5.35Y-3.45
X5.35Y-3.75
T4
X4.85Y-3.45
X4.85Y-3.55
X4.85Y-3.65
X4.85Y-3.75
X4.85Y-3.85
X4.85Y-3.95
X4.85Y-4.05
X5.15Y-3.45
X5.15Y-3.55
X5.15Y-3.65
X5.15Y-3.75
X5.15Y-3.85
X5.15Y-3.95
X5.15Y-4.05
X3.95Y-3.45
X3.95Y-3.55
X3.95Y-3.65
X3.95Y-3.75
X3.95Y-3.85
X3.95Y-3.95
X3.95Y-4.05
X3.95Y-4.15
X3.95Y-4.25
X3.95Y-4.35
X3.95Y-4.45
X3.95Y-4.55
X3.95Y-4.65
X3.95Y-4.75
X3.95Y-4.85
X4.55Y-3.45
X4.55Y-3.55
X4.55Y-3.65
X4.55Y-3.75
X4.55Y-3.85
X4.55Y-3.95
X4.55Y-4.05
X4.55Y-4.15
X4.55Y-4.25
X4.55Y-4.35
X4.55Y-4.45
X4.55Y-4.55
X4.55Y-4.65
X4.55Y-4.75
X4.55Y-4.85
X3.75Y-3.4531
X3.75Y-3.65
X4.85Y-4.35
X4.85Y-4.45
X4.85Y-4.55
X4.85Y-4.65
X4.85Y-4.75
X4.85Y-4.85
X4.85Y-4.95
X4.85Y-5.05
X5.15Y-4.35
X5.15Y-4.45
X5.15Y-4.55
X5.15Y-4.65
X5.15Y-4.75
X5.15Y-4.85
X5.15Y-4.95
X5.15Y-5.05
X5.35Y-4.35
X5.35Y-4.5469
T5
X3.55Y-4.75
X3.55Y-4.85
X3.55Y-4.95
X3.55Y-5.05
X3.65Y-4.75
X3.65Y-4.85
X3.65Y-4.95
X3.65Y-5.05
X3.65Y-5.35
X3.65Y-5.45
X3.75Y-5.35
X3.75Y-5.45
X3.85Y-5.35
X3.85Y-5.45
X3.95Y-5.35
X3.95Y-5.45
X4.05Y-5.35
X4.05Y-5.45
X4.15Y-5.35
X4.15Y-5.45
X4.25Y-5.35
X4.25Y-5.45
X4.35Y-5.35
X4.35Y-5.45
X4.45Y-5.35
X4.45Y-5.45
X4.55Y-5.35
X4.55Y-5.45
X4.65Y-5.35
X4.65Y-5.45
X4.75Y-5.35
X4.75Y-5.45
X4.85Y-5.35
X4.85Y-5.45
X4.95Y-5.35
X4.95Y-5.45
X5.05Y-5.35
X5.05Y-5.45
X5.15Y-5.35
X5.15Y-5.45
X3.55Y-3.45
X3.55Y-3.55
X3.55Y-3.65
X3.55Y-3.75
X3.55Y-3.85
X3.55Y-3.95
X3.55Y-4.05
X3.55Y-4.15
X3.55Y-4.25
X3.55Y-4.35
X3.55Y-4.45
T6
X5.35Y-3.15
X3.45Y-3.15
X3.45Y-5.35
X5.35Y-5.35
T0
M30
