G04 #@! TF.GenerationSoftware,KiCad,Pcbnew,5.0.2+dfsg1-1*
G04 #@! TF.CreationDate,2021-12-24T09:44:01+00:00*
G04 #@! TF.ProjectId,wy-50-keyboard-adaptor,77792d35-302d-46b6-9579-626f6172642d,rev?*
G04 #@! TF.SameCoordinates,Original*
G04 #@! TF.FileFunction,Soldermask,Bot*
G04 #@! TF.FilePolarity,Negative*
%FSLAX46Y46*%
G04 Gerber Fmt 4.6, Leading zero omitted, Abs format (unit mm)*
G04 Created by KiCad (PCBNEW 5.0.2+dfsg1-1) date Fri 24 Dec 2021 09:44:01 AM GMT*
%MOMM*%
%LPD*%
G01*
G04 APERTURE LIST*
%ADD10C,0.100000*%
G04 APERTURE END LIST*
D10*
G36*
X130920443Y-137535519D02*
X130986627Y-137542037D01*
X131099853Y-137576384D01*
X131156467Y-137593557D01*
X131250207Y-137643663D01*
X131312991Y-137677222D01*
X131342416Y-137701371D01*
X131450186Y-137789814D01*
X131516468Y-137870580D01*
X131562778Y-137927009D01*
X131562779Y-137927011D01*
X131646443Y-138083533D01*
X131646443Y-138083534D01*
X131697963Y-138253373D01*
X131715359Y-138430000D01*
X131697963Y-138606627D01*
X131687536Y-138641000D01*
X131646443Y-138776467D01*
X131572348Y-138915087D01*
X131562778Y-138932991D01*
X131533448Y-138968729D01*
X131450186Y-139070186D01*
X131348729Y-139153448D01*
X131312991Y-139182778D01*
X131312989Y-139182779D01*
X131156467Y-139266443D01*
X131099853Y-139283616D01*
X130986627Y-139317963D01*
X130920443Y-139324481D01*
X130854260Y-139331000D01*
X130765740Y-139331000D01*
X130699557Y-139324481D01*
X130633373Y-139317963D01*
X130520147Y-139283616D01*
X130463533Y-139266443D01*
X130307011Y-139182779D01*
X130307009Y-139182778D01*
X130271271Y-139153448D01*
X130169814Y-139070186D01*
X130086552Y-138968729D01*
X130057222Y-138932991D01*
X130047652Y-138915087D01*
X129973557Y-138776467D01*
X129932464Y-138641000D01*
X129922037Y-138606627D01*
X129904641Y-138430000D01*
X129922037Y-138253373D01*
X129973557Y-138083534D01*
X129973557Y-138083533D01*
X130057221Y-137927011D01*
X130057222Y-137927009D01*
X130103532Y-137870580D01*
X130169814Y-137789814D01*
X130277584Y-137701371D01*
X130307009Y-137677222D01*
X130369793Y-137643663D01*
X130463533Y-137593557D01*
X130520147Y-137576384D01*
X130633373Y-137542037D01*
X130699557Y-137535519D01*
X130765740Y-137529000D01*
X130854260Y-137529000D01*
X130920443Y-137535519D01*
X130920443Y-137535519D01*
G37*
G36*
X110600443Y-137535519D02*
X110666627Y-137542037D01*
X110779853Y-137576384D01*
X110836467Y-137593557D01*
X110930207Y-137643663D01*
X110992991Y-137677222D01*
X111022416Y-137701371D01*
X111130186Y-137789814D01*
X111196468Y-137870580D01*
X111242778Y-137927009D01*
X111242779Y-137927011D01*
X111326443Y-138083533D01*
X111326443Y-138083534D01*
X111377963Y-138253373D01*
X111395359Y-138430000D01*
X111377963Y-138606627D01*
X111367536Y-138641000D01*
X111326443Y-138776467D01*
X111252348Y-138915087D01*
X111242778Y-138932991D01*
X111213448Y-138968729D01*
X111130186Y-139070186D01*
X111028729Y-139153448D01*
X110992991Y-139182778D01*
X110992989Y-139182779D01*
X110836467Y-139266443D01*
X110779853Y-139283616D01*
X110666627Y-139317963D01*
X110600443Y-139324481D01*
X110534260Y-139331000D01*
X110445740Y-139331000D01*
X110379557Y-139324481D01*
X110313373Y-139317963D01*
X110200147Y-139283616D01*
X110143533Y-139266443D01*
X109987011Y-139182779D01*
X109987009Y-139182778D01*
X109951271Y-139153448D01*
X109849814Y-139070186D01*
X109766552Y-138968729D01*
X109737222Y-138932991D01*
X109727652Y-138915087D01*
X109653557Y-138776467D01*
X109612464Y-138641000D01*
X109602037Y-138606627D01*
X109584641Y-138430000D01*
X109602037Y-138253373D01*
X109653557Y-138083534D01*
X109653557Y-138083533D01*
X109737221Y-137927011D01*
X109737222Y-137927009D01*
X109783532Y-137870580D01*
X109849814Y-137789814D01*
X109957584Y-137701371D01*
X109987009Y-137677222D01*
X110049793Y-137643663D01*
X110143533Y-137593557D01*
X110200147Y-137576384D01*
X110313373Y-137542037D01*
X110379557Y-137535519D01*
X110445740Y-137529000D01*
X110534260Y-137529000D01*
X110600443Y-137535519D01*
X110600443Y-137535519D01*
G37*
G36*
X93611000Y-139331000D02*
X91809000Y-139331000D01*
X91809000Y-137529000D01*
X93611000Y-137529000D01*
X93611000Y-139331000D01*
X93611000Y-139331000D01*
G37*
G36*
X95360443Y-137535519D02*
X95426627Y-137542037D01*
X95539853Y-137576384D01*
X95596467Y-137593557D01*
X95690207Y-137643663D01*
X95752991Y-137677222D01*
X95782416Y-137701371D01*
X95890186Y-137789814D01*
X95956468Y-137870580D01*
X96002778Y-137927009D01*
X96002779Y-137927011D01*
X96086443Y-138083533D01*
X96086443Y-138083534D01*
X96137963Y-138253373D01*
X96155359Y-138430000D01*
X96137963Y-138606627D01*
X96127536Y-138641000D01*
X96086443Y-138776467D01*
X96012348Y-138915087D01*
X96002778Y-138932991D01*
X95973448Y-138968729D01*
X95890186Y-139070186D01*
X95788729Y-139153448D01*
X95752991Y-139182778D01*
X95752989Y-139182779D01*
X95596467Y-139266443D01*
X95539853Y-139283616D01*
X95426627Y-139317963D01*
X95360443Y-139324481D01*
X95294260Y-139331000D01*
X95205740Y-139331000D01*
X95139557Y-139324481D01*
X95073373Y-139317963D01*
X94960147Y-139283616D01*
X94903533Y-139266443D01*
X94747011Y-139182779D01*
X94747009Y-139182778D01*
X94711271Y-139153448D01*
X94609814Y-139070186D01*
X94526552Y-138968729D01*
X94497222Y-138932991D01*
X94487652Y-138915087D01*
X94413557Y-138776467D01*
X94372464Y-138641000D01*
X94362037Y-138606627D01*
X94344641Y-138430000D01*
X94362037Y-138253373D01*
X94413557Y-138083534D01*
X94413557Y-138083533D01*
X94497221Y-137927011D01*
X94497222Y-137927009D01*
X94543532Y-137870580D01*
X94609814Y-137789814D01*
X94717584Y-137701371D01*
X94747009Y-137677222D01*
X94809793Y-137643663D01*
X94903533Y-137593557D01*
X94960147Y-137576384D01*
X95073373Y-137542037D01*
X95139557Y-137535519D01*
X95205740Y-137529000D01*
X95294260Y-137529000D01*
X95360443Y-137535519D01*
X95360443Y-137535519D01*
G37*
G36*
X97900443Y-137535519D02*
X97966627Y-137542037D01*
X98079853Y-137576384D01*
X98136467Y-137593557D01*
X98230207Y-137643663D01*
X98292991Y-137677222D01*
X98322416Y-137701371D01*
X98430186Y-137789814D01*
X98496468Y-137870580D01*
X98542778Y-137927009D01*
X98542779Y-137927011D01*
X98626443Y-138083533D01*
X98626443Y-138083534D01*
X98677963Y-138253373D01*
X98695359Y-138430000D01*
X98677963Y-138606627D01*
X98667536Y-138641000D01*
X98626443Y-138776467D01*
X98552348Y-138915087D01*
X98542778Y-138932991D01*
X98513448Y-138968729D01*
X98430186Y-139070186D01*
X98328729Y-139153448D01*
X98292991Y-139182778D01*
X98292989Y-139182779D01*
X98136467Y-139266443D01*
X98079853Y-139283616D01*
X97966627Y-139317963D01*
X97900443Y-139324481D01*
X97834260Y-139331000D01*
X97745740Y-139331000D01*
X97679557Y-139324481D01*
X97613373Y-139317963D01*
X97500147Y-139283616D01*
X97443533Y-139266443D01*
X97287011Y-139182779D01*
X97287009Y-139182778D01*
X97251271Y-139153448D01*
X97149814Y-139070186D01*
X97066552Y-138968729D01*
X97037222Y-138932991D01*
X97027652Y-138915087D01*
X96953557Y-138776467D01*
X96912464Y-138641000D01*
X96902037Y-138606627D01*
X96884641Y-138430000D01*
X96902037Y-138253373D01*
X96953557Y-138083534D01*
X96953557Y-138083533D01*
X97037221Y-137927011D01*
X97037222Y-137927009D01*
X97083532Y-137870580D01*
X97149814Y-137789814D01*
X97257584Y-137701371D01*
X97287009Y-137677222D01*
X97349793Y-137643663D01*
X97443533Y-137593557D01*
X97500147Y-137576384D01*
X97613373Y-137542037D01*
X97679557Y-137535519D01*
X97745740Y-137529000D01*
X97834260Y-137529000D01*
X97900443Y-137535519D01*
X97900443Y-137535519D01*
G37*
G36*
X100440443Y-137535519D02*
X100506627Y-137542037D01*
X100619853Y-137576384D01*
X100676467Y-137593557D01*
X100770207Y-137643663D01*
X100832991Y-137677222D01*
X100862416Y-137701371D01*
X100970186Y-137789814D01*
X101036468Y-137870580D01*
X101082778Y-137927009D01*
X101082779Y-137927011D01*
X101166443Y-138083533D01*
X101166443Y-138083534D01*
X101217963Y-138253373D01*
X101235359Y-138430000D01*
X101217963Y-138606627D01*
X101207536Y-138641000D01*
X101166443Y-138776467D01*
X101092348Y-138915087D01*
X101082778Y-138932991D01*
X101053448Y-138968729D01*
X100970186Y-139070186D01*
X100868729Y-139153448D01*
X100832991Y-139182778D01*
X100832989Y-139182779D01*
X100676467Y-139266443D01*
X100619853Y-139283616D01*
X100506627Y-139317963D01*
X100440443Y-139324481D01*
X100374260Y-139331000D01*
X100285740Y-139331000D01*
X100219557Y-139324481D01*
X100153373Y-139317963D01*
X100040147Y-139283616D01*
X99983533Y-139266443D01*
X99827011Y-139182779D01*
X99827009Y-139182778D01*
X99791271Y-139153448D01*
X99689814Y-139070186D01*
X99606552Y-138968729D01*
X99577222Y-138932991D01*
X99567652Y-138915087D01*
X99493557Y-138776467D01*
X99452464Y-138641000D01*
X99442037Y-138606627D01*
X99424641Y-138430000D01*
X99442037Y-138253373D01*
X99493557Y-138083534D01*
X99493557Y-138083533D01*
X99577221Y-137927011D01*
X99577222Y-137927009D01*
X99623532Y-137870580D01*
X99689814Y-137789814D01*
X99797584Y-137701371D01*
X99827009Y-137677222D01*
X99889793Y-137643663D01*
X99983533Y-137593557D01*
X100040147Y-137576384D01*
X100153373Y-137542037D01*
X100219557Y-137535519D01*
X100285740Y-137529000D01*
X100374260Y-137529000D01*
X100440443Y-137535519D01*
X100440443Y-137535519D01*
G37*
G36*
X102980443Y-137535519D02*
X103046627Y-137542037D01*
X103159853Y-137576384D01*
X103216467Y-137593557D01*
X103310207Y-137643663D01*
X103372991Y-137677222D01*
X103402416Y-137701371D01*
X103510186Y-137789814D01*
X103576468Y-137870580D01*
X103622778Y-137927009D01*
X103622779Y-137927011D01*
X103706443Y-138083533D01*
X103706443Y-138083534D01*
X103757963Y-138253373D01*
X103775359Y-138430000D01*
X103757963Y-138606627D01*
X103747536Y-138641000D01*
X103706443Y-138776467D01*
X103632348Y-138915087D01*
X103622778Y-138932991D01*
X103593448Y-138968729D01*
X103510186Y-139070186D01*
X103408729Y-139153448D01*
X103372991Y-139182778D01*
X103372989Y-139182779D01*
X103216467Y-139266443D01*
X103159853Y-139283616D01*
X103046627Y-139317963D01*
X102980443Y-139324481D01*
X102914260Y-139331000D01*
X102825740Y-139331000D01*
X102759557Y-139324481D01*
X102693373Y-139317963D01*
X102580147Y-139283616D01*
X102523533Y-139266443D01*
X102367011Y-139182779D01*
X102367009Y-139182778D01*
X102331271Y-139153448D01*
X102229814Y-139070186D01*
X102146552Y-138968729D01*
X102117222Y-138932991D01*
X102107652Y-138915087D01*
X102033557Y-138776467D01*
X101992464Y-138641000D01*
X101982037Y-138606627D01*
X101964641Y-138430000D01*
X101982037Y-138253373D01*
X102033557Y-138083534D01*
X102033557Y-138083533D01*
X102117221Y-137927011D01*
X102117222Y-137927009D01*
X102163532Y-137870580D01*
X102229814Y-137789814D01*
X102337584Y-137701371D01*
X102367009Y-137677222D01*
X102429793Y-137643663D01*
X102523533Y-137593557D01*
X102580147Y-137576384D01*
X102693373Y-137542037D01*
X102759557Y-137535519D01*
X102825740Y-137529000D01*
X102914260Y-137529000D01*
X102980443Y-137535519D01*
X102980443Y-137535519D01*
G37*
G36*
X105520443Y-137535519D02*
X105586627Y-137542037D01*
X105699853Y-137576384D01*
X105756467Y-137593557D01*
X105850207Y-137643663D01*
X105912991Y-137677222D01*
X105942416Y-137701371D01*
X106050186Y-137789814D01*
X106116468Y-137870580D01*
X106162778Y-137927009D01*
X106162779Y-137927011D01*
X106246443Y-138083533D01*
X106246443Y-138083534D01*
X106297963Y-138253373D01*
X106315359Y-138430000D01*
X106297963Y-138606627D01*
X106287536Y-138641000D01*
X106246443Y-138776467D01*
X106172348Y-138915087D01*
X106162778Y-138932991D01*
X106133448Y-138968729D01*
X106050186Y-139070186D01*
X105948729Y-139153448D01*
X105912991Y-139182778D01*
X105912989Y-139182779D01*
X105756467Y-139266443D01*
X105699853Y-139283616D01*
X105586627Y-139317963D01*
X105520443Y-139324481D01*
X105454260Y-139331000D01*
X105365740Y-139331000D01*
X105299557Y-139324481D01*
X105233373Y-139317963D01*
X105120147Y-139283616D01*
X105063533Y-139266443D01*
X104907011Y-139182779D01*
X104907009Y-139182778D01*
X104871271Y-139153448D01*
X104769814Y-139070186D01*
X104686552Y-138968729D01*
X104657222Y-138932991D01*
X104647652Y-138915087D01*
X104573557Y-138776467D01*
X104532464Y-138641000D01*
X104522037Y-138606627D01*
X104504641Y-138430000D01*
X104522037Y-138253373D01*
X104573557Y-138083534D01*
X104573557Y-138083533D01*
X104657221Y-137927011D01*
X104657222Y-137927009D01*
X104703532Y-137870580D01*
X104769814Y-137789814D01*
X104877584Y-137701371D01*
X104907009Y-137677222D01*
X104969793Y-137643663D01*
X105063533Y-137593557D01*
X105120147Y-137576384D01*
X105233373Y-137542037D01*
X105299557Y-137535519D01*
X105365740Y-137529000D01*
X105454260Y-137529000D01*
X105520443Y-137535519D01*
X105520443Y-137535519D01*
G37*
G36*
X108060443Y-137535519D02*
X108126627Y-137542037D01*
X108239853Y-137576384D01*
X108296467Y-137593557D01*
X108390207Y-137643663D01*
X108452991Y-137677222D01*
X108482416Y-137701371D01*
X108590186Y-137789814D01*
X108656468Y-137870580D01*
X108702778Y-137927009D01*
X108702779Y-137927011D01*
X108786443Y-138083533D01*
X108786443Y-138083534D01*
X108837963Y-138253373D01*
X108855359Y-138430000D01*
X108837963Y-138606627D01*
X108827536Y-138641000D01*
X108786443Y-138776467D01*
X108712348Y-138915087D01*
X108702778Y-138932991D01*
X108673448Y-138968729D01*
X108590186Y-139070186D01*
X108488729Y-139153448D01*
X108452991Y-139182778D01*
X108452989Y-139182779D01*
X108296467Y-139266443D01*
X108239853Y-139283616D01*
X108126627Y-139317963D01*
X108060443Y-139324481D01*
X107994260Y-139331000D01*
X107905740Y-139331000D01*
X107839557Y-139324481D01*
X107773373Y-139317963D01*
X107660147Y-139283616D01*
X107603533Y-139266443D01*
X107447011Y-139182779D01*
X107447009Y-139182778D01*
X107411271Y-139153448D01*
X107309814Y-139070186D01*
X107226552Y-138968729D01*
X107197222Y-138932991D01*
X107187652Y-138915087D01*
X107113557Y-138776467D01*
X107072464Y-138641000D01*
X107062037Y-138606627D01*
X107044641Y-138430000D01*
X107062037Y-138253373D01*
X107113557Y-138083534D01*
X107113557Y-138083533D01*
X107197221Y-137927011D01*
X107197222Y-137927009D01*
X107243532Y-137870580D01*
X107309814Y-137789814D01*
X107417584Y-137701371D01*
X107447009Y-137677222D01*
X107509793Y-137643663D01*
X107603533Y-137593557D01*
X107660147Y-137576384D01*
X107773373Y-137542037D01*
X107839557Y-137535519D01*
X107905740Y-137529000D01*
X107994260Y-137529000D01*
X108060443Y-137535519D01*
X108060443Y-137535519D01*
G37*
G36*
X115680443Y-137535519D02*
X115746627Y-137542037D01*
X115859853Y-137576384D01*
X115916467Y-137593557D01*
X116010207Y-137643663D01*
X116072991Y-137677222D01*
X116102416Y-137701371D01*
X116210186Y-137789814D01*
X116276468Y-137870580D01*
X116322778Y-137927009D01*
X116322779Y-137927011D01*
X116406443Y-138083533D01*
X116406443Y-138083534D01*
X116457963Y-138253373D01*
X116475359Y-138430000D01*
X116457963Y-138606627D01*
X116447536Y-138641000D01*
X116406443Y-138776467D01*
X116332348Y-138915087D01*
X116322778Y-138932991D01*
X116293448Y-138968729D01*
X116210186Y-139070186D01*
X116108729Y-139153448D01*
X116072991Y-139182778D01*
X116072989Y-139182779D01*
X115916467Y-139266443D01*
X115859853Y-139283616D01*
X115746627Y-139317963D01*
X115680443Y-139324481D01*
X115614260Y-139331000D01*
X115525740Y-139331000D01*
X115459557Y-139324481D01*
X115393373Y-139317963D01*
X115280147Y-139283616D01*
X115223533Y-139266443D01*
X115067011Y-139182779D01*
X115067009Y-139182778D01*
X115031271Y-139153448D01*
X114929814Y-139070186D01*
X114846552Y-138968729D01*
X114817222Y-138932991D01*
X114807652Y-138915087D01*
X114733557Y-138776467D01*
X114692464Y-138641000D01*
X114682037Y-138606627D01*
X114664641Y-138430000D01*
X114682037Y-138253373D01*
X114733557Y-138083534D01*
X114733557Y-138083533D01*
X114817221Y-137927011D01*
X114817222Y-137927009D01*
X114863532Y-137870580D01*
X114929814Y-137789814D01*
X115037584Y-137701371D01*
X115067009Y-137677222D01*
X115129793Y-137643663D01*
X115223533Y-137593557D01*
X115280147Y-137576384D01*
X115393373Y-137542037D01*
X115459557Y-137535519D01*
X115525740Y-137529000D01*
X115614260Y-137529000D01*
X115680443Y-137535519D01*
X115680443Y-137535519D01*
G37*
G36*
X118220443Y-137535519D02*
X118286627Y-137542037D01*
X118399853Y-137576384D01*
X118456467Y-137593557D01*
X118550207Y-137643663D01*
X118612991Y-137677222D01*
X118642416Y-137701371D01*
X118750186Y-137789814D01*
X118816468Y-137870580D01*
X118862778Y-137927009D01*
X118862779Y-137927011D01*
X118946443Y-138083533D01*
X118946443Y-138083534D01*
X118997963Y-138253373D01*
X119015359Y-138430000D01*
X118997963Y-138606627D01*
X118987536Y-138641000D01*
X118946443Y-138776467D01*
X118872348Y-138915087D01*
X118862778Y-138932991D01*
X118833448Y-138968729D01*
X118750186Y-139070186D01*
X118648729Y-139153448D01*
X118612991Y-139182778D01*
X118612989Y-139182779D01*
X118456467Y-139266443D01*
X118399853Y-139283616D01*
X118286627Y-139317963D01*
X118220443Y-139324481D01*
X118154260Y-139331000D01*
X118065740Y-139331000D01*
X117999557Y-139324481D01*
X117933373Y-139317963D01*
X117820147Y-139283616D01*
X117763533Y-139266443D01*
X117607011Y-139182779D01*
X117607009Y-139182778D01*
X117571271Y-139153448D01*
X117469814Y-139070186D01*
X117386552Y-138968729D01*
X117357222Y-138932991D01*
X117347652Y-138915087D01*
X117273557Y-138776467D01*
X117232464Y-138641000D01*
X117222037Y-138606627D01*
X117204641Y-138430000D01*
X117222037Y-138253373D01*
X117273557Y-138083534D01*
X117273557Y-138083533D01*
X117357221Y-137927011D01*
X117357222Y-137927009D01*
X117403532Y-137870580D01*
X117469814Y-137789814D01*
X117577584Y-137701371D01*
X117607009Y-137677222D01*
X117669793Y-137643663D01*
X117763533Y-137593557D01*
X117820147Y-137576384D01*
X117933373Y-137542037D01*
X117999557Y-137535519D01*
X118065740Y-137529000D01*
X118154260Y-137529000D01*
X118220443Y-137535519D01*
X118220443Y-137535519D01*
G37*
G36*
X120760443Y-137535519D02*
X120826627Y-137542037D01*
X120939853Y-137576384D01*
X120996467Y-137593557D01*
X121090207Y-137643663D01*
X121152991Y-137677222D01*
X121182416Y-137701371D01*
X121290186Y-137789814D01*
X121356468Y-137870580D01*
X121402778Y-137927009D01*
X121402779Y-137927011D01*
X121486443Y-138083533D01*
X121486443Y-138083534D01*
X121537963Y-138253373D01*
X121555359Y-138430000D01*
X121537963Y-138606627D01*
X121527536Y-138641000D01*
X121486443Y-138776467D01*
X121412348Y-138915087D01*
X121402778Y-138932991D01*
X121373448Y-138968729D01*
X121290186Y-139070186D01*
X121188729Y-139153448D01*
X121152991Y-139182778D01*
X121152989Y-139182779D01*
X120996467Y-139266443D01*
X120939853Y-139283616D01*
X120826627Y-139317963D01*
X120760443Y-139324481D01*
X120694260Y-139331000D01*
X120605740Y-139331000D01*
X120539557Y-139324481D01*
X120473373Y-139317963D01*
X120360147Y-139283616D01*
X120303533Y-139266443D01*
X120147011Y-139182779D01*
X120147009Y-139182778D01*
X120111271Y-139153448D01*
X120009814Y-139070186D01*
X119926552Y-138968729D01*
X119897222Y-138932991D01*
X119887652Y-138915087D01*
X119813557Y-138776467D01*
X119772464Y-138641000D01*
X119762037Y-138606627D01*
X119744641Y-138430000D01*
X119762037Y-138253373D01*
X119813557Y-138083534D01*
X119813557Y-138083533D01*
X119897221Y-137927011D01*
X119897222Y-137927009D01*
X119943532Y-137870580D01*
X120009814Y-137789814D01*
X120117584Y-137701371D01*
X120147009Y-137677222D01*
X120209793Y-137643663D01*
X120303533Y-137593557D01*
X120360147Y-137576384D01*
X120473373Y-137542037D01*
X120539557Y-137535519D01*
X120605740Y-137529000D01*
X120694260Y-137529000D01*
X120760443Y-137535519D01*
X120760443Y-137535519D01*
G37*
G36*
X123300443Y-137535519D02*
X123366627Y-137542037D01*
X123479853Y-137576384D01*
X123536467Y-137593557D01*
X123630207Y-137643663D01*
X123692991Y-137677222D01*
X123722416Y-137701371D01*
X123830186Y-137789814D01*
X123896468Y-137870580D01*
X123942778Y-137927009D01*
X123942779Y-137927011D01*
X124026443Y-138083533D01*
X124026443Y-138083534D01*
X124077963Y-138253373D01*
X124095359Y-138430000D01*
X124077963Y-138606627D01*
X124067536Y-138641000D01*
X124026443Y-138776467D01*
X123952348Y-138915087D01*
X123942778Y-138932991D01*
X123913448Y-138968729D01*
X123830186Y-139070186D01*
X123728729Y-139153448D01*
X123692991Y-139182778D01*
X123692989Y-139182779D01*
X123536467Y-139266443D01*
X123479853Y-139283616D01*
X123366627Y-139317963D01*
X123300443Y-139324481D01*
X123234260Y-139331000D01*
X123145740Y-139331000D01*
X123079557Y-139324481D01*
X123013373Y-139317963D01*
X122900147Y-139283616D01*
X122843533Y-139266443D01*
X122687011Y-139182779D01*
X122687009Y-139182778D01*
X122651271Y-139153448D01*
X122549814Y-139070186D01*
X122466552Y-138968729D01*
X122437222Y-138932991D01*
X122427652Y-138915087D01*
X122353557Y-138776467D01*
X122312464Y-138641000D01*
X122302037Y-138606627D01*
X122284641Y-138430000D01*
X122302037Y-138253373D01*
X122353557Y-138083534D01*
X122353557Y-138083533D01*
X122437221Y-137927011D01*
X122437222Y-137927009D01*
X122483532Y-137870580D01*
X122549814Y-137789814D01*
X122657584Y-137701371D01*
X122687009Y-137677222D01*
X122749793Y-137643663D01*
X122843533Y-137593557D01*
X122900147Y-137576384D01*
X123013373Y-137542037D01*
X123079557Y-137535519D01*
X123145740Y-137529000D01*
X123234260Y-137529000D01*
X123300443Y-137535519D01*
X123300443Y-137535519D01*
G37*
G36*
X125840443Y-137535519D02*
X125906627Y-137542037D01*
X126019853Y-137576384D01*
X126076467Y-137593557D01*
X126170207Y-137643663D01*
X126232991Y-137677222D01*
X126262416Y-137701371D01*
X126370186Y-137789814D01*
X126436468Y-137870580D01*
X126482778Y-137927009D01*
X126482779Y-137927011D01*
X126566443Y-138083533D01*
X126566443Y-138083534D01*
X126617963Y-138253373D01*
X126635359Y-138430000D01*
X126617963Y-138606627D01*
X126607536Y-138641000D01*
X126566443Y-138776467D01*
X126492348Y-138915087D01*
X126482778Y-138932991D01*
X126453448Y-138968729D01*
X126370186Y-139070186D01*
X126268729Y-139153448D01*
X126232991Y-139182778D01*
X126232989Y-139182779D01*
X126076467Y-139266443D01*
X126019853Y-139283616D01*
X125906627Y-139317963D01*
X125840443Y-139324481D01*
X125774260Y-139331000D01*
X125685740Y-139331000D01*
X125619557Y-139324481D01*
X125553373Y-139317963D01*
X125440147Y-139283616D01*
X125383533Y-139266443D01*
X125227011Y-139182779D01*
X125227009Y-139182778D01*
X125191271Y-139153448D01*
X125089814Y-139070186D01*
X125006552Y-138968729D01*
X124977222Y-138932991D01*
X124967652Y-138915087D01*
X124893557Y-138776467D01*
X124852464Y-138641000D01*
X124842037Y-138606627D01*
X124824641Y-138430000D01*
X124842037Y-138253373D01*
X124893557Y-138083534D01*
X124893557Y-138083533D01*
X124977221Y-137927011D01*
X124977222Y-137927009D01*
X125023532Y-137870580D01*
X125089814Y-137789814D01*
X125197584Y-137701371D01*
X125227009Y-137677222D01*
X125289793Y-137643663D01*
X125383533Y-137593557D01*
X125440147Y-137576384D01*
X125553373Y-137542037D01*
X125619557Y-137535519D01*
X125685740Y-137529000D01*
X125774260Y-137529000D01*
X125840443Y-137535519D01*
X125840443Y-137535519D01*
G37*
G36*
X128380443Y-137535519D02*
X128446627Y-137542037D01*
X128559853Y-137576384D01*
X128616467Y-137593557D01*
X128710207Y-137643663D01*
X128772991Y-137677222D01*
X128802416Y-137701371D01*
X128910186Y-137789814D01*
X128976468Y-137870580D01*
X129022778Y-137927009D01*
X129022779Y-137927011D01*
X129106443Y-138083533D01*
X129106443Y-138083534D01*
X129157963Y-138253373D01*
X129175359Y-138430000D01*
X129157963Y-138606627D01*
X129147536Y-138641000D01*
X129106443Y-138776467D01*
X129032348Y-138915087D01*
X129022778Y-138932991D01*
X128993448Y-138968729D01*
X128910186Y-139070186D01*
X128808729Y-139153448D01*
X128772991Y-139182778D01*
X128772989Y-139182779D01*
X128616467Y-139266443D01*
X128559853Y-139283616D01*
X128446627Y-139317963D01*
X128380443Y-139324481D01*
X128314260Y-139331000D01*
X128225740Y-139331000D01*
X128159557Y-139324481D01*
X128093373Y-139317963D01*
X127980147Y-139283616D01*
X127923533Y-139266443D01*
X127767011Y-139182779D01*
X127767009Y-139182778D01*
X127731271Y-139153448D01*
X127629814Y-139070186D01*
X127546552Y-138968729D01*
X127517222Y-138932991D01*
X127507652Y-138915087D01*
X127433557Y-138776467D01*
X127392464Y-138641000D01*
X127382037Y-138606627D01*
X127364641Y-138430000D01*
X127382037Y-138253373D01*
X127433557Y-138083534D01*
X127433557Y-138083533D01*
X127517221Y-137927011D01*
X127517222Y-137927009D01*
X127563532Y-137870580D01*
X127629814Y-137789814D01*
X127737584Y-137701371D01*
X127767009Y-137677222D01*
X127829793Y-137643663D01*
X127923533Y-137593557D01*
X127980147Y-137576384D01*
X128093373Y-137542037D01*
X128159557Y-137535519D01*
X128225740Y-137529000D01*
X128314260Y-137529000D01*
X128380443Y-137535519D01*
X128380443Y-137535519D01*
G37*
G36*
X113140443Y-137535519D02*
X113206627Y-137542037D01*
X113319853Y-137576384D01*
X113376467Y-137593557D01*
X113470207Y-137643663D01*
X113532991Y-137677222D01*
X113562416Y-137701371D01*
X113670186Y-137789814D01*
X113736468Y-137870580D01*
X113782778Y-137927009D01*
X113782779Y-137927011D01*
X113866443Y-138083533D01*
X113866443Y-138083534D01*
X113917963Y-138253373D01*
X113935359Y-138430000D01*
X113917963Y-138606627D01*
X113907536Y-138641000D01*
X113866443Y-138776467D01*
X113792348Y-138915087D01*
X113782778Y-138932991D01*
X113753448Y-138968729D01*
X113670186Y-139070186D01*
X113568729Y-139153448D01*
X113532991Y-139182778D01*
X113532989Y-139182779D01*
X113376467Y-139266443D01*
X113319853Y-139283616D01*
X113206627Y-139317963D01*
X113140443Y-139324481D01*
X113074260Y-139331000D01*
X112985740Y-139331000D01*
X112919557Y-139324481D01*
X112853373Y-139317963D01*
X112740147Y-139283616D01*
X112683533Y-139266443D01*
X112527011Y-139182779D01*
X112527009Y-139182778D01*
X112491271Y-139153448D01*
X112389814Y-139070186D01*
X112306552Y-138968729D01*
X112277222Y-138932991D01*
X112267652Y-138915087D01*
X112193557Y-138776467D01*
X112152464Y-138641000D01*
X112142037Y-138606627D01*
X112124641Y-138430000D01*
X112142037Y-138253373D01*
X112193557Y-138083534D01*
X112193557Y-138083533D01*
X112277221Y-137927011D01*
X112277222Y-137927009D01*
X112323532Y-137870580D01*
X112389814Y-137789814D01*
X112497584Y-137701371D01*
X112527009Y-137677222D01*
X112589793Y-137643663D01*
X112683533Y-137593557D01*
X112740147Y-137576384D01*
X112853373Y-137542037D01*
X112919557Y-137535519D01*
X112985740Y-137529000D01*
X113074260Y-137529000D01*
X113140443Y-137535519D01*
X113140443Y-137535519D01*
G37*
G36*
X136426694Y-133191860D02*
X136692437Y-133244719D01*
X137193087Y-133452095D01*
X137380774Y-133577504D01*
X137643663Y-133753161D01*
X138026839Y-134136337D01*
X138026841Y-134136340D01*
X138327905Y-134586913D01*
X138535281Y-135087563D01*
X138545159Y-135137222D01*
X138641000Y-135619049D01*
X138641000Y-136160951D01*
X138605186Y-136341000D01*
X138535281Y-136692437D01*
X138327905Y-137193087D01*
X138037636Y-137627504D01*
X138026839Y-137643663D01*
X137643663Y-138026839D01*
X137643660Y-138026841D01*
X137193087Y-138327905D01*
X136692437Y-138535281D01*
X136426693Y-138588141D01*
X136160951Y-138641000D01*
X135619049Y-138641000D01*
X135353307Y-138588141D01*
X135087563Y-138535281D01*
X134586913Y-138327905D01*
X134136340Y-138026841D01*
X134136337Y-138026839D01*
X133753161Y-137643663D01*
X133742364Y-137627504D01*
X133452095Y-137193087D01*
X133244719Y-136692437D01*
X133174814Y-136341000D01*
X133139000Y-136160951D01*
X133139000Y-135619049D01*
X133234841Y-135137222D01*
X133244719Y-135087563D01*
X133452095Y-134586913D01*
X133753159Y-134136340D01*
X133753161Y-134136337D01*
X134136337Y-133753161D01*
X134399226Y-133577504D01*
X134586913Y-133452095D01*
X135087563Y-133244719D01*
X135353306Y-133191860D01*
X135619049Y-133139000D01*
X136160951Y-133139000D01*
X136426694Y-133191860D01*
X136426694Y-133191860D01*
G37*
G36*
X88166694Y-133191860D02*
X88432437Y-133244719D01*
X88933087Y-133452095D01*
X89120774Y-133577504D01*
X89383663Y-133753161D01*
X89766839Y-134136337D01*
X89766841Y-134136340D01*
X90067905Y-134586913D01*
X90275281Y-135087563D01*
X90285159Y-135137222D01*
X90381000Y-135619049D01*
X90381000Y-136160951D01*
X90345186Y-136341000D01*
X90275281Y-136692437D01*
X90067905Y-137193087D01*
X89777636Y-137627504D01*
X89766839Y-137643663D01*
X89383663Y-138026839D01*
X89383660Y-138026841D01*
X88933087Y-138327905D01*
X88432437Y-138535281D01*
X88166693Y-138588141D01*
X87900951Y-138641000D01*
X87359049Y-138641000D01*
X87093307Y-138588141D01*
X86827563Y-138535281D01*
X86326913Y-138327905D01*
X85876340Y-138026841D01*
X85876337Y-138026839D01*
X85493161Y-137643663D01*
X85482364Y-137627504D01*
X85192095Y-137193087D01*
X84984719Y-136692437D01*
X84914814Y-136341000D01*
X84879000Y-136160951D01*
X84879000Y-135619049D01*
X84974841Y-135137222D01*
X84984719Y-135087563D01*
X85192095Y-134586913D01*
X85493159Y-134136340D01*
X85493161Y-134136337D01*
X85876337Y-133753161D01*
X86139226Y-133577504D01*
X86326913Y-133452095D01*
X86827563Y-133244719D01*
X87093306Y-133191860D01*
X87359049Y-133139000D01*
X87900951Y-133139000D01*
X88166694Y-133191860D01*
X88166694Y-133191860D01*
G37*
G36*
X125840442Y-134995518D02*
X125906627Y-135002037D01*
X126019853Y-135036384D01*
X126076467Y-135053557D01*
X126215087Y-135127652D01*
X126232991Y-135137222D01*
X126268729Y-135166552D01*
X126370186Y-135249814D01*
X126453448Y-135351271D01*
X126482778Y-135387009D01*
X126482779Y-135387011D01*
X126566443Y-135543533D01*
X126566443Y-135543534D01*
X126617963Y-135713373D01*
X126635359Y-135890000D01*
X126617963Y-136066627D01*
X126589350Y-136160950D01*
X126566443Y-136236467D01*
X126538004Y-136289671D01*
X126482778Y-136392991D01*
X126453448Y-136428729D01*
X126370186Y-136530186D01*
X126268729Y-136613448D01*
X126232991Y-136642778D01*
X126232989Y-136642779D01*
X126076467Y-136726443D01*
X126019853Y-136743616D01*
X125906627Y-136777963D01*
X125840442Y-136784482D01*
X125774260Y-136791000D01*
X125685740Y-136791000D01*
X125619558Y-136784482D01*
X125553373Y-136777963D01*
X125440147Y-136743616D01*
X125383533Y-136726443D01*
X125227011Y-136642779D01*
X125227009Y-136642778D01*
X125191271Y-136613448D01*
X125089814Y-136530186D01*
X125006552Y-136428729D01*
X124977222Y-136392991D01*
X124921996Y-136289671D01*
X124893557Y-136236467D01*
X124870650Y-136160950D01*
X124842037Y-136066627D01*
X124824641Y-135890000D01*
X124842037Y-135713373D01*
X124893557Y-135543534D01*
X124893557Y-135543533D01*
X124977221Y-135387011D01*
X124977222Y-135387009D01*
X125006552Y-135351271D01*
X125089814Y-135249814D01*
X125191271Y-135166552D01*
X125227009Y-135137222D01*
X125244913Y-135127652D01*
X125383533Y-135053557D01*
X125440147Y-135036384D01*
X125553373Y-135002037D01*
X125619558Y-134995518D01*
X125685740Y-134989000D01*
X125774260Y-134989000D01*
X125840442Y-134995518D01*
X125840442Y-134995518D01*
G37*
G36*
X118220442Y-134995518D02*
X118286627Y-135002037D01*
X118399853Y-135036384D01*
X118456467Y-135053557D01*
X118595087Y-135127652D01*
X118612991Y-135137222D01*
X118648729Y-135166552D01*
X118750186Y-135249814D01*
X118833448Y-135351271D01*
X118862778Y-135387009D01*
X118862779Y-135387011D01*
X118946443Y-135543533D01*
X118946443Y-135543534D01*
X118997963Y-135713373D01*
X119015359Y-135890000D01*
X118997963Y-136066627D01*
X118969350Y-136160950D01*
X118946443Y-136236467D01*
X118918004Y-136289671D01*
X118862778Y-136392991D01*
X118833448Y-136428729D01*
X118750186Y-136530186D01*
X118648729Y-136613448D01*
X118612991Y-136642778D01*
X118612989Y-136642779D01*
X118456467Y-136726443D01*
X118399853Y-136743616D01*
X118286627Y-136777963D01*
X118220442Y-136784482D01*
X118154260Y-136791000D01*
X118065740Y-136791000D01*
X117999558Y-136784482D01*
X117933373Y-136777963D01*
X117820147Y-136743616D01*
X117763533Y-136726443D01*
X117607011Y-136642779D01*
X117607009Y-136642778D01*
X117571271Y-136613448D01*
X117469814Y-136530186D01*
X117386552Y-136428729D01*
X117357222Y-136392991D01*
X117301996Y-136289671D01*
X117273557Y-136236467D01*
X117250650Y-136160950D01*
X117222037Y-136066627D01*
X117204641Y-135890000D01*
X117222037Y-135713373D01*
X117273557Y-135543534D01*
X117273557Y-135543533D01*
X117357221Y-135387011D01*
X117357222Y-135387009D01*
X117386552Y-135351271D01*
X117469814Y-135249814D01*
X117571271Y-135166552D01*
X117607009Y-135137222D01*
X117624913Y-135127652D01*
X117763533Y-135053557D01*
X117820147Y-135036384D01*
X117933373Y-135002037D01*
X117999558Y-134995518D01*
X118065740Y-134989000D01*
X118154260Y-134989000D01*
X118220442Y-134995518D01*
X118220442Y-134995518D01*
G37*
G36*
X123300442Y-134995518D02*
X123366627Y-135002037D01*
X123479853Y-135036384D01*
X123536467Y-135053557D01*
X123675087Y-135127652D01*
X123692991Y-135137222D01*
X123728729Y-135166552D01*
X123830186Y-135249814D01*
X123913448Y-135351271D01*
X123942778Y-135387009D01*
X123942779Y-135387011D01*
X124026443Y-135543533D01*
X124026443Y-135543534D01*
X124077963Y-135713373D01*
X124095359Y-135890000D01*
X124077963Y-136066627D01*
X124049350Y-136160950D01*
X124026443Y-136236467D01*
X123998004Y-136289671D01*
X123942778Y-136392991D01*
X123913448Y-136428729D01*
X123830186Y-136530186D01*
X123728729Y-136613448D01*
X123692991Y-136642778D01*
X123692989Y-136642779D01*
X123536467Y-136726443D01*
X123479853Y-136743616D01*
X123366627Y-136777963D01*
X123300442Y-136784482D01*
X123234260Y-136791000D01*
X123145740Y-136791000D01*
X123079558Y-136784482D01*
X123013373Y-136777963D01*
X122900147Y-136743616D01*
X122843533Y-136726443D01*
X122687011Y-136642779D01*
X122687009Y-136642778D01*
X122651271Y-136613448D01*
X122549814Y-136530186D01*
X122466552Y-136428729D01*
X122437222Y-136392991D01*
X122381996Y-136289671D01*
X122353557Y-136236467D01*
X122330650Y-136160950D01*
X122302037Y-136066627D01*
X122284641Y-135890000D01*
X122302037Y-135713373D01*
X122353557Y-135543534D01*
X122353557Y-135543533D01*
X122437221Y-135387011D01*
X122437222Y-135387009D01*
X122466552Y-135351271D01*
X122549814Y-135249814D01*
X122651271Y-135166552D01*
X122687009Y-135137222D01*
X122704913Y-135127652D01*
X122843533Y-135053557D01*
X122900147Y-135036384D01*
X123013373Y-135002037D01*
X123079558Y-134995518D01*
X123145740Y-134989000D01*
X123234260Y-134989000D01*
X123300442Y-134995518D01*
X123300442Y-134995518D01*
G37*
G36*
X115680442Y-134995518D02*
X115746627Y-135002037D01*
X115859853Y-135036384D01*
X115916467Y-135053557D01*
X116055087Y-135127652D01*
X116072991Y-135137222D01*
X116108729Y-135166552D01*
X116210186Y-135249814D01*
X116293448Y-135351271D01*
X116322778Y-135387009D01*
X116322779Y-135387011D01*
X116406443Y-135543533D01*
X116406443Y-135543534D01*
X116457963Y-135713373D01*
X116475359Y-135890000D01*
X116457963Y-136066627D01*
X116429350Y-136160950D01*
X116406443Y-136236467D01*
X116378004Y-136289671D01*
X116322778Y-136392991D01*
X116293448Y-136428729D01*
X116210186Y-136530186D01*
X116108729Y-136613448D01*
X116072991Y-136642778D01*
X116072989Y-136642779D01*
X115916467Y-136726443D01*
X115859853Y-136743616D01*
X115746627Y-136777963D01*
X115680442Y-136784482D01*
X115614260Y-136791000D01*
X115525740Y-136791000D01*
X115459558Y-136784482D01*
X115393373Y-136777963D01*
X115280147Y-136743616D01*
X115223533Y-136726443D01*
X115067011Y-136642779D01*
X115067009Y-136642778D01*
X115031271Y-136613448D01*
X114929814Y-136530186D01*
X114846552Y-136428729D01*
X114817222Y-136392991D01*
X114761996Y-136289671D01*
X114733557Y-136236467D01*
X114710650Y-136160950D01*
X114682037Y-136066627D01*
X114664641Y-135890000D01*
X114682037Y-135713373D01*
X114733557Y-135543534D01*
X114733557Y-135543533D01*
X114817221Y-135387011D01*
X114817222Y-135387009D01*
X114846552Y-135351271D01*
X114929814Y-135249814D01*
X115031271Y-135166552D01*
X115067009Y-135137222D01*
X115084913Y-135127652D01*
X115223533Y-135053557D01*
X115280147Y-135036384D01*
X115393373Y-135002037D01*
X115459558Y-134995518D01*
X115525740Y-134989000D01*
X115614260Y-134989000D01*
X115680442Y-134995518D01*
X115680442Y-134995518D01*
G37*
G36*
X113140442Y-134995518D02*
X113206627Y-135002037D01*
X113319853Y-135036384D01*
X113376467Y-135053557D01*
X113515087Y-135127652D01*
X113532991Y-135137222D01*
X113568729Y-135166552D01*
X113670186Y-135249814D01*
X113753448Y-135351271D01*
X113782778Y-135387009D01*
X113782779Y-135387011D01*
X113866443Y-135543533D01*
X113866443Y-135543534D01*
X113917963Y-135713373D01*
X113935359Y-135890000D01*
X113917963Y-136066627D01*
X113889350Y-136160950D01*
X113866443Y-136236467D01*
X113838004Y-136289671D01*
X113782778Y-136392991D01*
X113753448Y-136428729D01*
X113670186Y-136530186D01*
X113568729Y-136613448D01*
X113532991Y-136642778D01*
X113532989Y-136642779D01*
X113376467Y-136726443D01*
X113319853Y-136743616D01*
X113206627Y-136777963D01*
X113140442Y-136784482D01*
X113074260Y-136791000D01*
X112985740Y-136791000D01*
X112919558Y-136784482D01*
X112853373Y-136777963D01*
X112740147Y-136743616D01*
X112683533Y-136726443D01*
X112527011Y-136642779D01*
X112527009Y-136642778D01*
X112491271Y-136613448D01*
X112389814Y-136530186D01*
X112306552Y-136428729D01*
X112277222Y-136392991D01*
X112221996Y-136289671D01*
X112193557Y-136236467D01*
X112170650Y-136160950D01*
X112142037Y-136066627D01*
X112124641Y-135890000D01*
X112142037Y-135713373D01*
X112193557Y-135543534D01*
X112193557Y-135543533D01*
X112277221Y-135387011D01*
X112277222Y-135387009D01*
X112306552Y-135351271D01*
X112389814Y-135249814D01*
X112491271Y-135166552D01*
X112527009Y-135137222D01*
X112544913Y-135127652D01*
X112683533Y-135053557D01*
X112740147Y-135036384D01*
X112853373Y-135002037D01*
X112919558Y-134995518D01*
X112985740Y-134989000D01*
X113074260Y-134989000D01*
X113140442Y-134995518D01*
X113140442Y-134995518D01*
G37*
G36*
X128380442Y-134995518D02*
X128446627Y-135002037D01*
X128559853Y-135036384D01*
X128616467Y-135053557D01*
X128755087Y-135127652D01*
X128772991Y-135137222D01*
X128808729Y-135166552D01*
X128910186Y-135249814D01*
X128993448Y-135351271D01*
X129022778Y-135387009D01*
X129022779Y-135387011D01*
X129106443Y-135543533D01*
X129106443Y-135543534D01*
X129157963Y-135713373D01*
X129175359Y-135890000D01*
X129157963Y-136066627D01*
X129129350Y-136160950D01*
X129106443Y-136236467D01*
X129078004Y-136289671D01*
X129022778Y-136392991D01*
X128993448Y-136428729D01*
X128910186Y-136530186D01*
X128808729Y-136613448D01*
X128772991Y-136642778D01*
X128772989Y-136642779D01*
X128616467Y-136726443D01*
X128559853Y-136743616D01*
X128446627Y-136777963D01*
X128380442Y-136784482D01*
X128314260Y-136791000D01*
X128225740Y-136791000D01*
X128159558Y-136784482D01*
X128093373Y-136777963D01*
X127980147Y-136743616D01*
X127923533Y-136726443D01*
X127767011Y-136642779D01*
X127767009Y-136642778D01*
X127731271Y-136613448D01*
X127629814Y-136530186D01*
X127546552Y-136428729D01*
X127517222Y-136392991D01*
X127461996Y-136289671D01*
X127433557Y-136236467D01*
X127410650Y-136160950D01*
X127382037Y-136066627D01*
X127364641Y-135890000D01*
X127382037Y-135713373D01*
X127433557Y-135543534D01*
X127433557Y-135543533D01*
X127517221Y-135387011D01*
X127517222Y-135387009D01*
X127546552Y-135351271D01*
X127629814Y-135249814D01*
X127731271Y-135166552D01*
X127767009Y-135137222D01*
X127784913Y-135127652D01*
X127923533Y-135053557D01*
X127980147Y-135036384D01*
X128093373Y-135002037D01*
X128159558Y-134995518D01*
X128225740Y-134989000D01*
X128314260Y-134989000D01*
X128380442Y-134995518D01*
X128380442Y-134995518D01*
G37*
G36*
X110600442Y-134995518D02*
X110666627Y-135002037D01*
X110779853Y-135036384D01*
X110836467Y-135053557D01*
X110975087Y-135127652D01*
X110992991Y-135137222D01*
X111028729Y-135166552D01*
X111130186Y-135249814D01*
X111213448Y-135351271D01*
X111242778Y-135387009D01*
X111242779Y-135387011D01*
X111326443Y-135543533D01*
X111326443Y-135543534D01*
X111377963Y-135713373D01*
X111395359Y-135890000D01*
X111377963Y-136066627D01*
X111349350Y-136160950D01*
X111326443Y-136236467D01*
X111298004Y-136289671D01*
X111242778Y-136392991D01*
X111213448Y-136428729D01*
X111130186Y-136530186D01*
X111028729Y-136613448D01*
X110992991Y-136642778D01*
X110992989Y-136642779D01*
X110836467Y-136726443D01*
X110779853Y-136743616D01*
X110666627Y-136777963D01*
X110600442Y-136784482D01*
X110534260Y-136791000D01*
X110445740Y-136791000D01*
X110379558Y-136784482D01*
X110313373Y-136777963D01*
X110200147Y-136743616D01*
X110143533Y-136726443D01*
X109987011Y-136642779D01*
X109987009Y-136642778D01*
X109951271Y-136613448D01*
X109849814Y-136530186D01*
X109766552Y-136428729D01*
X109737222Y-136392991D01*
X109681996Y-136289671D01*
X109653557Y-136236467D01*
X109630650Y-136160950D01*
X109602037Y-136066627D01*
X109584641Y-135890000D01*
X109602037Y-135713373D01*
X109653557Y-135543534D01*
X109653557Y-135543533D01*
X109737221Y-135387011D01*
X109737222Y-135387009D01*
X109766552Y-135351271D01*
X109849814Y-135249814D01*
X109951271Y-135166552D01*
X109987009Y-135137222D01*
X110004913Y-135127652D01*
X110143533Y-135053557D01*
X110200147Y-135036384D01*
X110313373Y-135002037D01*
X110379558Y-134995518D01*
X110445740Y-134989000D01*
X110534260Y-134989000D01*
X110600442Y-134995518D01*
X110600442Y-134995518D01*
G37*
G36*
X120760442Y-134995518D02*
X120826627Y-135002037D01*
X120939853Y-135036384D01*
X120996467Y-135053557D01*
X121135087Y-135127652D01*
X121152991Y-135137222D01*
X121188729Y-135166552D01*
X121290186Y-135249814D01*
X121373448Y-135351271D01*
X121402778Y-135387009D01*
X121402779Y-135387011D01*
X121486443Y-135543533D01*
X121486443Y-135543534D01*
X121537963Y-135713373D01*
X121555359Y-135890000D01*
X121537963Y-136066627D01*
X121509350Y-136160950D01*
X121486443Y-136236467D01*
X121458004Y-136289671D01*
X121402778Y-136392991D01*
X121373448Y-136428729D01*
X121290186Y-136530186D01*
X121188729Y-136613448D01*
X121152991Y-136642778D01*
X121152989Y-136642779D01*
X120996467Y-136726443D01*
X120939853Y-136743616D01*
X120826627Y-136777963D01*
X120760442Y-136784482D01*
X120694260Y-136791000D01*
X120605740Y-136791000D01*
X120539558Y-136784482D01*
X120473373Y-136777963D01*
X120360147Y-136743616D01*
X120303533Y-136726443D01*
X120147011Y-136642779D01*
X120147009Y-136642778D01*
X120111271Y-136613448D01*
X120009814Y-136530186D01*
X119926552Y-136428729D01*
X119897222Y-136392991D01*
X119841996Y-136289671D01*
X119813557Y-136236467D01*
X119790650Y-136160950D01*
X119762037Y-136066627D01*
X119744641Y-135890000D01*
X119762037Y-135713373D01*
X119813557Y-135543534D01*
X119813557Y-135543533D01*
X119897221Y-135387011D01*
X119897222Y-135387009D01*
X119926552Y-135351271D01*
X120009814Y-135249814D01*
X120111271Y-135166552D01*
X120147009Y-135137222D01*
X120164913Y-135127652D01*
X120303533Y-135053557D01*
X120360147Y-135036384D01*
X120473373Y-135002037D01*
X120539558Y-134995518D01*
X120605740Y-134989000D01*
X120694260Y-134989000D01*
X120760442Y-134995518D01*
X120760442Y-134995518D01*
G37*
G36*
X105520442Y-134995518D02*
X105586627Y-135002037D01*
X105699853Y-135036384D01*
X105756467Y-135053557D01*
X105895087Y-135127652D01*
X105912991Y-135137222D01*
X105948729Y-135166552D01*
X106050186Y-135249814D01*
X106133448Y-135351271D01*
X106162778Y-135387009D01*
X106162779Y-135387011D01*
X106246443Y-135543533D01*
X106246443Y-135543534D01*
X106297963Y-135713373D01*
X106315359Y-135890000D01*
X106297963Y-136066627D01*
X106269350Y-136160950D01*
X106246443Y-136236467D01*
X106218004Y-136289671D01*
X106162778Y-136392991D01*
X106133448Y-136428729D01*
X106050186Y-136530186D01*
X105948729Y-136613448D01*
X105912991Y-136642778D01*
X105912989Y-136642779D01*
X105756467Y-136726443D01*
X105699853Y-136743616D01*
X105586627Y-136777963D01*
X105520442Y-136784482D01*
X105454260Y-136791000D01*
X105365740Y-136791000D01*
X105299558Y-136784482D01*
X105233373Y-136777963D01*
X105120147Y-136743616D01*
X105063533Y-136726443D01*
X104907011Y-136642779D01*
X104907009Y-136642778D01*
X104871271Y-136613448D01*
X104769814Y-136530186D01*
X104686552Y-136428729D01*
X104657222Y-136392991D01*
X104601996Y-136289671D01*
X104573557Y-136236467D01*
X104550650Y-136160950D01*
X104522037Y-136066627D01*
X104504641Y-135890000D01*
X104522037Y-135713373D01*
X104573557Y-135543534D01*
X104573557Y-135543533D01*
X104657221Y-135387011D01*
X104657222Y-135387009D01*
X104686552Y-135351271D01*
X104769814Y-135249814D01*
X104871271Y-135166552D01*
X104907009Y-135137222D01*
X104924913Y-135127652D01*
X105063533Y-135053557D01*
X105120147Y-135036384D01*
X105233373Y-135002037D01*
X105299558Y-134995518D01*
X105365740Y-134989000D01*
X105454260Y-134989000D01*
X105520442Y-134995518D01*
X105520442Y-134995518D01*
G37*
G36*
X108060442Y-134995518D02*
X108126627Y-135002037D01*
X108239853Y-135036384D01*
X108296467Y-135053557D01*
X108435087Y-135127652D01*
X108452991Y-135137222D01*
X108488729Y-135166552D01*
X108590186Y-135249814D01*
X108673448Y-135351271D01*
X108702778Y-135387009D01*
X108702779Y-135387011D01*
X108786443Y-135543533D01*
X108786443Y-135543534D01*
X108837963Y-135713373D01*
X108855359Y-135890000D01*
X108837963Y-136066627D01*
X108809350Y-136160950D01*
X108786443Y-136236467D01*
X108758004Y-136289671D01*
X108702778Y-136392991D01*
X108673448Y-136428729D01*
X108590186Y-136530186D01*
X108488729Y-136613448D01*
X108452991Y-136642778D01*
X108452989Y-136642779D01*
X108296467Y-136726443D01*
X108239853Y-136743616D01*
X108126627Y-136777963D01*
X108060442Y-136784482D01*
X107994260Y-136791000D01*
X107905740Y-136791000D01*
X107839558Y-136784482D01*
X107773373Y-136777963D01*
X107660147Y-136743616D01*
X107603533Y-136726443D01*
X107447011Y-136642779D01*
X107447009Y-136642778D01*
X107411271Y-136613448D01*
X107309814Y-136530186D01*
X107226552Y-136428729D01*
X107197222Y-136392991D01*
X107141996Y-136289671D01*
X107113557Y-136236467D01*
X107090650Y-136160950D01*
X107062037Y-136066627D01*
X107044641Y-135890000D01*
X107062037Y-135713373D01*
X107113557Y-135543534D01*
X107113557Y-135543533D01*
X107197221Y-135387011D01*
X107197222Y-135387009D01*
X107226552Y-135351271D01*
X107309814Y-135249814D01*
X107411271Y-135166552D01*
X107447009Y-135137222D01*
X107464913Y-135127652D01*
X107603533Y-135053557D01*
X107660147Y-135036384D01*
X107773373Y-135002037D01*
X107839558Y-134995518D01*
X107905740Y-134989000D01*
X107994260Y-134989000D01*
X108060442Y-134995518D01*
X108060442Y-134995518D01*
G37*
G36*
X92820442Y-134995518D02*
X92886627Y-135002037D01*
X92999853Y-135036384D01*
X93056467Y-135053557D01*
X93195087Y-135127652D01*
X93212991Y-135137222D01*
X93248729Y-135166552D01*
X93350186Y-135249814D01*
X93433448Y-135351271D01*
X93462778Y-135387009D01*
X93462779Y-135387011D01*
X93546443Y-135543533D01*
X93546443Y-135543534D01*
X93597963Y-135713373D01*
X93615359Y-135890000D01*
X93597963Y-136066627D01*
X93569350Y-136160950D01*
X93546443Y-136236467D01*
X93518004Y-136289671D01*
X93462778Y-136392991D01*
X93433448Y-136428729D01*
X93350186Y-136530186D01*
X93248729Y-136613448D01*
X93212991Y-136642778D01*
X93212989Y-136642779D01*
X93056467Y-136726443D01*
X92999853Y-136743616D01*
X92886627Y-136777963D01*
X92820442Y-136784482D01*
X92754260Y-136791000D01*
X92665740Y-136791000D01*
X92599558Y-136784482D01*
X92533373Y-136777963D01*
X92420147Y-136743616D01*
X92363533Y-136726443D01*
X92207011Y-136642779D01*
X92207009Y-136642778D01*
X92171271Y-136613448D01*
X92069814Y-136530186D01*
X91986552Y-136428729D01*
X91957222Y-136392991D01*
X91901996Y-136289671D01*
X91873557Y-136236467D01*
X91850650Y-136160950D01*
X91822037Y-136066627D01*
X91804641Y-135890000D01*
X91822037Y-135713373D01*
X91873557Y-135543534D01*
X91873557Y-135543533D01*
X91957221Y-135387011D01*
X91957222Y-135387009D01*
X91986552Y-135351271D01*
X92069814Y-135249814D01*
X92171271Y-135166552D01*
X92207009Y-135137222D01*
X92224913Y-135127652D01*
X92363533Y-135053557D01*
X92420147Y-135036384D01*
X92533373Y-135002037D01*
X92599558Y-134995518D01*
X92665740Y-134989000D01*
X92754260Y-134989000D01*
X92820442Y-134995518D01*
X92820442Y-134995518D01*
G37*
G36*
X95360442Y-134995518D02*
X95426627Y-135002037D01*
X95539853Y-135036384D01*
X95596467Y-135053557D01*
X95735087Y-135127652D01*
X95752991Y-135137222D01*
X95788729Y-135166552D01*
X95890186Y-135249814D01*
X95973448Y-135351271D01*
X96002778Y-135387009D01*
X96002779Y-135387011D01*
X96086443Y-135543533D01*
X96086443Y-135543534D01*
X96137963Y-135713373D01*
X96155359Y-135890000D01*
X96137963Y-136066627D01*
X96109350Y-136160950D01*
X96086443Y-136236467D01*
X96058004Y-136289671D01*
X96002778Y-136392991D01*
X95973448Y-136428729D01*
X95890186Y-136530186D01*
X95788729Y-136613448D01*
X95752991Y-136642778D01*
X95752989Y-136642779D01*
X95596467Y-136726443D01*
X95539853Y-136743616D01*
X95426627Y-136777963D01*
X95360442Y-136784482D01*
X95294260Y-136791000D01*
X95205740Y-136791000D01*
X95139558Y-136784482D01*
X95073373Y-136777963D01*
X94960147Y-136743616D01*
X94903533Y-136726443D01*
X94747011Y-136642779D01*
X94747009Y-136642778D01*
X94711271Y-136613448D01*
X94609814Y-136530186D01*
X94526552Y-136428729D01*
X94497222Y-136392991D01*
X94441996Y-136289671D01*
X94413557Y-136236467D01*
X94390650Y-136160950D01*
X94362037Y-136066627D01*
X94344641Y-135890000D01*
X94362037Y-135713373D01*
X94413557Y-135543534D01*
X94413557Y-135543533D01*
X94497221Y-135387011D01*
X94497222Y-135387009D01*
X94526552Y-135351271D01*
X94609814Y-135249814D01*
X94711271Y-135166552D01*
X94747009Y-135137222D01*
X94764913Y-135127652D01*
X94903533Y-135053557D01*
X94960147Y-135036384D01*
X95073373Y-135002037D01*
X95139558Y-134995518D01*
X95205740Y-134989000D01*
X95294260Y-134989000D01*
X95360442Y-134995518D01*
X95360442Y-134995518D01*
G37*
G36*
X97900442Y-134995518D02*
X97966627Y-135002037D01*
X98079853Y-135036384D01*
X98136467Y-135053557D01*
X98275087Y-135127652D01*
X98292991Y-135137222D01*
X98328729Y-135166552D01*
X98430186Y-135249814D01*
X98513448Y-135351271D01*
X98542778Y-135387009D01*
X98542779Y-135387011D01*
X98626443Y-135543533D01*
X98626443Y-135543534D01*
X98677963Y-135713373D01*
X98695359Y-135890000D01*
X98677963Y-136066627D01*
X98649350Y-136160950D01*
X98626443Y-136236467D01*
X98598004Y-136289671D01*
X98542778Y-136392991D01*
X98513448Y-136428729D01*
X98430186Y-136530186D01*
X98328729Y-136613448D01*
X98292991Y-136642778D01*
X98292989Y-136642779D01*
X98136467Y-136726443D01*
X98079853Y-136743616D01*
X97966627Y-136777963D01*
X97900442Y-136784482D01*
X97834260Y-136791000D01*
X97745740Y-136791000D01*
X97679558Y-136784482D01*
X97613373Y-136777963D01*
X97500147Y-136743616D01*
X97443533Y-136726443D01*
X97287011Y-136642779D01*
X97287009Y-136642778D01*
X97251271Y-136613448D01*
X97149814Y-136530186D01*
X97066552Y-136428729D01*
X97037222Y-136392991D01*
X96981996Y-136289671D01*
X96953557Y-136236467D01*
X96930650Y-136160950D01*
X96902037Y-136066627D01*
X96884641Y-135890000D01*
X96902037Y-135713373D01*
X96953557Y-135543534D01*
X96953557Y-135543533D01*
X97037221Y-135387011D01*
X97037222Y-135387009D01*
X97066552Y-135351271D01*
X97149814Y-135249814D01*
X97251271Y-135166552D01*
X97287009Y-135137222D01*
X97304913Y-135127652D01*
X97443533Y-135053557D01*
X97500147Y-135036384D01*
X97613373Y-135002037D01*
X97679558Y-134995518D01*
X97745740Y-134989000D01*
X97834260Y-134989000D01*
X97900442Y-134995518D01*
X97900442Y-134995518D01*
G37*
G36*
X130920442Y-134995518D02*
X130986627Y-135002037D01*
X131099853Y-135036384D01*
X131156467Y-135053557D01*
X131295087Y-135127652D01*
X131312991Y-135137222D01*
X131348729Y-135166552D01*
X131450186Y-135249814D01*
X131533448Y-135351271D01*
X131562778Y-135387009D01*
X131562779Y-135387011D01*
X131646443Y-135543533D01*
X131646443Y-135543534D01*
X131697963Y-135713373D01*
X131715359Y-135890000D01*
X131697963Y-136066627D01*
X131669350Y-136160950D01*
X131646443Y-136236467D01*
X131618004Y-136289671D01*
X131562778Y-136392991D01*
X131533448Y-136428729D01*
X131450186Y-136530186D01*
X131348729Y-136613448D01*
X131312991Y-136642778D01*
X131312989Y-136642779D01*
X131156467Y-136726443D01*
X131099853Y-136743616D01*
X130986627Y-136777963D01*
X130920442Y-136784482D01*
X130854260Y-136791000D01*
X130765740Y-136791000D01*
X130699558Y-136784482D01*
X130633373Y-136777963D01*
X130520147Y-136743616D01*
X130463533Y-136726443D01*
X130307011Y-136642779D01*
X130307009Y-136642778D01*
X130271271Y-136613448D01*
X130169814Y-136530186D01*
X130086552Y-136428729D01*
X130057222Y-136392991D01*
X130001996Y-136289671D01*
X129973557Y-136236467D01*
X129950650Y-136160950D01*
X129922037Y-136066627D01*
X129904641Y-135890000D01*
X129922037Y-135713373D01*
X129973557Y-135543534D01*
X129973557Y-135543533D01*
X130057221Y-135387011D01*
X130057222Y-135387009D01*
X130086552Y-135351271D01*
X130169814Y-135249814D01*
X130271271Y-135166552D01*
X130307009Y-135137222D01*
X130324913Y-135127652D01*
X130463533Y-135053557D01*
X130520147Y-135036384D01*
X130633373Y-135002037D01*
X130699558Y-134995518D01*
X130765740Y-134989000D01*
X130854260Y-134989000D01*
X130920442Y-134995518D01*
X130920442Y-134995518D01*
G37*
G36*
X100440442Y-134995518D02*
X100506627Y-135002037D01*
X100619853Y-135036384D01*
X100676467Y-135053557D01*
X100815087Y-135127652D01*
X100832991Y-135137222D01*
X100868729Y-135166552D01*
X100970186Y-135249814D01*
X101053448Y-135351271D01*
X101082778Y-135387009D01*
X101082779Y-135387011D01*
X101166443Y-135543533D01*
X101166443Y-135543534D01*
X101217963Y-135713373D01*
X101235359Y-135890000D01*
X101217963Y-136066627D01*
X101189350Y-136160950D01*
X101166443Y-136236467D01*
X101138004Y-136289671D01*
X101082778Y-136392991D01*
X101053448Y-136428729D01*
X100970186Y-136530186D01*
X100868729Y-136613448D01*
X100832991Y-136642778D01*
X100832989Y-136642779D01*
X100676467Y-136726443D01*
X100619853Y-136743616D01*
X100506627Y-136777963D01*
X100440442Y-136784482D01*
X100374260Y-136791000D01*
X100285740Y-136791000D01*
X100219558Y-136784482D01*
X100153373Y-136777963D01*
X100040147Y-136743616D01*
X99983533Y-136726443D01*
X99827011Y-136642779D01*
X99827009Y-136642778D01*
X99791271Y-136613448D01*
X99689814Y-136530186D01*
X99606552Y-136428729D01*
X99577222Y-136392991D01*
X99521996Y-136289671D01*
X99493557Y-136236467D01*
X99470650Y-136160950D01*
X99442037Y-136066627D01*
X99424641Y-135890000D01*
X99442037Y-135713373D01*
X99493557Y-135543534D01*
X99493557Y-135543533D01*
X99577221Y-135387011D01*
X99577222Y-135387009D01*
X99606552Y-135351271D01*
X99689814Y-135249814D01*
X99791271Y-135166552D01*
X99827009Y-135137222D01*
X99844913Y-135127652D01*
X99983533Y-135053557D01*
X100040147Y-135036384D01*
X100153373Y-135002037D01*
X100219558Y-134995518D01*
X100285740Y-134989000D01*
X100374260Y-134989000D01*
X100440442Y-134995518D01*
X100440442Y-134995518D01*
G37*
G36*
X102980442Y-134995518D02*
X103046627Y-135002037D01*
X103159853Y-135036384D01*
X103216467Y-135053557D01*
X103355087Y-135127652D01*
X103372991Y-135137222D01*
X103408729Y-135166552D01*
X103510186Y-135249814D01*
X103593448Y-135351271D01*
X103622778Y-135387009D01*
X103622779Y-135387011D01*
X103706443Y-135543533D01*
X103706443Y-135543534D01*
X103757963Y-135713373D01*
X103775359Y-135890000D01*
X103757963Y-136066627D01*
X103729350Y-136160950D01*
X103706443Y-136236467D01*
X103678004Y-136289671D01*
X103622778Y-136392991D01*
X103593448Y-136428729D01*
X103510186Y-136530186D01*
X103408729Y-136613448D01*
X103372991Y-136642778D01*
X103372989Y-136642779D01*
X103216467Y-136726443D01*
X103159853Y-136743616D01*
X103046627Y-136777963D01*
X102980442Y-136784482D01*
X102914260Y-136791000D01*
X102825740Y-136791000D01*
X102759558Y-136784482D01*
X102693373Y-136777963D01*
X102580147Y-136743616D01*
X102523533Y-136726443D01*
X102367011Y-136642779D01*
X102367009Y-136642778D01*
X102331271Y-136613448D01*
X102229814Y-136530186D01*
X102146552Y-136428729D01*
X102117222Y-136392991D01*
X102061996Y-136289671D01*
X102033557Y-136236467D01*
X102010650Y-136160950D01*
X101982037Y-136066627D01*
X101964641Y-135890000D01*
X101982037Y-135713373D01*
X102033557Y-135543534D01*
X102033557Y-135543533D01*
X102117221Y-135387011D01*
X102117222Y-135387009D01*
X102146552Y-135351271D01*
X102229814Y-135249814D01*
X102331271Y-135166552D01*
X102367009Y-135137222D01*
X102384913Y-135127652D01*
X102523533Y-135053557D01*
X102580147Y-135036384D01*
X102693373Y-135002037D01*
X102759558Y-134995518D01*
X102825740Y-134989000D01*
X102914260Y-134989000D01*
X102980442Y-134995518D01*
X102980442Y-134995518D01*
G37*
G36*
X92820442Y-127375518D02*
X92886627Y-127382037D01*
X92999853Y-127416384D01*
X93056467Y-127433557D01*
X93143311Y-127479977D01*
X93212991Y-127517222D01*
X93248729Y-127546552D01*
X93350186Y-127629814D01*
X93433448Y-127731271D01*
X93462778Y-127767009D01*
X93462779Y-127767011D01*
X93546443Y-127923533D01*
X93563616Y-127980147D01*
X93597963Y-128093373D01*
X93615359Y-128270000D01*
X93597963Y-128446627D01*
X93563616Y-128559853D01*
X93546443Y-128616467D01*
X93477698Y-128745078D01*
X93462778Y-128772991D01*
X93433448Y-128808729D01*
X93350186Y-128910186D01*
X93248729Y-128993448D01*
X93212991Y-129022778D01*
X93212989Y-129022779D01*
X93056467Y-129106443D01*
X93049069Y-129108687D01*
X92886627Y-129157963D01*
X92820442Y-129164482D01*
X92754260Y-129171000D01*
X92665740Y-129171000D01*
X92599558Y-129164482D01*
X92533373Y-129157963D01*
X92370931Y-129108687D01*
X92363533Y-129106443D01*
X92207011Y-129022779D01*
X92207009Y-129022778D01*
X92171271Y-128993448D01*
X92069814Y-128910186D01*
X91986552Y-128808729D01*
X91957222Y-128772991D01*
X91942302Y-128745078D01*
X91873557Y-128616467D01*
X91856384Y-128559853D01*
X91822037Y-128446627D01*
X91804641Y-128270000D01*
X91822037Y-128093373D01*
X91856384Y-127980147D01*
X91873557Y-127923533D01*
X91957221Y-127767011D01*
X91957222Y-127767009D01*
X91986552Y-127731271D01*
X92069814Y-127629814D01*
X92171271Y-127546552D01*
X92207009Y-127517222D01*
X92276689Y-127479977D01*
X92363533Y-127433557D01*
X92420147Y-127416384D01*
X92533373Y-127382037D01*
X92599558Y-127375518D01*
X92665740Y-127369000D01*
X92754260Y-127369000D01*
X92820442Y-127375518D01*
X92820442Y-127375518D01*
G37*
G36*
X90280442Y-127375518D02*
X90346627Y-127382037D01*
X90459853Y-127416384D01*
X90516467Y-127433557D01*
X90603311Y-127479977D01*
X90672991Y-127517222D01*
X90708729Y-127546552D01*
X90810186Y-127629814D01*
X90893448Y-127731271D01*
X90922778Y-127767009D01*
X90922779Y-127767011D01*
X91006443Y-127923533D01*
X91023616Y-127980147D01*
X91057963Y-128093373D01*
X91075359Y-128270000D01*
X91057963Y-128446627D01*
X91023616Y-128559853D01*
X91006443Y-128616467D01*
X90937698Y-128745078D01*
X90922778Y-128772991D01*
X90893448Y-128808729D01*
X90810186Y-128910186D01*
X90708729Y-128993448D01*
X90672991Y-129022778D01*
X90672989Y-129022779D01*
X90516467Y-129106443D01*
X90509069Y-129108687D01*
X90346627Y-129157963D01*
X90280442Y-129164482D01*
X90214260Y-129171000D01*
X90125740Y-129171000D01*
X90059558Y-129164482D01*
X89993373Y-129157963D01*
X89830931Y-129108687D01*
X89823533Y-129106443D01*
X89667011Y-129022779D01*
X89667009Y-129022778D01*
X89631271Y-128993448D01*
X89529814Y-128910186D01*
X89446552Y-128808729D01*
X89417222Y-128772991D01*
X89402302Y-128745078D01*
X89333557Y-128616467D01*
X89316384Y-128559853D01*
X89282037Y-128446627D01*
X89264641Y-128270000D01*
X89282037Y-128093373D01*
X89316384Y-127980147D01*
X89333557Y-127923533D01*
X89417221Y-127767011D01*
X89417222Y-127767009D01*
X89446552Y-127731271D01*
X89529814Y-127629814D01*
X89631271Y-127546552D01*
X89667009Y-127517222D01*
X89736689Y-127479977D01*
X89823533Y-127433557D01*
X89880147Y-127416384D01*
X89993373Y-127382037D01*
X90059558Y-127375518D01*
X90125740Y-127369000D01*
X90214260Y-127369000D01*
X90280442Y-127375518D01*
X90280442Y-127375518D01*
G37*
G36*
X132061000Y-129121000D02*
X129559000Y-129121000D01*
X129559000Y-127419000D01*
X132061000Y-127419000D01*
X132061000Y-129121000D01*
X132061000Y-129121000D01*
G37*
G36*
X123756821Y-127431313D02*
X123756824Y-127431314D01*
X123756825Y-127431314D01*
X123917239Y-127479975D01*
X123917241Y-127479976D01*
X123917244Y-127479977D01*
X124065078Y-127558995D01*
X124194659Y-127665341D01*
X124301005Y-127794922D01*
X124380023Y-127942756D01*
X124380024Y-127942759D01*
X124380025Y-127942761D01*
X124425713Y-128093375D01*
X124428687Y-128103179D01*
X124445117Y-128270000D01*
X124428687Y-128436821D01*
X124428686Y-128436824D01*
X124428686Y-128436825D01*
X124425713Y-128446627D01*
X124380023Y-128597244D01*
X124301005Y-128745078D01*
X124194659Y-128874659D01*
X124065078Y-128981005D01*
X123917244Y-129060023D01*
X123917241Y-129060024D01*
X123917239Y-129060025D01*
X123756825Y-129108686D01*
X123756824Y-129108686D01*
X123756821Y-129108687D01*
X123631804Y-129121000D01*
X122748196Y-129121000D01*
X122623179Y-129108687D01*
X122623176Y-129108686D01*
X122623175Y-129108686D01*
X122462761Y-129060025D01*
X122462759Y-129060024D01*
X122462756Y-129060023D01*
X122314922Y-128981005D01*
X122185341Y-128874659D01*
X122078995Y-128745078D01*
X121999977Y-128597244D01*
X121954288Y-128446627D01*
X121951314Y-128436825D01*
X121951314Y-128436824D01*
X121951313Y-128436821D01*
X121934883Y-128270000D01*
X121951313Y-128103179D01*
X121954287Y-128093375D01*
X121999975Y-127942761D01*
X121999976Y-127942759D01*
X121999977Y-127942756D01*
X122078995Y-127794922D01*
X122185341Y-127665341D01*
X122314922Y-127558995D01*
X122462756Y-127479977D01*
X122462759Y-127479976D01*
X122462761Y-127479975D01*
X122623175Y-127431314D01*
X122623176Y-127431314D01*
X122623179Y-127431313D01*
X122748196Y-127419000D01*
X123631804Y-127419000D01*
X123756821Y-127431313D01*
X123756821Y-127431313D01*
G37*
G36*
X90280443Y-124835519D02*
X90346627Y-124842037D01*
X90459853Y-124876384D01*
X90516467Y-124893557D01*
X90603311Y-124939977D01*
X90672991Y-124977222D01*
X90708729Y-125006552D01*
X90810186Y-125089814D01*
X90893448Y-125191271D01*
X90922778Y-125227009D01*
X90922779Y-125227011D01*
X91006443Y-125383533D01*
X91023616Y-125440147D01*
X91057963Y-125553373D01*
X91075359Y-125730000D01*
X91057963Y-125906627D01*
X91023616Y-126019853D01*
X91006443Y-126076467D01*
X90937698Y-126205078D01*
X90922778Y-126232991D01*
X90893448Y-126268729D01*
X90810186Y-126370186D01*
X90708729Y-126453448D01*
X90672991Y-126482778D01*
X90672989Y-126482779D01*
X90516467Y-126566443D01*
X90509069Y-126568687D01*
X90346627Y-126617963D01*
X90280442Y-126624482D01*
X90214260Y-126631000D01*
X90125740Y-126631000D01*
X90059558Y-126624482D01*
X89993373Y-126617963D01*
X89830931Y-126568687D01*
X89823533Y-126566443D01*
X89667011Y-126482779D01*
X89667009Y-126482778D01*
X89631271Y-126453448D01*
X89529814Y-126370186D01*
X89446552Y-126268729D01*
X89417222Y-126232991D01*
X89402302Y-126205078D01*
X89333557Y-126076467D01*
X89316384Y-126019853D01*
X89282037Y-125906627D01*
X89264641Y-125730000D01*
X89282037Y-125553373D01*
X89316384Y-125440147D01*
X89333557Y-125383533D01*
X89417221Y-125227011D01*
X89417222Y-125227009D01*
X89446552Y-125191271D01*
X89529814Y-125089814D01*
X89631271Y-125006552D01*
X89667009Y-124977222D01*
X89736689Y-124939977D01*
X89823533Y-124893557D01*
X89880147Y-124876384D01*
X89993373Y-124842037D01*
X90059557Y-124835519D01*
X90125740Y-124829000D01*
X90214260Y-124829000D01*
X90280443Y-124835519D01*
X90280443Y-124835519D01*
G37*
G36*
X92820443Y-124835519D02*
X92886627Y-124842037D01*
X92999853Y-124876384D01*
X93056467Y-124893557D01*
X93143311Y-124939977D01*
X93212991Y-124977222D01*
X93248729Y-125006552D01*
X93350186Y-125089814D01*
X93433448Y-125191271D01*
X93462778Y-125227009D01*
X93462779Y-125227011D01*
X93546443Y-125383533D01*
X93563616Y-125440147D01*
X93597963Y-125553373D01*
X93615359Y-125730000D01*
X93597963Y-125906627D01*
X93563616Y-126019853D01*
X93546443Y-126076467D01*
X93477698Y-126205078D01*
X93462778Y-126232991D01*
X93433448Y-126268729D01*
X93350186Y-126370186D01*
X93248729Y-126453448D01*
X93212991Y-126482778D01*
X93212989Y-126482779D01*
X93056467Y-126566443D01*
X93049069Y-126568687D01*
X92886627Y-126617963D01*
X92820442Y-126624482D01*
X92754260Y-126631000D01*
X92665740Y-126631000D01*
X92599558Y-126624482D01*
X92533373Y-126617963D01*
X92370931Y-126568687D01*
X92363533Y-126566443D01*
X92207011Y-126482779D01*
X92207009Y-126482778D01*
X92171271Y-126453448D01*
X92069814Y-126370186D01*
X91986552Y-126268729D01*
X91957222Y-126232991D01*
X91942302Y-126205078D01*
X91873557Y-126076467D01*
X91856384Y-126019853D01*
X91822037Y-125906627D01*
X91804641Y-125730000D01*
X91822037Y-125553373D01*
X91856384Y-125440147D01*
X91873557Y-125383533D01*
X91957221Y-125227011D01*
X91957222Y-125227009D01*
X91986552Y-125191271D01*
X92069814Y-125089814D01*
X92171271Y-125006552D01*
X92207009Y-124977222D01*
X92276689Y-124939977D01*
X92363533Y-124893557D01*
X92420147Y-124876384D01*
X92533373Y-124842037D01*
X92599557Y-124835519D01*
X92665740Y-124829000D01*
X92754260Y-124829000D01*
X92820443Y-124835519D01*
X92820443Y-124835519D01*
G37*
G36*
X131376821Y-124891313D02*
X131376824Y-124891314D01*
X131376825Y-124891314D01*
X131537239Y-124939975D01*
X131537241Y-124939976D01*
X131537244Y-124939977D01*
X131685078Y-125018995D01*
X131814659Y-125125341D01*
X131921005Y-125254922D01*
X132000023Y-125402756D01*
X132000024Y-125402759D01*
X132000025Y-125402761D01*
X132045713Y-125553375D01*
X132048687Y-125563179D01*
X132065117Y-125730000D01*
X132048687Y-125896821D01*
X132048686Y-125896824D01*
X132048686Y-125896825D01*
X132045713Y-125906627D01*
X132000023Y-126057244D01*
X131921005Y-126205078D01*
X131814659Y-126334659D01*
X131685078Y-126441005D01*
X131537244Y-126520023D01*
X131537241Y-126520024D01*
X131537239Y-126520025D01*
X131376825Y-126568686D01*
X131376824Y-126568686D01*
X131376821Y-126568687D01*
X131251804Y-126581000D01*
X130368196Y-126581000D01*
X130243179Y-126568687D01*
X130243176Y-126568686D01*
X130243175Y-126568686D01*
X130082761Y-126520025D01*
X130082759Y-126520024D01*
X130082756Y-126520023D01*
X129934922Y-126441005D01*
X129805341Y-126334659D01*
X129698995Y-126205078D01*
X129619977Y-126057244D01*
X129574288Y-125906627D01*
X129571314Y-125896825D01*
X129571314Y-125896824D01*
X129571313Y-125896821D01*
X129554883Y-125730000D01*
X129571313Y-125563179D01*
X129574287Y-125553375D01*
X129619975Y-125402761D01*
X129619976Y-125402759D01*
X129619977Y-125402756D01*
X129698995Y-125254922D01*
X129805341Y-125125341D01*
X129934922Y-125018995D01*
X130082756Y-124939977D01*
X130082759Y-124939976D01*
X130082761Y-124939975D01*
X130243175Y-124891314D01*
X130243176Y-124891314D01*
X130243179Y-124891313D01*
X130368196Y-124879000D01*
X131251804Y-124879000D01*
X131376821Y-124891313D01*
X131376821Y-124891313D01*
G37*
G36*
X123756821Y-124891313D02*
X123756824Y-124891314D01*
X123756825Y-124891314D01*
X123917239Y-124939975D01*
X123917241Y-124939976D01*
X123917244Y-124939977D01*
X124065078Y-125018995D01*
X124194659Y-125125341D01*
X124301005Y-125254922D01*
X124380023Y-125402756D01*
X124380024Y-125402759D01*
X124380025Y-125402761D01*
X124425713Y-125553375D01*
X124428687Y-125563179D01*
X124445117Y-125730000D01*
X124428687Y-125896821D01*
X124428686Y-125896824D01*
X124428686Y-125896825D01*
X124425713Y-125906627D01*
X124380023Y-126057244D01*
X124301005Y-126205078D01*
X124194659Y-126334659D01*
X124065078Y-126441005D01*
X123917244Y-126520023D01*
X123917241Y-126520024D01*
X123917239Y-126520025D01*
X123756825Y-126568686D01*
X123756824Y-126568686D01*
X123756821Y-126568687D01*
X123631804Y-126581000D01*
X122748196Y-126581000D01*
X122623179Y-126568687D01*
X122623176Y-126568686D01*
X122623175Y-126568686D01*
X122462761Y-126520025D01*
X122462759Y-126520024D01*
X122462756Y-126520023D01*
X122314922Y-126441005D01*
X122185341Y-126334659D01*
X122078995Y-126205078D01*
X121999977Y-126057244D01*
X121954288Y-125906627D01*
X121951314Y-125896825D01*
X121951314Y-125896824D01*
X121951313Y-125896821D01*
X121934883Y-125730000D01*
X121951313Y-125563179D01*
X121954287Y-125553375D01*
X121999975Y-125402761D01*
X121999976Y-125402759D01*
X121999977Y-125402756D01*
X122078995Y-125254922D01*
X122185341Y-125125341D01*
X122314922Y-125018995D01*
X122462756Y-124939977D01*
X122462759Y-124939976D01*
X122462761Y-124939975D01*
X122623175Y-124891314D01*
X122623176Y-124891314D01*
X122623179Y-124891313D01*
X122748196Y-124879000D01*
X123631804Y-124879000D01*
X123756821Y-124891313D01*
X123756821Y-124891313D01*
G37*
G36*
X90280443Y-122295519D02*
X90346627Y-122302037D01*
X90459853Y-122336384D01*
X90516467Y-122353557D01*
X90603311Y-122399977D01*
X90672991Y-122437222D01*
X90708729Y-122466552D01*
X90810186Y-122549814D01*
X90893448Y-122651271D01*
X90922778Y-122687009D01*
X90922779Y-122687011D01*
X91006443Y-122843533D01*
X91023616Y-122900147D01*
X91057963Y-123013373D01*
X91075359Y-123190000D01*
X91057963Y-123366627D01*
X91023616Y-123479853D01*
X91006443Y-123536467D01*
X90937698Y-123665078D01*
X90922778Y-123692991D01*
X90893448Y-123728729D01*
X90810186Y-123830186D01*
X90708729Y-123913448D01*
X90672991Y-123942778D01*
X90672989Y-123942779D01*
X90516467Y-124026443D01*
X90509069Y-124028687D01*
X90346627Y-124077963D01*
X90280442Y-124084482D01*
X90214260Y-124091000D01*
X90125740Y-124091000D01*
X90059558Y-124084482D01*
X89993373Y-124077963D01*
X89830931Y-124028687D01*
X89823533Y-124026443D01*
X89667011Y-123942779D01*
X89667009Y-123942778D01*
X89631271Y-123913448D01*
X89529814Y-123830186D01*
X89446552Y-123728729D01*
X89417222Y-123692991D01*
X89402302Y-123665078D01*
X89333557Y-123536467D01*
X89316384Y-123479853D01*
X89282037Y-123366627D01*
X89264641Y-123190000D01*
X89282037Y-123013373D01*
X89316384Y-122900147D01*
X89333557Y-122843533D01*
X89417221Y-122687011D01*
X89417222Y-122687009D01*
X89446552Y-122651271D01*
X89529814Y-122549814D01*
X89631271Y-122466552D01*
X89667009Y-122437222D01*
X89736689Y-122399977D01*
X89823533Y-122353557D01*
X89880147Y-122336384D01*
X89993373Y-122302037D01*
X90059557Y-122295519D01*
X90125740Y-122289000D01*
X90214260Y-122289000D01*
X90280443Y-122295519D01*
X90280443Y-122295519D01*
G37*
G36*
X92820443Y-122295519D02*
X92886627Y-122302037D01*
X92999853Y-122336384D01*
X93056467Y-122353557D01*
X93143311Y-122399977D01*
X93212991Y-122437222D01*
X93248729Y-122466552D01*
X93350186Y-122549814D01*
X93433448Y-122651271D01*
X93462778Y-122687009D01*
X93462779Y-122687011D01*
X93546443Y-122843533D01*
X93563616Y-122900147D01*
X93597963Y-123013373D01*
X93615359Y-123190000D01*
X93597963Y-123366627D01*
X93563616Y-123479853D01*
X93546443Y-123536467D01*
X93477698Y-123665078D01*
X93462778Y-123692991D01*
X93433448Y-123728729D01*
X93350186Y-123830186D01*
X93248729Y-123913448D01*
X93212991Y-123942778D01*
X93212989Y-123942779D01*
X93056467Y-124026443D01*
X93049069Y-124028687D01*
X92886627Y-124077963D01*
X92820442Y-124084482D01*
X92754260Y-124091000D01*
X92665740Y-124091000D01*
X92599558Y-124084482D01*
X92533373Y-124077963D01*
X92370931Y-124028687D01*
X92363533Y-124026443D01*
X92207011Y-123942779D01*
X92207009Y-123942778D01*
X92171271Y-123913448D01*
X92069814Y-123830186D01*
X91986552Y-123728729D01*
X91957222Y-123692991D01*
X91942302Y-123665078D01*
X91873557Y-123536467D01*
X91856384Y-123479853D01*
X91822037Y-123366627D01*
X91804641Y-123190000D01*
X91822037Y-123013373D01*
X91856384Y-122900147D01*
X91873557Y-122843533D01*
X91957221Y-122687011D01*
X91957222Y-122687009D01*
X91986552Y-122651271D01*
X92069814Y-122549814D01*
X92171271Y-122466552D01*
X92207009Y-122437222D01*
X92276689Y-122399977D01*
X92363533Y-122353557D01*
X92420147Y-122336384D01*
X92533373Y-122302037D01*
X92599557Y-122295519D01*
X92665740Y-122289000D01*
X92754260Y-122289000D01*
X92820443Y-122295519D01*
X92820443Y-122295519D01*
G37*
G36*
X131376821Y-122351313D02*
X131376824Y-122351314D01*
X131376825Y-122351314D01*
X131537239Y-122399975D01*
X131537241Y-122399976D01*
X131537244Y-122399977D01*
X131685078Y-122478995D01*
X131814659Y-122585341D01*
X131921005Y-122714922D01*
X132000023Y-122862756D01*
X132000024Y-122862759D01*
X132000025Y-122862761D01*
X132045713Y-123013375D01*
X132048687Y-123023179D01*
X132065117Y-123190000D01*
X132048687Y-123356821D01*
X132048686Y-123356824D01*
X132048686Y-123356825D01*
X132045713Y-123366627D01*
X132000023Y-123517244D01*
X131921005Y-123665078D01*
X131814659Y-123794659D01*
X131685078Y-123901005D01*
X131537244Y-123980023D01*
X131537241Y-123980024D01*
X131537239Y-123980025D01*
X131376825Y-124028686D01*
X131376824Y-124028686D01*
X131376821Y-124028687D01*
X131251804Y-124041000D01*
X130368196Y-124041000D01*
X130243179Y-124028687D01*
X130243176Y-124028686D01*
X130243175Y-124028686D01*
X130082761Y-123980025D01*
X130082759Y-123980024D01*
X130082756Y-123980023D01*
X129934922Y-123901005D01*
X129805341Y-123794659D01*
X129698995Y-123665078D01*
X129619977Y-123517244D01*
X129574288Y-123366627D01*
X129571314Y-123356825D01*
X129571314Y-123356824D01*
X129571313Y-123356821D01*
X129554883Y-123190000D01*
X129571313Y-123023179D01*
X129574287Y-123013375D01*
X129619975Y-122862761D01*
X129619976Y-122862759D01*
X129619977Y-122862756D01*
X129698995Y-122714922D01*
X129805341Y-122585341D01*
X129934922Y-122478995D01*
X130082756Y-122399977D01*
X130082759Y-122399976D01*
X130082761Y-122399975D01*
X130243175Y-122351314D01*
X130243176Y-122351314D01*
X130243179Y-122351313D01*
X130368196Y-122339000D01*
X131251804Y-122339000D01*
X131376821Y-122351313D01*
X131376821Y-122351313D01*
G37*
G36*
X123756821Y-122351313D02*
X123756824Y-122351314D01*
X123756825Y-122351314D01*
X123917239Y-122399975D01*
X123917241Y-122399976D01*
X123917244Y-122399977D01*
X124065078Y-122478995D01*
X124194659Y-122585341D01*
X124301005Y-122714922D01*
X124380023Y-122862756D01*
X124380024Y-122862759D01*
X124380025Y-122862761D01*
X124425713Y-123013375D01*
X124428687Y-123023179D01*
X124445117Y-123190000D01*
X124428687Y-123356821D01*
X124428686Y-123356824D01*
X124428686Y-123356825D01*
X124425713Y-123366627D01*
X124380023Y-123517244D01*
X124301005Y-123665078D01*
X124194659Y-123794659D01*
X124065078Y-123901005D01*
X123917244Y-123980023D01*
X123917241Y-123980024D01*
X123917239Y-123980025D01*
X123756825Y-124028686D01*
X123756824Y-124028686D01*
X123756821Y-124028687D01*
X123631804Y-124041000D01*
X122748196Y-124041000D01*
X122623179Y-124028687D01*
X122623176Y-124028686D01*
X122623175Y-124028686D01*
X122462761Y-123980025D01*
X122462759Y-123980024D01*
X122462756Y-123980023D01*
X122314922Y-123901005D01*
X122185341Y-123794659D01*
X122078995Y-123665078D01*
X121999977Y-123517244D01*
X121954288Y-123366627D01*
X121951314Y-123356825D01*
X121951314Y-123356824D01*
X121951313Y-123356821D01*
X121934883Y-123190000D01*
X121951313Y-123023179D01*
X121954287Y-123013375D01*
X121999975Y-122862761D01*
X121999976Y-122862759D01*
X121999977Y-122862756D01*
X122078995Y-122714922D01*
X122185341Y-122585341D01*
X122314922Y-122478995D01*
X122462756Y-122399977D01*
X122462759Y-122399976D01*
X122462761Y-122399975D01*
X122623175Y-122351314D01*
X122623176Y-122351314D01*
X122623179Y-122351313D01*
X122748196Y-122339000D01*
X123631804Y-122339000D01*
X123756821Y-122351313D01*
X123756821Y-122351313D01*
G37*
G36*
X100496821Y-122351313D02*
X100496824Y-122351314D01*
X100496825Y-122351314D01*
X100657239Y-122399975D01*
X100657241Y-122399976D01*
X100657244Y-122399977D01*
X100805078Y-122478995D01*
X100934659Y-122585341D01*
X101041005Y-122714922D01*
X101120023Y-122862756D01*
X101120024Y-122862759D01*
X101120025Y-122862761D01*
X101165713Y-123013375D01*
X101168687Y-123023179D01*
X101185117Y-123190000D01*
X101168687Y-123356821D01*
X101168686Y-123356824D01*
X101168686Y-123356825D01*
X101165713Y-123366627D01*
X101120023Y-123517244D01*
X101041005Y-123665078D01*
X100934659Y-123794659D01*
X100805078Y-123901005D01*
X100657244Y-123980023D01*
X100657241Y-123980024D01*
X100657239Y-123980025D01*
X100496825Y-124028686D01*
X100496824Y-124028686D01*
X100496821Y-124028687D01*
X100371804Y-124041000D01*
X100288196Y-124041000D01*
X100163179Y-124028687D01*
X100163176Y-124028686D01*
X100163175Y-124028686D01*
X100002761Y-123980025D01*
X100002759Y-123980024D01*
X100002756Y-123980023D01*
X99854922Y-123901005D01*
X99725341Y-123794659D01*
X99618995Y-123665078D01*
X99539977Y-123517244D01*
X99494288Y-123366627D01*
X99491314Y-123356825D01*
X99491314Y-123356824D01*
X99491313Y-123356821D01*
X99474883Y-123190000D01*
X99491313Y-123023179D01*
X99494287Y-123013375D01*
X99539975Y-122862761D01*
X99539976Y-122862759D01*
X99539977Y-122862756D01*
X99618995Y-122714922D01*
X99725341Y-122585341D01*
X99854922Y-122478995D01*
X100002756Y-122399977D01*
X100002759Y-122399976D01*
X100002761Y-122399975D01*
X100163175Y-122351314D01*
X100163176Y-122351314D01*
X100163179Y-122351313D01*
X100288196Y-122339000D01*
X100371804Y-122339000D01*
X100496821Y-122351313D01*
X100496821Y-122351313D01*
G37*
G36*
X115736821Y-122351313D02*
X115736824Y-122351314D01*
X115736825Y-122351314D01*
X115897239Y-122399975D01*
X115897241Y-122399976D01*
X115897244Y-122399977D01*
X116045078Y-122478995D01*
X116174659Y-122585341D01*
X116281005Y-122714922D01*
X116360023Y-122862756D01*
X116360024Y-122862759D01*
X116360025Y-122862761D01*
X116405713Y-123013375D01*
X116408687Y-123023179D01*
X116425117Y-123190000D01*
X116408687Y-123356821D01*
X116408686Y-123356824D01*
X116408686Y-123356825D01*
X116405713Y-123366627D01*
X116360023Y-123517244D01*
X116281005Y-123665078D01*
X116174659Y-123794659D01*
X116045078Y-123901005D01*
X115897244Y-123980023D01*
X115897241Y-123980024D01*
X115897239Y-123980025D01*
X115736825Y-124028686D01*
X115736824Y-124028686D01*
X115736821Y-124028687D01*
X115611804Y-124041000D01*
X115528196Y-124041000D01*
X115403179Y-124028687D01*
X115403176Y-124028686D01*
X115403175Y-124028686D01*
X115242761Y-123980025D01*
X115242759Y-123980024D01*
X115242756Y-123980023D01*
X115094922Y-123901005D01*
X114965341Y-123794659D01*
X114858995Y-123665078D01*
X114779977Y-123517244D01*
X114734288Y-123366627D01*
X114731314Y-123356825D01*
X114731314Y-123356824D01*
X114731313Y-123356821D01*
X114714883Y-123190000D01*
X114731313Y-123023179D01*
X114734287Y-123013375D01*
X114779975Y-122862761D01*
X114779976Y-122862759D01*
X114779977Y-122862756D01*
X114858995Y-122714922D01*
X114965341Y-122585341D01*
X115094922Y-122478995D01*
X115242756Y-122399977D01*
X115242759Y-122399976D01*
X115242761Y-122399975D01*
X115403175Y-122351314D01*
X115403176Y-122351314D01*
X115403179Y-122351313D01*
X115528196Y-122339000D01*
X115611804Y-122339000D01*
X115736821Y-122351313D01*
X115736821Y-122351313D01*
G37*
G36*
X91071000Y-121551000D02*
X89269000Y-121551000D01*
X89269000Y-119749000D01*
X91071000Y-119749000D01*
X91071000Y-121551000D01*
X91071000Y-121551000D01*
G37*
G36*
X92820442Y-119755518D02*
X92886627Y-119762037D01*
X92999853Y-119796384D01*
X93056467Y-119813557D01*
X93143311Y-119859977D01*
X93212991Y-119897222D01*
X93248729Y-119926552D01*
X93350186Y-120009814D01*
X93433448Y-120111271D01*
X93462778Y-120147009D01*
X93462779Y-120147011D01*
X93546443Y-120303533D01*
X93563616Y-120360147D01*
X93597963Y-120473373D01*
X93615359Y-120650000D01*
X93597963Y-120826627D01*
X93563616Y-120939853D01*
X93546443Y-120996467D01*
X93477698Y-121125078D01*
X93462778Y-121152991D01*
X93433448Y-121188729D01*
X93350186Y-121290186D01*
X93248729Y-121373448D01*
X93212991Y-121402778D01*
X93212989Y-121402779D01*
X93056467Y-121486443D01*
X93049069Y-121488687D01*
X92886627Y-121537963D01*
X92820443Y-121544481D01*
X92754260Y-121551000D01*
X92665740Y-121551000D01*
X92599557Y-121544481D01*
X92533373Y-121537963D01*
X92370931Y-121488687D01*
X92363533Y-121486443D01*
X92207011Y-121402779D01*
X92207009Y-121402778D01*
X92171271Y-121373448D01*
X92069814Y-121290186D01*
X91986552Y-121188729D01*
X91957222Y-121152991D01*
X91942302Y-121125078D01*
X91873557Y-120996467D01*
X91856384Y-120939853D01*
X91822037Y-120826627D01*
X91804641Y-120650000D01*
X91822037Y-120473373D01*
X91856384Y-120360147D01*
X91873557Y-120303533D01*
X91957221Y-120147011D01*
X91957222Y-120147009D01*
X91986552Y-120111271D01*
X92069814Y-120009814D01*
X92171271Y-119926552D01*
X92207009Y-119897222D01*
X92276689Y-119859977D01*
X92363533Y-119813557D01*
X92420147Y-119796384D01*
X92533373Y-119762037D01*
X92599558Y-119755518D01*
X92665740Y-119749000D01*
X92754260Y-119749000D01*
X92820442Y-119755518D01*
X92820442Y-119755518D01*
G37*
G36*
X115736821Y-119811313D02*
X115736824Y-119811314D01*
X115736825Y-119811314D01*
X115897239Y-119859975D01*
X115897241Y-119859976D01*
X115897244Y-119859977D01*
X116045078Y-119938995D01*
X116174659Y-120045341D01*
X116281005Y-120174922D01*
X116360023Y-120322756D01*
X116360024Y-120322759D01*
X116360025Y-120322761D01*
X116405713Y-120473375D01*
X116408687Y-120483179D01*
X116425117Y-120650000D01*
X116408687Y-120816821D01*
X116408686Y-120816824D01*
X116408686Y-120816825D01*
X116405713Y-120826627D01*
X116360023Y-120977244D01*
X116281005Y-121125078D01*
X116174659Y-121254659D01*
X116045078Y-121361005D01*
X115897244Y-121440023D01*
X115897241Y-121440024D01*
X115897239Y-121440025D01*
X115736825Y-121488686D01*
X115736824Y-121488686D01*
X115736821Y-121488687D01*
X115611804Y-121501000D01*
X115528196Y-121501000D01*
X115403179Y-121488687D01*
X115403176Y-121488686D01*
X115403175Y-121488686D01*
X115242761Y-121440025D01*
X115242759Y-121440024D01*
X115242756Y-121440023D01*
X115094922Y-121361005D01*
X114965341Y-121254659D01*
X114858995Y-121125078D01*
X114779977Y-120977244D01*
X114734288Y-120826627D01*
X114731314Y-120816825D01*
X114731314Y-120816824D01*
X114731313Y-120816821D01*
X114714883Y-120650000D01*
X114731313Y-120483179D01*
X114734287Y-120473375D01*
X114779975Y-120322761D01*
X114779976Y-120322759D01*
X114779977Y-120322756D01*
X114858995Y-120174922D01*
X114965341Y-120045341D01*
X115094922Y-119938995D01*
X115242756Y-119859977D01*
X115242759Y-119859976D01*
X115242761Y-119859975D01*
X115403175Y-119811314D01*
X115403176Y-119811314D01*
X115403179Y-119811313D01*
X115528196Y-119799000D01*
X115611804Y-119799000D01*
X115736821Y-119811313D01*
X115736821Y-119811313D01*
G37*
G36*
X131376821Y-119811313D02*
X131376824Y-119811314D01*
X131376825Y-119811314D01*
X131537239Y-119859975D01*
X131537241Y-119859976D01*
X131537244Y-119859977D01*
X131685078Y-119938995D01*
X131814659Y-120045341D01*
X131921005Y-120174922D01*
X132000023Y-120322756D01*
X132000024Y-120322759D01*
X132000025Y-120322761D01*
X132045713Y-120473375D01*
X132048687Y-120483179D01*
X132065117Y-120650000D01*
X132048687Y-120816821D01*
X132048686Y-120816824D01*
X132048686Y-120816825D01*
X132045713Y-120826627D01*
X132000023Y-120977244D01*
X131921005Y-121125078D01*
X131814659Y-121254659D01*
X131685078Y-121361005D01*
X131537244Y-121440023D01*
X131537241Y-121440024D01*
X131537239Y-121440025D01*
X131376825Y-121488686D01*
X131376824Y-121488686D01*
X131376821Y-121488687D01*
X131251804Y-121501000D01*
X130368196Y-121501000D01*
X130243179Y-121488687D01*
X130243176Y-121488686D01*
X130243175Y-121488686D01*
X130082761Y-121440025D01*
X130082759Y-121440024D01*
X130082756Y-121440023D01*
X129934922Y-121361005D01*
X129805341Y-121254659D01*
X129698995Y-121125078D01*
X129619977Y-120977244D01*
X129574288Y-120826627D01*
X129571314Y-120816825D01*
X129571314Y-120816824D01*
X129571313Y-120816821D01*
X129554883Y-120650000D01*
X129571313Y-120483179D01*
X129574287Y-120473375D01*
X129619975Y-120322761D01*
X129619976Y-120322759D01*
X129619977Y-120322756D01*
X129698995Y-120174922D01*
X129805341Y-120045341D01*
X129934922Y-119938995D01*
X130082756Y-119859977D01*
X130082759Y-119859976D01*
X130082761Y-119859975D01*
X130243175Y-119811314D01*
X130243176Y-119811314D01*
X130243179Y-119811313D01*
X130368196Y-119799000D01*
X131251804Y-119799000D01*
X131376821Y-119811313D01*
X131376821Y-119811313D01*
G37*
G36*
X123756821Y-119811313D02*
X123756824Y-119811314D01*
X123756825Y-119811314D01*
X123917239Y-119859975D01*
X123917241Y-119859976D01*
X123917244Y-119859977D01*
X124065078Y-119938995D01*
X124194659Y-120045341D01*
X124301005Y-120174922D01*
X124380023Y-120322756D01*
X124380024Y-120322759D01*
X124380025Y-120322761D01*
X124425713Y-120473375D01*
X124428687Y-120483179D01*
X124445117Y-120650000D01*
X124428687Y-120816821D01*
X124428686Y-120816824D01*
X124428686Y-120816825D01*
X124425713Y-120826627D01*
X124380023Y-120977244D01*
X124301005Y-121125078D01*
X124194659Y-121254659D01*
X124065078Y-121361005D01*
X123917244Y-121440023D01*
X123917241Y-121440024D01*
X123917239Y-121440025D01*
X123756825Y-121488686D01*
X123756824Y-121488686D01*
X123756821Y-121488687D01*
X123631804Y-121501000D01*
X122748196Y-121501000D01*
X122623179Y-121488687D01*
X122623176Y-121488686D01*
X122623175Y-121488686D01*
X122462761Y-121440025D01*
X122462759Y-121440024D01*
X122462756Y-121440023D01*
X122314922Y-121361005D01*
X122185341Y-121254659D01*
X122078995Y-121125078D01*
X121999977Y-120977244D01*
X121954288Y-120826627D01*
X121951314Y-120816825D01*
X121951314Y-120816824D01*
X121951313Y-120816821D01*
X121934883Y-120650000D01*
X121951313Y-120483179D01*
X121954287Y-120473375D01*
X121999975Y-120322761D01*
X121999976Y-120322759D01*
X121999977Y-120322756D01*
X122078995Y-120174922D01*
X122185341Y-120045341D01*
X122314922Y-119938995D01*
X122462756Y-119859977D01*
X122462759Y-119859976D01*
X122462761Y-119859975D01*
X122623175Y-119811314D01*
X122623176Y-119811314D01*
X122623179Y-119811313D01*
X122748196Y-119799000D01*
X123631804Y-119799000D01*
X123756821Y-119811313D01*
X123756821Y-119811313D01*
G37*
G36*
X100496821Y-119811313D02*
X100496824Y-119811314D01*
X100496825Y-119811314D01*
X100657239Y-119859975D01*
X100657241Y-119859976D01*
X100657244Y-119859977D01*
X100805078Y-119938995D01*
X100934659Y-120045341D01*
X101041005Y-120174922D01*
X101120023Y-120322756D01*
X101120024Y-120322759D01*
X101120025Y-120322761D01*
X101165713Y-120473375D01*
X101168687Y-120483179D01*
X101185117Y-120650000D01*
X101168687Y-120816821D01*
X101168686Y-120816824D01*
X101168686Y-120816825D01*
X101165713Y-120826627D01*
X101120023Y-120977244D01*
X101041005Y-121125078D01*
X100934659Y-121254659D01*
X100805078Y-121361005D01*
X100657244Y-121440023D01*
X100657241Y-121440024D01*
X100657239Y-121440025D01*
X100496825Y-121488686D01*
X100496824Y-121488686D01*
X100496821Y-121488687D01*
X100371804Y-121501000D01*
X100288196Y-121501000D01*
X100163179Y-121488687D01*
X100163176Y-121488686D01*
X100163175Y-121488686D01*
X100002761Y-121440025D01*
X100002759Y-121440024D01*
X100002756Y-121440023D01*
X99854922Y-121361005D01*
X99725341Y-121254659D01*
X99618995Y-121125078D01*
X99539977Y-120977244D01*
X99494288Y-120826627D01*
X99491314Y-120816825D01*
X99491314Y-120816824D01*
X99491313Y-120816821D01*
X99474883Y-120650000D01*
X99491313Y-120483179D01*
X99494287Y-120473375D01*
X99539975Y-120322761D01*
X99539976Y-120322759D01*
X99539977Y-120322756D01*
X99618995Y-120174922D01*
X99725341Y-120045341D01*
X99854922Y-119938995D01*
X100002756Y-119859977D01*
X100002759Y-119859976D01*
X100002761Y-119859975D01*
X100163175Y-119811314D01*
X100163176Y-119811314D01*
X100163179Y-119811313D01*
X100288196Y-119799000D01*
X100371804Y-119799000D01*
X100496821Y-119811313D01*
X100496821Y-119811313D01*
G37*
G36*
X115736821Y-117271313D02*
X115736824Y-117271314D01*
X115736825Y-117271314D01*
X115897239Y-117319975D01*
X115897241Y-117319976D01*
X115897244Y-117319977D01*
X116045078Y-117398995D01*
X116174659Y-117505341D01*
X116281005Y-117634922D01*
X116360023Y-117782756D01*
X116408687Y-117943179D01*
X116425117Y-118110000D01*
X116408687Y-118276821D01*
X116360023Y-118437244D01*
X116281005Y-118585078D01*
X116174659Y-118714659D01*
X116045078Y-118821005D01*
X115897244Y-118900023D01*
X115897241Y-118900024D01*
X115897239Y-118900025D01*
X115736825Y-118948686D01*
X115736824Y-118948686D01*
X115736821Y-118948687D01*
X115611804Y-118961000D01*
X115528196Y-118961000D01*
X115403179Y-118948687D01*
X115403176Y-118948686D01*
X115403175Y-118948686D01*
X115242761Y-118900025D01*
X115242759Y-118900024D01*
X115242756Y-118900023D01*
X115094922Y-118821005D01*
X114965341Y-118714659D01*
X114858995Y-118585078D01*
X114779977Y-118437244D01*
X114731313Y-118276821D01*
X114714883Y-118110000D01*
X114731313Y-117943179D01*
X114779977Y-117782756D01*
X114858995Y-117634922D01*
X114965341Y-117505341D01*
X115094922Y-117398995D01*
X115242756Y-117319977D01*
X115242759Y-117319976D01*
X115242761Y-117319975D01*
X115403175Y-117271314D01*
X115403176Y-117271314D01*
X115403179Y-117271313D01*
X115528196Y-117259000D01*
X115611804Y-117259000D01*
X115736821Y-117271313D01*
X115736821Y-117271313D01*
G37*
G36*
X131376821Y-117271313D02*
X131376824Y-117271314D01*
X131376825Y-117271314D01*
X131537239Y-117319975D01*
X131537241Y-117319976D01*
X131537244Y-117319977D01*
X131685078Y-117398995D01*
X131814659Y-117505341D01*
X131921005Y-117634922D01*
X132000023Y-117782756D01*
X132048687Y-117943179D01*
X132065117Y-118110000D01*
X132048687Y-118276821D01*
X132000023Y-118437244D01*
X131921005Y-118585078D01*
X131814659Y-118714659D01*
X131685078Y-118821005D01*
X131537244Y-118900023D01*
X131537241Y-118900024D01*
X131537239Y-118900025D01*
X131376825Y-118948686D01*
X131376824Y-118948686D01*
X131376821Y-118948687D01*
X131251804Y-118961000D01*
X130368196Y-118961000D01*
X130243179Y-118948687D01*
X130243176Y-118948686D01*
X130243175Y-118948686D01*
X130082761Y-118900025D01*
X130082759Y-118900024D01*
X130082756Y-118900023D01*
X129934922Y-118821005D01*
X129805341Y-118714659D01*
X129698995Y-118585078D01*
X129619977Y-118437244D01*
X129571313Y-118276821D01*
X129554883Y-118110000D01*
X129571313Y-117943179D01*
X129619977Y-117782756D01*
X129698995Y-117634922D01*
X129805341Y-117505341D01*
X129934922Y-117398995D01*
X130082756Y-117319977D01*
X130082759Y-117319976D01*
X130082761Y-117319975D01*
X130243175Y-117271314D01*
X130243176Y-117271314D01*
X130243179Y-117271313D01*
X130368196Y-117259000D01*
X131251804Y-117259000D01*
X131376821Y-117271313D01*
X131376821Y-117271313D01*
G37*
G36*
X123756821Y-117271313D02*
X123756824Y-117271314D01*
X123756825Y-117271314D01*
X123917239Y-117319975D01*
X123917241Y-117319976D01*
X123917244Y-117319977D01*
X124065078Y-117398995D01*
X124194659Y-117505341D01*
X124301005Y-117634922D01*
X124380023Y-117782756D01*
X124428687Y-117943179D01*
X124445117Y-118110000D01*
X124428687Y-118276821D01*
X124380023Y-118437244D01*
X124301005Y-118585078D01*
X124194659Y-118714659D01*
X124065078Y-118821005D01*
X123917244Y-118900023D01*
X123917241Y-118900024D01*
X123917239Y-118900025D01*
X123756825Y-118948686D01*
X123756824Y-118948686D01*
X123756821Y-118948687D01*
X123631804Y-118961000D01*
X122748196Y-118961000D01*
X122623179Y-118948687D01*
X122623176Y-118948686D01*
X122623175Y-118948686D01*
X122462761Y-118900025D01*
X122462759Y-118900024D01*
X122462756Y-118900023D01*
X122314922Y-118821005D01*
X122185341Y-118714659D01*
X122078995Y-118585078D01*
X121999977Y-118437244D01*
X121951313Y-118276821D01*
X121934883Y-118110000D01*
X121951313Y-117943179D01*
X121999977Y-117782756D01*
X122078995Y-117634922D01*
X122185341Y-117505341D01*
X122314922Y-117398995D01*
X122462756Y-117319977D01*
X122462759Y-117319976D01*
X122462761Y-117319975D01*
X122623175Y-117271314D01*
X122623176Y-117271314D01*
X122623179Y-117271313D01*
X122748196Y-117259000D01*
X123631804Y-117259000D01*
X123756821Y-117271313D01*
X123756821Y-117271313D01*
G37*
G36*
X100496821Y-117271313D02*
X100496824Y-117271314D01*
X100496825Y-117271314D01*
X100657239Y-117319975D01*
X100657241Y-117319976D01*
X100657244Y-117319977D01*
X100805078Y-117398995D01*
X100934659Y-117505341D01*
X101041005Y-117634922D01*
X101120023Y-117782756D01*
X101168687Y-117943179D01*
X101185117Y-118110000D01*
X101168687Y-118276821D01*
X101120023Y-118437244D01*
X101041005Y-118585078D01*
X100934659Y-118714659D01*
X100805078Y-118821005D01*
X100657244Y-118900023D01*
X100657241Y-118900024D01*
X100657239Y-118900025D01*
X100496825Y-118948686D01*
X100496824Y-118948686D01*
X100496821Y-118948687D01*
X100371804Y-118961000D01*
X100288196Y-118961000D01*
X100163179Y-118948687D01*
X100163176Y-118948686D01*
X100163175Y-118948686D01*
X100002761Y-118900025D01*
X100002759Y-118900024D01*
X100002756Y-118900023D01*
X99854922Y-118821005D01*
X99725341Y-118714659D01*
X99618995Y-118585078D01*
X99539977Y-118437244D01*
X99491313Y-118276821D01*
X99474883Y-118110000D01*
X99491313Y-117943179D01*
X99539977Y-117782756D01*
X99618995Y-117634922D01*
X99725341Y-117505341D01*
X99854922Y-117398995D01*
X100002756Y-117319977D01*
X100002759Y-117319976D01*
X100002761Y-117319975D01*
X100163175Y-117271314D01*
X100163176Y-117271314D01*
X100163179Y-117271313D01*
X100288196Y-117259000D01*
X100371804Y-117259000D01*
X100496821Y-117271313D01*
X100496821Y-117271313D01*
G37*
G36*
X115736821Y-114731313D02*
X115736824Y-114731314D01*
X115736825Y-114731314D01*
X115897239Y-114779975D01*
X115897241Y-114779976D01*
X115897244Y-114779977D01*
X116045078Y-114858995D01*
X116174659Y-114965341D01*
X116281005Y-115094922D01*
X116360023Y-115242756D01*
X116408687Y-115403179D01*
X116425117Y-115570000D01*
X116408687Y-115736821D01*
X116408686Y-115736824D01*
X116408686Y-115736825D01*
X116361281Y-115893100D01*
X116360023Y-115897244D01*
X116281005Y-116045078D01*
X116174659Y-116174659D01*
X116045078Y-116281005D01*
X115897244Y-116360023D01*
X115897241Y-116360024D01*
X115897239Y-116360025D01*
X115736825Y-116408686D01*
X115736824Y-116408686D01*
X115736821Y-116408687D01*
X115611804Y-116421000D01*
X115528196Y-116421000D01*
X115403179Y-116408687D01*
X115403176Y-116408686D01*
X115403175Y-116408686D01*
X115242761Y-116360025D01*
X115242759Y-116360024D01*
X115242756Y-116360023D01*
X115094922Y-116281005D01*
X114965341Y-116174659D01*
X114858995Y-116045078D01*
X114779977Y-115897244D01*
X114778720Y-115893100D01*
X114731314Y-115736825D01*
X114731314Y-115736824D01*
X114731313Y-115736821D01*
X114714883Y-115570000D01*
X114731313Y-115403179D01*
X114779977Y-115242756D01*
X114858995Y-115094922D01*
X114965341Y-114965341D01*
X115094922Y-114858995D01*
X115242756Y-114779977D01*
X115242759Y-114779976D01*
X115242761Y-114779975D01*
X115403175Y-114731314D01*
X115403176Y-114731314D01*
X115403179Y-114731313D01*
X115528196Y-114719000D01*
X115611804Y-114719000D01*
X115736821Y-114731313D01*
X115736821Y-114731313D01*
G37*
G36*
X131376821Y-114731313D02*
X131376824Y-114731314D01*
X131376825Y-114731314D01*
X131537239Y-114779975D01*
X131537241Y-114779976D01*
X131537244Y-114779977D01*
X131685078Y-114858995D01*
X131814659Y-114965341D01*
X131921005Y-115094922D01*
X132000023Y-115242756D01*
X132048687Y-115403179D01*
X132065117Y-115570000D01*
X132048687Y-115736821D01*
X132048686Y-115736824D01*
X132048686Y-115736825D01*
X132001281Y-115893100D01*
X132000023Y-115897244D01*
X131921005Y-116045078D01*
X131814659Y-116174659D01*
X131685078Y-116281005D01*
X131537244Y-116360023D01*
X131537241Y-116360024D01*
X131537239Y-116360025D01*
X131376825Y-116408686D01*
X131376824Y-116408686D01*
X131376821Y-116408687D01*
X131251804Y-116421000D01*
X130368196Y-116421000D01*
X130243179Y-116408687D01*
X130243176Y-116408686D01*
X130243175Y-116408686D01*
X130082761Y-116360025D01*
X130082759Y-116360024D01*
X130082756Y-116360023D01*
X129934922Y-116281005D01*
X129805341Y-116174659D01*
X129698995Y-116045078D01*
X129619977Y-115897244D01*
X129618720Y-115893100D01*
X129571314Y-115736825D01*
X129571314Y-115736824D01*
X129571313Y-115736821D01*
X129554883Y-115570000D01*
X129571313Y-115403179D01*
X129619977Y-115242756D01*
X129698995Y-115094922D01*
X129805341Y-114965341D01*
X129934922Y-114858995D01*
X130082756Y-114779977D01*
X130082759Y-114779976D01*
X130082761Y-114779975D01*
X130243175Y-114731314D01*
X130243176Y-114731314D01*
X130243179Y-114731313D01*
X130368196Y-114719000D01*
X131251804Y-114719000D01*
X131376821Y-114731313D01*
X131376821Y-114731313D01*
G37*
G36*
X123756821Y-114731313D02*
X123756824Y-114731314D01*
X123756825Y-114731314D01*
X123917239Y-114779975D01*
X123917241Y-114779976D01*
X123917244Y-114779977D01*
X124065078Y-114858995D01*
X124194659Y-114965341D01*
X124301005Y-115094922D01*
X124380023Y-115242756D01*
X124428687Y-115403179D01*
X124445117Y-115570000D01*
X124428687Y-115736821D01*
X124428686Y-115736824D01*
X124428686Y-115736825D01*
X124381281Y-115893100D01*
X124380023Y-115897244D01*
X124301005Y-116045078D01*
X124194659Y-116174659D01*
X124065078Y-116281005D01*
X123917244Y-116360023D01*
X123917241Y-116360024D01*
X123917239Y-116360025D01*
X123756825Y-116408686D01*
X123756824Y-116408686D01*
X123756821Y-116408687D01*
X123631804Y-116421000D01*
X122748196Y-116421000D01*
X122623179Y-116408687D01*
X122623176Y-116408686D01*
X122623175Y-116408686D01*
X122462761Y-116360025D01*
X122462759Y-116360024D01*
X122462756Y-116360023D01*
X122314922Y-116281005D01*
X122185341Y-116174659D01*
X122078995Y-116045078D01*
X121999977Y-115897244D01*
X121998720Y-115893100D01*
X121951314Y-115736825D01*
X121951314Y-115736824D01*
X121951313Y-115736821D01*
X121934883Y-115570000D01*
X121951313Y-115403179D01*
X121999977Y-115242756D01*
X122078995Y-115094922D01*
X122185341Y-114965341D01*
X122314922Y-114858995D01*
X122462756Y-114779977D01*
X122462759Y-114779976D01*
X122462761Y-114779975D01*
X122623175Y-114731314D01*
X122623176Y-114731314D01*
X122623179Y-114731313D01*
X122748196Y-114719000D01*
X123631804Y-114719000D01*
X123756821Y-114731313D01*
X123756821Y-114731313D01*
G37*
G36*
X100496821Y-114731313D02*
X100496824Y-114731314D01*
X100496825Y-114731314D01*
X100657239Y-114779975D01*
X100657241Y-114779976D01*
X100657244Y-114779977D01*
X100805078Y-114858995D01*
X100934659Y-114965341D01*
X101041005Y-115094922D01*
X101120023Y-115242756D01*
X101168687Y-115403179D01*
X101185117Y-115570000D01*
X101168687Y-115736821D01*
X101168686Y-115736824D01*
X101168686Y-115736825D01*
X101121281Y-115893100D01*
X101120023Y-115897244D01*
X101041005Y-116045078D01*
X100934659Y-116174659D01*
X100805078Y-116281005D01*
X100657244Y-116360023D01*
X100657241Y-116360024D01*
X100657239Y-116360025D01*
X100496825Y-116408686D01*
X100496824Y-116408686D01*
X100496821Y-116408687D01*
X100371804Y-116421000D01*
X100288196Y-116421000D01*
X100163179Y-116408687D01*
X100163176Y-116408686D01*
X100163175Y-116408686D01*
X100002761Y-116360025D01*
X100002759Y-116360024D01*
X100002756Y-116360023D01*
X99854922Y-116281005D01*
X99725341Y-116174659D01*
X99618995Y-116045078D01*
X99539977Y-115897244D01*
X99538720Y-115893100D01*
X99491314Y-115736825D01*
X99491314Y-115736824D01*
X99491313Y-115736821D01*
X99474883Y-115570000D01*
X99491313Y-115403179D01*
X99539977Y-115242756D01*
X99618995Y-115094922D01*
X99725341Y-114965341D01*
X99854922Y-114858995D01*
X100002756Y-114779977D01*
X100002759Y-114779976D01*
X100002761Y-114779975D01*
X100163175Y-114731314D01*
X100163176Y-114731314D01*
X100163179Y-114731313D01*
X100288196Y-114719000D01*
X100371804Y-114719000D01*
X100496821Y-114731313D01*
X100496821Y-114731313D01*
G37*
G36*
X136138228Y-114671703D02*
X136293100Y-114735853D01*
X136432481Y-114828985D01*
X136551015Y-114947519D01*
X136644147Y-115086900D01*
X136708297Y-115241772D01*
X136741000Y-115406184D01*
X136741000Y-115573816D01*
X136708297Y-115738228D01*
X136644147Y-115893100D01*
X136551015Y-116032481D01*
X136432481Y-116151015D01*
X136293100Y-116244147D01*
X136138228Y-116308297D01*
X135973816Y-116341000D01*
X135806184Y-116341000D01*
X135641772Y-116308297D01*
X135486900Y-116244147D01*
X135347519Y-116151015D01*
X135228985Y-116032481D01*
X135135853Y-115893100D01*
X135071703Y-115738228D01*
X135039000Y-115573816D01*
X135039000Y-115406184D01*
X135071703Y-115241772D01*
X135135853Y-115086900D01*
X135228985Y-114947519D01*
X135347519Y-114828985D01*
X135486900Y-114735853D01*
X135641772Y-114671703D01*
X135806184Y-114639000D01*
X135973816Y-114639000D01*
X136138228Y-114671703D01*
X136138228Y-114671703D01*
G37*
G36*
X90280443Y-112135519D02*
X90346627Y-112142037D01*
X90459853Y-112176384D01*
X90516467Y-112193557D01*
X90603311Y-112239977D01*
X90672991Y-112277222D01*
X90708729Y-112306552D01*
X90810186Y-112389814D01*
X90893448Y-112491271D01*
X90922778Y-112527009D01*
X90922779Y-112527011D01*
X91006443Y-112683533D01*
X91023616Y-112740147D01*
X91057963Y-112853373D01*
X91075359Y-113030000D01*
X91057963Y-113206627D01*
X91023616Y-113319853D01*
X91006443Y-113376467D01*
X90937698Y-113505078D01*
X90922778Y-113532991D01*
X90893448Y-113568729D01*
X90810186Y-113670186D01*
X90708729Y-113753448D01*
X90672991Y-113782778D01*
X90672989Y-113782779D01*
X90516467Y-113866443D01*
X90509069Y-113868687D01*
X90346627Y-113917963D01*
X90280443Y-113924481D01*
X90214260Y-113931000D01*
X90125740Y-113931000D01*
X90059557Y-113924481D01*
X89993373Y-113917963D01*
X89830931Y-113868687D01*
X89823533Y-113866443D01*
X89667011Y-113782779D01*
X89667009Y-113782778D01*
X89631271Y-113753448D01*
X89529814Y-113670186D01*
X89446552Y-113568729D01*
X89417222Y-113532991D01*
X89402302Y-113505078D01*
X89333557Y-113376467D01*
X89316384Y-113319853D01*
X89282037Y-113206627D01*
X89264641Y-113030000D01*
X89282037Y-112853373D01*
X89316384Y-112740147D01*
X89333557Y-112683533D01*
X89417221Y-112527011D01*
X89417222Y-112527009D01*
X89446552Y-112491271D01*
X89529814Y-112389814D01*
X89631271Y-112306552D01*
X89667009Y-112277222D01*
X89736689Y-112239977D01*
X89823533Y-112193557D01*
X89880147Y-112176384D01*
X89993373Y-112142037D01*
X90059557Y-112135519D01*
X90125740Y-112129000D01*
X90214260Y-112129000D01*
X90280443Y-112135519D01*
X90280443Y-112135519D01*
G37*
G36*
X115736821Y-112191313D02*
X115736824Y-112191314D01*
X115736825Y-112191314D01*
X115897239Y-112239975D01*
X115897241Y-112239976D01*
X115897244Y-112239977D01*
X116045078Y-112318995D01*
X116174659Y-112425341D01*
X116281005Y-112554922D01*
X116360023Y-112702756D01*
X116360024Y-112702759D01*
X116360025Y-112702761D01*
X116405713Y-112853375D01*
X116408687Y-112863179D01*
X116425117Y-113030000D01*
X116408687Y-113196821D01*
X116408686Y-113196824D01*
X116408686Y-113196825D01*
X116405713Y-113206627D01*
X116360023Y-113357244D01*
X116281005Y-113505078D01*
X116174659Y-113634659D01*
X116045078Y-113741005D01*
X115897244Y-113820023D01*
X115897241Y-113820024D01*
X115897239Y-113820025D01*
X115736825Y-113868686D01*
X115736824Y-113868686D01*
X115736821Y-113868687D01*
X115611804Y-113881000D01*
X115528196Y-113881000D01*
X115403179Y-113868687D01*
X115403176Y-113868686D01*
X115403175Y-113868686D01*
X115242761Y-113820025D01*
X115242759Y-113820024D01*
X115242756Y-113820023D01*
X115094922Y-113741005D01*
X114965341Y-113634659D01*
X114858995Y-113505078D01*
X114779977Y-113357244D01*
X114734288Y-113206627D01*
X114731314Y-113196825D01*
X114731314Y-113196824D01*
X114731313Y-113196821D01*
X114714883Y-113030000D01*
X114731313Y-112863179D01*
X114734287Y-112853375D01*
X114779975Y-112702761D01*
X114779976Y-112702759D01*
X114779977Y-112702756D01*
X114858995Y-112554922D01*
X114965341Y-112425341D01*
X115094922Y-112318995D01*
X115242756Y-112239977D01*
X115242759Y-112239976D01*
X115242761Y-112239975D01*
X115403175Y-112191314D01*
X115403176Y-112191314D01*
X115403179Y-112191313D01*
X115528196Y-112179000D01*
X115611804Y-112179000D01*
X115736821Y-112191313D01*
X115736821Y-112191313D01*
G37*
G36*
X123756821Y-112191313D02*
X123756824Y-112191314D01*
X123756825Y-112191314D01*
X123917239Y-112239975D01*
X123917241Y-112239976D01*
X123917244Y-112239977D01*
X124065078Y-112318995D01*
X124194659Y-112425341D01*
X124301005Y-112554922D01*
X124380023Y-112702756D01*
X124380024Y-112702759D01*
X124380025Y-112702761D01*
X124425713Y-112853375D01*
X124428687Y-112863179D01*
X124445117Y-113030000D01*
X124428687Y-113196821D01*
X124428686Y-113196824D01*
X124428686Y-113196825D01*
X124425713Y-113206627D01*
X124380023Y-113357244D01*
X124301005Y-113505078D01*
X124194659Y-113634659D01*
X124065078Y-113741005D01*
X123917244Y-113820023D01*
X123917241Y-113820024D01*
X123917239Y-113820025D01*
X123756825Y-113868686D01*
X123756824Y-113868686D01*
X123756821Y-113868687D01*
X123631804Y-113881000D01*
X122748196Y-113881000D01*
X122623179Y-113868687D01*
X122623176Y-113868686D01*
X122623175Y-113868686D01*
X122462761Y-113820025D01*
X122462759Y-113820024D01*
X122462756Y-113820023D01*
X122314922Y-113741005D01*
X122185341Y-113634659D01*
X122078995Y-113505078D01*
X121999977Y-113357244D01*
X121954288Y-113206627D01*
X121951314Y-113196825D01*
X121951314Y-113196824D01*
X121951313Y-113196821D01*
X121934883Y-113030000D01*
X121951313Y-112863179D01*
X121954287Y-112853375D01*
X121999975Y-112702761D01*
X121999976Y-112702759D01*
X121999977Y-112702756D01*
X122078995Y-112554922D01*
X122185341Y-112425341D01*
X122314922Y-112318995D01*
X122462756Y-112239977D01*
X122462759Y-112239976D01*
X122462761Y-112239975D01*
X122623175Y-112191314D01*
X122623176Y-112191314D01*
X122623179Y-112191313D01*
X122748196Y-112179000D01*
X123631804Y-112179000D01*
X123756821Y-112191313D01*
X123756821Y-112191313D01*
G37*
G36*
X131376821Y-112191313D02*
X131376824Y-112191314D01*
X131376825Y-112191314D01*
X131537239Y-112239975D01*
X131537241Y-112239976D01*
X131537244Y-112239977D01*
X131685078Y-112318995D01*
X131814659Y-112425341D01*
X131921005Y-112554922D01*
X132000023Y-112702756D01*
X132000024Y-112702759D01*
X132000025Y-112702761D01*
X132045713Y-112853375D01*
X132048687Y-112863179D01*
X132065117Y-113030000D01*
X132048687Y-113196821D01*
X132048686Y-113196824D01*
X132048686Y-113196825D01*
X132045713Y-113206627D01*
X132000023Y-113357244D01*
X131921005Y-113505078D01*
X131814659Y-113634659D01*
X131685078Y-113741005D01*
X131537244Y-113820023D01*
X131537241Y-113820024D01*
X131537239Y-113820025D01*
X131376825Y-113868686D01*
X131376824Y-113868686D01*
X131376821Y-113868687D01*
X131251804Y-113881000D01*
X130368196Y-113881000D01*
X130243179Y-113868687D01*
X130243176Y-113868686D01*
X130243175Y-113868686D01*
X130082761Y-113820025D01*
X130082759Y-113820024D01*
X130082756Y-113820023D01*
X129934922Y-113741005D01*
X129805341Y-113634659D01*
X129698995Y-113505078D01*
X129619977Y-113357244D01*
X129574288Y-113206627D01*
X129571314Y-113196825D01*
X129571314Y-113196824D01*
X129571313Y-113196821D01*
X129554883Y-113030000D01*
X129571313Y-112863179D01*
X129574287Y-112853375D01*
X129619975Y-112702761D01*
X129619976Y-112702759D01*
X129619977Y-112702756D01*
X129698995Y-112554922D01*
X129805341Y-112425341D01*
X129934922Y-112318995D01*
X130082756Y-112239977D01*
X130082759Y-112239976D01*
X130082761Y-112239975D01*
X130243175Y-112191314D01*
X130243176Y-112191314D01*
X130243179Y-112191313D01*
X130368196Y-112179000D01*
X131251804Y-112179000D01*
X131376821Y-112191313D01*
X131376821Y-112191313D01*
G37*
G36*
X100496821Y-112191313D02*
X100496824Y-112191314D01*
X100496825Y-112191314D01*
X100657239Y-112239975D01*
X100657241Y-112239976D01*
X100657244Y-112239977D01*
X100805078Y-112318995D01*
X100934659Y-112425341D01*
X101041005Y-112554922D01*
X101120023Y-112702756D01*
X101120024Y-112702759D01*
X101120025Y-112702761D01*
X101165713Y-112853375D01*
X101168687Y-112863179D01*
X101185117Y-113030000D01*
X101168687Y-113196821D01*
X101168686Y-113196824D01*
X101168686Y-113196825D01*
X101165713Y-113206627D01*
X101120023Y-113357244D01*
X101041005Y-113505078D01*
X100934659Y-113634659D01*
X100805078Y-113741005D01*
X100657244Y-113820023D01*
X100657241Y-113820024D01*
X100657239Y-113820025D01*
X100496825Y-113868686D01*
X100496824Y-113868686D01*
X100496821Y-113868687D01*
X100371804Y-113881000D01*
X100288196Y-113881000D01*
X100163179Y-113868687D01*
X100163176Y-113868686D01*
X100163175Y-113868686D01*
X100002761Y-113820025D01*
X100002759Y-113820024D01*
X100002756Y-113820023D01*
X99854922Y-113741005D01*
X99725341Y-113634659D01*
X99618995Y-113505078D01*
X99539977Y-113357244D01*
X99494288Y-113206627D01*
X99491314Y-113196825D01*
X99491314Y-113196824D01*
X99491313Y-113196821D01*
X99474883Y-113030000D01*
X99491313Y-112863179D01*
X99494287Y-112853375D01*
X99539975Y-112702761D01*
X99539976Y-112702759D01*
X99539977Y-112702756D01*
X99618995Y-112554922D01*
X99725341Y-112425341D01*
X99854922Y-112318995D01*
X100002756Y-112239977D01*
X100002759Y-112239976D01*
X100002761Y-112239975D01*
X100163175Y-112191314D01*
X100163176Y-112191314D01*
X100163179Y-112191313D01*
X100288196Y-112179000D01*
X100371804Y-112179000D01*
X100496821Y-112191313D01*
X100496821Y-112191313D01*
G37*
G36*
X90280442Y-109595518D02*
X90346627Y-109602037D01*
X90459853Y-109636384D01*
X90516467Y-109653557D01*
X90603311Y-109699977D01*
X90672991Y-109737222D01*
X90708729Y-109766552D01*
X90810186Y-109849814D01*
X90890369Y-109947519D01*
X90922778Y-109987009D01*
X90922779Y-109987011D01*
X91006443Y-110143533D01*
X91023616Y-110200147D01*
X91057963Y-110313373D01*
X91075359Y-110490000D01*
X91057963Y-110666627D01*
X91036243Y-110738228D01*
X91006443Y-110836467D01*
X90937698Y-110965078D01*
X90922778Y-110992991D01*
X90893448Y-111028729D01*
X90810186Y-111130186D01*
X90708729Y-111213448D01*
X90672991Y-111242778D01*
X90672989Y-111242779D01*
X90516467Y-111326443D01*
X90509069Y-111328687D01*
X90346627Y-111377963D01*
X90280443Y-111384481D01*
X90214260Y-111391000D01*
X90125740Y-111391000D01*
X90059557Y-111384481D01*
X89993373Y-111377963D01*
X89830931Y-111328687D01*
X89823533Y-111326443D01*
X89667011Y-111242779D01*
X89667009Y-111242778D01*
X89631271Y-111213448D01*
X89529814Y-111130186D01*
X89446552Y-111028729D01*
X89417222Y-110992991D01*
X89402302Y-110965078D01*
X89333557Y-110836467D01*
X89303757Y-110738228D01*
X89282037Y-110666627D01*
X89264641Y-110490000D01*
X89282037Y-110313373D01*
X89316384Y-110200147D01*
X89333557Y-110143533D01*
X89417221Y-109987011D01*
X89417222Y-109987009D01*
X89449631Y-109947519D01*
X89529814Y-109849814D01*
X89631271Y-109766552D01*
X89667009Y-109737222D01*
X89736689Y-109699977D01*
X89823533Y-109653557D01*
X89880147Y-109636384D01*
X89993373Y-109602037D01*
X90059558Y-109595518D01*
X90125740Y-109589000D01*
X90214260Y-109589000D01*
X90280442Y-109595518D01*
X90280442Y-109595518D01*
G37*
G36*
X131376821Y-109651313D02*
X131376824Y-109651314D01*
X131376825Y-109651314D01*
X131537239Y-109699975D01*
X131537241Y-109699976D01*
X131537244Y-109699977D01*
X131685078Y-109778995D01*
X131814659Y-109885341D01*
X131921005Y-110014922D01*
X132000023Y-110162756D01*
X132000024Y-110162759D01*
X132000025Y-110162761D01*
X132045713Y-110313375D01*
X132048687Y-110323179D01*
X132065117Y-110490000D01*
X132048687Y-110656821D01*
X132048686Y-110656824D01*
X132048686Y-110656825D01*
X132023993Y-110738228D01*
X132000023Y-110817244D01*
X131921005Y-110965078D01*
X131814659Y-111094659D01*
X131685078Y-111201005D01*
X131537244Y-111280023D01*
X131537241Y-111280024D01*
X131537239Y-111280025D01*
X131376825Y-111328686D01*
X131376824Y-111328686D01*
X131376821Y-111328687D01*
X131251804Y-111341000D01*
X130368196Y-111341000D01*
X130243179Y-111328687D01*
X130243176Y-111328686D01*
X130243175Y-111328686D01*
X130082761Y-111280025D01*
X130082759Y-111280024D01*
X130082756Y-111280023D01*
X129934922Y-111201005D01*
X129805341Y-111094659D01*
X129698995Y-110965078D01*
X129619977Y-110817244D01*
X129596008Y-110738228D01*
X129571314Y-110656825D01*
X129571314Y-110656824D01*
X129571313Y-110656821D01*
X129554883Y-110490000D01*
X129571313Y-110323179D01*
X129574287Y-110313375D01*
X129619975Y-110162761D01*
X129619976Y-110162759D01*
X129619977Y-110162756D01*
X129698995Y-110014922D01*
X129805341Y-109885341D01*
X129934922Y-109778995D01*
X130082756Y-109699977D01*
X130082759Y-109699976D01*
X130082761Y-109699975D01*
X130243175Y-109651314D01*
X130243176Y-109651314D01*
X130243179Y-109651313D01*
X130368196Y-109639000D01*
X131251804Y-109639000D01*
X131376821Y-109651313D01*
X131376821Y-109651313D01*
G37*
G36*
X123756821Y-109651313D02*
X123756824Y-109651314D01*
X123756825Y-109651314D01*
X123917239Y-109699975D01*
X123917241Y-109699976D01*
X123917244Y-109699977D01*
X124065078Y-109778995D01*
X124194659Y-109885341D01*
X124301005Y-110014922D01*
X124380023Y-110162756D01*
X124380024Y-110162759D01*
X124380025Y-110162761D01*
X124425713Y-110313375D01*
X124428687Y-110323179D01*
X124445117Y-110490000D01*
X124428687Y-110656821D01*
X124428686Y-110656824D01*
X124428686Y-110656825D01*
X124403993Y-110738228D01*
X124380023Y-110817244D01*
X124301005Y-110965078D01*
X124194659Y-111094659D01*
X124065078Y-111201005D01*
X123917244Y-111280023D01*
X123917241Y-111280024D01*
X123917239Y-111280025D01*
X123756825Y-111328686D01*
X123756824Y-111328686D01*
X123756821Y-111328687D01*
X123631804Y-111341000D01*
X122748196Y-111341000D01*
X122623179Y-111328687D01*
X122623176Y-111328686D01*
X122623175Y-111328686D01*
X122462761Y-111280025D01*
X122462759Y-111280024D01*
X122462756Y-111280023D01*
X122314922Y-111201005D01*
X122185341Y-111094659D01*
X122078995Y-110965078D01*
X121999977Y-110817244D01*
X121976008Y-110738228D01*
X121951314Y-110656825D01*
X121951314Y-110656824D01*
X121951313Y-110656821D01*
X121934883Y-110490000D01*
X121951313Y-110323179D01*
X121954287Y-110313375D01*
X121999975Y-110162761D01*
X121999976Y-110162759D01*
X121999977Y-110162756D01*
X122078995Y-110014922D01*
X122185341Y-109885341D01*
X122314922Y-109778995D01*
X122462756Y-109699977D01*
X122462759Y-109699976D01*
X122462761Y-109699975D01*
X122623175Y-109651314D01*
X122623176Y-109651314D01*
X122623179Y-109651313D01*
X122748196Y-109639000D01*
X123631804Y-109639000D01*
X123756821Y-109651313D01*
X123756821Y-109651313D01*
G37*
G36*
X115736821Y-109651313D02*
X115736824Y-109651314D01*
X115736825Y-109651314D01*
X115897239Y-109699975D01*
X115897241Y-109699976D01*
X115897244Y-109699977D01*
X116045078Y-109778995D01*
X116174659Y-109885341D01*
X116281005Y-110014922D01*
X116360023Y-110162756D01*
X116360024Y-110162759D01*
X116360025Y-110162761D01*
X116405713Y-110313375D01*
X116408687Y-110323179D01*
X116425117Y-110490000D01*
X116408687Y-110656821D01*
X116408686Y-110656824D01*
X116408686Y-110656825D01*
X116383993Y-110738228D01*
X116360023Y-110817244D01*
X116281005Y-110965078D01*
X116174659Y-111094659D01*
X116045078Y-111201005D01*
X115897244Y-111280023D01*
X115897241Y-111280024D01*
X115897239Y-111280025D01*
X115736825Y-111328686D01*
X115736824Y-111328686D01*
X115736821Y-111328687D01*
X115611804Y-111341000D01*
X115528196Y-111341000D01*
X115403179Y-111328687D01*
X115403176Y-111328686D01*
X115403175Y-111328686D01*
X115242761Y-111280025D01*
X115242759Y-111280024D01*
X115242756Y-111280023D01*
X115094922Y-111201005D01*
X114965341Y-111094659D01*
X114858995Y-110965078D01*
X114779977Y-110817244D01*
X114756008Y-110738228D01*
X114731314Y-110656825D01*
X114731314Y-110656824D01*
X114731313Y-110656821D01*
X114714883Y-110490000D01*
X114731313Y-110323179D01*
X114734287Y-110313375D01*
X114779975Y-110162761D01*
X114779976Y-110162759D01*
X114779977Y-110162756D01*
X114858995Y-110014922D01*
X114965341Y-109885341D01*
X115094922Y-109778995D01*
X115242756Y-109699977D01*
X115242759Y-109699976D01*
X115242761Y-109699975D01*
X115403175Y-109651314D01*
X115403176Y-109651314D01*
X115403179Y-109651313D01*
X115528196Y-109639000D01*
X115611804Y-109639000D01*
X115736821Y-109651313D01*
X115736821Y-109651313D01*
G37*
G36*
X100496821Y-109651313D02*
X100496824Y-109651314D01*
X100496825Y-109651314D01*
X100657239Y-109699975D01*
X100657241Y-109699976D01*
X100657244Y-109699977D01*
X100805078Y-109778995D01*
X100934659Y-109885341D01*
X101041005Y-110014922D01*
X101120023Y-110162756D01*
X101120024Y-110162759D01*
X101120025Y-110162761D01*
X101165713Y-110313375D01*
X101168687Y-110323179D01*
X101185117Y-110490000D01*
X101168687Y-110656821D01*
X101168686Y-110656824D01*
X101168686Y-110656825D01*
X101143993Y-110738228D01*
X101120023Y-110817244D01*
X101041005Y-110965078D01*
X100934659Y-111094659D01*
X100805078Y-111201005D01*
X100657244Y-111280023D01*
X100657241Y-111280024D01*
X100657239Y-111280025D01*
X100496825Y-111328686D01*
X100496824Y-111328686D01*
X100496821Y-111328687D01*
X100371804Y-111341000D01*
X100288196Y-111341000D01*
X100163179Y-111328687D01*
X100163176Y-111328686D01*
X100163175Y-111328686D01*
X100002761Y-111280025D01*
X100002759Y-111280024D01*
X100002756Y-111280023D01*
X99854922Y-111201005D01*
X99725341Y-111094659D01*
X99618995Y-110965078D01*
X99539977Y-110817244D01*
X99516008Y-110738228D01*
X99491314Y-110656825D01*
X99491314Y-110656824D01*
X99491313Y-110656821D01*
X99474883Y-110490000D01*
X99491313Y-110323179D01*
X99494287Y-110313375D01*
X99539975Y-110162761D01*
X99539976Y-110162759D01*
X99539977Y-110162756D01*
X99618995Y-110014922D01*
X99725341Y-109885341D01*
X99854922Y-109778995D01*
X100002756Y-109699977D01*
X100002759Y-109699976D01*
X100002761Y-109699975D01*
X100163175Y-109651314D01*
X100163176Y-109651314D01*
X100163179Y-109651313D01*
X100288196Y-109639000D01*
X100371804Y-109639000D01*
X100496821Y-109651313D01*
X100496821Y-109651313D01*
G37*
G36*
X136138228Y-109671703D02*
X136293100Y-109735853D01*
X136432481Y-109828985D01*
X136551015Y-109947519D01*
X136644147Y-110086900D01*
X136708297Y-110241772D01*
X136741000Y-110406184D01*
X136741000Y-110573816D01*
X136708297Y-110738228D01*
X136644147Y-110893100D01*
X136551015Y-111032481D01*
X136432481Y-111151015D01*
X136293100Y-111244147D01*
X136138228Y-111308297D01*
X135973816Y-111341000D01*
X135806184Y-111341000D01*
X135641772Y-111308297D01*
X135486900Y-111244147D01*
X135347519Y-111151015D01*
X135228985Y-111032481D01*
X135135853Y-110893100D01*
X135071703Y-110738228D01*
X135039000Y-110573816D01*
X135039000Y-110406184D01*
X135071703Y-110241772D01*
X135135853Y-110086900D01*
X135228985Y-109947519D01*
X135347519Y-109828985D01*
X135486900Y-109735853D01*
X135641772Y-109671703D01*
X135806184Y-109639000D01*
X135973816Y-109639000D01*
X136138228Y-109671703D01*
X136138228Y-109671703D01*
G37*
G36*
X90280442Y-107055518D02*
X90346627Y-107062037D01*
X90459853Y-107096384D01*
X90516467Y-107113557D01*
X90603311Y-107159977D01*
X90672991Y-107197222D01*
X90708729Y-107226552D01*
X90810186Y-107309814D01*
X90893448Y-107411271D01*
X90922778Y-107447009D01*
X90922779Y-107447011D01*
X91006443Y-107603533D01*
X91023616Y-107660147D01*
X91057963Y-107773373D01*
X91075359Y-107950000D01*
X91057963Y-108126627D01*
X91023616Y-108239853D01*
X91006443Y-108296467D01*
X90937698Y-108425078D01*
X90922778Y-108452991D01*
X90893448Y-108488729D01*
X90810186Y-108590186D01*
X90708729Y-108673448D01*
X90672991Y-108702778D01*
X90672989Y-108702779D01*
X90516467Y-108786443D01*
X90509069Y-108788687D01*
X90346627Y-108837963D01*
X90280442Y-108844482D01*
X90214260Y-108851000D01*
X90125740Y-108851000D01*
X90059558Y-108844482D01*
X89993373Y-108837963D01*
X89830931Y-108788687D01*
X89823533Y-108786443D01*
X89667011Y-108702779D01*
X89667009Y-108702778D01*
X89631271Y-108673448D01*
X89529814Y-108590186D01*
X89446552Y-108488729D01*
X89417222Y-108452991D01*
X89402302Y-108425078D01*
X89333557Y-108296467D01*
X89316384Y-108239853D01*
X89282037Y-108126627D01*
X89264641Y-107950000D01*
X89282037Y-107773373D01*
X89316384Y-107660147D01*
X89333557Y-107603533D01*
X89417221Y-107447011D01*
X89417222Y-107447009D01*
X89446552Y-107411271D01*
X89529814Y-107309814D01*
X89631271Y-107226552D01*
X89667009Y-107197222D01*
X89736689Y-107159977D01*
X89823533Y-107113557D01*
X89880147Y-107096384D01*
X89993373Y-107062037D01*
X90059558Y-107055518D01*
X90125740Y-107049000D01*
X90214260Y-107049000D01*
X90280442Y-107055518D01*
X90280442Y-107055518D01*
G37*
G36*
X115736821Y-107111313D02*
X115736824Y-107111314D01*
X115736825Y-107111314D01*
X115897239Y-107159975D01*
X115897241Y-107159976D01*
X115897244Y-107159977D01*
X116045078Y-107238995D01*
X116174659Y-107345341D01*
X116281005Y-107474922D01*
X116360023Y-107622756D01*
X116360024Y-107622759D01*
X116360025Y-107622761D01*
X116405713Y-107773375D01*
X116408687Y-107783179D01*
X116425117Y-107950000D01*
X116408687Y-108116821D01*
X116408686Y-108116824D01*
X116408686Y-108116825D01*
X116405713Y-108126627D01*
X116360023Y-108277244D01*
X116281005Y-108425078D01*
X116174659Y-108554659D01*
X116045078Y-108661005D01*
X115897244Y-108740023D01*
X115897241Y-108740024D01*
X115897239Y-108740025D01*
X115736825Y-108788686D01*
X115736824Y-108788686D01*
X115736821Y-108788687D01*
X115611804Y-108801000D01*
X115528196Y-108801000D01*
X115403179Y-108788687D01*
X115403176Y-108788686D01*
X115403175Y-108788686D01*
X115242761Y-108740025D01*
X115242759Y-108740024D01*
X115242756Y-108740023D01*
X115094922Y-108661005D01*
X114965341Y-108554659D01*
X114858995Y-108425078D01*
X114779977Y-108277244D01*
X114734288Y-108126627D01*
X114731314Y-108116825D01*
X114731314Y-108116824D01*
X114731313Y-108116821D01*
X114714883Y-107950000D01*
X114731313Y-107783179D01*
X114734287Y-107773375D01*
X114779975Y-107622761D01*
X114779976Y-107622759D01*
X114779977Y-107622756D01*
X114858995Y-107474922D01*
X114965341Y-107345341D01*
X115094922Y-107238995D01*
X115242756Y-107159977D01*
X115242759Y-107159976D01*
X115242761Y-107159975D01*
X115403175Y-107111314D01*
X115403176Y-107111314D01*
X115403179Y-107111313D01*
X115528196Y-107099000D01*
X115611804Y-107099000D01*
X115736821Y-107111313D01*
X115736821Y-107111313D01*
G37*
G36*
X100496821Y-107111313D02*
X100496824Y-107111314D01*
X100496825Y-107111314D01*
X100657239Y-107159975D01*
X100657241Y-107159976D01*
X100657244Y-107159977D01*
X100805078Y-107238995D01*
X100934659Y-107345341D01*
X101041005Y-107474922D01*
X101120023Y-107622756D01*
X101120024Y-107622759D01*
X101120025Y-107622761D01*
X101165713Y-107773375D01*
X101168687Y-107783179D01*
X101185117Y-107950000D01*
X101168687Y-108116821D01*
X101168686Y-108116824D01*
X101168686Y-108116825D01*
X101165713Y-108126627D01*
X101120023Y-108277244D01*
X101041005Y-108425078D01*
X100934659Y-108554659D01*
X100805078Y-108661005D01*
X100657244Y-108740023D01*
X100657241Y-108740024D01*
X100657239Y-108740025D01*
X100496825Y-108788686D01*
X100496824Y-108788686D01*
X100496821Y-108788687D01*
X100371804Y-108801000D01*
X100288196Y-108801000D01*
X100163179Y-108788687D01*
X100163176Y-108788686D01*
X100163175Y-108788686D01*
X100002761Y-108740025D01*
X100002759Y-108740024D01*
X100002756Y-108740023D01*
X99854922Y-108661005D01*
X99725341Y-108554659D01*
X99618995Y-108425078D01*
X99539977Y-108277244D01*
X99494288Y-108126627D01*
X99491314Y-108116825D01*
X99491314Y-108116824D01*
X99491313Y-108116821D01*
X99474883Y-107950000D01*
X99491313Y-107783179D01*
X99494287Y-107773375D01*
X99539975Y-107622761D01*
X99539976Y-107622759D01*
X99539977Y-107622756D01*
X99618995Y-107474922D01*
X99725341Y-107345341D01*
X99854922Y-107238995D01*
X100002756Y-107159977D01*
X100002759Y-107159976D01*
X100002761Y-107159975D01*
X100163175Y-107111314D01*
X100163176Y-107111314D01*
X100163179Y-107111313D01*
X100288196Y-107099000D01*
X100371804Y-107099000D01*
X100496821Y-107111313D01*
X100496821Y-107111313D01*
G37*
G36*
X90280443Y-104515519D02*
X90346627Y-104522037D01*
X90459853Y-104556384D01*
X90516467Y-104573557D01*
X90603311Y-104619977D01*
X90672991Y-104657222D01*
X90675157Y-104659000D01*
X90810186Y-104769814D01*
X90893448Y-104871271D01*
X90922778Y-104907009D01*
X90922779Y-104907011D01*
X91006443Y-105063533D01*
X91023616Y-105120147D01*
X91057963Y-105233373D01*
X91075359Y-105410000D01*
X91057963Y-105586627D01*
X91045092Y-105629056D01*
X91006443Y-105756467D01*
X91001490Y-105765733D01*
X90922778Y-105912991D01*
X90893448Y-105948729D01*
X90810186Y-106050186D01*
X90710323Y-106132140D01*
X90672991Y-106162778D01*
X90672989Y-106162779D01*
X90516467Y-106246443D01*
X90509069Y-106248687D01*
X90346627Y-106297963D01*
X90280442Y-106304482D01*
X90214260Y-106311000D01*
X90125740Y-106311000D01*
X90059558Y-106304482D01*
X89993373Y-106297963D01*
X89830931Y-106248687D01*
X89823533Y-106246443D01*
X89667011Y-106162779D01*
X89667009Y-106162778D01*
X89629677Y-106132140D01*
X89529814Y-106050186D01*
X89446552Y-105948729D01*
X89417222Y-105912991D01*
X89338510Y-105765733D01*
X89333557Y-105756467D01*
X89294908Y-105629056D01*
X89282037Y-105586627D01*
X89264641Y-105410000D01*
X89282037Y-105233373D01*
X89316384Y-105120147D01*
X89333557Y-105063533D01*
X89417221Y-104907011D01*
X89417222Y-104907009D01*
X89446552Y-104871271D01*
X89529814Y-104769814D01*
X89664843Y-104659000D01*
X89667009Y-104657222D01*
X89736689Y-104619977D01*
X89823533Y-104573557D01*
X89880147Y-104556384D01*
X89993373Y-104522037D01*
X90059557Y-104515519D01*
X90125740Y-104509000D01*
X90214260Y-104509000D01*
X90280443Y-104515519D01*
X90280443Y-104515519D01*
G37*
G36*
X100496821Y-104571313D02*
X100496824Y-104571314D01*
X100496825Y-104571314D01*
X100657239Y-104619975D01*
X100657241Y-104619976D01*
X100657244Y-104619977D01*
X100805078Y-104698995D01*
X100934659Y-104805341D01*
X101041005Y-104934922D01*
X101120023Y-105082756D01*
X101120024Y-105082759D01*
X101120025Y-105082761D01*
X101165713Y-105233375D01*
X101168687Y-105243179D01*
X101185117Y-105410000D01*
X101168687Y-105576821D01*
X101168686Y-105576824D01*
X101168686Y-105576825D01*
X101165713Y-105586627D01*
X101120023Y-105737244D01*
X101041005Y-105885078D01*
X100934659Y-106014659D01*
X100805078Y-106121005D01*
X100657244Y-106200023D01*
X100657241Y-106200024D01*
X100657239Y-106200025D01*
X100496825Y-106248686D01*
X100496824Y-106248686D01*
X100496821Y-106248687D01*
X100371804Y-106261000D01*
X100288196Y-106261000D01*
X100163179Y-106248687D01*
X100163176Y-106248686D01*
X100163175Y-106248686D01*
X100002761Y-106200025D01*
X100002759Y-106200024D01*
X100002756Y-106200023D01*
X99854922Y-106121005D01*
X99725341Y-106014659D01*
X99618995Y-105885078D01*
X99539977Y-105737244D01*
X99494288Y-105586627D01*
X99491314Y-105576825D01*
X99491314Y-105576824D01*
X99491313Y-105576821D01*
X99474883Y-105410000D01*
X99491313Y-105243179D01*
X99494287Y-105233375D01*
X99539975Y-105082761D01*
X99539976Y-105082759D01*
X99539977Y-105082756D01*
X99618995Y-104934922D01*
X99725341Y-104805341D01*
X99854922Y-104698995D01*
X100002756Y-104619977D01*
X100002759Y-104619976D01*
X100002761Y-104619975D01*
X100163175Y-104571314D01*
X100163176Y-104571314D01*
X100163179Y-104571313D01*
X100288196Y-104559000D01*
X100371804Y-104559000D01*
X100496821Y-104571313D01*
X100496821Y-104571313D01*
G37*
G36*
X115736821Y-104571313D02*
X115736824Y-104571314D01*
X115736825Y-104571314D01*
X115897239Y-104619975D01*
X115897241Y-104619976D01*
X115897244Y-104619977D01*
X116045078Y-104698995D01*
X116174659Y-104805341D01*
X116281005Y-104934922D01*
X116360023Y-105082756D01*
X116360024Y-105082759D01*
X116360025Y-105082761D01*
X116405713Y-105233375D01*
X116408687Y-105243179D01*
X116425117Y-105410000D01*
X116408687Y-105576821D01*
X116408686Y-105576824D01*
X116408686Y-105576825D01*
X116405713Y-105586627D01*
X116360023Y-105737244D01*
X116281005Y-105885078D01*
X116174659Y-106014659D01*
X116045078Y-106121005D01*
X115897244Y-106200023D01*
X115897241Y-106200024D01*
X115897239Y-106200025D01*
X115736825Y-106248686D01*
X115736824Y-106248686D01*
X115736821Y-106248687D01*
X115611804Y-106261000D01*
X115528196Y-106261000D01*
X115403179Y-106248687D01*
X115403176Y-106248686D01*
X115403175Y-106248686D01*
X115242761Y-106200025D01*
X115242759Y-106200024D01*
X115242756Y-106200023D01*
X115094922Y-106121005D01*
X114965341Y-106014659D01*
X114858995Y-105885078D01*
X114779977Y-105737244D01*
X114734288Y-105586627D01*
X114731314Y-105576825D01*
X114731314Y-105576824D01*
X114731313Y-105576821D01*
X114714883Y-105410000D01*
X114731313Y-105243179D01*
X114734287Y-105233375D01*
X114779975Y-105082761D01*
X114779976Y-105082759D01*
X114779977Y-105082756D01*
X114858995Y-104934922D01*
X114965341Y-104805341D01*
X115094922Y-104698995D01*
X115242756Y-104619977D01*
X115242759Y-104619976D01*
X115242761Y-104619975D01*
X115403175Y-104571314D01*
X115403176Y-104571314D01*
X115403179Y-104571313D01*
X115528196Y-104559000D01*
X115611804Y-104559000D01*
X115736821Y-104571313D01*
X115736821Y-104571313D01*
G37*
G36*
X136022004Y-104670544D02*
X136109059Y-104687860D01*
X136245732Y-104744472D01*
X136245733Y-104744473D01*
X136368738Y-104826662D01*
X136473338Y-104931262D01*
X136473340Y-104931265D01*
X136555528Y-105054268D01*
X136612140Y-105190941D01*
X136641000Y-105336033D01*
X136641000Y-105483967D01*
X136612140Y-105629059D01*
X136555528Y-105765732D01*
X136555527Y-105765733D01*
X136473338Y-105888738D01*
X136368738Y-105993338D01*
X136368735Y-105993340D01*
X136245732Y-106075528D01*
X136109059Y-106132140D01*
X136022004Y-106149456D01*
X135963969Y-106161000D01*
X135816031Y-106161000D01*
X135757996Y-106149456D01*
X135670941Y-106132140D01*
X135534268Y-106075528D01*
X135411265Y-105993340D01*
X135411262Y-105993338D01*
X135306662Y-105888738D01*
X135224473Y-105765733D01*
X135224472Y-105765732D01*
X135167860Y-105629059D01*
X135139000Y-105483967D01*
X135139000Y-105336033D01*
X135167860Y-105190941D01*
X135224472Y-105054268D01*
X135306660Y-104931265D01*
X135306662Y-104931262D01*
X135411262Y-104826662D01*
X135534267Y-104744473D01*
X135534268Y-104744472D01*
X135670941Y-104687860D01*
X135757996Y-104670544D01*
X135816031Y-104659000D01*
X135963969Y-104659000D01*
X136022004Y-104670544D01*
X136022004Y-104670544D01*
G37*
G36*
X90280442Y-101975518D02*
X90346627Y-101982037D01*
X90459853Y-102016384D01*
X90516467Y-102033557D01*
X90603311Y-102079977D01*
X90672991Y-102117222D01*
X90708729Y-102146552D01*
X90810186Y-102229814D01*
X90893448Y-102331271D01*
X90922778Y-102367009D01*
X90922779Y-102367011D01*
X91006443Y-102523533D01*
X91023616Y-102580147D01*
X91057963Y-102693373D01*
X91075359Y-102870000D01*
X91057963Y-103046627D01*
X91023616Y-103159853D01*
X91006443Y-103216467D01*
X90937698Y-103345078D01*
X90922778Y-103372991D01*
X90893448Y-103408729D01*
X90810186Y-103510186D01*
X90708729Y-103593448D01*
X90672991Y-103622778D01*
X90672989Y-103622779D01*
X90516467Y-103706443D01*
X90509069Y-103708687D01*
X90346627Y-103757963D01*
X90280443Y-103764481D01*
X90214260Y-103771000D01*
X90125740Y-103771000D01*
X90059557Y-103764481D01*
X89993373Y-103757963D01*
X89830931Y-103708687D01*
X89823533Y-103706443D01*
X89667011Y-103622779D01*
X89667009Y-103622778D01*
X89631271Y-103593448D01*
X89529814Y-103510186D01*
X89446552Y-103408729D01*
X89417222Y-103372991D01*
X89402302Y-103345078D01*
X89333557Y-103216467D01*
X89316384Y-103159853D01*
X89282037Y-103046627D01*
X89264641Y-102870000D01*
X89282037Y-102693373D01*
X89316384Y-102580147D01*
X89333557Y-102523533D01*
X89417221Y-102367011D01*
X89417222Y-102367009D01*
X89446552Y-102331271D01*
X89529814Y-102229814D01*
X89631271Y-102146552D01*
X89667009Y-102117222D01*
X89736689Y-102079977D01*
X89823533Y-102033557D01*
X89880147Y-102016384D01*
X89993373Y-101982037D01*
X90059558Y-101975518D01*
X90125740Y-101969000D01*
X90214260Y-101969000D01*
X90280442Y-101975518D01*
X90280442Y-101975518D01*
G37*
G36*
X123756821Y-102031313D02*
X123756824Y-102031314D01*
X123756825Y-102031314D01*
X123917239Y-102079975D01*
X123917241Y-102079976D01*
X123917244Y-102079977D01*
X124065078Y-102158995D01*
X124194659Y-102265341D01*
X124301005Y-102394922D01*
X124380023Y-102542756D01*
X124380024Y-102542759D01*
X124380025Y-102542761D01*
X124425713Y-102693375D01*
X124428687Y-102703179D01*
X124445117Y-102870000D01*
X124428687Y-103036821D01*
X124428686Y-103036824D01*
X124428686Y-103036825D01*
X124425713Y-103046627D01*
X124380023Y-103197244D01*
X124301005Y-103345078D01*
X124194659Y-103474659D01*
X124065078Y-103581005D01*
X123917244Y-103660023D01*
X123917241Y-103660024D01*
X123917239Y-103660025D01*
X123756825Y-103708686D01*
X123756824Y-103708686D01*
X123756821Y-103708687D01*
X123631804Y-103721000D01*
X122748196Y-103721000D01*
X122623179Y-103708687D01*
X122623176Y-103708686D01*
X122623175Y-103708686D01*
X122462761Y-103660025D01*
X122462759Y-103660024D01*
X122462756Y-103660023D01*
X122314922Y-103581005D01*
X122185341Y-103474659D01*
X122078995Y-103345078D01*
X121999977Y-103197244D01*
X121954288Y-103046627D01*
X121951314Y-103036825D01*
X121951314Y-103036824D01*
X121951313Y-103036821D01*
X121934883Y-102870000D01*
X121951313Y-102703179D01*
X121954287Y-102693375D01*
X121999975Y-102542761D01*
X121999976Y-102542759D01*
X121999977Y-102542756D01*
X122078995Y-102394922D01*
X122185341Y-102265341D01*
X122314922Y-102158995D01*
X122462756Y-102079977D01*
X122462759Y-102079976D01*
X122462761Y-102079975D01*
X122623175Y-102031314D01*
X122623176Y-102031314D01*
X122623179Y-102031313D01*
X122748196Y-102019000D01*
X123631804Y-102019000D01*
X123756821Y-102031313D01*
X123756821Y-102031313D01*
G37*
G36*
X132061000Y-103721000D02*
X129559000Y-103721000D01*
X129559000Y-102019000D01*
X132061000Y-102019000D01*
X132061000Y-103721000D01*
X132061000Y-103721000D01*
G37*
G36*
X100496821Y-102031313D02*
X100496824Y-102031314D01*
X100496825Y-102031314D01*
X100657239Y-102079975D01*
X100657241Y-102079976D01*
X100657244Y-102079977D01*
X100805078Y-102158995D01*
X100934659Y-102265341D01*
X101041005Y-102394922D01*
X101120023Y-102542756D01*
X101120024Y-102542759D01*
X101120025Y-102542761D01*
X101165713Y-102693375D01*
X101168687Y-102703179D01*
X101185117Y-102870000D01*
X101168687Y-103036821D01*
X101168686Y-103036824D01*
X101168686Y-103036825D01*
X101165713Y-103046627D01*
X101120023Y-103197244D01*
X101041005Y-103345078D01*
X100934659Y-103474659D01*
X100805078Y-103581005D01*
X100657244Y-103660023D01*
X100657241Y-103660024D01*
X100657239Y-103660025D01*
X100496825Y-103708686D01*
X100496824Y-103708686D01*
X100496821Y-103708687D01*
X100371804Y-103721000D01*
X100288196Y-103721000D01*
X100163179Y-103708687D01*
X100163176Y-103708686D01*
X100163175Y-103708686D01*
X100002761Y-103660025D01*
X100002759Y-103660024D01*
X100002756Y-103660023D01*
X99854922Y-103581005D01*
X99725341Y-103474659D01*
X99618995Y-103345078D01*
X99539977Y-103197244D01*
X99494288Y-103046627D01*
X99491314Y-103036825D01*
X99491314Y-103036824D01*
X99491313Y-103036821D01*
X99474883Y-102870000D01*
X99491313Y-102703179D01*
X99494287Y-102693375D01*
X99539975Y-102542761D01*
X99539976Y-102542759D01*
X99539977Y-102542756D01*
X99618995Y-102394922D01*
X99725341Y-102265341D01*
X99854922Y-102158995D01*
X100002756Y-102079977D01*
X100002759Y-102079976D01*
X100002761Y-102079975D01*
X100163175Y-102031314D01*
X100163176Y-102031314D01*
X100163179Y-102031313D01*
X100288196Y-102019000D01*
X100371804Y-102019000D01*
X100496821Y-102031313D01*
X100496821Y-102031313D01*
G37*
G36*
X115736821Y-102031313D02*
X115736824Y-102031314D01*
X115736825Y-102031314D01*
X115897239Y-102079975D01*
X115897241Y-102079976D01*
X115897244Y-102079977D01*
X116045078Y-102158995D01*
X116174659Y-102265341D01*
X116281005Y-102394922D01*
X116360023Y-102542756D01*
X116360024Y-102542759D01*
X116360025Y-102542761D01*
X116405713Y-102693375D01*
X116408687Y-102703179D01*
X116425117Y-102870000D01*
X116408687Y-103036821D01*
X116408686Y-103036824D01*
X116408686Y-103036825D01*
X116405713Y-103046627D01*
X116360023Y-103197244D01*
X116281005Y-103345078D01*
X116174659Y-103474659D01*
X116045078Y-103581005D01*
X115897244Y-103660023D01*
X115897241Y-103660024D01*
X115897239Y-103660025D01*
X115736825Y-103708686D01*
X115736824Y-103708686D01*
X115736821Y-103708687D01*
X115611804Y-103721000D01*
X115528196Y-103721000D01*
X115403179Y-103708687D01*
X115403176Y-103708686D01*
X115403175Y-103708686D01*
X115242761Y-103660025D01*
X115242759Y-103660024D01*
X115242756Y-103660023D01*
X115094922Y-103581005D01*
X114965341Y-103474659D01*
X114858995Y-103345078D01*
X114779977Y-103197244D01*
X114734288Y-103046627D01*
X114731314Y-103036825D01*
X114731314Y-103036824D01*
X114731313Y-103036821D01*
X114714883Y-102870000D01*
X114731313Y-102703179D01*
X114734287Y-102693375D01*
X114779975Y-102542761D01*
X114779976Y-102542759D01*
X114779977Y-102542756D01*
X114858995Y-102394922D01*
X114965341Y-102265341D01*
X115094922Y-102158995D01*
X115242756Y-102079977D01*
X115242759Y-102079976D01*
X115242761Y-102079975D01*
X115403175Y-102031314D01*
X115403176Y-102031314D01*
X115403179Y-102031313D01*
X115528196Y-102019000D01*
X115611804Y-102019000D01*
X115736821Y-102031313D01*
X115736821Y-102031313D01*
G37*
G36*
X90280443Y-99435519D02*
X90346627Y-99442037D01*
X90459853Y-99476384D01*
X90516467Y-99493557D01*
X90603311Y-99539977D01*
X90672991Y-99577222D01*
X90708729Y-99606552D01*
X90810186Y-99689814D01*
X90893448Y-99791271D01*
X90922778Y-99827009D01*
X90922779Y-99827011D01*
X91006443Y-99983533D01*
X91023616Y-100040147D01*
X91057963Y-100153373D01*
X91075359Y-100330000D01*
X91057963Y-100506627D01*
X91023616Y-100619853D01*
X91006443Y-100676467D01*
X90937698Y-100805078D01*
X90922778Y-100832991D01*
X90893448Y-100868729D01*
X90810186Y-100970186D01*
X90708729Y-101053448D01*
X90672991Y-101082778D01*
X90672989Y-101082779D01*
X90516467Y-101166443D01*
X90509069Y-101168687D01*
X90346627Y-101217963D01*
X90280443Y-101224481D01*
X90214260Y-101231000D01*
X90125740Y-101231000D01*
X90059558Y-101224482D01*
X89993373Y-101217963D01*
X89830931Y-101168687D01*
X89823533Y-101166443D01*
X89667011Y-101082779D01*
X89667009Y-101082778D01*
X89631271Y-101053448D01*
X89529814Y-100970186D01*
X89446552Y-100868729D01*
X89417222Y-100832991D01*
X89402302Y-100805078D01*
X89333557Y-100676467D01*
X89316384Y-100619853D01*
X89282037Y-100506627D01*
X89264641Y-100330000D01*
X89282037Y-100153373D01*
X89316384Y-100040147D01*
X89333557Y-99983533D01*
X89417221Y-99827011D01*
X89417222Y-99827009D01*
X89446552Y-99791271D01*
X89529814Y-99689814D01*
X89631271Y-99606552D01*
X89667009Y-99577222D01*
X89736689Y-99539977D01*
X89823533Y-99493557D01*
X89880147Y-99476384D01*
X89993373Y-99442037D01*
X90059558Y-99435518D01*
X90125740Y-99429000D01*
X90214260Y-99429000D01*
X90280443Y-99435519D01*
X90280443Y-99435519D01*
G37*
G36*
X100496821Y-99491313D02*
X100496824Y-99491314D01*
X100496825Y-99491314D01*
X100657239Y-99539975D01*
X100657241Y-99539976D01*
X100657244Y-99539977D01*
X100805078Y-99618995D01*
X100934659Y-99725341D01*
X101041005Y-99854922D01*
X101120023Y-100002756D01*
X101120024Y-100002759D01*
X101120025Y-100002761D01*
X101165713Y-100153375D01*
X101168687Y-100163179D01*
X101185117Y-100330000D01*
X101168687Y-100496821D01*
X101168686Y-100496824D01*
X101168686Y-100496825D01*
X101165713Y-100506627D01*
X101120023Y-100657244D01*
X101041005Y-100805078D01*
X100934659Y-100934659D01*
X100805078Y-101041005D01*
X100657244Y-101120023D01*
X100657241Y-101120024D01*
X100657239Y-101120025D01*
X100496825Y-101168686D01*
X100496824Y-101168686D01*
X100496821Y-101168687D01*
X100371804Y-101181000D01*
X100288196Y-101181000D01*
X100163179Y-101168687D01*
X100163176Y-101168686D01*
X100163175Y-101168686D01*
X100002761Y-101120025D01*
X100002759Y-101120024D01*
X100002756Y-101120023D01*
X99854922Y-101041005D01*
X99725341Y-100934659D01*
X99618995Y-100805078D01*
X99539977Y-100657244D01*
X99494288Y-100506627D01*
X99491314Y-100496825D01*
X99491314Y-100496824D01*
X99491313Y-100496821D01*
X99474883Y-100330000D01*
X99491313Y-100163179D01*
X99494287Y-100153375D01*
X99539975Y-100002761D01*
X99539976Y-100002759D01*
X99539977Y-100002756D01*
X99618995Y-99854922D01*
X99725341Y-99725341D01*
X99854922Y-99618995D01*
X100002756Y-99539977D01*
X100002759Y-99539976D01*
X100002761Y-99539975D01*
X100163175Y-99491314D01*
X100163176Y-99491314D01*
X100163179Y-99491313D01*
X100288196Y-99479000D01*
X100371804Y-99479000D01*
X100496821Y-99491313D01*
X100496821Y-99491313D01*
G37*
G36*
X115736821Y-99491313D02*
X115736824Y-99491314D01*
X115736825Y-99491314D01*
X115897239Y-99539975D01*
X115897241Y-99539976D01*
X115897244Y-99539977D01*
X116045078Y-99618995D01*
X116174659Y-99725341D01*
X116281005Y-99854922D01*
X116360023Y-100002756D01*
X116360024Y-100002759D01*
X116360025Y-100002761D01*
X116405713Y-100153375D01*
X116408687Y-100163179D01*
X116425117Y-100330000D01*
X116408687Y-100496821D01*
X116408686Y-100496824D01*
X116408686Y-100496825D01*
X116405713Y-100506627D01*
X116360023Y-100657244D01*
X116281005Y-100805078D01*
X116174659Y-100934659D01*
X116045078Y-101041005D01*
X115897244Y-101120023D01*
X115897241Y-101120024D01*
X115897239Y-101120025D01*
X115736825Y-101168686D01*
X115736824Y-101168686D01*
X115736821Y-101168687D01*
X115611804Y-101181000D01*
X115528196Y-101181000D01*
X115403179Y-101168687D01*
X115403176Y-101168686D01*
X115403175Y-101168686D01*
X115242761Y-101120025D01*
X115242759Y-101120024D01*
X115242756Y-101120023D01*
X115094922Y-101041005D01*
X114965341Y-100934659D01*
X114858995Y-100805078D01*
X114779977Y-100657244D01*
X114734288Y-100506627D01*
X114731314Y-100496825D01*
X114731314Y-100496824D01*
X114731313Y-100496821D01*
X114714883Y-100330000D01*
X114731313Y-100163179D01*
X114734287Y-100153375D01*
X114779975Y-100002761D01*
X114779976Y-100002759D01*
X114779977Y-100002756D01*
X114858995Y-99854922D01*
X114965341Y-99725341D01*
X115094922Y-99618995D01*
X115242756Y-99539977D01*
X115242759Y-99539976D01*
X115242761Y-99539975D01*
X115403175Y-99491314D01*
X115403176Y-99491314D01*
X115403179Y-99491313D01*
X115528196Y-99479000D01*
X115611804Y-99479000D01*
X115736821Y-99491313D01*
X115736821Y-99491313D01*
G37*
G36*
X131376821Y-99491313D02*
X131376824Y-99491314D01*
X131376825Y-99491314D01*
X131537239Y-99539975D01*
X131537241Y-99539976D01*
X131537244Y-99539977D01*
X131685078Y-99618995D01*
X131814659Y-99725341D01*
X131921005Y-99854922D01*
X132000023Y-100002756D01*
X132000024Y-100002759D01*
X132000025Y-100002761D01*
X132045713Y-100153375D01*
X132048687Y-100163179D01*
X132065117Y-100330000D01*
X132048687Y-100496821D01*
X132048686Y-100496824D01*
X132048686Y-100496825D01*
X132045713Y-100506627D01*
X132000023Y-100657244D01*
X131921005Y-100805078D01*
X131814659Y-100934659D01*
X131685078Y-101041005D01*
X131537244Y-101120023D01*
X131537241Y-101120024D01*
X131537239Y-101120025D01*
X131376825Y-101168686D01*
X131376824Y-101168686D01*
X131376821Y-101168687D01*
X131251804Y-101181000D01*
X130368196Y-101181000D01*
X130243179Y-101168687D01*
X130243176Y-101168686D01*
X130243175Y-101168686D01*
X130082761Y-101120025D01*
X130082759Y-101120024D01*
X130082756Y-101120023D01*
X129934922Y-101041005D01*
X129805341Y-100934659D01*
X129698995Y-100805078D01*
X129619977Y-100657244D01*
X129574288Y-100506627D01*
X129571314Y-100496825D01*
X129571314Y-100496824D01*
X129571313Y-100496821D01*
X129554883Y-100330000D01*
X129571313Y-100163179D01*
X129574287Y-100153375D01*
X129619975Y-100002761D01*
X129619976Y-100002759D01*
X129619977Y-100002756D01*
X129698995Y-99854922D01*
X129805341Y-99725341D01*
X129934922Y-99618995D01*
X130082756Y-99539977D01*
X130082759Y-99539976D01*
X130082761Y-99539975D01*
X130243175Y-99491314D01*
X130243176Y-99491314D01*
X130243179Y-99491313D01*
X130368196Y-99479000D01*
X131251804Y-99479000D01*
X131376821Y-99491313D01*
X131376821Y-99491313D01*
G37*
G36*
X123756821Y-99491313D02*
X123756824Y-99491314D01*
X123756825Y-99491314D01*
X123917239Y-99539975D01*
X123917241Y-99539976D01*
X123917244Y-99539977D01*
X124065078Y-99618995D01*
X124194659Y-99725341D01*
X124301005Y-99854922D01*
X124380023Y-100002756D01*
X124380024Y-100002759D01*
X124380025Y-100002761D01*
X124425713Y-100153375D01*
X124428687Y-100163179D01*
X124445117Y-100330000D01*
X124428687Y-100496821D01*
X124428686Y-100496824D01*
X124428686Y-100496825D01*
X124425713Y-100506627D01*
X124380023Y-100657244D01*
X124301005Y-100805078D01*
X124194659Y-100934659D01*
X124065078Y-101041005D01*
X123917244Y-101120023D01*
X123917241Y-101120024D01*
X123917239Y-101120025D01*
X123756825Y-101168686D01*
X123756824Y-101168686D01*
X123756821Y-101168687D01*
X123631804Y-101181000D01*
X122748196Y-101181000D01*
X122623179Y-101168687D01*
X122623176Y-101168686D01*
X122623175Y-101168686D01*
X122462761Y-101120025D01*
X122462759Y-101120024D01*
X122462756Y-101120023D01*
X122314922Y-101041005D01*
X122185341Y-100934659D01*
X122078995Y-100805078D01*
X121999977Y-100657244D01*
X121954288Y-100506627D01*
X121951314Y-100496825D01*
X121951314Y-100496824D01*
X121951313Y-100496821D01*
X121934883Y-100330000D01*
X121951313Y-100163179D01*
X121954287Y-100153375D01*
X121999975Y-100002761D01*
X121999976Y-100002759D01*
X121999977Y-100002756D01*
X122078995Y-99854922D01*
X122185341Y-99725341D01*
X122314922Y-99618995D01*
X122462756Y-99539977D01*
X122462759Y-99539976D01*
X122462761Y-99539975D01*
X122623175Y-99491314D01*
X122623176Y-99491314D01*
X122623179Y-99491313D01*
X122748196Y-99479000D01*
X123631804Y-99479000D01*
X123756821Y-99491313D01*
X123756821Y-99491313D01*
G37*
G36*
X90280442Y-96895518D02*
X90346627Y-96902037D01*
X90459853Y-96936384D01*
X90516467Y-96953557D01*
X90603311Y-96999977D01*
X90672991Y-97037222D01*
X90708729Y-97066552D01*
X90810186Y-97149814D01*
X90893448Y-97251271D01*
X90922778Y-97287009D01*
X90922779Y-97287011D01*
X91006443Y-97443533D01*
X91023616Y-97500147D01*
X91057963Y-97613373D01*
X91075359Y-97790000D01*
X91057963Y-97966627D01*
X91023940Y-98078786D01*
X91006443Y-98136467D01*
X90967538Y-98209252D01*
X90922778Y-98292991D01*
X90897653Y-98323606D01*
X90810186Y-98430186D01*
X90708729Y-98513448D01*
X90672991Y-98542778D01*
X90672989Y-98542779D01*
X90516467Y-98626443D01*
X90509069Y-98628687D01*
X90346627Y-98677963D01*
X90280442Y-98684482D01*
X90214260Y-98691000D01*
X90125740Y-98691000D01*
X90059558Y-98684482D01*
X89993373Y-98677963D01*
X89830931Y-98628687D01*
X89823533Y-98626443D01*
X89667011Y-98542779D01*
X89667009Y-98542778D01*
X89631271Y-98513448D01*
X89529814Y-98430186D01*
X89442347Y-98323606D01*
X89417222Y-98292991D01*
X89372462Y-98209252D01*
X89333557Y-98136467D01*
X89316060Y-98078786D01*
X89282037Y-97966627D01*
X89264641Y-97790000D01*
X89282037Y-97613373D01*
X89316384Y-97500147D01*
X89333557Y-97443533D01*
X89417221Y-97287011D01*
X89417222Y-97287009D01*
X89446552Y-97251271D01*
X89529814Y-97149814D01*
X89631271Y-97066552D01*
X89667009Y-97037222D01*
X89736689Y-96999977D01*
X89823533Y-96953557D01*
X89880147Y-96936384D01*
X89993373Y-96902037D01*
X90059558Y-96895518D01*
X90125740Y-96889000D01*
X90214260Y-96889000D01*
X90280442Y-96895518D01*
X90280442Y-96895518D01*
G37*
G36*
X131376821Y-96951313D02*
X131376824Y-96951314D01*
X131376825Y-96951314D01*
X131537239Y-96999975D01*
X131537241Y-96999976D01*
X131537244Y-96999977D01*
X131685078Y-97078995D01*
X131814659Y-97185341D01*
X131921005Y-97314922D01*
X132000023Y-97462756D01*
X132000024Y-97462759D01*
X132000025Y-97462761D01*
X132045713Y-97613375D01*
X132048687Y-97623179D01*
X132065117Y-97790000D01*
X132048687Y-97956821D01*
X132048686Y-97956824D01*
X132048686Y-97956825D01*
X132011690Y-98078786D01*
X132000023Y-98117244D01*
X131921005Y-98265078D01*
X131814659Y-98394659D01*
X131685078Y-98501005D01*
X131537244Y-98580023D01*
X131537241Y-98580024D01*
X131537239Y-98580025D01*
X131376825Y-98628686D01*
X131376824Y-98628686D01*
X131376821Y-98628687D01*
X131251804Y-98641000D01*
X130368196Y-98641000D01*
X130243179Y-98628687D01*
X130243176Y-98628686D01*
X130243175Y-98628686D01*
X130082761Y-98580025D01*
X130082759Y-98580024D01*
X130082756Y-98580023D01*
X129934922Y-98501005D01*
X129805341Y-98394659D01*
X129698995Y-98265078D01*
X129619977Y-98117244D01*
X129608311Y-98078786D01*
X129571314Y-97956825D01*
X129571314Y-97956824D01*
X129571313Y-97956821D01*
X129554883Y-97790000D01*
X129571313Y-97623179D01*
X129574287Y-97613375D01*
X129619975Y-97462761D01*
X129619976Y-97462759D01*
X129619977Y-97462756D01*
X129698995Y-97314922D01*
X129805341Y-97185341D01*
X129934922Y-97078995D01*
X130082756Y-96999977D01*
X130082759Y-96999976D01*
X130082761Y-96999975D01*
X130243175Y-96951314D01*
X130243176Y-96951314D01*
X130243179Y-96951313D01*
X130368196Y-96939000D01*
X131251804Y-96939000D01*
X131376821Y-96951313D01*
X131376821Y-96951313D01*
G37*
G36*
X123756821Y-96951313D02*
X123756824Y-96951314D01*
X123756825Y-96951314D01*
X123917239Y-96999975D01*
X123917241Y-96999976D01*
X123917244Y-96999977D01*
X124065078Y-97078995D01*
X124194659Y-97185341D01*
X124301005Y-97314922D01*
X124380023Y-97462756D01*
X124380024Y-97462759D01*
X124380025Y-97462761D01*
X124425713Y-97613375D01*
X124428687Y-97623179D01*
X124445117Y-97790000D01*
X124428687Y-97956821D01*
X124428686Y-97956824D01*
X124428686Y-97956825D01*
X124391690Y-98078786D01*
X124380023Y-98117244D01*
X124301005Y-98265078D01*
X124194659Y-98394659D01*
X124065078Y-98501005D01*
X123917244Y-98580023D01*
X123917241Y-98580024D01*
X123917239Y-98580025D01*
X123756825Y-98628686D01*
X123756824Y-98628686D01*
X123756821Y-98628687D01*
X123631804Y-98641000D01*
X122748196Y-98641000D01*
X122623179Y-98628687D01*
X122623176Y-98628686D01*
X122623175Y-98628686D01*
X122462761Y-98580025D01*
X122462759Y-98580024D01*
X122462756Y-98580023D01*
X122314922Y-98501005D01*
X122185341Y-98394659D01*
X122078995Y-98265078D01*
X121999977Y-98117244D01*
X121988311Y-98078786D01*
X121951314Y-97956825D01*
X121951314Y-97956824D01*
X121951313Y-97956821D01*
X121934883Y-97790000D01*
X121951313Y-97623179D01*
X121954287Y-97613375D01*
X121999975Y-97462761D01*
X121999976Y-97462759D01*
X121999977Y-97462756D01*
X122078995Y-97314922D01*
X122185341Y-97185341D01*
X122314922Y-97078995D01*
X122462756Y-96999977D01*
X122462759Y-96999976D01*
X122462761Y-96999975D01*
X122623175Y-96951314D01*
X122623176Y-96951314D01*
X122623179Y-96951313D01*
X122748196Y-96939000D01*
X123631804Y-96939000D01*
X123756821Y-96951313D01*
X123756821Y-96951313D01*
G37*
G36*
X115736821Y-96951313D02*
X115736824Y-96951314D01*
X115736825Y-96951314D01*
X115897239Y-96999975D01*
X115897241Y-96999976D01*
X115897244Y-96999977D01*
X116045078Y-97078995D01*
X116174659Y-97185341D01*
X116281005Y-97314922D01*
X116360023Y-97462756D01*
X116360024Y-97462759D01*
X116360025Y-97462761D01*
X116405713Y-97613375D01*
X116408687Y-97623179D01*
X116425117Y-97790000D01*
X116408687Y-97956821D01*
X116408686Y-97956824D01*
X116408686Y-97956825D01*
X116371690Y-98078786D01*
X116360023Y-98117244D01*
X116281005Y-98265078D01*
X116174659Y-98394659D01*
X116045078Y-98501005D01*
X115897244Y-98580023D01*
X115897241Y-98580024D01*
X115897239Y-98580025D01*
X115736825Y-98628686D01*
X115736824Y-98628686D01*
X115736821Y-98628687D01*
X115611804Y-98641000D01*
X115528196Y-98641000D01*
X115403179Y-98628687D01*
X115403176Y-98628686D01*
X115403175Y-98628686D01*
X115242761Y-98580025D01*
X115242759Y-98580024D01*
X115242756Y-98580023D01*
X115094922Y-98501005D01*
X114965341Y-98394659D01*
X114858995Y-98265078D01*
X114779977Y-98117244D01*
X114768311Y-98078786D01*
X114731314Y-97956825D01*
X114731314Y-97956824D01*
X114731313Y-97956821D01*
X114714883Y-97790000D01*
X114731313Y-97623179D01*
X114734287Y-97613375D01*
X114779975Y-97462761D01*
X114779976Y-97462759D01*
X114779977Y-97462756D01*
X114858995Y-97314922D01*
X114965341Y-97185341D01*
X115094922Y-97078995D01*
X115242756Y-96999977D01*
X115242759Y-96999976D01*
X115242761Y-96999975D01*
X115403175Y-96951314D01*
X115403176Y-96951314D01*
X115403179Y-96951313D01*
X115528196Y-96939000D01*
X115611804Y-96939000D01*
X115736821Y-96951313D01*
X115736821Y-96951313D01*
G37*
G36*
X100496821Y-96951313D02*
X100496824Y-96951314D01*
X100496825Y-96951314D01*
X100657239Y-96999975D01*
X100657241Y-96999976D01*
X100657244Y-96999977D01*
X100805078Y-97078995D01*
X100934659Y-97185341D01*
X101041005Y-97314922D01*
X101120023Y-97462756D01*
X101120024Y-97462759D01*
X101120025Y-97462761D01*
X101165713Y-97613375D01*
X101168687Y-97623179D01*
X101185117Y-97790000D01*
X101168687Y-97956821D01*
X101168686Y-97956824D01*
X101168686Y-97956825D01*
X101131690Y-98078786D01*
X101120023Y-98117244D01*
X101041005Y-98265078D01*
X100934659Y-98394659D01*
X100805078Y-98501005D01*
X100657244Y-98580023D01*
X100657241Y-98580024D01*
X100657239Y-98580025D01*
X100496825Y-98628686D01*
X100496824Y-98628686D01*
X100496821Y-98628687D01*
X100371804Y-98641000D01*
X100288196Y-98641000D01*
X100163179Y-98628687D01*
X100163176Y-98628686D01*
X100163175Y-98628686D01*
X100002761Y-98580025D01*
X100002759Y-98580024D01*
X100002756Y-98580023D01*
X99854922Y-98501005D01*
X99725341Y-98394659D01*
X99618995Y-98265078D01*
X99539977Y-98117244D01*
X99528311Y-98078786D01*
X99491314Y-97956825D01*
X99491314Y-97956824D01*
X99491313Y-97956821D01*
X99474883Y-97790000D01*
X99491313Y-97623179D01*
X99494287Y-97613375D01*
X99539975Y-97462761D01*
X99539976Y-97462759D01*
X99539977Y-97462756D01*
X99618995Y-97314922D01*
X99725341Y-97185341D01*
X99854922Y-97078995D01*
X100002756Y-96999977D01*
X100002759Y-96999976D01*
X100002761Y-96999975D01*
X100163175Y-96951314D01*
X100163176Y-96951314D01*
X100163179Y-96951313D01*
X100288196Y-96939000D01*
X100371804Y-96939000D01*
X100496821Y-96951313D01*
X100496821Y-96951313D01*
G37*
G36*
X135963665Y-97042622D02*
X136037222Y-97049867D01*
X136178786Y-97092810D01*
X136309252Y-97162546D01*
X136423606Y-97256394D01*
X136517454Y-97370748D01*
X136587190Y-97501214D01*
X136630133Y-97642778D01*
X136644633Y-97790000D01*
X136630133Y-97937222D01*
X136587190Y-98078786D01*
X136517454Y-98209252D01*
X136423606Y-98323606D01*
X136309252Y-98417454D01*
X136178786Y-98487190D01*
X136037222Y-98530133D01*
X135963665Y-98537378D01*
X135926888Y-98541000D01*
X135853112Y-98541000D01*
X135816335Y-98537378D01*
X135742778Y-98530133D01*
X135601214Y-98487190D01*
X135470748Y-98417454D01*
X135356394Y-98323606D01*
X135262546Y-98209252D01*
X135192810Y-98078786D01*
X135149867Y-97937222D01*
X135135367Y-97790000D01*
X135149867Y-97642778D01*
X135192810Y-97501214D01*
X135262546Y-97370748D01*
X135356394Y-97256394D01*
X135470748Y-97162546D01*
X135601214Y-97092810D01*
X135742778Y-97049867D01*
X135816335Y-97042622D01*
X135853112Y-97039000D01*
X135926888Y-97039000D01*
X135963665Y-97042622D01*
X135963665Y-97042622D01*
G37*
G36*
X90280442Y-94355518D02*
X90346627Y-94362037D01*
X90459853Y-94396384D01*
X90516467Y-94413557D01*
X90603311Y-94459977D01*
X90672991Y-94497222D01*
X90675157Y-94499000D01*
X90810186Y-94609814D01*
X90893448Y-94711271D01*
X90922778Y-94747009D01*
X90922779Y-94747011D01*
X91006443Y-94903533D01*
X91023616Y-94960147D01*
X91057963Y-95073373D01*
X91075359Y-95250000D01*
X91057963Y-95426627D01*
X91045092Y-95469056D01*
X91006443Y-95596467D01*
X91001490Y-95605733D01*
X90922778Y-95752991D01*
X90893448Y-95788729D01*
X90810186Y-95890186D01*
X90710323Y-95972140D01*
X90672991Y-96002778D01*
X90672989Y-96002779D01*
X90516467Y-96086443D01*
X90509069Y-96088687D01*
X90346627Y-96137963D01*
X90280442Y-96144482D01*
X90214260Y-96151000D01*
X90125740Y-96151000D01*
X90059558Y-96144482D01*
X89993373Y-96137963D01*
X89830931Y-96088687D01*
X89823533Y-96086443D01*
X89667011Y-96002779D01*
X89667009Y-96002778D01*
X89629677Y-95972140D01*
X89529814Y-95890186D01*
X89446552Y-95788729D01*
X89417222Y-95752991D01*
X89338510Y-95605733D01*
X89333557Y-95596467D01*
X89294908Y-95469056D01*
X89282037Y-95426627D01*
X89264641Y-95250000D01*
X89282037Y-95073373D01*
X89316384Y-94960147D01*
X89333557Y-94903533D01*
X89417221Y-94747011D01*
X89417222Y-94747009D01*
X89446552Y-94711271D01*
X89529814Y-94609814D01*
X89664843Y-94499000D01*
X89667009Y-94497222D01*
X89736689Y-94459977D01*
X89823533Y-94413557D01*
X89880147Y-94396384D01*
X89993373Y-94362037D01*
X90059558Y-94355518D01*
X90125740Y-94349000D01*
X90214260Y-94349000D01*
X90280442Y-94355518D01*
X90280442Y-94355518D01*
G37*
G36*
X131376821Y-94411313D02*
X131376824Y-94411314D01*
X131376825Y-94411314D01*
X131537239Y-94459975D01*
X131537241Y-94459976D01*
X131537244Y-94459977D01*
X131685078Y-94538995D01*
X131814659Y-94645341D01*
X131921005Y-94774922D01*
X132000023Y-94922756D01*
X132000024Y-94922759D01*
X132000025Y-94922761D01*
X132045713Y-95073375D01*
X132048687Y-95083179D01*
X132065117Y-95250000D01*
X132048687Y-95416821D01*
X132048686Y-95416824D01*
X132048686Y-95416825D01*
X132045713Y-95426627D01*
X132000023Y-95577244D01*
X131921005Y-95725078D01*
X131814659Y-95854659D01*
X131685078Y-95961005D01*
X131537244Y-96040023D01*
X131537241Y-96040024D01*
X131537239Y-96040025D01*
X131376825Y-96088686D01*
X131376824Y-96088686D01*
X131376821Y-96088687D01*
X131251804Y-96101000D01*
X130368196Y-96101000D01*
X130243179Y-96088687D01*
X130243176Y-96088686D01*
X130243175Y-96088686D01*
X130082761Y-96040025D01*
X130082759Y-96040024D01*
X130082756Y-96040023D01*
X129934922Y-95961005D01*
X129805341Y-95854659D01*
X129698995Y-95725078D01*
X129619977Y-95577244D01*
X129574288Y-95426627D01*
X129571314Y-95416825D01*
X129571314Y-95416824D01*
X129571313Y-95416821D01*
X129554883Y-95250000D01*
X129571313Y-95083179D01*
X129574287Y-95073375D01*
X129619975Y-94922761D01*
X129619976Y-94922759D01*
X129619977Y-94922756D01*
X129698995Y-94774922D01*
X129805341Y-94645341D01*
X129934922Y-94538995D01*
X130082756Y-94459977D01*
X130082759Y-94459976D01*
X130082761Y-94459975D01*
X130243175Y-94411314D01*
X130243176Y-94411314D01*
X130243179Y-94411313D01*
X130368196Y-94399000D01*
X131251804Y-94399000D01*
X131376821Y-94411313D01*
X131376821Y-94411313D01*
G37*
G36*
X123756821Y-94411313D02*
X123756824Y-94411314D01*
X123756825Y-94411314D01*
X123917239Y-94459975D01*
X123917241Y-94459976D01*
X123917244Y-94459977D01*
X124065078Y-94538995D01*
X124194659Y-94645341D01*
X124301005Y-94774922D01*
X124380023Y-94922756D01*
X124380024Y-94922759D01*
X124380025Y-94922761D01*
X124425713Y-95073375D01*
X124428687Y-95083179D01*
X124445117Y-95250000D01*
X124428687Y-95416821D01*
X124428686Y-95416824D01*
X124428686Y-95416825D01*
X124425713Y-95426627D01*
X124380023Y-95577244D01*
X124301005Y-95725078D01*
X124194659Y-95854659D01*
X124065078Y-95961005D01*
X123917244Y-96040023D01*
X123917241Y-96040024D01*
X123917239Y-96040025D01*
X123756825Y-96088686D01*
X123756824Y-96088686D01*
X123756821Y-96088687D01*
X123631804Y-96101000D01*
X122748196Y-96101000D01*
X122623179Y-96088687D01*
X122623176Y-96088686D01*
X122623175Y-96088686D01*
X122462761Y-96040025D01*
X122462759Y-96040024D01*
X122462756Y-96040023D01*
X122314922Y-95961005D01*
X122185341Y-95854659D01*
X122078995Y-95725078D01*
X121999977Y-95577244D01*
X121954288Y-95426627D01*
X121951314Y-95416825D01*
X121951314Y-95416824D01*
X121951313Y-95416821D01*
X121934883Y-95250000D01*
X121951313Y-95083179D01*
X121954287Y-95073375D01*
X121999975Y-94922761D01*
X121999976Y-94922759D01*
X121999977Y-94922756D01*
X122078995Y-94774922D01*
X122185341Y-94645341D01*
X122314922Y-94538995D01*
X122462756Y-94459977D01*
X122462759Y-94459976D01*
X122462761Y-94459975D01*
X122623175Y-94411314D01*
X122623176Y-94411314D01*
X122623179Y-94411313D01*
X122748196Y-94399000D01*
X123631804Y-94399000D01*
X123756821Y-94411313D01*
X123756821Y-94411313D01*
G37*
G36*
X100496821Y-94411313D02*
X100496824Y-94411314D01*
X100496825Y-94411314D01*
X100657239Y-94459975D01*
X100657241Y-94459976D01*
X100657244Y-94459977D01*
X100805078Y-94538995D01*
X100934659Y-94645341D01*
X101041005Y-94774922D01*
X101120023Y-94922756D01*
X101120024Y-94922759D01*
X101120025Y-94922761D01*
X101165713Y-95073375D01*
X101168687Y-95083179D01*
X101185117Y-95250000D01*
X101168687Y-95416821D01*
X101168686Y-95416824D01*
X101168686Y-95416825D01*
X101165713Y-95426627D01*
X101120023Y-95577244D01*
X101041005Y-95725078D01*
X100934659Y-95854659D01*
X100805078Y-95961005D01*
X100657244Y-96040023D01*
X100657241Y-96040024D01*
X100657239Y-96040025D01*
X100496825Y-96088686D01*
X100496824Y-96088686D01*
X100496821Y-96088687D01*
X100371804Y-96101000D01*
X100288196Y-96101000D01*
X100163179Y-96088687D01*
X100163176Y-96088686D01*
X100163175Y-96088686D01*
X100002761Y-96040025D01*
X100002759Y-96040024D01*
X100002756Y-96040023D01*
X99854922Y-95961005D01*
X99725341Y-95854659D01*
X99618995Y-95725078D01*
X99539977Y-95577244D01*
X99494288Y-95426627D01*
X99491314Y-95416825D01*
X99491314Y-95416824D01*
X99491313Y-95416821D01*
X99474883Y-95250000D01*
X99491313Y-95083179D01*
X99494287Y-95073375D01*
X99539975Y-94922761D01*
X99539976Y-94922759D01*
X99539977Y-94922756D01*
X99618995Y-94774922D01*
X99725341Y-94645341D01*
X99854922Y-94538995D01*
X100002756Y-94459977D01*
X100002759Y-94459976D01*
X100002761Y-94459975D01*
X100163175Y-94411314D01*
X100163176Y-94411314D01*
X100163179Y-94411313D01*
X100288196Y-94399000D01*
X100371804Y-94399000D01*
X100496821Y-94411313D01*
X100496821Y-94411313D01*
G37*
G36*
X115736821Y-94411313D02*
X115736824Y-94411314D01*
X115736825Y-94411314D01*
X115897239Y-94459975D01*
X115897241Y-94459976D01*
X115897244Y-94459977D01*
X116045078Y-94538995D01*
X116174659Y-94645341D01*
X116281005Y-94774922D01*
X116360023Y-94922756D01*
X116360024Y-94922759D01*
X116360025Y-94922761D01*
X116405713Y-95073375D01*
X116408687Y-95083179D01*
X116425117Y-95250000D01*
X116408687Y-95416821D01*
X116408686Y-95416824D01*
X116408686Y-95416825D01*
X116405713Y-95426627D01*
X116360023Y-95577244D01*
X116281005Y-95725078D01*
X116174659Y-95854659D01*
X116045078Y-95961005D01*
X115897244Y-96040023D01*
X115897241Y-96040024D01*
X115897239Y-96040025D01*
X115736825Y-96088686D01*
X115736824Y-96088686D01*
X115736821Y-96088687D01*
X115611804Y-96101000D01*
X115528196Y-96101000D01*
X115403179Y-96088687D01*
X115403176Y-96088686D01*
X115403175Y-96088686D01*
X115242761Y-96040025D01*
X115242759Y-96040024D01*
X115242756Y-96040023D01*
X115094922Y-95961005D01*
X114965341Y-95854659D01*
X114858995Y-95725078D01*
X114779977Y-95577244D01*
X114734288Y-95426627D01*
X114731314Y-95416825D01*
X114731314Y-95416824D01*
X114731313Y-95416821D01*
X114714883Y-95250000D01*
X114731313Y-95083179D01*
X114734287Y-95073375D01*
X114779975Y-94922761D01*
X114779976Y-94922759D01*
X114779977Y-94922756D01*
X114858995Y-94774922D01*
X114965341Y-94645341D01*
X115094922Y-94538995D01*
X115242756Y-94459977D01*
X115242759Y-94459976D01*
X115242761Y-94459975D01*
X115403175Y-94411314D01*
X115403176Y-94411314D01*
X115403179Y-94411313D01*
X115528196Y-94399000D01*
X115611804Y-94399000D01*
X115736821Y-94411313D01*
X115736821Y-94411313D01*
G37*
G36*
X136022004Y-94510544D02*
X136109059Y-94527860D01*
X136245732Y-94584472D01*
X136245733Y-94584473D01*
X136368738Y-94666662D01*
X136473338Y-94771262D01*
X136473340Y-94771265D01*
X136555528Y-94894268D01*
X136612140Y-95030941D01*
X136641000Y-95176033D01*
X136641000Y-95323967D01*
X136612140Y-95469059D01*
X136555528Y-95605732D01*
X136555527Y-95605733D01*
X136473338Y-95728738D01*
X136368738Y-95833338D01*
X136368735Y-95833340D01*
X136245732Y-95915528D01*
X136109059Y-95972140D01*
X136022004Y-95989456D01*
X135963969Y-96001000D01*
X135816031Y-96001000D01*
X135757996Y-95989456D01*
X135670941Y-95972140D01*
X135534268Y-95915528D01*
X135411265Y-95833340D01*
X135411262Y-95833338D01*
X135306662Y-95728738D01*
X135224473Y-95605733D01*
X135224472Y-95605732D01*
X135167860Y-95469059D01*
X135139000Y-95323967D01*
X135139000Y-95176033D01*
X135167860Y-95030941D01*
X135224472Y-94894268D01*
X135306660Y-94771265D01*
X135306662Y-94771262D01*
X135411262Y-94666662D01*
X135534267Y-94584473D01*
X135534268Y-94584472D01*
X135670941Y-94527860D01*
X135757996Y-94510544D01*
X135816031Y-94499000D01*
X135963969Y-94499000D01*
X136022004Y-94510544D01*
X136022004Y-94510544D01*
G37*
G36*
X90280442Y-91815518D02*
X90346627Y-91822037D01*
X90459853Y-91856384D01*
X90516467Y-91873557D01*
X90603311Y-91919977D01*
X90672991Y-91957222D01*
X90708729Y-91986552D01*
X90810186Y-92069814D01*
X90890369Y-92167519D01*
X90922778Y-92207009D01*
X90922779Y-92207011D01*
X91006443Y-92363533D01*
X91023616Y-92420147D01*
X91057963Y-92533373D01*
X91075359Y-92710000D01*
X91057963Y-92886627D01*
X91036243Y-92958228D01*
X91006443Y-93056467D01*
X90937698Y-93185078D01*
X90922778Y-93212991D01*
X90893448Y-93248729D01*
X90810186Y-93350186D01*
X90708729Y-93433448D01*
X90672991Y-93462778D01*
X90672989Y-93462779D01*
X90516467Y-93546443D01*
X90509069Y-93548687D01*
X90346627Y-93597963D01*
X90280443Y-93604481D01*
X90214260Y-93611000D01*
X90125740Y-93611000D01*
X90059557Y-93604481D01*
X89993373Y-93597963D01*
X89830931Y-93548687D01*
X89823533Y-93546443D01*
X89667011Y-93462779D01*
X89667009Y-93462778D01*
X89631271Y-93433448D01*
X89529814Y-93350186D01*
X89446552Y-93248729D01*
X89417222Y-93212991D01*
X89402302Y-93185078D01*
X89333557Y-93056467D01*
X89303757Y-92958228D01*
X89282037Y-92886627D01*
X89264641Y-92710000D01*
X89282037Y-92533373D01*
X89316384Y-92420147D01*
X89333557Y-92363533D01*
X89417221Y-92207011D01*
X89417222Y-92207009D01*
X89449631Y-92167519D01*
X89529814Y-92069814D01*
X89631271Y-91986552D01*
X89667009Y-91957222D01*
X89736689Y-91919977D01*
X89823533Y-91873557D01*
X89880147Y-91856384D01*
X89993373Y-91822037D01*
X90059558Y-91815518D01*
X90125740Y-91809000D01*
X90214260Y-91809000D01*
X90280442Y-91815518D01*
X90280442Y-91815518D01*
G37*
G36*
X123756821Y-91871313D02*
X123756824Y-91871314D01*
X123756825Y-91871314D01*
X123917239Y-91919975D01*
X123917241Y-91919976D01*
X123917244Y-91919977D01*
X124065078Y-91998995D01*
X124194659Y-92105341D01*
X124301005Y-92234922D01*
X124380023Y-92382756D01*
X124380024Y-92382759D01*
X124380025Y-92382761D01*
X124425713Y-92533375D01*
X124428687Y-92543179D01*
X124445117Y-92710000D01*
X124428687Y-92876821D01*
X124428686Y-92876824D01*
X124428686Y-92876825D01*
X124403993Y-92958228D01*
X124380023Y-93037244D01*
X124301005Y-93185078D01*
X124194659Y-93314659D01*
X124065078Y-93421005D01*
X123917244Y-93500023D01*
X123917241Y-93500024D01*
X123917239Y-93500025D01*
X123756825Y-93548686D01*
X123756824Y-93548686D01*
X123756821Y-93548687D01*
X123631804Y-93561000D01*
X122748196Y-93561000D01*
X122623179Y-93548687D01*
X122623176Y-93548686D01*
X122623175Y-93548686D01*
X122462761Y-93500025D01*
X122462759Y-93500024D01*
X122462756Y-93500023D01*
X122314922Y-93421005D01*
X122185341Y-93314659D01*
X122078995Y-93185078D01*
X121999977Y-93037244D01*
X121976008Y-92958228D01*
X121951314Y-92876825D01*
X121951314Y-92876824D01*
X121951313Y-92876821D01*
X121934883Y-92710000D01*
X121951313Y-92543179D01*
X121954287Y-92533375D01*
X121999975Y-92382761D01*
X121999976Y-92382759D01*
X121999977Y-92382756D01*
X122078995Y-92234922D01*
X122185341Y-92105341D01*
X122314922Y-91998995D01*
X122462756Y-91919977D01*
X122462759Y-91919976D01*
X122462761Y-91919975D01*
X122623175Y-91871314D01*
X122623176Y-91871314D01*
X122623179Y-91871313D01*
X122748196Y-91859000D01*
X123631804Y-91859000D01*
X123756821Y-91871313D01*
X123756821Y-91871313D01*
G37*
G36*
X131376821Y-91871313D02*
X131376824Y-91871314D01*
X131376825Y-91871314D01*
X131537239Y-91919975D01*
X131537241Y-91919976D01*
X131537244Y-91919977D01*
X131685078Y-91998995D01*
X131814659Y-92105341D01*
X131921005Y-92234922D01*
X132000023Y-92382756D01*
X132000024Y-92382759D01*
X132000025Y-92382761D01*
X132045713Y-92533375D01*
X132048687Y-92543179D01*
X132065117Y-92710000D01*
X132048687Y-92876821D01*
X132048686Y-92876824D01*
X132048686Y-92876825D01*
X132023993Y-92958228D01*
X132000023Y-93037244D01*
X131921005Y-93185078D01*
X131814659Y-93314659D01*
X131685078Y-93421005D01*
X131537244Y-93500023D01*
X131537241Y-93500024D01*
X131537239Y-93500025D01*
X131376825Y-93548686D01*
X131376824Y-93548686D01*
X131376821Y-93548687D01*
X131251804Y-93561000D01*
X130368196Y-93561000D01*
X130243179Y-93548687D01*
X130243176Y-93548686D01*
X130243175Y-93548686D01*
X130082761Y-93500025D01*
X130082759Y-93500024D01*
X130082756Y-93500023D01*
X129934922Y-93421005D01*
X129805341Y-93314659D01*
X129698995Y-93185078D01*
X129619977Y-93037244D01*
X129596008Y-92958228D01*
X129571314Y-92876825D01*
X129571314Y-92876824D01*
X129571313Y-92876821D01*
X129554883Y-92710000D01*
X129571313Y-92543179D01*
X129574287Y-92533375D01*
X129619975Y-92382761D01*
X129619976Y-92382759D01*
X129619977Y-92382756D01*
X129698995Y-92234922D01*
X129805341Y-92105341D01*
X129934922Y-91998995D01*
X130082756Y-91919977D01*
X130082759Y-91919976D01*
X130082761Y-91919975D01*
X130243175Y-91871314D01*
X130243176Y-91871314D01*
X130243179Y-91871313D01*
X130368196Y-91859000D01*
X131251804Y-91859000D01*
X131376821Y-91871313D01*
X131376821Y-91871313D01*
G37*
G36*
X100496821Y-91871313D02*
X100496824Y-91871314D01*
X100496825Y-91871314D01*
X100657239Y-91919975D01*
X100657241Y-91919976D01*
X100657244Y-91919977D01*
X100805078Y-91998995D01*
X100934659Y-92105341D01*
X101041005Y-92234922D01*
X101120023Y-92382756D01*
X101120024Y-92382759D01*
X101120025Y-92382761D01*
X101165713Y-92533375D01*
X101168687Y-92543179D01*
X101185117Y-92710000D01*
X101168687Y-92876821D01*
X101168686Y-92876824D01*
X101168686Y-92876825D01*
X101143993Y-92958228D01*
X101120023Y-93037244D01*
X101041005Y-93185078D01*
X100934659Y-93314659D01*
X100805078Y-93421005D01*
X100657244Y-93500023D01*
X100657241Y-93500024D01*
X100657239Y-93500025D01*
X100496825Y-93548686D01*
X100496824Y-93548686D01*
X100496821Y-93548687D01*
X100371804Y-93561000D01*
X100288196Y-93561000D01*
X100163179Y-93548687D01*
X100163176Y-93548686D01*
X100163175Y-93548686D01*
X100002761Y-93500025D01*
X100002759Y-93500024D01*
X100002756Y-93500023D01*
X99854922Y-93421005D01*
X99725341Y-93314659D01*
X99618995Y-93185078D01*
X99539977Y-93037244D01*
X99516008Y-92958228D01*
X99491314Y-92876825D01*
X99491314Y-92876824D01*
X99491313Y-92876821D01*
X99474883Y-92710000D01*
X99491313Y-92543179D01*
X99494287Y-92533375D01*
X99539975Y-92382761D01*
X99539976Y-92382759D01*
X99539977Y-92382756D01*
X99618995Y-92234922D01*
X99725341Y-92105341D01*
X99854922Y-91998995D01*
X100002756Y-91919977D01*
X100002759Y-91919976D01*
X100002761Y-91919975D01*
X100163175Y-91871314D01*
X100163176Y-91871314D01*
X100163179Y-91871313D01*
X100288196Y-91859000D01*
X100371804Y-91859000D01*
X100496821Y-91871313D01*
X100496821Y-91871313D01*
G37*
G36*
X115736821Y-91871313D02*
X115736824Y-91871314D01*
X115736825Y-91871314D01*
X115897239Y-91919975D01*
X115897241Y-91919976D01*
X115897244Y-91919977D01*
X116045078Y-91998995D01*
X116174659Y-92105341D01*
X116281005Y-92234922D01*
X116360023Y-92382756D01*
X116360024Y-92382759D01*
X116360025Y-92382761D01*
X116405713Y-92533375D01*
X116408687Y-92543179D01*
X116425117Y-92710000D01*
X116408687Y-92876821D01*
X116408686Y-92876824D01*
X116408686Y-92876825D01*
X116383993Y-92958228D01*
X116360023Y-93037244D01*
X116281005Y-93185078D01*
X116174659Y-93314659D01*
X116045078Y-93421005D01*
X115897244Y-93500023D01*
X115897241Y-93500024D01*
X115897239Y-93500025D01*
X115736825Y-93548686D01*
X115736824Y-93548686D01*
X115736821Y-93548687D01*
X115611804Y-93561000D01*
X115528196Y-93561000D01*
X115403179Y-93548687D01*
X115403176Y-93548686D01*
X115403175Y-93548686D01*
X115242761Y-93500025D01*
X115242759Y-93500024D01*
X115242756Y-93500023D01*
X115094922Y-93421005D01*
X114965341Y-93314659D01*
X114858995Y-93185078D01*
X114779977Y-93037244D01*
X114756008Y-92958228D01*
X114731314Y-92876825D01*
X114731314Y-92876824D01*
X114731313Y-92876821D01*
X114714883Y-92710000D01*
X114731313Y-92543179D01*
X114734287Y-92533375D01*
X114779975Y-92382761D01*
X114779976Y-92382759D01*
X114779977Y-92382756D01*
X114858995Y-92234922D01*
X114965341Y-92105341D01*
X115094922Y-91998995D01*
X115242756Y-91919977D01*
X115242759Y-91919976D01*
X115242761Y-91919975D01*
X115403175Y-91871314D01*
X115403176Y-91871314D01*
X115403179Y-91871313D01*
X115528196Y-91859000D01*
X115611804Y-91859000D01*
X115736821Y-91871313D01*
X115736821Y-91871313D01*
G37*
G36*
X95498228Y-91891703D02*
X95653100Y-91955853D01*
X95792481Y-92048985D01*
X95911015Y-92167519D01*
X96004147Y-92306900D01*
X96068297Y-92461772D01*
X96101000Y-92626184D01*
X96101000Y-92793816D01*
X96068297Y-92958228D01*
X96004147Y-93113100D01*
X95911015Y-93252481D01*
X95792481Y-93371015D01*
X95653100Y-93464147D01*
X95498228Y-93528297D01*
X95333816Y-93561000D01*
X95166184Y-93561000D01*
X95001772Y-93528297D01*
X94846900Y-93464147D01*
X94707519Y-93371015D01*
X94588985Y-93252481D01*
X94495853Y-93113100D01*
X94431703Y-92958228D01*
X94399000Y-92793816D01*
X94399000Y-92626184D01*
X94431703Y-92461772D01*
X94495853Y-92306900D01*
X94588985Y-92167519D01*
X94707519Y-92048985D01*
X94846900Y-91955853D01*
X95001772Y-91891703D01*
X95166184Y-91859000D01*
X95333816Y-91859000D01*
X95498228Y-91891703D01*
X95498228Y-91891703D01*
G37*
G36*
X90280443Y-89275519D02*
X90346627Y-89282037D01*
X90459853Y-89316384D01*
X90516467Y-89333557D01*
X90603311Y-89379977D01*
X90672991Y-89417222D01*
X90708729Y-89446552D01*
X90810186Y-89529814D01*
X90893448Y-89631271D01*
X90922778Y-89667009D01*
X90922779Y-89667011D01*
X91006443Y-89823533D01*
X91023616Y-89880147D01*
X91057963Y-89993373D01*
X91075359Y-90170000D01*
X91057963Y-90346627D01*
X91023616Y-90459853D01*
X91006443Y-90516467D01*
X90937698Y-90645078D01*
X90922778Y-90672991D01*
X90893448Y-90708729D01*
X90810186Y-90810186D01*
X90708729Y-90893448D01*
X90672991Y-90922778D01*
X90672989Y-90922779D01*
X90516467Y-91006443D01*
X90509069Y-91008687D01*
X90346627Y-91057963D01*
X90280442Y-91064482D01*
X90214260Y-91071000D01*
X90125740Y-91071000D01*
X90059558Y-91064482D01*
X89993373Y-91057963D01*
X89830931Y-91008687D01*
X89823533Y-91006443D01*
X89667011Y-90922779D01*
X89667009Y-90922778D01*
X89631271Y-90893448D01*
X89529814Y-90810186D01*
X89446552Y-90708729D01*
X89417222Y-90672991D01*
X89402302Y-90645078D01*
X89333557Y-90516467D01*
X89316384Y-90459853D01*
X89282037Y-90346627D01*
X89264641Y-90170000D01*
X89282037Y-89993373D01*
X89316384Y-89880147D01*
X89333557Y-89823533D01*
X89417221Y-89667011D01*
X89417222Y-89667009D01*
X89446552Y-89631271D01*
X89529814Y-89529814D01*
X89631271Y-89446552D01*
X89667009Y-89417222D01*
X89736689Y-89379977D01*
X89823533Y-89333557D01*
X89880147Y-89316384D01*
X89993373Y-89282037D01*
X90059557Y-89275519D01*
X90125740Y-89269000D01*
X90214260Y-89269000D01*
X90280443Y-89275519D01*
X90280443Y-89275519D01*
G37*
G36*
X100496821Y-89331313D02*
X100496824Y-89331314D01*
X100496825Y-89331314D01*
X100657239Y-89379975D01*
X100657241Y-89379976D01*
X100657244Y-89379977D01*
X100805078Y-89458995D01*
X100934659Y-89565341D01*
X101041005Y-89694922D01*
X101120023Y-89842756D01*
X101120024Y-89842759D01*
X101120025Y-89842761D01*
X101165713Y-89993375D01*
X101168687Y-90003179D01*
X101185117Y-90170000D01*
X101168687Y-90336821D01*
X101168686Y-90336824D01*
X101168686Y-90336825D01*
X101165713Y-90346627D01*
X101120023Y-90497244D01*
X101041005Y-90645078D01*
X100934659Y-90774659D01*
X100805078Y-90881005D01*
X100657244Y-90960023D01*
X100657241Y-90960024D01*
X100657239Y-90960025D01*
X100496825Y-91008686D01*
X100496824Y-91008686D01*
X100496821Y-91008687D01*
X100371804Y-91021000D01*
X100288196Y-91021000D01*
X100163179Y-91008687D01*
X100163176Y-91008686D01*
X100163175Y-91008686D01*
X100002761Y-90960025D01*
X100002759Y-90960024D01*
X100002756Y-90960023D01*
X99854922Y-90881005D01*
X99725341Y-90774659D01*
X99618995Y-90645078D01*
X99539977Y-90497244D01*
X99494288Y-90346627D01*
X99491314Y-90336825D01*
X99491314Y-90336824D01*
X99491313Y-90336821D01*
X99474883Y-90170000D01*
X99491313Y-90003179D01*
X99494287Y-89993375D01*
X99539975Y-89842761D01*
X99539976Y-89842759D01*
X99539977Y-89842756D01*
X99618995Y-89694922D01*
X99725341Y-89565341D01*
X99854922Y-89458995D01*
X100002756Y-89379977D01*
X100002759Y-89379976D01*
X100002761Y-89379975D01*
X100163175Y-89331314D01*
X100163176Y-89331314D01*
X100163179Y-89331313D01*
X100288196Y-89319000D01*
X100371804Y-89319000D01*
X100496821Y-89331313D01*
X100496821Y-89331313D01*
G37*
G36*
X123756821Y-89331313D02*
X123756824Y-89331314D01*
X123756825Y-89331314D01*
X123917239Y-89379975D01*
X123917241Y-89379976D01*
X123917244Y-89379977D01*
X124065078Y-89458995D01*
X124194659Y-89565341D01*
X124301005Y-89694922D01*
X124380023Y-89842756D01*
X124380024Y-89842759D01*
X124380025Y-89842761D01*
X124425713Y-89993375D01*
X124428687Y-90003179D01*
X124445117Y-90170000D01*
X124428687Y-90336821D01*
X124428686Y-90336824D01*
X124428686Y-90336825D01*
X124425713Y-90346627D01*
X124380023Y-90497244D01*
X124301005Y-90645078D01*
X124194659Y-90774659D01*
X124065078Y-90881005D01*
X123917244Y-90960023D01*
X123917241Y-90960024D01*
X123917239Y-90960025D01*
X123756825Y-91008686D01*
X123756824Y-91008686D01*
X123756821Y-91008687D01*
X123631804Y-91021000D01*
X122748196Y-91021000D01*
X122623179Y-91008687D01*
X122623176Y-91008686D01*
X122623175Y-91008686D01*
X122462761Y-90960025D01*
X122462759Y-90960024D01*
X122462756Y-90960023D01*
X122314922Y-90881005D01*
X122185341Y-90774659D01*
X122078995Y-90645078D01*
X121999977Y-90497244D01*
X121954288Y-90346627D01*
X121951314Y-90336825D01*
X121951314Y-90336824D01*
X121951313Y-90336821D01*
X121934883Y-90170000D01*
X121951313Y-90003179D01*
X121954287Y-89993375D01*
X121999975Y-89842761D01*
X121999976Y-89842759D01*
X121999977Y-89842756D01*
X122078995Y-89694922D01*
X122185341Y-89565341D01*
X122314922Y-89458995D01*
X122462756Y-89379977D01*
X122462759Y-89379976D01*
X122462761Y-89379975D01*
X122623175Y-89331314D01*
X122623176Y-89331314D01*
X122623179Y-89331313D01*
X122748196Y-89319000D01*
X123631804Y-89319000D01*
X123756821Y-89331313D01*
X123756821Y-89331313D01*
G37*
G36*
X131376821Y-89331313D02*
X131376824Y-89331314D01*
X131376825Y-89331314D01*
X131537239Y-89379975D01*
X131537241Y-89379976D01*
X131537244Y-89379977D01*
X131685078Y-89458995D01*
X131814659Y-89565341D01*
X131921005Y-89694922D01*
X132000023Y-89842756D01*
X132000024Y-89842759D01*
X132000025Y-89842761D01*
X132045713Y-89993375D01*
X132048687Y-90003179D01*
X132065117Y-90170000D01*
X132048687Y-90336821D01*
X132048686Y-90336824D01*
X132048686Y-90336825D01*
X132045713Y-90346627D01*
X132000023Y-90497244D01*
X131921005Y-90645078D01*
X131814659Y-90774659D01*
X131685078Y-90881005D01*
X131537244Y-90960023D01*
X131537241Y-90960024D01*
X131537239Y-90960025D01*
X131376825Y-91008686D01*
X131376824Y-91008686D01*
X131376821Y-91008687D01*
X131251804Y-91021000D01*
X130368196Y-91021000D01*
X130243179Y-91008687D01*
X130243176Y-91008686D01*
X130243175Y-91008686D01*
X130082761Y-90960025D01*
X130082759Y-90960024D01*
X130082756Y-90960023D01*
X129934922Y-90881005D01*
X129805341Y-90774659D01*
X129698995Y-90645078D01*
X129619977Y-90497244D01*
X129574288Y-90346627D01*
X129571314Y-90336825D01*
X129571314Y-90336824D01*
X129571313Y-90336821D01*
X129554883Y-90170000D01*
X129571313Y-90003179D01*
X129574287Y-89993375D01*
X129619975Y-89842761D01*
X129619976Y-89842759D01*
X129619977Y-89842756D01*
X129698995Y-89694922D01*
X129805341Y-89565341D01*
X129934922Y-89458995D01*
X130082756Y-89379977D01*
X130082759Y-89379976D01*
X130082761Y-89379975D01*
X130243175Y-89331314D01*
X130243176Y-89331314D01*
X130243179Y-89331313D01*
X130368196Y-89319000D01*
X131251804Y-89319000D01*
X131376821Y-89331313D01*
X131376821Y-89331313D01*
G37*
G36*
X115736821Y-89331313D02*
X115736824Y-89331314D01*
X115736825Y-89331314D01*
X115897239Y-89379975D01*
X115897241Y-89379976D01*
X115897244Y-89379977D01*
X116045078Y-89458995D01*
X116174659Y-89565341D01*
X116281005Y-89694922D01*
X116360023Y-89842756D01*
X116360024Y-89842759D01*
X116360025Y-89842761D01*
X116405713Y-89993375D01*
X116408687Y-90003179D01*
X116425117Y-90170000D01*
X116408687Y-90336821D01*
X116408686Y-90336824D01*
X116408686Y-90336825D01*
X116405713Y-90346627D01*
X116360023Y-90497244D01*
X116281005Y-90645078D01*
X116174659Y-90774659D01*
X116045078Y-90881005D01*
X115897244Y-90960023D01*
X115897241Y-90960024D01*
X115897239Y-90960025D01*
X115736825Y-91008686D01*
X115736824Y-91008686D01*
X115736821Y-91008687D01*
X115611804Y-91021000D01*
X115528196Y-91021000D01*
X115403179Y-91008687D01*
X115403176Y-91008686D01*
X115403175Y-91008686D01*
X115242761Y-90960025D01*
X115242759Y-90960024D01*
X115242756Y-90960023D01*
X115094922Y-90881005D01*
X114965341Y-90774659D01*
X114858995Y-90645078D01*
X114779977Y-90497244D01*
X114734288Y-90346627D01*
X114731314Y-90336825D01*
X114731314Y-90336824D01*
X114731313Y-90336821D01*
X114714883Y-90170000D01*
X114731313Y-90003179D01*
X114734287Y-89993375D01*
X114779975Y-89842761D01*
X114779976Y-89842759D01*
X114779977Y-89842756D01*
X114858995Y-89694922D01*
X114965341Y-89565341D01*
X115094922Y-89458995D01*
X115242756Y-89379977D01*
X115242759Y-89379976D01*
X115242761Y-89379975D01*
X115403175Y-89331314D01*
X115403176Y-89331314D01*
X115403179Y-89331313D01*
X115528196Y-89319000D01*
X115611804Y-89319000D01*
X115736821Y-89331313D01*
X115736821Y-89331313D01*
G37*
G36*
X95498228Y-86891703D02*
X95653100Y-86955853D01*
X95792481Y-87048985D01*
X95911015Y-87167519D01*
X96004147Y-87306900D01*
X96068297Y-87461772D01*
X96101000Y-87626184D01*
X96101000Y-87793816D01*
X96068297Y-87958228D01*
X96004147Y-88113100D01*
X95911015Y-88252481D01*
X95792481Y-88371015D01*
X95653100Y-88464147D01*
X95498228Y-88528297D01*
X95333816Y-88561000D01*
X95166184Y-88561000D01*
X95001772Y-88528297D01*
X94846900Y-88464147D01*
X94707519Y-88371015D01*
X94588985Y-88252481D01*
X94495853Y-88113100D01*
X94431703Y-87958228D01*
X94399000Y-87793816D01*
X94399000Y-87626184D01*
X94431703Y-87461772D01*
X94495853Y-87306900D01*
X94588985Y-87167519D01*
X94707519Y-87048985D01*
X94846900Y-86955853D01*
X95001772Y-86891703D01*
X95166184Y-86859000D01*
X95333816Y-86859000D01*
X95498228Y-86891703D01*
X95498228Y-86891703D01*
G37*
G36*
X91071000Y-88531000D02*
X89269000Y-88531000D01*
X89269000Y-86729000D01*
X91071000Y-86729000D01*
X91071000Y-88531000D01*
X91071000Y-88531000D01*
G37*
G36*
X131376821Y-86791313D02*
X131376824Y-86791314D01*
X131376825Y-86791314D01*
X131537239Y-86839975D01*
X131537241Y-86839976D01*
X131537244Y-86839977D01*
X131685078Y-86918995D01*
X131814659Y-87025341D01*
X131921005Y-87154922D01*
X132000023Y-87302756D01*
X132000024Y-87302759D01*
X132000025Y-87302761D01*
X132048260Y-87461772D01*
X132048687Y-87463179D01*
X132065117Y-87630000D01*
X132048687Y-87796821D01*
X132048686Y-87796824D01*
X132048686Y-87796825D01*
X132011690Y-87918786D01*
X132000023Y-87957244D01*
X131921005Y-88105078D01*
X131814659Y-88234659D01*
X131685078Y-88341005D01*
X131537244Y-88420023D01*
X131537241Y-88420024D01*
X131537239Y-88420025D01*
X131376825Y-88468686D01*
X131376824Y-88468686D01*
X131376821Y-88468687D01*
X131251804Y-88481000D01*
X130368196Y-88481000D01*
X130243179Y-88468687D01*
X130243176Y-88468686D01*
X130243175Y-88468686D01*
X130082761Y-88420025D01*
X130082759Y-88420024D01*
X130082756Y-88420023D01*
X129934922Y-88341005D01*
X129805341Y-88234659D01*
X129698995Y-88105078D01*
X129619977Y-87957244D01*
X129608311Y-87918786D01*
X129571314Y-87796825D01*
X129571314Y-87796824D01*
X129571313Y-87796821D01*
X129554883Y-87630000D01*
X129571313Y-87463179D01*
X129571740Y-87461772D01*
X129619975Y-87302761D01*
X129619976Y-87302759D01*
X129619977Y-87302756D01*
X129698995Y-87154922D01*
X129805341Y-87025341D01*
X129934922Y-86918995D01*
X130082756Y-86839977D01*
X130082759Y-86839976D01*
X130082761Y-86839975D01*
X130243175Y-86791314D01*
X130243176Y-86791314D01*
X130243179Y-86791313D01*
X130368196Y-86779000D01*
X131251804Y-86779000D01*
X131376821Y-86791313D01*
X131376821Y-86791313D01*
G37*
G36*
X115736821Y-86791313D02*
X115736824Y-86791314D01*
X115736825Y-86791314D01*
X115897239Y-86839975D01*
X115897241Y-86839976D01*
X115897244Y-86839977D01*
X116045078Y-86918995D01*
X116174659Y-87025341D01*
X116281005Y-87154922D01*
X116360023Y-87302756D01*
X116360024Y-87302759D01*
X116360025Y-87302761D01*
X116408260Y-87461772D01*
X116408687Y-87463179D01*
X116425117Y-87630000D01*
X116408687Y-87796821D01*
X116408686Y-87796824D01*
X116408686Y-87796825D01*
X116371690Y-87918786D01*
X116360023Y-87957244D01*
X116281005Y-88105078D01*
X116174659Y-88234659D01*
X116045078Y-88341005D01*
X115897244Y-88420023D01*
X115897241Y-88420024D01*
X115897239Y-88420025D01*
X115736825Y-88468686D01*
X115736824Y-88468686D01*
X115736821Y-88468687D01*
X115611804Y-88481000D01*
X115528196Y-88481000D01*
X115403179Y-88468687D01*
X115403176Y-88468686D01*
X115403175Y-88468686D01*
X115242761Y-88420025D01*
X115242759Y-88420024D01*
X115242756Y-88420023D01*
X115094922Y-88341005D01*
X114965341Y-88234659D01*
X114858995Y-88105078D01*
X114779977Y-87957244D01*
X114768311Y-87918786D01*
X114731314Y-87796825D01*
X114731314Y-87796824D01*
X114731313Y-87796821D01*
X114714883Y-87630000D01*
X114731313Y-87463179D01*
X114731740Y-87461772D01*
X114779975Y-87302761D01*
X114779976Y-87302759D01*
X114779977Y-87302756D01*
X114858995Y-87154922D01*
X114965341Y-87025341D01*
X115094922Y-86918995D01*
X115242756Y-86839977D01*
X115242759Y-86839976D01*
X115242761Y-86839975D01*
X115403175Y-86791314D01*
X115403176Y-86791314D01*
X115403179Y-86791313D01*
X115528196Y-86779000D01*
X115611804Y-86779000D01*
X115736821Y-86791313D01*
X115736821Y-86791313D01*
G37*
G36*
X101181000Y-88481000D02*
X99479000Y-88481000D01*
X99479000Y-86779000D01*
X101181000Y-86779000D01*
X101181000Y-88481000D01*
X101181000Y-88481000D01*
G37*
G36*
X123756821Y-86791313D02*
X123756824Y-86791314D01*
X123756825Y-86791314D01*
X123917239Y-86839975D01*
X123917241Y-86839976D01*
X123917244Y-86839977D01*
X124065078Y-86918995D01*
X124194659Y-87025341D01*
X124301005Y-87154922D01*
X124380023Y-87302756D01*
X124380024Y-87302759D01*
X124380025Y-87302761D01*
X124428260Y-87461772D01*
X124428687Y-87463179D01*
X124445117Y-87630000D01*
X124428687Y-87796821D01*
X124428686Y-87796824D01*
X124428686Y-87796825D01*
X124391690Y-87918786D01*
X124380023Y-87957244D01*
X124301005Y-88105078D01*
X124194659Y-88234659D01*
X124065078Y-88341005D01*
X123917244Y-88420023D01*
X123917241Y-88420024D01*
X123917239Y-88420025D01*
X123756825Y-88468686D01*
X123756824Y-88468686D01*
X123756821Y-88468687D01*
X123631804Y-88481000D01*
X122748196Y-88481000D01*
X122623179Y-88468687D01*
X122623176Y-88468686D01*
X122623175Y-88468686D01*
X122462761Y-88420025D01*
X122462759Y-88420024D01*
X122462756Y-88420023D01*
X122314922Y-88341005D01*
X122185341Y-88234659D01*
X122078995Y-88105078D01*
X121999977Y-87957244D01*
X121988311Y-87918786D01*
X121951314Y-87796825D01*
X121951314Y-87796824D01*
X121951313Y-87796821D01*
X121934883Y-87630000D01*
X121951313Y-87463179D01*
X121951740Y-87461772D01*
X121999975Y-87302761D01*
X121999976Y-87302759D01*
X121999977Y-87302756D01*
X122078995Y-87154922D01*
X122185341Y-87025341D01*
X122314922Y-86918995D01*
X122462756Y-86839977D01*
X122462759Y-86839976D01*
X122462761Y-86839975D01*
X122623175Y-86791314D01*
X122623176Y-86791314D01*
X122623179Y-86791313D01*
X122748196Y-86779000D01*
X123631804Y-86779000D01*
X123756821Y-86791313D01*
X123756821Y-86791313D01*
G37*
G36*
X135963665Y-86882622D02*
X136037222Y-86889867D01*
X136178786Y-86932810D01*
X136309252Y-87002546D01*
X136423606Y-87096394D01*
X136517454Y-87210748D01*
X136587190Y-87341214D01*
X136630133Y-87482778D01*
X136644633Y-87630000D01*
X136630133Y-87777222D01*
X136587190Y-87918786D01*
X136517454Y-88049252D01*
X136423606Y-88163606D01*
X136309252Y-88257454D01*
X136178786Y-88327190D01*
X136037222Y-88370133D01*
X135963665Y-88377378D01*
X135926888Y-88381000D01*
X135853112Y-88381000D01*
X135816335Y-88377378D01*
X135742778Y-88370133D01*
X135601214Y-88327190D01*
X135470748Y-88257454D01*
X135356394Y-88163606D01*
X135262546Y-88049252D01*
X135192810Y-87918786D01*
X135149867Y-87777222D01*
X135135367Y-87630000D01*
X135149867Y-87482778D01*
X135192810Y-87341214D01*
X135262546Y-87210748D01*
X135356394Y-87096394D01*
X135470748Y-87002546D01*
X135601214Y-86932810D01*
X135742778Y-86889867D01*
X135816335Y-86882622D01*
X135853112Y-86879000D01*
X135926888Y-86879000D01*
X135963665Y-86882622D01*
X135963665Y-86882622D01*
G37*
G36*
X136426694Y-77311860D02*
X136692437Y-77364719D01*
X137193087Y-77572095D01*
X137380774Y-77697504D01*
X137643663Y-77873161D01*
X138026839Y-78256337D01*
X138026841Y-78256340D01*
X138327905Y-78706913D01*
X138461363Y-79029109D01*
X138535281Y-79207564D01*
X138641000Y-79739049D01*
X138641000Y-80280951D01*
X138605186Y-80461000D01*
X138535281Y-80812437D01*
X138327905Y-81313087D01*
X138037636Y-81747504D01*
X138026839Y-81763663D01*
X137643663Y-82146839D01*
X137643660Y-82146841D01*
X137193087Y-82447905D01*
X136692437Y-82655281D01*
X136426693Y-82708141D01*
X136160951Y-82761000D01*
X135619049Y-82761000D01*
X135353307Y-82708141D01*
X135087563Y-82655281D01*
X134586913Y-82447905D01*
X134136340Y-82146841D01*
X134136337Y-82146839D01*
X133753161Y-81763663D01*
X133742364Y-81747504D01*
X133452095Y-81313087D01*
X133244719Y-80812437D01*
X133174814Y-80461000D01*
X133139000Y-80280951D01*
X133139000Y-79739049D01*
X133244719Y-79207564D01*
X133318637Y-79029109D01*
X133452095Y-78706913D01*
X133753159Y-78256340D01*
X133753161Y-78256337D01*
X134136337Y-77873161D01*
X134399226Y-77697504D01*
X134586913Y-77572095D01*
X135087563Y-77364719D01*
X135353306Y-77311860D01*
X135619049Y-77259000D01*
X136160951Y-77259000D01*
X136426694Y-77311860D01*
X136426694Y-77311860D01*
G37*
G36*
X88166694Y-77311860D02*
X88432437Y-77364719D01*
X88933087Y-77572095D01*
X89120774Y-77697504D01*
X89383663Y-77873161D01*
X89766839Y-78256337D01*
X89766841Y-78256340D01*
X90067905Y-78706913D01*
X90201363Y-79029109D01*
X90275281Y-79207564D01*
X90381000Y-79739049D01*
X90381000Y-80280951D01*
X90345186Y-80461000D01*
X90275281Y-80812437D01*
X90067905Y-81313087D01*
X89777636Y-81747504D01*
X89766839Y-81763663D01*
X89383663Y-82146839D01*
X89383660Y-82146841D01*
X88933087Y-82447905D01*
X88432437Y-82655281D01*
X88166693Y-82708141D01*
X87900951Y-82761000D01*
X87359049Y-82761000D01*
X87093307Y-82708141D01*
X86827563Y-82655281D01*
X86326913Y-82447905D01*
X85876340Y-82146841D01*
X85876337Y-82146839D01*
X85493161Y-81763663D01*
X85482364Y-81747504D01*
X85192095Y-81313087D01*
X84984719Y-80812437D01*
X84914814Y-80461000D01*
X84879000Y-80280951D01*
X84879000Y-79739049D01*
X84984719Y-79207564D01*
X85058637Y-79029109D01*
X85192095Y-78706913D01*
X85493159Y-78256340D01*
X85493161Y-78256337D01*
X85876337Y-77873161D01*
X86139226Y-77697504D01*
X86326913Y-77572095D01*
X86827563Y-77364719D01*
X87093306Y-77311860D01*
X87359049Y-77259000D01*
X87900951Y-77259000D01*
X88166694Y-77311860D01*
X88166694Y-77311860D01*
G37*
M02*
