G04 #@! TF.GenerationSoftware,KiCad,Pcbnew,5.0.2+dfsg1-1*
G04 #@! TF.CreationDate,2021-12-24T09:44:01+00:00*
G04 #@! TF.ProjectId,wy-50-keyboard-adaptor,77792d35-302d-46b6-9579-626f6172642d,rev?*
G04 #@! TF.SameCoordinates,Original*
G04 #@! TF.FileFunction,Legend,Top*
G04 #@! TF.FilePolarity,Positive*
%FSLAX46Y46*%
G04 Gerber Fmt 4.6, Leading zero omitted, Abs format (unit mm)*
G04 Created by KiCad (PCBNEW 5.0.2+dfsg1-1) date Fri 24 Dec 2021 09:44:01 AM GMT*
%MOMM*%
%LPD*%
G01*
G04 APERTURE LIST*
%ADD10C,0.300000*%
%ADD11C,0.200000*%
%ADD12C,0.120000*%
%ADD13C,0.150000*%
G04 APERTURE END LIST*
D10*
X103045714Y-79413571D02*
X103045714Y-77913571D01*
X103617142Y-77913571D01*
X103760000Y-77985000D01*
X103831428Y-78056428D01*
X103902857Y-78199285D01*
X103902857Y-78413571D01*
X103831428Y-78556428D01*
X103760000Y-78627857D01*
X103617142Y-78699285D01*
X103045714Y-78699285D01*
X104474285Y-79342142D02*
X104688571Y-79413571D01*
X105045714Y-79413571D01*
X105188571Y-79342142D01*
X105260000Y-79270714D01*
X105331428Y-79127857D01*
X105331428Y-78985000D01*
X105260000Y-78842142D01*
X105188571Y-78770714D01*
X105045714Y-78699285D01*
X104760000Y-78627857D01*
X104617142Y-78556428D01*
X104545714Y-78485000D01*
X104474285Y-78342142D01*
X104474285Y-78199285D01*
X104545714Y-78056428D01*
X104617142Y-77985000D01*
X104760000Y-77913571D01*
X105117142Y-77913571D01*
X105331428Y-77985000D01*
X107045714Y-77842142D02*
X105760000Y-79770714D01*
X107474285Y-78056428D02*
X107545714Y-77985000D01*
X107688571Y-77913571D01*
X108045714Y-77913571D01*
X108188571Y-77985000D01*
X108260000Y-78056428D01*
X108331428Y-78199285D01*
X108331428Y-78342142D01*
X108260000Y-78556428D01*
X107402857Y-79413571D01*
X108331428Y-79413571D01*
X109902857Y-78413571D02*
X110474285Y-78413571D01*
X110117142Y-77913571D02*
X110117142Y-79199285D01*
X110188571Y-79342142D01*
X110331428Y-79413571D01*
X110474285Y-79413571D01*
X111188571Y-79413571D02*
X111045714Y-79342142D01*
X110974285Y-79270714D01*
X110902857Y-79127857D01*
X110902857Y-78699285D01*
X110974285Y-78556428D01*
X111045714Y-78485000D01*
X111188571Y-78413571D01*
X111402857Y-78413571D01*
X111545714Y-78485000D01*
X111617142Y-78556428D01*
X111688571Y-78699285D01*
X111688571Y-79127857D01*
X111617142Y-79270714D01*
X111545714Y-79342142D01*
X111402857Y-79413571D01*
X111188571Y-79413571D01*
X113331428Y-77913571D02*
X113688571Y-79413571D01*
X113974285Y-78342142D01*
X114260000Y-79413571D01*
X114617142Y-77913571D01*
X115474285Y-78699285D02*
X115474285Y-79413571D01*
X114974285Y-77913571D02*
X115474285Y-78699285D01*
X115974285Y-77913571D01*
X116474285Y-78842142D02*
X117617142Y-78842142D01*
X119045714Y-77913571D02*
X118331428Y-77913571D01*
X118260000Y-78627857D01*
X118331428Y-78556428D01*
X118474285Y-78485000D01*
X118831428Y-78485000D01*
X118974285Y-78556428D01*
X119045714Y-78627857D01*
X119117142Y-78770714D01*
X119117142Y-79127857D01*
X119045714Y-79270714D01*
X118974285Y-79342142D01*
X118831428Y-79413571D01*
X118474285Y-79413571D01*
X118331428Y-79342142D01*
X118260000Y-79270714D01*
X120045714Y-77913571D02*
X120188571Y-77913571D01*
X120331428Y-77985000D01*
X120402857Y-78056428D01*
X120474285Y-78199285D01*
X120545714Y-78485000D01*
X120545714Y-78842142D01*
X120474285Y-79127857D01*
X120402857Y-79270714D01*
X120331428Y-79342142D01*
X120188571Y-79413571D01*
X120045714Y-79413571D01*
X119902857Y-79342142D01*
X119831428Y-79270714D01*
X119760000Y-79127857D01*
X119688571Y-78842142D01*
X119688571Y-78485000D01*
X119760000Y-78199285D01*
X119831428Y-78056428D01*
X119902857Y-77985000D01*
X120045714Y-77913571D01*
X100760000Y-81963571D02*
X100760000Y-80463571D01*
X101617142Y-81963571D02*
X100974285Y-81106428D01*
X101617142Y-80463571D02*
X100760000Y-81320714D01*
X102831428Y-81892142D02*
X102688571Y-81963571D01*
X102402857Y-81963571D01*
X102260000Y-81892142D01*
X102188571Y-81749285D01*
X102188571Y-81177857D01*
X102260000Y-81035000D01*
X102402857Y-80963571D01*
X102688571Y-80963571D01*
X102831428Y-81035000D01*
X102902857Y-81177857D01*
X102902857Y-81320714D01*
X102188571Y-81463571D01*
X103402857Y-80963571D02*
X103760000Y-81963571D01*
X104117142Y-80963571D02*
X103760000Y-81963571D01*
X103617142Y-82320714D01*
X103545714Y-82392142D01*
X103402857Y-82463571D01*
X104688571Y-81963571D02*
X104688571Y-80463571D01*
X104688571Y-81035000D02*
X104831428Y-80963571D01*
X105117142Y-80963571D01*
X105260000Y-81035000D01*
X105331428Y-81106428D01*
X105402857Y-81249285D01*
X105402857Y-81677857D01*
X105331428Y-81820714D01*
X105260000Y-81892142D01*
X105117142Y-81963571D01*
X104831428Y-81963571D01*
X104688571Y-81892142D01*
X106260000Y-81963571D02*
X106117142Y-81892142D01*
X106045714Y-81820714D01*
X105974285Y-81677857D01*
X105974285Y-81249285D01*
X106045714Y-81106428D01*
X106117142Y-81035000D01*
X106260000Y-80963571D01*
X106474285Y-80963571D01*
X106617142Y-81035000D01*
X106688571Y-81106428D01*
X106760000Y-81249285D01*
X106760000Y-81677857D01*
X106688571Y-81820714D01*
X106617142Y-81892142D01*
X106474285Y-81963571D01*
X106260000Y-81963571D01*
X108045714Y-81963571D02*
X108045714Y-81177857D01*
X107974285Y-81035000D01*
X107831428Y-80963571D01*
X107545714Y-80963571D01*
X107402857Y-81035000D01*
X108045714Y-81892142D02*
X107902857Y-81963571D01*
X107545714Y-81963571D01*
X107402857Y-81892142D01*
X107331428Y-81749285D01*
X107331428Y-81606428D01*
X107402857Y-81463571D01*
X107545714Y-81392142D01*
X107902857Y-81392142D01*
X108045714Y-81320714D01*
X109402857Y-81963571D02*
X109402857Y-80463571D01*
X109402857Y-81892142D02*
X109260000Y-81963571D01*
X108974285Y-81963571D01*
X108831428Y-81892142D01*
X108760000Y-81820714D01*
X108688571Y-81677857D01*
X108688571Y-81249285D01*
X108760000Y-81106428D01*
X108831428Y-81035000D01*
X108974285Y-80963571D01*
X109260000Y-80963571D01*
X109402857Y-81035000D01*
X111188571Y-81535000D02*
X111902857Y-81535000D01*
X111045714Y-81963571D02*
X111545714Y-80463571D01*
X112045714Y-81963571D01*
X113188571Y-81963571D02*
X113188571Y-80463571D01*
X113188571Y-81892142D02*
X113045714Y-81963571D01*
X112760000Y-81963571D01*
X112617142Y-81892142D01*
X112545714Y-81820714D01*
X112474285Y-81677857D01*
X112474285Y-81249285D01*
X112545714Y-81106428D01*
X112617142Y-81035000D01*
X112760000Y-80963571D01*
X113045714Y-80963571D01*
X113188571Y-81035000D01*
X114545714Y-81963571D02*
X114545714Y-81177857D01*
X114474285Y-81035000D01*
X114331428Y-80963571D01*
X114045714Y-80963571D01*
X113902857Y-81035000D01*
X114545714Y-81892142D02*
X114402857Y-81963571D01*
X114045714Y-81963571D01*
X113902857Y-81892142D01*
X113831428Y-81749285D01*
X113831428Y-81606428D01*
X113902857Y-81463571D01*
X114045714Y-81392142D01*
X114402857Y-81392142D01*
X114545714Y-81320714D01*
X115260000Y-80963571D02*
X115260000Y-82463571D01*
X115260000Y-81035000D02*
X115402857Y-80963571D01*
X115688571Y-80963571D01*
X115831428Y-81035000D01*
X115902857Y-81106428D01*
X115974285Y-81249285D01*
X115974285Y-81677857D01*
X115902857Y-81820714D01*
X115831428Y-81892142D01*
X115688571Y-81963571D01*
X115402857Y-81963571D01*
X115260000Y-81892142D01*
X116402857Y-80963571D02*
X116974285Y-80963571D01*
X116617142Y-80463571D02*
X116617142Y-81749285D01*
X116688571Y-81892142D01*
X116831428Y-81963571D01*
X116974285Y-81963571D01*
X117688571Y-81963571D02*
X117545714Y-81892142D01*
X117474285Y-81820714D01*
X117402857Y-81677857D01*
X117402857Y-81249285D01*
X117474285Y-81106428D01*
X117545714Y-81035000D01*
X117688571Y-80963571D01*
X117902857Y-80963571D01*
X118045714Y-81035000D01*
X118117142Y-81106428D01*
X118188571Y-81249285D01*
X118188571Y-81677857D01*
X118117142Y-81820714D01*
X118045714Y-81892142D01*
X117902857Y-81963571D01*
X117688571Y-81963571D01*
X118831428Y-81963571D02*
X118831428Y-80963571D01*
X118831428Y-81249285D02*
X118902857Y-81106428D01*
X118974285Y-81035000D01*
X119117142Y-80963571D01*
X119260000Y-80963571D01*
X120760000Y-80963571D02*
X121117142Y-81963571D01*
X121474285Y-80963571D01*
X122831428Y-81963571D02*
X121974285Y-81963571D01*
X122402857Y-81963571D02*
X122402857Y-80463571D01*
X122260000Y-80677857D01*
X122117142Y-80820714D01*
X121974285Y-80892142D01*
D11*
X86404761Y-92162380D02*
X85928571Y-92162380D01*
X85880952Y-92638571D01*
X85928571Y-92590952D01*
X86023809Y-92543333D01*
X86261904Y-92543333D01*
X86357142Y-92590952D01*
X86404761Y-92638571D01*
X86452380Y-92733809D01*
X86452380Y-92971904D01*
X86404761Y-93067142D01*
X86357142Y-93114761D01*
X86261904Y-93162380D01*
X86023809Y-93162380D01*
X85928571Y-93114761D01*
X85880952Y-93067142D01*
X86738095Y-92162380D02*
X87071428Y-93162380D01*
X87404761Y-92162380D01*
X85214285Y-89670000D02*
X85119047Y-89622380D01*
X84976190Y-89622380D01*
X84833333Y-89670000D01*
X84738095Y-89765238D01*
X84690476Y-89860476D01*
X84642857Y-90050952D01*
X84642857Y-90193809D01*
X84690476Y-90384285D01*
X84738095Y-90479523D01*
X84833333Y-90574761D01*
X84976190Y-90622380D01*
X85071428Y-90622380D01*
X85214285Y-90574761D01*
X85261904Y-90527142D01*
X85261904Y-90193809D01*
X85071428Y-90193809D01*
X85690476Y-90622380D02*
X85690476Y-89622380D01*
X86261904Y-90622380D01*
X86261904Y-89622380D01*
X86738095Y-90622380D02*
X86738095Y-89622380D01*
X86976190Y-89622380D01*
X87119047Y-89670000D01*
X87214285Y-89765238D01*
X87261904Y-89860476D01*
X87309523Y-90050952D01*
X87309523Y-90193809D01*
X87261904Y-90384285D01*
X87214285Y-90479523D01*
X87119047Y-90574761D01*
X86976190Y-90622380D01*
X86738095Y-90622380D01*
X84261904Y-126182380D02*
X84261904Y-125182380D01*
X84500000Y-125182380D01*
X84642857Y-125230000D01*
X84738095Y-125325238D01*
X84785714Y-125420476D01*
X84833333Y-125610952D01*
X84833333Y-125753809D01*
X84785714Y-125944285D01*
X84738095Y-126039523D01*
X84642857Y-126134761D01*
X84500000Y-126182380D01*
X84261904Y-126182380D01*
X85214285Y-125896666D02*
X85690476Y-125896666D01*
X85119047Y-126182380D02*
X85452380Y-125182380D01*
X85785714Y-126182380D01*
X85976190Y-125182380D02*
X86547619Y-125182380D01*
X86261904Y-126182380D02*
X86261904Y-125182380D01*
X86833333Y-125896666D02*
X87309523Y-125896666D01*
X86738095Y-126182380D02*
X87071428Y-125182380D01*
X87404761Y-126182380D01*
X86404761Y-120102380D02*
X85928571Y-120102380D01*
X85880952Y-120578571D01*
X85928571Y-120530952D01*
X86023809Y-120483333D01*
X86261904Y-120483333D01*
X86357142Y-120530952D01*
X86404761Y-120578571D01*
X86452380Y-120673809D01*
X86452380Y-120911904D01*
X86404761Y-121007142D01*
X86357142Y-121054761D01*
X86261904Y-121102380D01*
X86023809Y-121102380D01*
X85928571Y-121054761D01*
X85880952Y-121007142D01*
X86738095Y-120102380D02*
X87071428Y-121102380D01*
X87404761Y-120102380D01*
X85214285Y-127770000D02*
X85119047Y-127722380D01*
X84976190Y-127722380D01*
X84833333Y-127770000D01*
X84738095Y-127865238D01*
X84690476Y-127960476D01*
X84642857Y-128150952D01*
X84642857Y-128293809D01*
X84690476Y-128484285D01*
X84738095Y-128579523D01*
X84833333Y-128674761D01*
X84976190Y-128722380D01*
X85071428Y-128722380D01*
X85214285Y-128674761D01*
X85261904Y-128627142D01*
X85261904Y-128293809D01*
X85071428Y-128293809D01*
X85690476Y-128722380D02*
X85690476Y-127722380D01*
X86261904Y-128722380D01*
X86261904Y-127722380D01*
X86738095Y-128722380D02*
X86738095Y-127722380D01*
X86976190Y-127722380D01*
X87119047Y-127770000D01*
X87214285Y-127865238D01*
X87261904Y-127960476D01*
X87309523Y-128150952D01*
X87309523Y-128293809D01*
X87261904Y-128484285D01*
X87214285Y-128579523D01*
X87119047Y-128674761D01*
X86976190Y-128722380D01*
X86738095Y-128722380D01*
X96189523Y-128627142D02*
X96141904Y-128674761D01*
X95999047Y-128722380D01*
X95903809Y-128722380D01*
X95760952Y-128674761D01*
X95665714Y-128579523D01*
X95618095Y-128484285D01*
X95570476Y-128293809D01*
X95570476Y-128150952D01*
X95618095Y-127960476D01*
X95665714Y-127865238D01*
X95760952Y-127770000D01*
X95903809Y-127722380D01*
X95999047Y-127722380D01*
X96141904Y-127770000D01*
X96189523Y-127817619D01*
X97094285Y-128722380D02*
X96618095Y-128722380D01*
X96618095Y-127722380D01*
X97427619Y-128722380D02*
X97427619Y-127722380D01*
X97999047Y-128722380D02*
X97570476Y-128150952D01*
X97999047Y-127722380D02*
X97427619Y-128293809D01*
D12*
G04 #@! TO.C,A1*
X101600000Y-88900000D02*
X101600000Y-86360000D01*
X101600000Y-86360000D02*
X98930000Y-86360000D01*
X98930000Y-88900000D02*
X98930000Y-127130000D01*
X98930000Y-83690000D02*
X98930000Y-86360000D01*
X114300000Y-86360000D02*
X116970000Y-86360000D01*
X114300000Y-86360000D02*
X114300000Y-124460000D01*
X114300000Y-124460000D02*
X116970000Y-124460000D01*
X101600000Y-88900000D02*
X98930000Y-88900000D01*
X101600000Y-88900000D02*
X101600000Y-124460000D01*
X101600000Y-124460000D02*
X98930000Y-124460000D01*
X98930000Y-127130000D02*
X116970000Y-127130000D01*
X116970000Y-127130000D02*
X116970000Y-83690000D01*
X116970000Y-83690000D02*
X98930000Y-83690000D01*
G04 #@! TO.C,C1*
X134835000Y-115610000D02*
X134520000Y-115610000D01*
X137260000Y-115610000D02*
X136945000Y-115610000D01*
X134835000Y-110370000D02*
X134520000Y-110370000D01*
X137260000Y-110370000D02*
X136945000Y-110370000D01*
X134520000Y-110370000D02*
X134520000Y-115610000D01*
X137260000Y-110370000D02*
X137260000Y-115610000D01*
G04 #@! TO.C,C2*
X93880000Y-92830000D02*
X93880000Y-87590000D01*
X96620000Y-92830000D02*
X96620000Y-87590000D01*
X93880000Y-92830000D02*
X94195000Y-92830000D01*
X96305000Y-92830000D02*
X96620000Y-92830000D01*
X93880000Y-87590000D02*
X94195000Y-87590000D01*
X96305000Y-87590000D02*
X96620000Y-87590000D01*
G04 #@! TO.C,J1*
X88840000Y-114360000D02*
X91500000Y-114360000D01*
X88840000Y-88900000D02*
X88840000Y-114360000D01*
X91500000Y-88900000D02*
X91500000Y-114360000D01*
X88840000Y-88900000D02*
X91500000Y-88900000D01*
X88840000Y-87630000D02*
X88840000Y-86300000D01*
X88840000Y-86300000D02*
X90170000Y-86300000D01*
G04 #@! TO.C,J2*
X88840000Y-129600000D02*
X94040000Y-129600000D01*
X88840000Y-121920000D02*
X88840000Y-129600000D01*
X94040000Y-119320000D02*
X94040000Y-129600000D01*
X88840000Y-121920000D02*
X91440000Y-121920000D01*
X91440000Y-121920000D02*
X91440000Y-119320000D01*
X91440000Y-119320000D02*
X94040000Y-119320000D01*
X88840000Y-120650000D02*
X88840000Y-119320000D01*
X88840000Y-119320000D02*
X90170000Y-119320000D01*
G04 #@! TO.C,R1*
X134970000Y-93360000D02*
X136810000Y-93360000D01*
X136810000Y-93360000D02*
X136810000Y-89520000D01*
X136810000Y-89520000D02*
X134970000Y-89520000D01*
X134970000Y-89520000D02*
X134970000Y-93360000D01*
X135890000Y-94310000D02*
X135890000Y-93360000D01*
X135890000Y-88570000D02*
X135890000Y-89520000D01*
G04 #@! TO.C,R2*
X135890000Y-98730000D02*
X135890000Y-99680000D01*
X135890000Y-104470000D02*
X135890000Y-103520000D01*
X134970000Y-99680000D02*
X134970000Y-103520000D01*
X136810000Y-99680000D02*
X134970000Y-99680000D01*
X136810000Y-103520000D02*
X136810000Y-99680000D01*
X134970000Y-103520000D02*
X136810000Y-103520000D01*
G04 #@! TO.C,U1*
X126000000Y-104200000D02*
G75*
G02X128000000Y-104200000I1000000J0D01*
G01*
X128000000Y-104200000D02*
X129250000Y-104200000D01*
X129250000Y-104200000D02*
X129250000Y-86300000D01*
X129250000Y-86300000D02*
X124750000Y-86300000D01*
X124750000Y-86300000D02*
X124750000Y-104200000D01*
X124750000Y-104200000D02*
X126000000Y-104200000D01*
X132250000Y-104260000D02*
X132250000Y-86240000D01*
X132250000Y-86240000D02*
X121750000Y-86240000D01*
X121750000Y-86240000D02*
X121750000Y-104260000D01*
X121750000Y-104260000D02*
X132250000Y-104260000D01*
G04 #@! TO.C,U2*
X126000000Y-129600000D02*
G75*
G02X128000000Y-129600000I1000000J0D01*
G01*
X128000000Y-129600000D02*
X129250000Y-129600000D01*
X129250000Y-129600000D02*
X129250000Y-109160000D01*
X129250000Y-109160000D02*
X124750000Y-109160000D01*
X124750000Y-109160000D02*
X124750000Y-129600000D01*
X124750000Y-129600000D02*
X126000000Y-129600000D01*
X132250000Y-129660000D02*
X132250000Y-109100000D01*
X132250000Y-109100000D02*
X121750000Y-109100000D01*
X121750000Y-109100000D02*
X121750000Y-129660000D01*
X121750000Y-129660000D02*
X132250000Y-129660000D01*
G04 #@! TO.C,REF\002A\002A*
X91380000Y-139760000D02*
X91380000Y-138430000D01*
X92710000Y-139760000D02*
X91380000Y-139760000D01*
X91380000Y-137160000D02*
X91380000Y-134560000D01*
X93980000Y-137160000D02*
X91380000Y-137160000D01*
X93980000Y-139760000D02*
X93980000Y-137160000D01*
X91380000Y-134560000D02*
X132140000Y-134560000D01*
X93980000Y-139760000D02*
X132140000Y-139760000D01*
X132140000Y-139760000D02*
X132140000Y-134560000D01*
G04 #@! TO.C,A1*
D13*
X97075714Y-83986666D02*
X97551904Y-83986666D01*
X96980476Y-84272380D02*
X97313809Y-83272380D01*
X97647142Y-84272380D01*
X98504285Y-84272380D02*
X97932857Y-84272380D01*
X98218571Y-84272380D02*
X98218571Y-83272380D01*
X98123333Y-83415238D01*
X98028095Y-83510476D01*
X97932857Y-83558095D01*
X103092857Y-85256666D02*
X103569047Y-85256666D01*
X102997619Y-85542380D02*
X103330952Y-84542380D01*
X103664285Y-85542380D01*
X103997619Y-85542380D02*
X103997619Y-84875714D01*
X103997619Y-85066190D02*
X104045238Y-84970952D01*
X104092857Y-84923333D01*
X104188095Y-84875714D01*
X104283333Y-84875714D01*
X105045238Y-85542380D02*
X105045238Y-84542380D01*
X105045238Y-85494761D02*
X104950000Y-85542380D01*
X104759523Y-85542380D01*
X104664285Y-85494761D01*
X104616666Y-85447142D01*
X104569047Y-85351904D01*
X104569047Y-85066190D01*
X104616666Y-84970952D01*
X104664285Y-84923333D01*
X104759523Y-84875714D01*
X104950000Y-84875714D01*
X105045238Y-84923333D01*
X105950000Y-84875714D02*
X105950000Y-85542380D01*
X105521428Y-84875714D02*
X105521428Y-85399523D01*
X105569047Y-85494761D01*
X105664285Y-85542380D01*
X105807142Y-85542380D01*
X105902380Y-85494761D01*
X105950000Y-85447142D01*
X106426190Y-85542380D02*
X106426190Y-84875714D01*
X106426190Y-84542380D02*
X106378571Y-84590000D01*
X106426190Y-84637619D01*
X106473809Y-84590000D01*
X106426190Y-84542380D01*
X106426190Y-84637619D01*
X106902380Y-84875714D02*
X106902380Y-85542380D01*
X106902380Y-84970952D02*
X106950000Y-84923333D01*
X107045238Y-84875714D01*
X107188095Y-84875714D01*
X107283333Y-84923333D01*
X107330952Y-85018571D01*
X107330952Y-85542380D01*
X107950000Y-85542380D02*
X107854761Y-85494761D01*
X107807142Y-85447142D01*
X107759523Y-85351904D01*
X107759523Y-85066190D01*
X107807142Y-84970952D01*
X107854761Y-84923333D01*
X107950000Y-84875714D01*
X108092857Y-84875714D01*
X108188095Y-84923333D01*
X108235714Y-84970952D01*
X108283333Y-85066190D01*
X108283333Y-85351904D01*
X108235714Y-85447142D01*
X108188095Y-85494761D01*
X108092857Y-85542380D01*
X107950000Y-85542380D01*
X109473809Y-85542380D02*
X109473809Y-84542380D01*
X110045238Y-85542380D01*
X110045238Y-84542380D01*
X110950000Y-85542380D02*
X110950000Y-85018571D01*
X110902380Y-84923333D01*
X110807142Y-84875714D01*
X110616666Y-84875714D01*
X110521428Y-84923333D01*
X110950000Y-85494761D02*
X110854761Y-85542380D01*
X110616666Y-85542380D01*
X110521428Y-85494761D01*
X110473809Y-85399523D01*
X110473809Y-85304285D01*
X110521428Y-85209047D01*
X110616666Y-85161428D01*
X110854761Y-85161428D01*
X110950000Y-85113809D01*
X111426190Y-84875714D02*
X111426190Y-85542380D01*
X111426190Y-84970952D02*
X111473809Y-84923333D01*
X111569047Y-84875714D01*
X111711904Y-84875714D01*
X111807142Y-84923333D01*
X111854761Y-85018571D01*
X111854761Y-85542380D01*
X112473809Y-85542380D02*
X112378571Y-85494761D01*
X112330952Y-85447142D01*
X112283333Y-85351904D01*
X112283333Y-85066190D01*
X112330952Y-84970952D01*
X112378571Y-84923333D01*
X112473809Y-84875714D01*
X112616666Y-84875714D01*
X112711904Y-84923333D01*
X112759523Y-84970952D01*
X112807142Y-85066190D01*
X112807142Y-85351904D01*
X112759523Y-85447142D01*
X112711904Y-85494761D01*
X112616666Y-85542380D01*
X112473809Y-85542380D01*
G04 #@! TO.C,C1*
X133707142Y-113196666D02*
X133754761Y-113244285D01*
X133802380Y-113387142D01*
X133802380Y-113482380D01*
X133754761Y-113625238D01*
X133659523Y-113720476D01*
X133564285Y-113768095D01*
X133373809Y-113815714D01*
X133230952Y-113815714D01*
X133040476Y-113768095D01*
X132945238Y-113720476D01*
X132850000Y-113625238D01*
X132802380Y-113482380D01*
X132802380Y-113387142D01*
X132850000Y-113244285D01*
X132897619Y-113196666D01*
X133802380Y-112244285D02*
X133802380Y-112815714D01*
X133802380Y-112530000D02*
X132802380Y-112530000D01*
X132945238Y-112625238D01*
X133040476Y-112720476D01*
X133088095Y-112815714D01*
X138882380Y-114109047D02*
X138882380Y-114680476D01*
X138882380Y-114394761D02*
X137882380Y-114394761D01*
X138025238Y-114490000D01*
X138120476Y-114585238D01*
X138168095Y-114680476D01*
X137882380Y-113490000D02*
X137882380Y-113394761D01*
X137930000Y-113299523D01*
X137977619Y-113251904D01*
X138072857Y-113204285D01*
X138263333Y-113156666D01*
X138501428Y-113156666D01*
X138691904Y-113204285D01*
X138787142Y-113251904D01*
X138834761Y-113299523D01*
X138882380Y-113394761D01*
X138882380Y-113490000D01*
X138834761Y-113585238D01*
X138787142Y-113632857D01*
X138691904Y-113680476D01*
X138501428Y-113728095D01*
X138263333Y-113728095D01*
X138072857Y-113680476D01*
X137977619Y-113632857D01*
X137930000Y-113585238D01*
X137882380Y-113490000D01*
X137882380Y-112537619D02*
X137882380Y-112442380D01*
X137930000Y-112347142D01*
X137977619Y-112299523D01*
X138072857Y-112251904D01*
X138263333Y-112204285D01*
X138501428Y-112204285D01*
X138691904Y-112251904D01*
X138787142Y-112299523D01*
X138834761Y-112347142D01*
X138882380Y-112442380D01*
X138882380Y-112537619D01*
X138834761Y-112632857D01*
X138787142Y-112680476D01*
X138691904Y-112728095D01*
X138501428Y-112775714D01*
X138263333Y-112775714D01*
X138072857Y-112728095D01*
X137977619Y-112680476D01*
X137930000Y-112632857D01*
X137882380Y-112537619D01*
X138215714Y-111347142D02*
X138882380Y-111347142D01*
X138215714Y-111775714D02*
X138739523Y-111775714D01*
X138834761Y-111728095D01*
X138882380Y-111632857D01*
X138882380Y-111490000D01*
X138834761Y-111394761D01*
X138787142Y-111347142D01*
G04 #@! TO.C,C2*
X93067142Y-90336666D02*
X93114761Y-90384285D01*
X93162380Y-90527142D01*
X93162380Y-90622380D01*
X93114761Y-90765238D01*
X93019523Y-90860476D01*
X92924285Y-90908095D01*
X92733809Y-90955714D01*
X92590952Y-90955714D01*
X92400476Y-90908095D01*
X92305238Y-90860476D01*
X92210000Y-90765238D01*
X92162380Y-90622380D01*
X92162380Y-90527142D01*
X92210000Y-90384285D01*
X92257619Y-90336666D01*
X92257619Y-89955714D02*
X92210000Y-89908095D01*
X92162380Y-89812857D01*
X92162380Y-89574761D01*
X92210000Y-89479523D01*
X92257619Y-89431904D01*
X92352857Y-89384285D01*
X92448095Y-89384285D01*
X92590952Y-89431904D01*
X93162380Y-90003333D01*
X93162380Y-89384285D01*
X98202380Y-91329047D02*
X98202380Y-91900476D01*
X98202380Y-91614761D02*
X97202380Y-91614761D01*
X97345238Y-91710000D01*
X97440476Y-91805238D01*
X97488095Y-91900476D01*
X97202380Y-90710000D02*
X97202380Y-90614761D01*
X97250000Y-90519523D01*
X97297619Y-90471904D01*
X97392857Y-90424285D01*
X97583333Y-90376666D01*
X97821428Y-90376666D01*
X98011904Y-90424285D01*
X98107142Y-90471904D01*
X98154761Y-90519523D01*
X98202380Y-90614761D01*
X98202380Y-90710000D01*
X98154761Y-90805238D01*
X98107142Y-90852857D01*
X98011904Y-90900476D01*
X97821428Y-90948095D01*
X97583333Y-90948095D01*
X97392857Y-90900476D01*
X97297619Y-90852857D01*
X97250000Y-90805238D01*
X97202380Y-90710000D01*
X97202380Y-89757619D02*
X97202380Y-89662380D01*
X97250000Y-89567142D01*
X97297619Y-89519523D01*
X97392857Y-89471904D01*
X97583333Y-89424285D01*
X97821428Y-89424285D01*
X98011904Y-89471904D01*
X98107142Y-89519523D01*
X98154761Y-89567142D01*
X98202380Y-89662380D01*
X98202380Y-89757619D01*
X98154761Y-89852857D01*
X98107142Y-89900476D01*
X98011904Y-89948095D01*
X97821428Y-89995714D01*
X97583333Y-89995714D01*
X97392857Y-89948095D01*
X97297619Y-89900476D01*
X97250000Y-89852857D01*
X97202380Y-89757619D01*
X97535714Y-88567142D02*
X98202380Y-88567142D01*
X97535714Y-88995714D02*
X98059523Y-88995714D01*
X98154761Y-88948095D01*
X98202380Y-88852857D01*
X98202380Y-88710000D01*
X98154761Y-88614761D01*
X98107142Y-88567142D01*
G04 #@! TO.C,J1*
X89836666Y-84752380D02*
X89836666Y-85466666D01*
X89789047Y-85609523D01*
X89693809Y-85704761D01*
X89550952Y-85752380D01*
X89455714Y-85752380D01*
X90836666Y-85752380D02*
X90265238Y-85752380D01*
X90550952Y-85752380D02*
X90550952Y-84752380D01*
X90455714Y-84895238D01*
X90360476Y-84990476D01*
X90265238Y-85038095D01*
X94702380Y-111648095D02*
X95702380Y-111410000D01*
X94988095Y-111219523D01*
X95702380Y-111029047D01*
X94702380Y-110790952D01*
X95226190Y-110219523D02*
X95702380Y-110219523D01*
X94702380Y-110552857D02*
X95226190Y-110219523D01*
X94702380Y-109886190D01*
X95321428Y-109552857D02*
X95321428Y-108790952D01*
X94702380Y-107838571D02*
X94702380Y-108314761D01*
X95178571Y-108362380D01*
X95130952Y-108314761D01*
X95083333Y-108219523D01*
X95083333Y-107981428D01*
X95130952Y-107886190D01*
X95178571Y-107838571D01*
X95273809Y-107790952D01*
X95511904Y-107790952D01*
X95607142Y-107838571D01*
X95654761Y-107886190D01*
X95702380Y-107981428D01*
X95702380Y-108219523D01*
X95654761Y-108314761D01*
X95607142Y-108362380D01*
X94702380Y-107171904D02*
X94702380Y-107076666D01*
X94750000Y-106981428D01*
X94797619Y-106933809D01*
X94892857Y-106886190D01*
X95083333Y-106838571D01*
X95321428Y-106838571D01*
X95511904Y-106886190D01*
X95607142Y-106933809D01*
X95654761Y-106981428D01*
X95702380Y-107076666D01*
X95702380Y-107171904D01*
X95654761Y-107267142D01*
X95607142Y-107314761D01*
X95511904Y-107362380D01*
X95321428Y-107410000D01*
X95083333Y-107410000D01*
X94892857Y-107362380D01*
X94797619Y-107314761D01*
X94750000Y-107267142D01*
X94702380Y-107171904D01*
X95702380Y-105648095D02*
X94702380Y-105648095D01*
X95702380Y-105076666D02*
X95130952Y-105505238D01*
X94702380Y-105076666D02*
X95273809Y-105648095D01*
X95654761Y-104267142D02*
X95702380Y-104362380D01*
X95702380Y-104552857D01*
X95654761Y-104648095D01*
X95559523Y-104695714D01*
X95178571Y-104695714D01*
X95083333Y-104648095D01*
X95035714Y-104552857D01*
X95035714Y-104362380D01*
X95083333Y-104267142D01*
X95178571Y-104219523D01*
X95273809Y-104219523D01*
X95369047Y-104695714D01*
X95035714Y-103886190D02*
X95702380Y-103648095D01*
X95035714Y-103410000D02*
X95702380Y-103648095D01*
X95940476Y-103743333D01*
X95988095Y-103790952D01*
X96035714Y-103886190D01*
X95702380Y-103029047D02*
X94702380Y-103029047D01*
X95083333Y-103029047D02*
X95035714Y-102933809D01*
X95035714Y-102743333D01*
X95083333Y-102648095D01*
X95130952Y-102600476D01*
X95226190Y-102552857D01*
X95511904Y-102552857D01*
X95607142Y-102600476D01*
X95654761Y-102648095D01*
X95702380Y-102743333D01*
X95702380Y-102933809D01*
X95654761Y-103029047D01*
X95702380Y-101981428D02*
X95654761Y-102076666D01*
X95607142Y-102124285D01*
X95511904Y-102171904D01*
X95226190Y-102171904D01*
X95130952Y-102124285D01*
X95083333Y-102076666D01*
X95035714Y-101981428D01*
X95035714Y-101838571D01*
X95083333Y-101743333D01*
X95130952Y-101695714D01*
X95226190Y-101648095D01*
X95511904Y-101648095D01*
X95607142Y-101695714D01*
X95654761Y-101743333D01*
X95702380Y-101838571D01*
X95702380Y-101981428D01*
X95702380Y-100790952D02*
X95178571Y-100790952D01*
X95083333Y-100838571D01*
X95035714Y-100933809D01*
X95035714Y-101124285D01*
X95083333Y-101219523D01*
X95654761Y-100790952D02*
X95702380Y-100886190D01*
X95702380Y-101124285D01*
X95654761Y-101219523D01*
X95559523Y-101267142D01*
X95464285Y-101267142D01*
X95369047Y-101219523D01*
X95321428Y-101124285D01*
X95321428Y-100886190D01*
X95273809Y-100790952D01*
X95702380Y-100314761D02*
X95035714Y-100314761D01*
X95226190Y-100314761D02*
X95130952Y-100267142D01*
X95083333Y-100219523D01*
X95035714Y-100124285D01*
X95035714Y-100029047D01*
X95702380Y-99267142D02*
X94702380Y-99267142D01*
X95654761Y-99267142D02*
X95702380Y-99362380D01*
X95702380Y-99552857D01*
X95654761Y-99648095D01*
X95607142Y-99695714D01*
X95511904Y-99743333D01*
X95226190Y-99743333D01*
X95130952Y-99695714D01*
X95083333Y-99648095D01*
X95035714Y-99552857D01*
X95035714Y-99362380D01*
X95083333Y-99267142D01*
G04 #@! TO.C,J2*
X91106666Y-117772380D02*
X91106666Y-118486666D01*
X91059047Y-118629523D01*
X90963809Y-118724761D01*
X90820952Y-118772380D01*
X90725714Y-118772380D01*
X91535238Y-117867619D02*
X91582857Y-117820000D01*
X91678095Y-117772380D01*
X91916190Y-117772380D01*
X92011428Y-117820000D01*
X92059047Y-117867619D01*
X92106666Y-117962857D01*
X92106666Y-118058095D01*
X92059047Y-118200952D01*
X91487619Y-118772380D01*
X92106666Y-118772380D01*
X96972380Y-125443809D02*
X95972380Y-125443809D01*
X95972380Y-125062857D01*
X96020000Y-124967619D01*
X96067619Y-124920000D01*
X96162857Y-124872380D01*
X96305714Y-124872380D01*
X96400952Y-124920000D01*
X96448571Y-124967619D01*
X96496190Y-125062857D01*
X96496190Y-125443809D01*
X96924761Y-124491428D02*
X96972380Y-124348571D01*
X96972380Y-124110476D01*
X96924761Y-124015238D01*
X96877142Y-123967619D01*
X96781904Y-123920000D01*
X96686666Y-123920000D01*
X96591428Y-123967619D01*
X96543809Y-124015238D01*
X96496190Y-124110476D01*
X96448571Y-124300952D01*
X96400952Y-124396190D01*
X96353333Y-124443809D01*
X96258095Y-124491428D01*
X96162857Y-124491428D01*
X96067619Y-124443809D01*
X96020000Y-124396190D01*
X95972380Y-124300952D01*
X95972380Y-124062857D01*
X96020000Y-123920000D01*
X95924761Y-122777142D02*
X97210476Y-123634285D01*
X96067619Y-122491428D02*
X96020000Y-122443809D01*
X95972380Y-122348571D01*
X95972380Y-122110476D01*
X96020000Y-122015238D01*
X96067619Y-121967619D01*
X96162857Y-121920000D01*
X96258095Y-121920000D01*
X96400952Y-121967619D01*
X96972380Y-122539047D01*
X96972380Y-121920000D01*
X96972380Y-120729523D02*
X95972380Y-120729523D01*
X96972380Y-120158095D02*
X96400952Y-120586666D01*
X95972380Y-120158095D02*
X96543809Y-120729523D01*
X96972380Y-119729523D02*
X95972380Y-119729523D01*
X96353333Y-119729523D02*
X96305714Y-119634285D01*
X96305714Y-119443809D01*
X96353333Y-119348571D01*
X96400952Y-119300952D01*
X96496190Y-119253333D01*
X96781904Y-119253333D01*
X96877142Y-119300952D01*
X96924761Y-119348571D01*
X96972380Y-119443809D01*
X96972380Y-119634285D01*
X96924761Y-119729523D01*
X96972380Y-118396190D02*
X95972380Y-118396190D01*
X96924761Y-118396190D02*
X96972380Y-118491428D01*
X96972380Y-118681904D01*
X96924761Y-118777142D01*
X96877142Y-118824761D01*
X96781904Y-118872380D01*
X96496190Y-118872380D01*
X96400952Y-118824761D01*
X96353333Y-118777142D01*
X96305714Y-118681904D01*
X96305714Y-118491428D01*
X96353333Y-118396190D01*
G04 #@! TO.C,R1*
X134422380Y-91606666D02*
X133946190Y-91940000D01*
X134422380Y-92178095D02*
X133422380Y-92178095D01*
X133422380Y-91797142D01*
X133470000Y-91701904D01*
X133517619Y-91654285D01*
X133612857Y-91606666D01*
X133755714Y-91606666D01*
X133850952Y-91654285D01*
X133898571Y-91701904D01*
X133946190Y-91797142D01*
X133946190Y-92178095D01*
X134422380Y-90654285D02*
X134422380Y-91225714D01*
X134422380Y-90940000D02*
X133422380Y-90940000D01*
X133565238Y-91035238D01*
X133660476Y-91130476D01*
X133708095Y-91225714D01*
X137595714Y-92701904D02*
X138262380Y-92701904D01*
X137214761Y-92940000D02*
X137929047Y-93178095D01*
X137929047Y-92559047D01*
X137262380Y-92273333D02*
X137262380Y-91606666D01*
X138262380Y-92035238D01*
X137262380Y-91035238D02*
X137262380Y-90940000D01*
X137310000Y-90844761D01*
X137357619Y-90797142D01*
X137452857Y-90749523D01*
X137643333Y-90701904D01*
X137881428Y-90701904D01*
X138071904Y-90749523D01*
X138167142Y-90797142D01*
X138214761Y-90844761D01*
X138262380Y-90940000D01*
X138262380Y-91035238D01*
X138214761Y-91130476D01*
X138167142Y-91178095D01*
X138071904Y-91225714D01*
X137881428Y-91273333D01*
X137643333Y-91273333D01*
X137452857Y-91225714D01*
X137357619Y-91178095D01*
X137310000Y-91130476D01*
X137262380Y-91035238D01*
X138262380Y-89701904D02*
X137786190Y-90035238D01*
X138262380Y-90273333D02*
X137262380Y-90273333D01*
X137262380Y-89892380D01*
X137310000Y-89797142D01*
X137357619Y-89749523D01*
X137452857Y-89701904D01*
X137595714Y-89701904D01*
X137690952Y-89749523D01*
X137738571Y-89797142D01*
X137786190Y-89892380D01*
X137786190Y-90273333D01*
G04 #@! TO.C,R2*
X134422380Y-101766666D02*
X133946190Y-102100000D01*
X134422380Y-102338095D02*
X133422380Y-102338095D01*
X133422380Y-101957142D01*
X133470000Y-101861904D01*
X133517619Y-101814285D01*
X133612857Y-101766666D01*
X133755714Y-101766666D01*
X133850952Y-101814285D01*
X133898571Y-101861904D01*
X133946190Y-101957142D01*
X133946190Y-102338095D01*
X133517619Y-101385714D02*
X133470000Y-101338095D01*
X133422380Y-101242857D01*
X133422380Y-101004761D01*
X133470000Y-100909523D01*
X133517619Y-100861904D01*
X133612857Y-100814285D01*
X133708095Y-100814285D01*
X133850952Y-100861904D01*
X134422380Y-101433333D01*
X134422380Y-100814285D01*
X137595714Y-102861904D02*
X138262380Y-102861904D01*
X137214761Y-103100000D02*
X137929047Y-103338095D01*
X137929047Y-102719047D01*
X137262380Y-102433333D02*
X137262380Y-101766666D01*
X138262380Y-102195238D01*
X137262380Y-101195238D02*
X137262380Y-101100000D01*
X137310000Y-101004761D01*
X137357619Y-100957142D01*
X137452857Y-100909523D01*
X137643333Y-100861904D01*
X137881428Y-100861904D01*
X138071904Y-100909523D01*
X138167142Y-100957142D01*
X138214761Y-101004761D01*
X138262380Y-101100000D01*
X138262380Y-101195238D01*
X138214761Y-101290476D01*
X138167142Y-101338095D01*
X138071904Y-101385714D01*
X137881428Y-101433333D01*
X137643333Y-101433333D01*
X137452857Y-101385714D01*
X137357619Y-101338095D01*
X137310000Y-101290476D01*
X137262380Y-101195238D01*
X138262380Y-99861904D02*
X137786190Y-100195238D01*
X138262380Y-100433333D02*
X137262380Y-100433333D01*
X137262380Y-100052380D01*
X137310000Y-99957142D01*
X137357619Y-99909523D01*
X137452857Y-99861904D01*
X137595714Y-99861904D01*
X137690952Y-99909523D01*
X137738571Y-99957142D01*
X137786190Y-100052380D01*
X137786190Y-100433333D01*
G04 #@! TO.C,U1*
X126238095Y-104652380D02*
X126238095Y-105461904D01*
X126285714Y-105557142D01*
X126333333Y-105604761D01*
X126428571Y-105652380D01*
X126619047Y-105652380D01*
X126714285Y-105604761D01*
X126761904Y-105557142D01*
X126809523Y-105461904D01*
X126809523Y-104652380D01*
X127809523Y-105652380D02*
X127238095Y-105652380D01*
X127523809Y-105652380D02*
X127523809Y-104652380D01*
X127428571Y-104795238D01*
X127333333Y-104890476D01*
X127238095Y-104938095D01*
X125309523Y-85752380D02*
X124833333Y-85752380D01*
X124833333Y-84752380D01*
X125642857Y-85752380D02*
X125642857Y-84752380D01*
X125976190Y-85466666D01*
X126309523Y-84752380D01*
X126309523Y-85752380D01*
X126690476Y-84752380D02*
X127309523Y-84752380D01*
X126976190Y-85133333D01*
X127119047Y-85133333D01*
X127214285Y-85180952D01*
X127261904Y-85228571D01*
X127309523Y-85323809D01*
X127309523Y-85561904D01*
X127261904Y-85657142D01*
X127214285Y-85704761D01*
X127119047Y-85752380D01*
X126833333Y-85752380D01*
X126738095Y-85704761D01*
X126690476Y-85657142D01*
X127642857Y-84752380D02*
X128261904Y-84752380D01*
X127928571Y-85133333D01*
X128071428Y-85133333D01*
X128166666Y-85180952D01*
X128214285Y-85228571D01*
X128261904Y-85323809D01*
X128261904Y-85561904D01*
X128214285Y-85657142D01*
X128166666Y-85704761D01*
X128071428Y-85752380D01*
X127785714Y-85752380D01*
X127690476Y-85704761D01*
X127642857Y-85657142D01*
X128738095Y-85752380D02*
X128928571Y-85752380D01*
X129023809Y-85704761D01*
X129071428Y-85657142D01*
X129166666Y-85514285D01*
X129214285Y-85323809D01*
X129214285Y-84942857D01*
X129166666Y-84847619D01*
X129119047Y-84800000D01*
X129023809Y-84752380D01*
X128833333Y-84752380D01*
X128738095Y-84800000D01*
X128690476Y-84847619D01*
X128642857Y-84942857D01*
X128642857Y-85180952D01*
X128690476Y-85276190D01*
X128738095Y-85323809D01*
X128833333Y-85371428D01*
X129023809Y-85371428D01*
X129119047Y-85323809D01*
X129166666Y-85276190D01*
X129214285Y-85180952D01*
G04 #@! TO.C,U2*
X126238095Y-130052380D02*
X126238095Y-130861904D01*
X126285714Y-130957142D01*
X126333333Y-131004761D01*
X126428571Y-131052380D01*
X126619047Y-131052380D01*
X126714285Y-131004761D01*
X126761904Y-130957142D01*
X126809523Y-130861904D01*
X126809523Y-130052380D01*
X127238095Y-130147619D02*
X127285714Y-130100000D01*
X127380952Y-130052380D01*
X127619047Y-130052380D01*
X127714285Y-130100000D01*
X127761904Y-130147619D01*
X127809523Y-130242857D01*
X127809523Y-130338095D01*
X127761904Y-130480952D01*
X127190476Y-131052380D01*
X127809523Y-131052380D01*
X125761904Y-107945714D02*
X125761904Y-108612380D01*
X125523809Y-107564761D02*
X125285714Y-108279047D01*
X125904761Y-108279047D01*
X126476190Y-107612380D02*
X126571428Y-107612380D01*
X126666666Y-107660000D01*
X126714285Y-107707619D01*
X126761904Y-107802857D01*
X126809523Y-107993333D01*
X126809523Y-108231428D01*
X126761904Y-108421904D01*
X126714285Y-108517142D01*
X126666666Y-108564761D01*
X126571428Y-108612380D01*
X126476190Y-108612380D01*
X126380952Y-108564761D01*
X126333333Y-108517142D01*
X126285714Y-108421904D01*
X126238095Y-108231428D01*
X126238095Y-107993333D01*
X126285714Y-107802857D01*
X126333333Y-107707619D01*
X126380952Y-107660000D01*
X126476190Y-107612380D01*
X127714285Y-107612380D02*
X127238095Y-107612380D01*
X127190476Y-108088571D01*
X127238095Y-108040952D01*
X127333333Y-107993333D01*
X127571428Y-107993333D01*
X127666666Y-108040952D01*
X127714285Y-108088571D01*
X127761904Y-108183809D01*
X127761904Y-108421904D01*
X127714285Y-108517142D01*
X127666666Y-108564761D01*
X127571428Y-108612380D01*
X127333333Y-108612380D01*
X127238095Y-108564761D01*
X127190476Y-108517142D01*
X128714285Y-108612380D02*
X128142857Y-108612380D01*
X128428571Y-108612380D02*
X128428571Y-107612380D01*
X128333333Y-107755238D01*
X128238095Y-107850476D01*
X128142857Y-107898095D01*
G04 #@! TO.C,REF\002A\002A*
X108021904Y-133278571D02*
X108164761Y-133326190D01*
X108212380Y-133373809D01*
X108260000Y-133469047D01*
X108260000Y-133611904D01*
X108212380Y-133707142D01*
X108164761Y-133754761D01*
X108069523Y-133802380D01*
X107688571Y-133802380D01*
X107688571Y-132802380D01*
X108021904Y-132802380D01*
X108117142Y-132850000D01*
X108164761Y-132897619D01*
X108212380Y-132992857D01*
X108212380Y-133088095D01*
X108164761Y-133183333D01*
X108117142Y-133230952D01*
X108021904Y-133278571D01*
X107688571Y-133278571D01*
X108831428Y-133802380D02*
X108736190Y-133754761D01*
X108688571Y-133707142D01*
X108640952Y-133611904D01*
X108640952Y-133326190D01*
X108688571Y-133230952D01*
X108736190Y-133183333D01*
X108831428Y-133135714D01*
X108974285Y-133135714D01*
X109069523Y-133183333D01*
X109117142Y-133230952D01*
X109164761Y-133326190D01*
X109164761Y-133611904D01*
X109117142Y-133707142D01*
X109069523Y-133754761D01*
X108974285Y-133802380D01*
X108831428Y-133802380D01*
X110021904Y-133802380D02*
X110021904Y-132802380D01*
X110021904Y-133754761D02*
X109926666Y-133802380D01*
X109736190Y-133802380D01*
X109640952Y-133754761D01*
X109593333Y-133707142D01*
X109545714Y-133611904D01*
X109545714Y-133326190D01*
X109593333Y-133230952D01*
X109640952Y-133183333D01*
X109736190Y-133135714D01*
X109926666Y-133135714D01*
X110021904Y-133183333D01*
X110926666Y-133135714D02*
X110926666Y-133945238D01*
X110879047Y-134040476D01*
X110831428Y-134088095D01*
X110736190Y-134135714D01*
X110593333Y-134135714D01*
X110498095Y-134088095D01*
X110926666Y-133754761D02*
X110831428Y-133802380D01*
X110640952Y-133802380D01*
X110545714Y-133754761D01*
X110498095Y-133707142D01*
X110450476Y-133611904D01*
X110450476Y-133326190D01*
X110498095Y-133230952D01*
X110545714Y-133183333D01*
X110640952Y-133135714D01*
X110831428Y-133135714D01*
X110926666Y-133183333D01*
X111783809Y-133754761D02*
X111688571Y-133802380D01*
X111498095Y-133802380D01*
X111402857Y-133754761D01*
X111355238Y-133659523D01*
X111355238Y-133278571D01*
X111402857Y-133183333D01*
X111498095Y-133135714D01*
X111688571Y-133135714D01*
X111783809Y-133183333D01*
X111831428Y-133278571D01*
X111831428Y-133373809D01*
X111355238Y-133469047D01*
X113450476Y-133802380D02*
X113450476Y-133278571D01*
X113402857Y-133183333D01*
X113307619Y-133135714D01*
X113117142Y-133135714D01*
X113021904Y-133183333D01*
X113450476Y-133754761D02*
X113355238Y-133802380D01*
X113117142Y-133802380D01*
X113021904Y-133754761D01*
X112974285Y-133659523D01*
X112974285Y-133564285D01*
X113021904Y-133469047D01*
X113117142Y-133421428D01*
X113355238Y-133421428D01*
X113450476Y-133373809D01*
X113926666Y-133802380D02*
X113926666Y-133135714D01*
X113926666Y-133326190D02*
X113974285Y-133230952D01*
X114021904Y-133183333D01*
X114117142Y-133135714D01*
X114212380Y-133135714D01*
X114926666Y-133754761D02*
X114831428Y-133802380D01*
X114640952Y-133802380D01*
X114545714Y-133754761D01*
X114498095Y-133659523D01*
X114498095Y-133278571D01*
X114545714Y-133183333D01*
X114640952Y-133135714D01*
X114831428Y-133135714D01*
X114926666Y-133183333D01*
X114974285Y-133278571D01*
X114974285Y-133373809D01*
X114498095Y-133469047D01*
X115831428Y-133802380D02*
X115831428Y-133278571D01*
X115783809Y-133183333D01*
X115688571Y-133135714D01*
X115498095Y-133135714D01*
X115402857Y-133183333D01*
X115831428Y-133754761D02*
X115736190Y-133802380D01*
X115498095Y-133802380D01*
X115402857Y-133754761D01*
X115355238Y-133659523D01*
X115355238Y-133564285D01*
X115402857Y-133469047D01*
X115498095Y-133421428D01*
X115736190Y-133421428D01*
X115831428Y-133373809D01*
G04 #@! TD*
M02*
