G04 #@! TF.GenerationSoftware,KiCad,Pcbnew,5.0.2+dfsg1-1*
G04 #@! TF.CreationDate,2021-12-24T09:44:01+00:00*
G04 #@! TF.ProjectId,wy-50-keyboard-adaptor,77792d35-302d-46b6-9579-626f6172642d,rev?*
G04 #@! TF.SameCoordinates,Original*
G04 #@! TF.FileFunction,Copper,L1,Top*
G04 #@! TF.FilePolarity,Positive*
%FSLAX46Y46*%
G04 Gerber Fmt 4.6, Leading zero omitted, Abs format (unit mm)*
G04 Created by KiCad (PCBNEW 5.0.2+dfsg1-1) date Fri 24 Dec 2021 09:44:01 AM GMT*
%MOMM*%
%LPD*%
G01*
G04 APERTURE LIST*
G04 #@! TA.AperFunction,ComponentPad*
%ADD10C,0.800000*%
G04 #@! TD*
G04 #@! TA.AperFunction,ComponentPad*
%ADD11C,5.400000*%
G04 #@! TD*
G04 #@! TA.AperFunction,ComponentPad*
%ADD12R,1.600000X1.600000*%
G04 #@! TD*
G04 #@! TA.AperFunction,ComponentPad*
%ADD13O,1.600000X1.600000*%
G04 #@! TD*
G04 #@! TA.AperFunction,ComponentPad*
%ADD14C,1.600000*%
G04 #@! TD*
G04 #@! TA.AperFunction,ComponentPad*
%ADD15R,1.700000X1.700000*%
G04 #@! TD*
G04 #@! TA.AperFunction,ComponentPad*
%ADD16O,1.700000X1.700000*%
G04 #@! TD*
G04 #@! TA.AperFunction,ComponentPad*
%ADD17C,1.400000*%
G04 #@! TD*
G04 #@! TA.AperFunction,ComponentPad*
%ADD18O,1.400000X1.400000*%
G04 #@! TD*
G04 #@! TA.AperFunction,ComponentPad*
%ADD19R,2.400000X1.600000*%
G04 #@! TD*
G04 #@! TA.AperFunction,ComponentPad*
%ADD20O,2.400000X1.600000*%
G04 #@! TD*
G04 #@! TA.AperFunction,ViaPad*
%ADD21C,0.800000*%
G04 #@! TD*
G04 #@! TA.AperFunction,Conductor*
%ADD22C,0.250000*%
G04 #@! TD*
G04 #@! TA.AperFunction,Conductor*
%ADD23C,0.254000*%
G04 #@! TD*
G04 APERTURE END LIST*
D10*
G04 #@! TO.P,REF\002A\002A,1*
G04 #@! TO.N,N/C*
X137321891Y-134458109D03*
X135890000Y-133865000D03*
X134458109Y-134458109D03*
X133865000Y-135890000D03*
X134458109Y-137321891D03*
X135890000Y-137915000D03*
X137321891Y-137321891D03*
X137915000Y-135890000D03*
D11*
X135890000Y-135890000D03*
G04 #@! TD*
G04 #@! TO.P,REF\002A\002A,1*
G04 #@! TO.N,N/C*
X87630000Y-135890000D03*
D10*
X89655000Y-135890000D03*
X89061891Y-137321891D03*
X87630000Y-137915000D03*
X86198109Y-137321891D03*
X85605000Y-135890000D03*
X86198109Y-134458109D03*
X87630000Y-133865000D03*
X89061891Y-134458109D03*
G04 #@! TD*
D11*
G04 #@! TO.P,REF\002A\002A,1*
G04 #@! TO.N,N/C*
X135890000Y-80010000D03*
D10*
X137915000Y-80010000D03*
X137321891Y-81441891D03*
X135890000Y-82035000D03*
X134458109Y-81441891D03*
X133865000Y-80010000D03*
X134458109Y-78578109D03*
X135890000Y-77985000D03*
X137321891Y-78578109D03*
G04 #@! TD*
D12*
G04 #@! TO.P,A1,1*
G04 #@! TO.N,N/C*
X100330000Y-87630000D03*
D13*
G04 #@! TO.P,A1,17*
X115570000Y-120650000D03*
G04 #@! TO.P,A1,2*
X100330000Y-90170000D03*
G04 #@! TO.P,A1,18*
X115570000Y-118110000D03*
G04 #@! TO.P,A1,3*
X100330000Y-92710000D03*
G04 #@! TO.P,A1,19*
G04 #@! TO.N,ROW6*
X115570000Y-115570000D03*
G04 #@! TO.P,A1,4*
G04 #@! TO.N,KBD2*
X100330000Y-95250000D03*
G04 #@! TO.P,A1,20*
G04 #@! TO.N,ROW7*
X115570000Y-113030000D03*
G04 #@! TO.P,A1,5*
G04 #@! TO.N,PS2CLK*
X100330000Y-97790000D03*
G04 #@! TO.P,A1,21*
G04 #@! TO.N,N/C*
X115570000Y-110490000D03*
G04 #@! TO.P,A1,6*
G04 #@! TO.N,PS2DATA*
X100330000Y-100330000D03*
G04 #@! TO.P,A1,22*
G04 #@! TO.N,N/C*
X115570000Y-107950000D03*
G04 #@! TO.P,A1,7*
G04 #@! TO.N,KBD7*
X100330000Y-102870000D03*
G04 #@! TO.P,A1,23*
G04 #@! TO.N,N/C*
X115570000Y-105410000D03*
G04 #@! TO.P,A1,8*
G04 #@! TO.N,KBD10*
X100330000Y-105410000D03*
G04 #@! TO.P,A1,24*
G04 #@! TO.N,N/C*
X115570000Y-102870000D03*
G04 #@! TO.P,A1,9*
G04 #@! TO.N,KBD8*
X100330000Y-107950000D03*
G04 #@! TO.P,A1,25*
G04 #@! TO.N,N/C*
X115570000Y-100330000D03*
G04 #@! TO.P,A1,10*
G04 #@! TO.N,KBD9*
X100330000Y-110490000D03*
G04 #@! TO.P,A1,26*
G04 #@! TO.N,N/C*
X115570000Y-97790000D03*
G04 #@! TO.P,A1,11*
G04 #@! TO.N,ROW0*
X100330000Y-113030000D03*
G04 #@! TO.P,A1,27*
G04 #@! TO.N,KBD3*
X115570000Y-95250000D03*
G04 #@! TO.P,A1,12*
G04 #@! TO.N,ROW1*
X100330000Y-115570000D03*
G04 #@! TO.P,A1,28*
G04 #@! TO.N,N/C*
X115570000Y-92710000D03*
G04 #@! TO.P,A1,13*
G04 #@! TO.N,ROW2*
X100330000Y-118110000D03*
G04 #@! TO.P,A1,29*
G04 #@! TO.N,KBD2*
X115570000Y-90170000D03*
G04 #@! TO.P,A1,14*
G04 #@! TO.N,ROW3*
X100330000Y-120650000D03*
G04 #@! TO.P,A1,30*
G04 #@! TO.N,N/C*
X115570000Y-87630000D03*
G04 #@! TO.P,A1,15*
G04 #@! TO.N,ROW4*
X100330000Y-123190000D03*
G04 #@! TO.P,A1,16*
G04 #@! TO.N,ROW5*
X115570000Y-123190000D03*
G04 #@! TD*
D14*
G04 #@! TO.P,C1,2*
G04 #@! TO.N,KBD3*
X135890000Y-115490000D03*
G04 #@! TO.P,C1,1*
G04 #@! TO.N,KBD2*
X135890000Y-110490000D03*
G04 #@! TD*
G04 #@! TO.P,C2,1*
G04 #@! TO.N,KBD2*
X95250000Y-92710000D03*
G04 #@! TO.P,C2,2*
G04 #@! TO.N,KBD1*
X95250000Y-87710000D03*
G04 #@! TD*
D15*
G04 #@! TO.P,J1,1*
G04 #@! TO.N,KBD1*
X90170000Y-87630000D03*
D16*
G04 #@! TO.P,J1,2*
G04 #@! TO.N,KBD2*
X90170000Y-90170000D03*
G04 #@! TO.P,J1,3*
G04 #@! TO.N,KBD3*
X90170000Y-92710000D03*
G04 #@! TO.P,J1,4*
G04 #@! TO.N,KBD4*
X90170000Y-95250000D03*
G04 #@! TO.P,J1,5*
G04 #@! TO.N,KBD5*
X90170000Y-97790000D03*
G04 #@! TO.P,J1,6*
G04 #@! TO.N,KBD6*
X90170000Y-100330000D03*
G04 #@! TO.P,J1,7*
G04 #@! TO.N,KBD7*
X90170000Y-102870000D03*
G04 #@! TO.P,J1,8*
G04 #@! TO.N,KBD8*
X90170000Y-105410000D03*
G04 #@! TO.P,J1,9*
G04 #@! TO.N,KBD9*
X90170000Y-107950000D03*
G04 #@! TO.P,J1,10*
G04 #@! TO.N,KBD10*
X90170000Y-110490000D03*
G04 #@! TO.P,J1,11*
G04 #@! TO.N,KBD11*
X90170000Y-113030000D03*
G04 #@! TD*
D15*
G04 #@! TO.P,J2,1*
G04 #@! TO.N,KBD3*
X90170000Y-120650000D03*
D16*
G04 #@! TO.P,J2,2*
G04 #@! TO.N,N/C*
X92710000Y-120650000D03*
G04 #@! TO.P,J2,3*
X90170000Y-123190000D03*
G04 #@! TO.P,J2,4*
X92710000Y-123190000D03*
G04 #@! TO.P,J2,5*
G04 #@! TO.N,PS2DATA*
X90170000Y-125730000D03*
G04 #@! TO.P,J2,6*
G04 #@! TO.N,N/C*
X92710000Y-125730000D03*
G04 #@! TO.P,J2,7*
G04 #@! TO.N,KBD2*
X90170000Y-128270000D03*
G04 #@! TO.P,J2,8*
G04 #@! TO.N,PS2CLK*
X92710000Y-128270000D03*
G04 #@! TD*
D17*
G04 #@! TO.P,R1,1*
G04 #@! TO.N,Net-(R1-Pad1)*
X135890000Y-95250000D03*
D18*
G04 #@! TO.P,R1,2*
G04 #@! TO.N,KBD3*
X135890000Y-87630000D03*
G04 #@! TD*
G04 #@! TO.P,R2,2*
G04 #@! TO.N,Net-(R1-Pad1)*
X135890000Y-97790000D03*
D17*
G04 #@! TO.P,R2,1*
G04 #@! TO.N,KBD2*
X135890000Y-105410000D03*
G04 #@! TD*
D19*
G04 #@! TO.P,U1,1*
G04 #@! TO.N,N/C*
X130810000Y-102870000D03*
D20*
G04 #@! TO.P,U1,8*
X123190000Y-87630000D03*
G04 #@! TO.P,U1,2*
G04 #@! TO.N,KBD11*
X130810000Y-100330000D03*
G04 #@! TO.P,U1,9*
G04 #@! TO.N,N/C*
X123190000Y-90170000D03*
G04 #@! TO.P,U1,3*
G04 #@! TO.N,KBD3*
X130810000Y-97790000D03*
G04 #@! TO.P,U1,10*
G04 #@! TO.N,N/C*
X123190000Y-92710000D03*
G04 #@! TO.P,U1,4*
G04 #@! TO.N,Net-(R1-Pad1)*
X130810000Y-95250000D03*
G04 #@! TO.P,U1,11*
G04 #@! TO.N,N/C*
X123190000Y-95250000D03*
G04 #@! TO.P,U1,5*
G04 #@! TO.N,Net-(U1-Pad5)*
X130810000Y-92710000D03*
G04 #@! TO.P,U1,12*
G04 #@! TO.N,KBD2*
X123190000Y-97790000D03*
G04 #@! TO.P,U1,6*
G04 #@! TO.N,N/C*
X130810000Y-90170000D03*
G04 #@! TO.P,U1,13*
X123190000Y-100330000D03*
G04 #@! TO.P,U1,7*
X130810000Y-87630000D03*
G04 #@! TO.P,U1,14*
X123190000Y-102870000D03*
G04 #@! TD*
D19*
G04 #@! TO.P,U2,1*
G04 #@! TO.N,ROW4*
X130810000Y-128270000D03*
D20*
G04 #@! TO.P,U2,9*
G04 #@! TO.N,KBD4*
X123190000Y-110490000D03*
G04 #@! TO.P,U2,2*
G04 #@! TO.N,ROW6*
X130810000Y-125730000D03*
G04 #@! TO.P,U2,10*
G04 #@! TO.N,KBD5*
X123190000Y-113030000D03*
G04 #@! TO.P,U2,3*
G04 #@! TO.N,Net-(U1-Pad5)*
X130810000Y-123190000D03*
G04 #@! TO.P,U2,11*
G04 #@! TO.N,KBD6*
X123190000Y-115570000D03*
G04 #@! TO.P,U2,4*
G04 #@! TO.N,ROW7*
X130810000Y-120650000D03*
G04 #@! TO.P,U2,12*
G04 #@! TO.N,ROW3*
X123190000Y-118110000D03*
G04 #@! TO.P,U2,5*
G04 #@! TO.N,ROW5*
X130810000Y-118110000D03*
G04 #@! TO.P,U2,13*
G04 #@! TO.N,ROW0*
X123190000Y-120650000D03*
G04 #@! TO.P,U2,6*
G04 #@! TO.N,KBD2*
X130810000Y-115570000D03*
G04 #@! TO.P,U2,14*
G04 #@! TO.N,ROW1*
X123190000Y-123190000D03*
G04 #@! TO.P,U2,7*
G04 #@! TO.N,KBD2*
X130810000Y-113030000D03*
G04 #@! TO.P,U2,15*
G04 #@! TO.N,ROW2*
X123190000Y-125730000D03*
G04 #@! TO.P,U2,8*
G04 #@! TO.N,KBD2*
X130810000Y-110490000D03*
G04 #@! TO.P,U2,16*
G04 #@! TO.N,KBD3*
X123190000Y-128270000D03*
G04 #@! TD*
D10*
G04 #@! TO.P,REF\002A\002A,1*
G04 #@! TO.N,N/C*
X89061891Y-78578109D03*
X87630000Y-77985000D03*
X86198109Y-78578109D03*
X85605000Y-80010000D03*
X86198109Y-81441891D03*
X87630000Y-82035000D03*
X89061891Y-81441891D03*
X89655000Y-80010000D03*
D11*
X87630000Y-80010000D03*
G04 #@! TD*
D16*
G04 #@! TO.P,REF\002A\002A,32*
G04 #@! TO.N,N/C*
X130810000Y-135890000D03*
G04 #@! TO.P,REF\002A\002A,31*
X130810000Y-138430000D03*
G04 #@! TO.P,REF\002A\002A,30*
X128270000Y-135890000D03*
G04 #@! TO.P,REF\002A\002A,29*
X128270000Y-138430000D03*
G04 #@! TO.P,REF\002A\002A,28*
X125730000Y-135890000D03*
G04 #@! TO.P,REF\002A\002A,27*
X125730000Y-138430000D03*
G04 #@! TO.P,REF\002A\002A,26*
X123190000Y-135890000D03*
G04 #@! TO.P,REF\002A\002A,25*
X123190000Y-138430000D03*
G04 #@! TO.P,REF\002A\002A,24*
X120650000Y-135890000D03*
G04 #@! TO.P,REF\002A\002A,23*
X120650000Y-138430000D03*
G04 #@! TO.P,REF\002A\002A,22*
X118110000Y-135890000D03*
G04 #@! TO.P,REF\002A\002A,21*
X118110000Y-138430000D03*
G04 #@! TO.P,REF\002A\002A,20*
X115570000Y-135890000D03*
G04 #@! TO.P,REF\002A\002A,19*
X115570000Y-138430000D03*
G04 #@! TO.P,REF\002A\002A,18*
X113030000Y-135890000D03*
G04 #@! TO.P,REF\002A\002A,17*
X113030000Y-138430000D03*
G04 #@! TO.P,REF\002A\002A,16*
X110490000Y-135890000D03*
G04 #@! TO.P,REF\002A\002A,15*
X110490000Y-138430000D03*
G04 #@! TO.P,REF\002A\002A,14*
X107950000Y-135890000D03*
G04 #@! TO.P,REF\002A\002A,13*
X107950000Y-138430000D03*
G04 #@! TO.P,REF\002A\002A,12*
X105410000Y-135890000D03*
G04 #@! TO.P,REF\002A\002A,11*
X105410000Y-138430000D03*
G04 #@! TO.P,REF\002A\002A,10*
X102870000Y-135890000D03*
G04 #@! TO.P,REF\002A\002A,9*
X102870000Y-138430000D03*
G04 #@! TO.P,REF\002A\002A,8*
X100330000Y-135890000D03*
G04 #@! TO.P,REF\002A\002A,7*
X100330000Y-138430000D03*
G04 #@! TO.P,REF\002A\002A,6*
X97790000Y-135890000D03*
G04 #@! TO.P,REF\002A\002A,5*
X97790000Y-138430000D03*
G04 #@! TO.P,REF\002A\002A,4*
X95250000Y-135890000D03*
G04 #@! TO.P,REF\002A\002A,3*
X95250000Y-138430000D03*
G04 #@! TO.P,REF\002A\002A,2*
X92710000Y-135890000D03*
D15*
G04 #@! TO.P,REF\002A\002A,1*
X92710000Y-138430000D03*
G04 #@! TD*
D21*
G04 #@! TO.N,ROW6*
X128270000Y-130810000D03*
X113030000Y-130810000D03*
X113030000Y-115570000D03*
G04 #@! TO.N,ROW7*
X114300000Y-127000000D03*
X133350000Y-127000000D03*
G04 #@! TO.N,PS2CLK*
X102870000Y-128270000D03*
G04 #@! TO.N,PS2DATA*
X101600000Y-127000000D03*
G04 #@! TO.N,ROW0*
X119380000Y-114300000D03*
X119380000Y-120650000D03*
G04 #@! TO.N,KBD3*
X135890000Y-129540000D03*
G04 #@! TO.N,ROW1*
X127000000Y-116840000D03*
G04 #@! TO.N,ROW2*
X120650000Y-119380000D03*
G04 #@! TO.N,ROW3*
X125730000Y-121920000D03*
G04 #@! TO.N,ROW5*
X128270000Y-124460000D03*
G04 #@! TO.N,KBD4*
X120650000Y-96520000D03*
G04 #@! TO.N,KBD5*
X119380000Y-99060000D03*
X119380000Y-113030000D03*
G04 #@! TO.N,KBD6*
X118110000Y-101600000D03*
X118110000Y-115570000D03*
G04 #@! TO.N,KBD11*
X127000000Y-111760000D03*
X127000000Y-100330000D03*
G04 #@! TO.N,Net-(U1-Pad5)*
X134620000Y-123190000D03*
G04 #@! TD*
D22*
G04 #@! TO.N,ROW6*
X128270000Y-130810000D02*
X113030000Y-130810000D01*
X113030000Y-115570000D02*
X115570000Y-115570000D01*
G04 #@! TO.N,ROW7*
X114300000Y-127000000D02*
X133350000Y-127000000D01*
G04 #@! TO.N,PS2CLK*
X92710000Y-128270000D02*
X102870000Y-128270000D01*
G04 #@! TO.N,PS2DATA*
X90170000Y-125730000D02*
X91440000Y-127000000D01*
X91440000Y-127000000D02*
X101600000Y-127000000D01*
G04 #@! TO.N,KBD7*
X92710000Y-102870000D02*
X100330000Y-102870000D01*
X90170000Y-102870000D02*
X92710000Y-102870000D01*
G04 #@! TO.N,KBD8*
X92710000Y-105410000D02*
X97790000Y-105410000D01*
X97790000Y-105410000D02*
X100330000Y-107950000D01*
X92710000Y-105410000D02*
X90170000Y-105410000D01*
G04 #@! TO.N,KBD9*
X97790000Y-107950000D02*
X100330000Y-110490000D01*
X90170000Y-107950000D02*
X97790000Y-107950000D01*
G04 #@! TO.N,ROW0*
X100330000Y-113030000D02*
X101600000Y-114300000D01*
X101600000Y-114300000D02*
X119380000Y-114300000D01*
X119380000Y-120650000D02*
X123190000Y-120650000D01*
G04 #@! TO.N,KBD3*
X135890000Y-129540000D02*
X135890000Y-115490000D01*
G04 #@! TO.N,ROW1*
X100330000Y-115570000D02*
X101600000Y-116840000D01*
X101600000Y-116840000D02*
X127000000Y-116840000D01*
G04 #@! TO.N,ROW2*
X100330000Y-118110000D02*
X101600000Y-119380000D01*
X101600000Y-119380000D02*
X120650000Y-119380000D01*
G04 #@! TO.N,ROW3*
X100330000Y-120650000D02*
X101600000Y-121920000D01*
X101600000Y-121920000D02*
X125730000Y-121920000D01*
G04 #@! TO.N,ROW4*
X100330000Y-123190000D02*
X106680000Y-129540000D01*
X129360000Y-128270000D02*
X130810000Y-128270000D01*
X128090000Y-129540000D02*
X129360000Y-128270000D01*
X106680000Y-129540000D02*
X128090000Y-129540000D01*
G04 #@! TO.N,ROW5*
X115570000Y-123190000D02*
X116840000Y-124460000D01*
X116840000Y-124460000D02*
X128270000Y-124460000D01*
G04 #@! TO.N,KBD1*
X95170000Y-87630000D02*
X95250000Y-87710000D01*
X90170000Y-87630000D02*
X95170000Y-87630000D01*
G04 #@! TO.N,KBD4*
X92710000Y-95250000D02*
X93980000Y-96520000D01*
X93980000Y-96520000D02*
X120650000Y-96520000D01*
X92710000Y-95250000D02*
X90170000Y-95250000D01*
G04 #@! TO.N,KBD5*
X92710000Y-97790000D02*
X93980000Y-99060000D01*
X93980000Y-99060000D02*
X119380000Y-99060000D01*
X119380000Y-113030000D02*
X123190000Y-113030000D01*
X90170000Y-97790000D02*
X92710000Y-97790000D01*
G04 #@! TO.N,KBD6*
X92710000Y-100330000D02*
X93980000Y-101600000D01*
X93980000Y-101600000D02*
X118110000Y-101600000D01*
X118110000Y-115570000D02*
X123190000Y-115570000D01*
X92710000Y-100330000D02*
X90170000Y-100330000D01*
G04 #@! TO.N,KBD11*
X92710000Y-113030000D02*
X93980000Y-111760000D01*
X93980000Y-111760000D02*
X127000000Y-111760000D01*
X127000000Y-100330000D02*
X130810000Y-100330000D01*
X92710000Y-113030000D02*
X90170000Y-113030000D01*
G04 #@! TO.N,Net-(R1-Pad1)*
X130810000Y-95250000D02*
X135890000Y-95250000D01*
X135890000Y-95250000D02*
X135890000Y-97790000D01*
G04 #@! TO.N,Net-(U1-Pad5)*
X130810000Y-123190000D02*
X134620000Y-123190000D01*
G04 #@! TD*
D23*
G04 #@! TO.N,KBD3*
G36*
X138883698Y-75702958D02*
X139308893Y-75871305D01*
X139678858Y-76140101D01*
X139970356Y-76492462D01*
X140165067Y-76906244D01*
X140257093Y-77388662D01*
X140260000Y-77481164D01*
X140260001Y-138385326D01*
X140197042Y-138883699D01*
X140028697Y-139308889D01*
X139759899Y-139678859D01*
X139407541Y-139970355D01*
X138993756Y-140165067D01*
X138511339Y-140257093D01*
X138418836Y-140260000D01*
X85134667Y-140260000D01*
X84636301Y-140197042D01*
X84211111Y-140028697D01*
X83841141Y-139759899D01*
X83549645Y-139407541D01*
X83354933Y-138993756D01*
X83262907Y-138511339D01*
X83260000Y-138418836D01*
X83260000Y-135226627D01*
X84295000Y-135226627D01*
X84295000Y-136553373D01*
X84802723Y-137779126D01*
X85740874Y-138717277D01*
X86966627Y-139225000D01*
X88293373Y-139225000D01*
X89519126Y-138717277D01*
X90457277Y-137779126D01*
X90965000Y-136553373D01*
X90965000Y-135890000D01*
X91195908Y-135890000D01*
X91311161Y-136469418D01*
X91639375Y-136960625D01*
X91657619Y-136972816D01*
X91612235Y-136981843D01*
X91402191Y-137122191D01*
X91261843Y-137332235D01*
X91212560Y-137580000D01*
X91212560Y-139280000D01*
X91261843Y-139527765D01*
X91402191Y-139737809D01*
X91612235Y-139878157D01*
X91860000Y-139927440D01*
X93560000Y-139927440D01*
X93807765Y-139878157D01*
X94017809Y-139737809D01*
X94158157Y-139527765D01*
X94167184Y-139482381D01*
X94179375Y-139500625D01*
X94670582Y-139828839D01*
X95103744Y-139915000D01*
X95396256Y-139915000D01*
X95829418Y-139828839D01*
X96320625Y-139500625D01*
X96520000Y-139202239D01*
X96719375Y-139500625D01*
X97210582Y-139828839D01*
X97643744Y-139915000D01*
X97936256Y-139915000D01*
X98369418Y-139828839D01*
X98860625Y-139500625D01*
X99060000Y-139202239D01*
X99259375Y-139500625D01*
X99750582Y-139828839D01*
X100183744Y-139915000D01*
X100476256Y-139915000D01*
X100909418Y-139828839D01*
X101400625Y-139500625D01*
X101600000Y-139202239D01*
X101799375Y-139500625D01*
X102290582Y-139828839D01*
X102723744Y-139915000D01*
X103016256Y-139915000D01*
X103449418Y-139828839D01*
X103940625Y-139500625D01*
X104140000Y-139202239D01*
X104339375Y-139500625D01*
X104830582Y-139828839D01*
X105263744Y-139915000D01*
X105556256Y-139915000D01*
X105989418Y-139828839D01*
X106480625Y-139500625D01*
X106680000Y-139202239D01*
X106879375Y-139500625D01*
X107370582Y-139828839D01*
X107803744Y-139915000D01*
X108096256Y-139915000D01*
X108529418Y-139828839D01*
X109020625Y-139500625D01*
X109220000Y-139202239D01*
X109419375Y-139500625D01*
X109910582Y-139828839D01*
X110343744Y-139915000D01*
X110636256Y-139915000D01*
X111069418Y-139828839D01*
X111560625Y-139500625D01*
X111760000Y-139202239D01*
X111959375Y-139500625D01*
X112450582Y-139828839D01*
X112883744Y-139915000D01*
X113176256Y-139915000D01*
X113609418Y-139828839D01*
X114100625Y-139500625D01*
X114300000Y-139202239D01*
X114499375Y-139500625D01*
X114990582Y-139828839D01*
X115423744Y-139915000D01*
X115716256Y-139915000D01*
X116149418Y-139828839D01*
X116640625Y-139500625D01*
X116840000Y-139202239D01*
X117039375Y-139500625D01*
X117530582Y-139828839D01*
X117963744Y-139915000D01*
X118256256Y-139915000D01*
X118689418Y-139828839D01*
X119180625Y-139500625D01*
X119380000Y-139202239D01*
X119579375Y-139500625D01*
X120070582Y-139828839D01*
X120503744Y-139915000D01*
X120796256Y-139915000D01*
X121229418Y-139828839D01*
X121720625Y-139500625D01*
X121920000Y-139202239D01*
X122119375Y-139500625D01*
X122610582Y-139828839D01*
X123043744Y-139915000D01*
X123336256Y-139915000D01*
X123769418Y-139828839D01*
X124260625Y-139500625D01*
X124460000Y-139202239D01*
X124659375Y-139500625D01*
X125150582Y-139828839D01*
X125583744Y-139915000D01*
X125876256Y-139915000D01*
X126309418Y-139828839D01*
X126800625Y-139500625D01*
X127000000Y-139202239D01*
X127199375Y-139500625D01*
X127690582Y-139828839D01*
X128123744Y-139915000D01*
X128416256Y-139915000D01*
X128849418Y-139828839D01*
X129340625Y-139500625D01*
X129540000Y-139202239D01*
X129739375Y-139500625D01*
X130230582Y-139828839D01*
X130663744Y-139915000D01*
X130956256Y-139915000D01*
X131389418Y-139828839D01*
X131880625Y-139500625D01*
X132208839Y-139009418D01*
X132324092Y-138430000D01*
X132208839Y-137850582D01*
X131880625Y-137359375D01*
X131582239Y-137160000D01*
X131880625Y-136960625D01*
X132208839Y-136469418D01*
X132324092Y-135890000D01*
X132208839Y-135310582D01*
X132152743Y-135226627D01*
X132555000Y-135226627D01*
X132555000Y-136553373D01*
X133062723Y-137779126D01*
X134000874Y-138717277D01*
X135226627Y-139225000D01*
X136553373Y-139225000D01*
X137779126Y-138717277D01*
X138717277Y-137779126D01*
X139225000Y-136553373D01*
X139225000Y-135226627D01*
X138717277Y-134000874D01*
X137779126Y-133062723D01*
X136553373Y-132555000D01*
X135226627Y-132555000D01*
X134000874Y-133062723D01*
X133062723Y-134000874D01*
X132555000Y-135226627D01*
X132152743Y-135226627D01*
X131880625Y-134819375D01*
X131389418Y-134491161D01*
X130956256Y-134405000D01*
X130663744Y-134405000D01*
X130230582Y-134491161D01*
X129739375Y-134819375D01*
X129540000Y-135117761D01*
X129340625Y-134819375D01*
X128849418Y-134491161D01*
X128416256Y-134405000D01*
X128123744Y-134405000D01*
X127690582Y-134491161D01*
X127199375Y-134819375D01*
X127000000Y-135117761D01*
X126800625Y-134819375D01*
X126309418Y-134491161D01*
X125876256Y-134405000D01*
X125583744Y-134405000D01*
X125150582Y-134491161D01*
X124659375Y-134819375D01*
X124460000Y-135117761D01*
X124260625Y-134819375D01*
X123769418Y-134491161D01*
X123336256Y-134405000D01*
X123043744Y-134405000D01*
X122610582Y-134491161D01*
X122119375Y-134819375D01*
X121920000Y-135117761D01*
X121720625Y-134819375D01*
X121229418Y-134491161D01*
X120796256Y-134405000D01*
X120503744Y-134405000D01*
X120070582Y-134491161D01*
X119579375Y-134819375D01*
X119380000Y-135117761D01*
X119180625Y-134819375D01*
X118689418Y-134491161D01*
X118256256Y-134405000D01*
X117963744Y-134405000D01*
X117530582Y-134491161D01*
X117039375Y-134819375D01*
X116840000Y-135117761D01*
X116640625Y-134819375D01*
X116149418Y-134491161D01*
X115716256Y-134405000D01*
X115423744Y-134405000D01*
X114990582Y-134491161D01*
X114499375Y-134819375D01*
X114300000Y-135117761D01*
X114100625Y-134819375D01*
X113609418Y-134491161D01*
X113176256Y-134405000D01*
X112883744Y-134405000D01*
X112450582Y-134491161D01*
X111959375Y-134819375D01*
X111760000Y-135117761D01*
X111560625Y-134819375D01*
X111069418Y-134491161D01*
X110636256Y-134405000D01*
X110343744Y-134405000D01*
X109910582Y-134491161D01*
X109419375Y-134819375D01*
X109220000Y-135117761D01*
X109020625Y-134819375D01*
X108529418Y-134491161D01*
X108096256Y-134405000D01*
X107803744Y-134405000D01*
X107370582Y-134491161D01*
X106879375Y-134819375D01*
X106680000Y-135117761D01*
X106480625Y-134819375D01*
X105989418Y-134491161D01*
X105556256Y-134405000D01*
X105263744Y-134405000D01*
X104830582Y-134491161D01*
X104339375Y-134819375D01*
X104140000Y-135117761D01*
X103940625Y-134819375D01*
X103449418Y-134491161D01*
X103016256Y-134405000D01*
X102723744Y-134405000D01*
X102290582Y-134491161D01*
X101799375Y-134819375D01*
X101600000Y-135117761D01*
X101400625Y-134819375D01*
X100909418Y-134491161D01*
X100476256Y-134405000D01*
X100183744Y-134405000D01*
X99750582Y-134491161D01*
X99259375Y-134819375D01*
X99060000Y-135117761D01*
X98860625Y-134819375D01*
X98369418Y-134491161D01*
X97936256Y-134405000D01*
X97643744Y-134405000D01*
X97210582Y-134491161D01*
X96719375Y-134819375D01*
X96520000Y-135117761D01*
X96320625Y-134819375D01*
X95829418Y-134491161D01*
X95396256Y-134405000D01*
X95103744Y-134405000D01*
X94670582Y-134491161D01*
X94179375Y-134819375D01*
X93980000Y-135117761D01*
X93780625Y-134819375D01*
X93289418Y-134491161D01*
X92856256Y-134405000D01*
X92563744Y-134405000D01*
X92130582Y-134491161D01*
X91639375Y-134819375D01*
X91311161Y-135310582D01*
X91195908Y-135890000D01*
X90965000Y-135890000D01*
X90965000Y-135226627D01*
X90457277Y-134000874D01*
X89519126Y-133062723D01*
X88293373Y-132555000D01*
X86966627Y-132555000D01*
X85740874Y-133062723D01*
X84802723Y-134000874D01*
X84295000Y-135226627D01*
X83260000Y-135226627D01*
X83260000Y-123190000D01*
X88655908Y-123190000D01*
X88771161Y-123769418D01*
X89099375Y-124260625D01*
X89397761Y-124460000D01*
X89099375Y-124659375D01*
X88771161Y-125150582D01*
X88655908Y-125730000D01*
X88771161Y-126309418D01*
X89099375Y-126800625D01*
X89397761Y-127000000D01*
X89099375Y-127199375D01*
X88771161Y-127690582D01*
X88655908Y-128270000D01*
X88771161Y-128849418D01*
X89099375Y-129340625D01*
X89590582Y-129668839D01*
X90023744Y-129755000D01*
X90316256Y-129755000D01*
X90749418Y-129668839D01*
X91240625Y-129340625D01*
X91440000Y-129042239D01*
X91639375Y-129340625D01*
X92130582Y-129668839D01*
X92563744Y-129755000D01*
X92856256Y-129755000D01*
X93289418Y-129668839D01*
X93780625Y-129340625D01*
X93988178Y-129030000D01*
X102166289Y-129030000D01*
X102283720Y-129147431D01*
X102664126Y-129305000D01*
X103075874Y-129305000D01*
X103456280Y-129147431D01*
X103747431Y-128856280D01*
X103905000Y-128475874D01*
X103905000Y-128064126D01*
X103747431Y-127683720D01*
X103456280Y-127392569D01*
X103075874Y-127235000D01*
X102664126Y-127235000D01*
X102614405Y-127255595D01*
X102635000Y-127205874D01*
X102635000Y-126794126D01*
X102477431Y-126413720D01*
X102186280Y-126122569D01*
X101805874Y-125965000D01*
X101394126Y-125965000D01*
X101013720Y-126122569D01*
X100896289Y-126240000D01*
X94122647Y-126240000D01*
X94224092Y-125730000D01*
X94108839Y-125150582D01*
X93780625Y-124659375D01*
X93482239Y-124460000D01*
X93780625Y-124260625D01*
X94108839Y-123769418D01*
X94224092Y-123190000D01*
X94108839Y-122610582D01*
X93780625Y-122119375D01*
X93482239Y-121920000D01*
X93780625Y-121720625D01*
X94108839Y-121229418D01*
X94224092Y-120650000D01*
X94108839Y-120070582D01*
X93780625Y-119579375D01*
X93289418Y-119251161D01*
X92856256Y-119165000D01*
X92563744Y-119165000D01*
X92130582Y-119251161D01*
X91639375Y-119579375D01*
X91624904Y-119601032D01*
X91558327Y-119440301D01*
X91379698Y-119261673D01*
X91146309Y-119165000D01*
X90455750Y-119165000D01*
X90297000Y-119323750D01*
X90297000Y-120523000D01*
X90317000Y-120523000D01*
X90317000Y-120777000D01*
X90297000Y-120777000D01*
X90297000Y-120797000D01*
X90043000Y-120797000D01*
X90043000Y-120777000D01*
X88843750Y-120777000D01*
X88685000Y-120935750D01*
X88685000Y-121626310D01*
X88781673Y-121859699D01*
X88960302Y-122038327D01*
X89121033Y-122104904D01*
X89099375Y-122119375D01*
X88771161Y-122610582D01*
X88655908Y-123190000D01*
X83260000Y-123190000D01*
X83260000Y-119673690D01*
X88685000Y-119673690D01*
X88685000Y-120364250D01*
X88843750Y-120523000D01*
X90043000Y-120523000D01*
X90043000Y-119323750D01*
X89884250Y-119165000D01*
X89193691Y-119165000D01*
X88960302Y-119261673D01*
X88781673Y-119440301D01*
X88685000Y-119673690D01*
X83260000Y-119673690D01*
X83260000Y-95250000D01*
X88655908Y-95250000D01*
X88771161Y-95829418D01*
X89099375Y-96320625D01*
X89397761Y-96520000D01*
X89099375Y-96719375D01*
X88771161Y-97210582D01*
X88655908Y-97790000D01*
X88771161Y-98369418D01*
X89099375Y-98860625D01*
X89397761Y-99060000D01*
X89099375Y-99259375D01*
X88771161Y-99750582D01*
X88655908Y-100330000D01*
X88771161Y-100909418D01*
X89099375Y-101400625D01*
X89397761Y-101600000D01*
X89099375Y-101799375D01*
X88771161Y-102290582D01*
X88655908Y-102870000D01*
X88771161Y-103449418D01*
X89099375Y-103940625D01*
X89397761Y-104140000D01*
X89099375Y-104339375D01*
X88771161Y-104830582D01*
X88655908Y-105410000D01*
X88771161Y-105989418D01*
X89099375Y-106480625D01*
X89397761Y-106680000D01*
X89099375Y-106879375D01*
X88771161Y-107370582D01*
X88655908Y-107950000D01*
X88771161Y-108529418D01*
X89099375Y-109020625D01*
X89397761Y-109220000D01*
X89099375Y-109419375D01*
X88771161Y-109910582D01*
X88655908Y-110490000D01*
X88771161Y-111069418D01*
X89099375Y-111560625D01*
X89397761Y-111760000D01*
X89099375Y-111959375D01*
X88771161Y-112450582D01*
X88655908Y-113030000D01*
X88771161Y-113609418D01*
X89099375Y-114100625D01*
X89590582Y-114428839D01*
X90023744Y-114515000D01*
X90316256Y-114515000D01*
X90749418Y-114428839D01*
X91240625Y-114100625D01*
X91448178Y-113790000D01*
X92635153Y-113790000D01*
X92710000Y-113804888D01*
X92784847Y-113790000D01*
X92784852Y-113790000D01*
X93006537Y-113745904D01*
X93257929Y-113577929D01*
X93300331Y-113514470D01*
X94294802Y-112520000D01*
X98968332Y-112520000D01*
X98866887Y-113030000D01*
X98978260Y-113589909D01*
X99295423Y-114064577D01*
X99647758Y-114300000D01*
X99295423Y-114535423D01*
X98978260Y-115010091D01*
X98866887Y-115570000D01*
X98978260Y-116129909D01*
X99295423Y-116604577D01*
X99647758Y-116840000D01*
X99295423Y-117075423D01*
X98978260Y-117550091D01*
X98866887Y-118110000D01*
X98978260Y-118669909D01*
X99295423Y-119144577D01*
X99647758Y-119380000D01*
X99295423Y-119615423D01*
X98978260Y-120090091D01*
X98866887Y-120650000D01*
X98978260Y-121209909D01*
X99295423Y-121684577D01*
X99647758Y-121920000D01*
X99295423Y-122155423D01*
X98978260Y-122630091D01*
X98866887Y-123190000D01*
X98978260Y-123749909D01*
X99295423Y-124224577D01*
X99770091Y-124541740D01*
X100188667Y-124625000D01*
X100471333Y-124625000D01*
X100653887Y-124588688D01*
X106089671Y-130024473D01*
X106132071Y-130087929D01*
X106383463Y-130255904D01*
X106605148Y-130300000D01*
X106605152Y-130300000D01*
X106679999Y-130314888D01*
X106754846Y-130300000D01*
X112120973Y-130300000D01*
X111995000Y-130604126D01*
X111995000Y-131015874D01*
X112152569Y-131396280D01*
X112443720Y-131687431D01*
X112824126Y-131845000D01*
X113235874Y-131845000D01*
X113616280Y-131687431D01*
X113733711Y-131570000D01*
X127566289Y-131570000D01*
X127683720Y-131687431D01*
X128064126Y-131845000D01*
X128475874Y-131845000D01*
X128856280Y-131687431D01*
X129147431Y-131396280D01*
X129305000Y-131015874D01*
X129305000Y-130604126D01*
X129147431Y-130223720D01*
X128856280Y-129932569D01*
X128796849Y-129907952D01*
X129167058Y-129537743D01*
X129362235Y-129668157D01*
X129610000Y-129717440D01*
X132010000Y-129717440D01*
X132257765Y-129668157D01*
X132467809Y-129527809D01*
X132608157Y-129317765D01*
X132657440Y-129070000D01*
X132657440Y-127771151D01*
X132763720Y-127877431D01*
X133144126Y-128035000D01*
X133555874Y-128035000D01*
X133936280Y-127877431D01*
X134227431Y-127586280D01*
X134385000Y-127205874D01*
X134385000Y-126794126D01*
X134227431Y-126413720D01*
X133936280Y-126122569D01*
X133555874Y-125965000D01*
X133144126Y-125965000D01*
X132763720Y-126122569D01*
X132646289Y-126240000D01*
X132571668Y-126240000D01*
X132673113Y-125730000D01*
X132561740Y-125170091D01*
X132244577Y-124695423D01*
X131892242Y-124460000D01*
X132244577Y-124224577D01*
X132428043Y-123950000D01*
X133916289Y-123950000D01*
X134033720Y-124067431D01*
X134414126Y-124225000D01*
X134825874Y-124225000D01*
X135206280Y-124067431D01*
X135497431Y-123776280D01*
X135655000Y-123395874D01*
X135655000Y-122984126D01*
X135497431Y-122603720D01*
X135206280Y-122312569D01*
X134825874Y-122155000D01*
X134414126Y-122155000D01*
X134033720Y-122312569D01*
X133916289Y-122430000D01*
X132428043Y-122430000D01*
X132244577Y-122155423D01*
X131892242Y-121920000D01*
X132244577Y-121684577D01*
X132561740Y-121209909D01*
X132673113Y-120650000D01*
X132561740Y-120090091D01*
X132244577Y-119615423D01*
X131892242Y-119380000D01*
X132244577Y-119144577D01*
X132561740Y-118669909D01*
X132673113Y-118110000D01*
X132561740Y-117550091D01*
X132244577Y-117075423D01*
X131892242Y-116840000D01*
X132244577Y-116604577D01*
X132315959Y-116497745D01*
X135061861Y-116497745D01*
X135135995Y-116743864D01*
X135673223Y-116936965D01*
X136243454Y-116909778D01*
X136644005Y-116743864D01*
X136718139Y-116497745D01*
X135890000Y-115669605D01*
X135061861Y-116497745D01*
X132315959Y-116497745D01*
X132561740Y-116129909D01*
X132673113Y-115570000D01*
X132614081Y-115273223D01*
X134443035Y-115273223D01*
X134470222Y-115843454D01*
X134636136Y-116244005D01*
X134882255Y-116318139D01*
X135710395Y-115490000D01*
X136069605Y-115490000D01*
X136897745Y-116318139D01*
X137143864Y-116244005D01*
X137336965Y-115706777D01*
X137309778Y-115136546D01*
X137143864Y-114735995D01*
X136897745Y-114661861D01*
X136069605Y-115490000D01*
X135710395Y-115490000D01*
X134882255Y-114661861D01*
X134636136Y-114735995D01*
X134443035Y-115273223D01*
X132614081Y-115273223D01*
X132561740Y-115010091D01*
X132244577Y-114535423D01*
X132165006Y-114482255D01*
X135061861Y-114482255D01*
X135890000Y-115310395D01*
X136718139Y-114482255D01*
X136644005Y-114236136D01*
X136106777Y-114043035D01*
X135536546Y-114070222D01*
X135135995Y-114236136D01*
X135061861Y-114482255D01*
X132165006Y-114482255D01*
X131892242Y-114300000D01*
X132244577Y-114064577D01*
X132561740Y-113589909D01*
X132673113Y-113030000D01*
X132561740Y-112470091D01*
X132244577Y-111995423D01*
X131892242Y-111760000D01*
X132244577Y-111524577D01*
X132561740Y-111049909D01*
X132673113Y-110490000D01*
X132616336Y-110204561D01*
X134455000Y-110204561D01*
X134455000Y-110775439D01*
X134673466Y-111302862D01*
X135077138Y-111706534D01*
X135604561Y-111925000D01*
X136175439Y-111925000D01*
X136702862Y-111706534D01*
X137106534Y-111302862D01*
X137325000Y-110775439D01*
X137325000Y-110204561D01*
X137106534Y-109677138D01*
X136702862Y-109273466D01*
X136175439Y-109055000D01*
X135604561Y-109055000D01*
X135077138Y-109273466D01*
X134673466Y-109677138D01*
X134455000Y-110204561D01*
X132616336Y-110204561D01*
X132561740Y-109930091D01*
X132244577Y-109455423D01*
X131769909Y-109138260D01*
X131351333Y-109055000D01*
X130268667Y-109055000D01*
X129850091Y-109138260D01*
X129375423Y-109455423D01*
X129058260Y-109930091D01*
X128946887Y-110490000D01*
X129058260Y-111049909D01*
X129375423Y-111524577D01*
X129727758Y-111760000D01*
X129375423Y-111995423D01*
X129058260Y-112470091D01*
X128946887Y-113030000D01*
X129058260Y-113589909D01*
X129375423Y-114064577D01*
X129727758Y-114300000D01*
X129375423Y-114535423D01*
X129058260Y-115010091D01*
X128946887Y-115570000D01*
X129058260Y-116129909D01*
X129375423Y-116604577D01*
X129727758Y-116840000D01*
X129375423Y-117075423D01*
X129058260Y-117550091D01*
X128946887Y-118110000D01*
X129058260Y-118669909D01*
X129375423Y-119144577D01*
X129727758Y-119380000D01*
X129375423Y-119615423D01*
X129058260Y-120090091D01*
X128946887Y-120650000D01*
X129058260Y-121209909D01*
X129375423Y-121684577D01*
X129727758Y-121920000D01*
X129375423Y-122155423D01*
X129058260Y-122630091D01*
X128946887Y-123190000D01*
X129058260Y-123749909D01*
X129128014Y-123854303D01*
X128856280Y-123582569D01*
X128475874Y-123425000D01*
X128064126Y-123425000D01*
X127683720Y-123582569D01*
X127566289Y-123700000D01*
X124951668Y-123700000D01*
X125053113Y-123190000D01*
X124951668Y-122680000D01*
X125026289Y-122680000D01*
X125143720Y-122797431D01*
X125524126Y-122955000D01*
X125935874Y-122955000D01*
X126316280Y-122797431D01*
X126607431Y-122506280D01*
X126765000Y-122125874D01*
X126765000Y-121714126D01*
X126607431Y-121333720D01*
X126316280Y-121042569D01*
X125935874Y-120885000D01*
X125524126Y-120885000D01*
X125143720Y-121042569D01*
X125026289Y-121160000D01*
X124951668Y-121160000D01*
X125053113Y-120650000D01*
X124941740Y-120090091D01*
X124624577Y-119615423D01*
X124272242Y-119380000D01*
X124624577Y-119144577D01*
X124941740Y-118669909D01*
X125053113Y-118110000D01*
X124951668Y-117600000D01*
X126296289Y-117600000D01*
X126413720Y-117717431D01*
X126794126Y-117875000D01*
X127205874Y-117875000D01*
X127586280Y-117717431D01*
X127877431Y-117426280D01*
X128035000Y-117045874D01*
X128035000Y-116634126D01*
X127877431Y-116253720D01*
X127586280Y-115962569D01*
X127205874Y-115805000D01*
X126794126Y-115805000D01*
X126413720Y-115962569D01*
X126296289Y-116080000D01*
X124951668Y-116080000D01*
X125053113Y-115570000D01*
X124941740Y-115010091D01*
X124624577Y-114535423D01*
X124272242Y-114300000D01*
X124624577Y-114064577D01*
X124941740Y-113589909D01*
X125053113Y-113030000D01*
X124951668Y-112520000D01*
X126296289Y-112520000D01*
X126413720Y-112637431D01*
X126794126Y-112795000D01*
X127205874Y-112795000D01*
X127586280Y-112637431D01*
X127877431Y-112346280D01*
X128035000Y-111965874D01*
X128035000Y-111554126D01*
X127877431Y-111173720D01*
X127586280Y-110882569D01*
X127205874Y-110725000D01*
X126794126Y-110725000D01*
X126413720Y-110882569D01*
X126296289Y-111000000D01*
X124951668Y-111000000D01*
X125053113Y-110490000D01*
X124941740Y-109930091D01*
X124624577Y-109455423D01*
X124149909Y-109138260D01*
X123731333Y-109055000D01*
X122648667Y-109055000D01*
X122230091Y-109138260D01*
X121755423Y-109455423D01*
X121438260Y-109930091D01*
X121326887Y-110490000D01*
X121428332Y-111000000D01*
X116931668Y-111000000D01*
X117033113Y-110490000D01*
X116921740Y-109930091D01*
X116604577Y-109455423D01*
X116252242Y-109220000D01*
X116604577Y-108984577D01*
X116921740Y-108509909D01*
X117033113Y-107950000D01*
X116921740Y-107390091D01*
X116604577Y-106915423D01*
X116252242Y-106680000D01*
X116604577Y-106444577D01*
X116921740Y-105969909D01*
X117033113Y-105410000D01*
X116980293Y-105144452D01*
X134555000Y-105144452D01*
X134555000Y-105675548D01*
X134758242Y-106166217D01*
X135133783Y-106541758D01*
X135624452Y-106745000D01*
X136155548Y-106745000D01*
X136646217Y-106541758D01*
X137021758Y-106166217D01*
X137225000Y-105675548D01*
X137225000Y-105144452D01*
X137021758Y-104653783D01*
X136646217Y-104278242D01*
X136155548Y-104075000D01*
X135624452Y-104075000D01*
X135133783Y-104278242D01*
X134758242Y-104653783D01*
X134555000Y-105144452D01*
X116980293Y-105144452D01*
X116921740Y-104850091D01*
X116604577Y-104375423D01*
X116252242Y-104140000D01*
X116604577Y-103904577D01*
X116921740Y-103429909D01*
X117033113Y-102870000D01*
X116931668Y-102360000D01*
X117406289Y-102360000D01*
X117523720Y-102477431D01*
X117904126Y-102635000D01*
X118315874Y-102635000D01*
X118696280Y-102477431D01*
X118987431Y-102186280D01*
X119145000Y-101805874D01*
X119145000Y-101394126D01*
X118987431Y-101013720D01*
X118696280Y-100722569D01*
X118315874Y-100565000D01*
X117904126Y-100565000D01*
X117523720Y-100722569D01*
X117406289Y-100840000D01*
X116931668Y-100840000D01*
X117033113Y-100330000D01*
X116931668Y-99820000D01*
X118676289Y-99820000D01*
X118793720Y-99937431D01*
X119174126Y-100095000D01*
X119585874Y-100095000D01*
X119966280Y-99937431D01*
X120257431Y-99646280D01*
X120415000Y-99265874D01*
X120415000Y-98854126D01*
X120257431Y-98473720D01*
X119966280Y-98182569D01*
X119585874Y-98025000D01*
X119174126Y-98025000D01*
X118793720Y-98182569D01*
X118676289Y-98300000D01*
X116931668Y-98300000D01*
X117033113Y-97790000D01*
X116931668Y-97280000D01*
X119946289Y-97280000D01*
X120063720Y-97397431D01*
X120444126Y-97555000D01*
X120855874Y-97555000D01*
X121236280Y-97397431D01*
X121508014Y-97125697D01*
X121438260Y-97230091D01*
X121326887Y-97790000D01*
X121438260Y-98349909D01*
X121755423Y-98824577D01*
X122107758Y-99060000D01*
X121755423Y-99295423D01*
X121438260Y-99770091D01*
X121326887Y-100330000D01*
X121438260Y-100889909D01*
X121755423Y-101364577D01*
X122107758Y-101600000D01*
X121755423Y-101835423D01*
X121438260Y-102310091D01*
X121326887Y-102870000D01*
X121438260Y-103429909D01*
X121755423Y-103904577D01*
X122230091Y-104221740D01*
X122648667Y-104305000D01*
X123731333Y-104305000D01*
X124149909Y-104221740D01*
X124624577Y-103904577D01*
X124941740Y-103429909D01*
X125053113Y-102870000D01*
X124941740Y-102310091D01*
X124624577Y-101835423D01*
X124272242Y-101600000D01*
X124624577Y-101364577D01*
X124941740Y-100889909D01*
X125053113Y-100330000D01*
X125012163Y-100124126D01*
X125965000Y-100124126D01*
X125965000Y-100535874D01*
X126122569Y-100916280D01*
X126413720Y-101207431D01*
X126794126Y-101365000D01*
X127205874Y-101365000D01*
X127586280Y-101207431D01*
X127703711Y-101090000D01*
X129191957Y-101090000D01*
X129375423Y-101364577D01*
X129496106Y-101445215D01*
X129362235Y-101471843D01*
X129152191Y-101612191D01*
X129011843Y-101822235D01*
X128962560Y-102070000D01*
X128962560Y-103670000D01*
X129011843Y-103917765D01*
X129152191Y-104127809D01*
X129362235Y-104268157D01*
X129610000Y-104317440D01*
X132010000Y-104317440D01*
X132257765Y-104268157D01*
X132467809Y-104127809D01*
X132608157Y-103917765D01*
X132657440Y-103670000D01*
X132657440Y-102070000D01*
X132608157Y-101822235D01*
X132467809Y-101612191D01*
X132257765Y-101471843D01*
X132123894Y-101445215D01*
X132244577Y-101364577D01*
X132561740Y-100889909D01*
X132673113Y-100330000D01*
X132561740Y-99770091D01*
X132244577Y-99295423D01*
X131888501Y-99057501D01*
X132314500Y-98714896D01*
X132584367Y-98221819D01*
X132601904Y-98139039D01*
X132479915Y-97917000D01*
X130937000Y-97917000D01*
X130937000Y-97937000D01*
X130683000Y-97937000D01*
X130683000Y-97917000D01*
X129140085Y-97917000D01*
X129018096Y-98139039D01*
X129035633Y-98221819D01*
X129305500Y-98714896D01*
X129731499Y-99057501D01*
X129375423Y-99295423D01*
X129191957Y-99570000D01*
X127703711Y-99570000D01*
X127586280Y-99452569D01*
X127205874Y-99295000D01*
X126794126Y-99295000D01*
X126413720Y-99452569D01*
X126122569Y-99743720D01*
X125965000Y-100124126D01*
X125012163Y-100124126D01*
X124941740Y-99770091D01*
X124624577Y-99295423D01*
X124272242Y-99060000D01*
X124624577Y-98824577D01*
X124941740Y-98349909D01*
X125053113Y-97790000D01*
X124941740Y-97230091D01*
X124624577Y-96755423D01*
X124272242Y-96520000D01*
X124624577Y-96284577D01*
X124941740Y-95809909D01*
X125053113Y-95250000D01*
X124941740Y-94690091D01*
X124624577Y-94215423D01*
X124272242Y-93980000D01*
X124624577Y-93744577D01*
X124941740Y-93269909D01*
X125053113Y-92710000D01*
X124941740Y-92150091D01*
X124624577Y-91675423D01*
X124272242Y-91440000D01*
X124624577Y-91204577D01*
X124941740Y-90729909D01*
X125053113Y-90170000D01*
X124941740Y-89610091D01*
X124624577Y-89135423D01*
X124272242Y-88900000D01*
X124624577Y-88664577D01*
X124941740Y-88189909D01*
X125053113Y-87630000D01*
X128946887Y-87630000D01*
X129058260Y-88189909D01*
X129375423Y-88664577D01*
X129727758Y-88900000D01*
X129375423Y-89135423D01*
X129058260Y-89610091D01*
X128946887Y-90170000D01*
X129058260Y-90729909D01*
X129375423Y-91204577D01*
X129727758Y-91440000D01*
X129375423Y-91675423D01*
X129058260Y-92150091D01*
X128946887Y-92710000D01*
X129058260Y-93269909D01*
X129375423Y-93744577D01*
X129727758Y-93980000D01*
X129375423Y-94215423D01*
X129058260Y-94690091D01*
X128946887Y-95250000D01*
X129058260Y-95809909D01*
X129375423Y-96284577D01*
X129731499Y-96522499D01*
X129305500Y-96865104D01*
X129035633Y-97358181D01*
X129018096Y-97440961D01*
X129140085Y-97663000D01*
X130683000Y-97663000D01*
X130683000Y-97643000D01*
X130937000Y-97643000D01*
X130937000Y-97663000D01*
X132479915Y-97663000D01*
X132601904Y-97440961D01*
X132584367Y-97358181D01*
X132314500Y-96865104D01*
X131888501Y-96522499D01*
X132244577Y-96284577D01*
X132428043Y-96010000D01*
X134762025Y-96010000D01*
X135130000Y-96377975D01*
X135130001Y-96692225D01*
X134927519Y-96827519D01*
X134632458Y-97269109D01*
X134528846Y-97790000D01*
X134632458Y-98310891D01*
X134927519Y-98752481D01*
X135369109Y-99047542D01*
X135758515Y-99125000D01*
X136021485Y-99125000D01*
X136410891Y-99047542D01*
X136852481Y-98752481D01*
X137147542Y-98310891D01*
X137251154Y-97790000D01*
X137147542Y-97269109D01*
X136852481Y-96827519D01*
X136650000Y-96692226D01*
X136650000Y-96377975D01*
X137021758Y-96006217D01*
X137225000Y-95515548D01*
X137225000Y-94984452D01*
X137021758Y-94493783D01*
X136646217Y-94118242D01*
X136155548Y-93915000D01*
X135624452Y-93915000D01*
X135133783Y-94118242D01*
X134762025Y-94490000D01*
X132428043Y-94490000D01*
X132244577Y-94215423D01*
X131892242Y-93980000D01*
X132244577Y-93744577D01*
X132561740Y-93269909D01*
X132673113Y-92710000D01*
X132561740Y-92150091D01*
X132244577Y-91675423D01*
X131892242Y-91440000D01*
X132244577Y-91204577D01*
X132561740Y-90729909D01*
X132673113Y-90170000D01*
X132561740Y-89610091D01*
X132244577Y-89135423D01*
X131892242Y-88900000D01*
X132244577Y-88664577D01*
X132561740Y-88189909D01*
X132606809Y-87963331D01*
X134597273Y-87963331D01*
X134823236Y-88432663D01*
X135211604Y-88779797D01*
X135556671Y-88922716D01*
X135763000Y-88799374D01*
X135763000Y-87757000D01*
X136017000Y-87757000D01*
X136017000Y-88799374D01*
X136223329Y-88922716D01*
X136568396Y-88779797D01*
X136956764Y-88432663D01*
X137182727Y-87963331D01*
X137060206Y-87757000D01*
X136017000Y-87757000D01*
X135763000Y-87757000D01*
X134719794Y-87757000D01*
X134597273Y-87963331D01*
X132606809Y-87963331D01*
X132673113Y-87630000D01*
X132606810Y-87296669D01*
X134597273Y-87296669D01*
X134719794Y-87503000D01*
X135763000Y-87503000D01*
X135763000Y-86460626D01*
X136017000Y-86460626D01*
X136017000Y-87503000D01*
X137060206Y-87503000D01*
X137182727Y-87296669D01*
X136956764Y-86827337D01*
X136568396Y-86480203D01*
X136223329Y-86337284D01*
X136017000Y-86460626D01*
X135763000Y-86460626D01*
X135556671Y-86337284D01*
X135211604Y-86480203D01*
X134823236Y-86827337D01*
X134597273Y-87296669D01*
X132606810Y-87296669D01*
X132561740Y-87070091D01*
X132244577Y-86595423D01*
X131769909Y-86278260D01*
X131351333Y-86195000D01*
X130268667Y-86195000D01*
X129850091Y-86278260D01*
X129375423Y-86595423D01*
X129058260Y-87070091D01*
X128946887Y-87630000D01*
X125053113Y-87630000D01*
X124941740Y-87070091D01*
X124624577Y-86595423D01*
X124149909Y-86278260D01*
X123731333Y-86195000D01*
X122648667Y-86195000D01*
X122230091Y-86278260D01*
X121755423Y-86595423D01*
X121438260Y-87070091D01*
X121326887Y-87630000D01*
X121438260Y-88189909D01*
X121755423Y-88664577D01*
X122107758Y-88900000D01*
X121755423Y-89135423D01*
X121438260Y-89610091D01*
X121326887Y-90170000D01*
X121438260Y-90729909D01*
X121755423Y-91204577D01*
X122107758Y-91440000D01*
X121755423Y-91675423D01*
X121438260Y-92150091D01*
X121326887Y-92710000D01*
X121438260Y-93269909D01*
X121755423Y-93744577D01*
X122107758Y-93980000D01*
X121755423Y-94215423D01*
X121438260Y-94690091D01*
X121326887Y-95250000D01*
X121438260Y-95809909D01*
X121508014Y-95914303D01*
X121236280Y-95642569D01*
X120855874Y-95485000D01*
X120444126Y-95485000D01*
X120063720Y-95642569D01*
X119946289Y-95760000D01*
X116895236Y-95760000D01*
X116961904Y-95599039D01*
X116839915Y-95377000D01*
X115697000Y-95377000D01*
X115697000Y-95397000D01*
X115443000Y-95397000D01*
X115443000Y-95377000D01*
X114300085Y-95377000D01*
X114178096Y-95599039D01*
X114244764Y-95760000D01*
X101691668Y-95760000D01*
X101793113Y-95250000D01*
X101681740Y-94690091D01*
X101364577Y-94215423D01*
X101012242Y-93980000D01*
X101364577Y-93744577D01*
X101681740Y-93269909D01*
X101793113Y-92710000D01*
X101681740Y-92150091D01*
X101364577Y-91675423D01*
X101012242Y-91440000D01*
X101364577Y-91204577D01*
X101681740Y-90729909D01*
X101793113Y-90170000D01*
X101681740Y-89610091D01*
X101364577Y-89135423D01*
X101243894Y-89054785D01*
X101377765Y-89028157D01*
X101587809Y-88887809D01*
X101728157Y-88677765D01*
X101777440Y-88430000D01*
X101777440Y-87630000D01*
X114106887Y-87630000D01*
X114218260Y-88189909D01*
X114535423Y-88664577D01*
X114887758Y-88900000D01*
X114535423Y-89135423D01*
X114218260Y-89610091D01*
X114106887Y-90170000D01*
X114218260Y-90729909D01*
X114535423Y-91204577D01*
X114887758Y-91440000D01*
X114535423Y-91675423D01*
X114218260Y-92150091D01*
X114106887Y-92710000D01*
X114218260Y-93269909D01*
X114535423Y-93744577D01*
X114919108Y-94000947D01*
X114714866Y-94097611D01*
X114338959Y-94512577D01*
X114178096Y-94900961D01*
X114300085Y-95123000D01*
X115443000Y-95123000D01*
X115443000Y-95103000D01*
X115697000Y-95103000D01*
X115697000Y-95123000D01*
X116839915Y-95123000D01*
X116961904Y-94900961D01*
X116801041Y-94512577D01*
X116425134Y-94097611D01*
X116220892Y-94000947D01*
X116604577Y-93744577D01*
X116921740Y-93269909D01*
X117033113Y-92710000D01*
X116921740Y-92150091D01*
X116604577Y-91675423D01*
X116252242Y-91440000D01*
X116604577Y-91204577D01*
X116921740Y-90729909D01*
X117033113Y-90170000D01*
X116921740Y-89610091D01*
X116604577Y-89135423D01*
X116252242Y-88900000D01*
X116604577Y-88664577D01*
X116921740Y-88189909D01*
X117033113Y-87630000D01*
X116921740Y-87070091D01*
X116604577Y-86595423D01*
X116129909Y-86278260D01*
X115711333Y-86195000D01*
X115428667Y-86195000D01*
X115010091Y-86278260D01*
X114535423Y-86595423D01*
X114218260Y-87070091D01*
X114106887Y-87630000D01*
X101777440Y-87630000D01*
X101777440Y-86830000D01*
X101728157Y-86582235D01*
X101587809Y-86372191D01*
X101377765Y-86231843D01*
X101130000Y-86182560D01*
X99530000Y-86182560D01*
X99282235Y-86231843D01*
X99072191Y-86372191D01*
X98931843Y-86582235D01*
X98882560Y-86830000D01*
X98882560Y-88430000D01*
X98931843Y-88677765D01*
X99072191Y-88887809D01*
X99282235Y-89028157D01*
X99416106Y-89054785D01*
X99295423Y-89135423D01*
X98978260Y-89610091D01*
X98866887Y-90170000D01*
X98978260Y-90729909D01*
X99295423Y-91204577D01*
X99647758Y-91440000D01*
X99295423Y-91675423D01*
X98978260Y-92150091D01*
X98866887Y-92710000D01*
X98978260Y-93269909D01*
X99295423Y-93744577D01*
X99647758Y-93980000D01*
X99295423Y-94215423D01*
X98978260Y-94690091D01*
X98866887Y-95250000D01*
X98968332Y-95760000D01*
X94294802Y-95760000D01*
X93300331Y-94765530D01*
X93257929Y-94702071D01*
X93006537Y-94534096D01*
X92784852Y-94490000D01*
X92784847Y-94490000D01*
X92710000Y-94475112D01*
X92635153Y-94490000D01*
X91448178Y-94490000D01*
X91240625Y-94179375D01*
X90921522Y-93966157D01*
X91051358Y-93905183D01*
X91441645Y-93476924D01*
X91611476Y-93066890D01*
X91490155Y-92837000D01*
X90297000Y-92837000D01*
X90297000Y-92857000D01*
X90043000Y-92857000D01*
X90043000Y-92837000D01*
X88849845Y-92837000D01*
X88728524Y-93066890D01*
X88898355Y-93476924D01*
X89288642Y-93905183D01*
X89418478Y-93966157D01*
X89099375Y-94179375D01*
X88771161Y-94670582D01*
X88655908Y-95250000D01*
X83260000Y-95250000D01*
X83260000Y-90170000D01*
X88655908Y-90170000D01*
X88771161Y-90749418D01*
X89099375Y-91240625D01*
X89418478Y-91453843D01*
X89288642Y-91514817D01*
X88898355Y-91943076D01*
X88728524Y-92353110D01*
X88849845Y-92583000D01*
X90043000Y-92583000D01*
X90043000Y-92563000D01*
X90297000Y-92563000D01*
X90297000Y-92583000D01*
X91490155Y-92583000D01*
X91573768Y-92424561D01*
X93815000Y-92424561D01*
X93815000Y-92995439D01*
X94033466Y-93522862D01*
X94437138Y-93926534D01*
X94964561Y-94145000D01*
X95535439Y-94145000D01*
X96062862Y-93926534D01*
X96466534Y-93522862D01*
X96685000Y-92995439D01*
X96685000Y-92424561D01*
X96466534Y-91897138D01*
X96062862Y-91493466D01*
X95535439Y-91275000D01*
X94964561Y-91275000D01*
X94437138Y-91493466D01*
X94033466Y-91897138D01*
X93815000Y-92424561D01*
X91573768Y-92424561D01*
X91611476Y-92353110D01*
X91441645Y-91943076D01*
X91051358Y-91514817D01*
X90921522Y-91453843D01*
X91240625Y-91240625D01*
X91568839Y-90749418D01*
X91684092Y-90170000D01*
X91568839Y-89590582D01*
X91240625Y-89099375D01*
X91222381Y-89087184D01*
X91267765Y-89078157D01*
X91477809Y-88937809D01*
X91618157Y-88727765D01*
X91667440Y-88480000D01*
X91667440Y-88390000D01*
X93978433Y-88390000D01*
X94033466Y-88522862D01*
X94437138Y-88926534D01*
X94964561Y-89145000D01*
X95535439Y-89145000D01*
X96062862Y-88926534D01*
X96466534Y-88522862D01*
X96685000Y-87995439D01*
X96685000Y-87424561D01*
X96466534Y-86897138D01*
X96062862Y-86493466D01*
X95535439Y-86275000D01*
X94964561Y-86275000D01*
X94437138Y-86493466D01*
X94060604Y-86870000D01*
X91667440Y-86870000D01*
X91667440Y-86780000D01*
X91618157Y-86532235D01*
X91477809Y-86322191D01*
X91267765Y-86181843D01*
X91020000Y-86132560D01*
X89320000Y-86132560D01*
X89072235Y-86181843D01*
X88862191Y-86322191D01*
X88721843Y-86532235D01*
X88672560Y-86780000D01*
X88672560Y-88480000D01*
X88721843Y-88727765D01*
X88862191Y-88937809D01*
X89072235Y-89078157D01*
X89117619Y-89087184D01*
X89099375Y-89099375D01*
X88771161Y-89590582D01*
X88655908Y-90170000D01*
X83260000Y-90170000D01*
X83260000Y-79346627D01*
X84295000Y-79346627D01*
X84295000Y-80673373D01*
X84802723Y-81899126D01*
X85740874Y-82837277D01*
X86966627Y-83345000D01*
X88293373Y-83345000D01*
X89519126Y-82837277D01*
X90457277Y-81899126D01*
X90965000Y-80673373D01*
X90965000Y-79346627D01*
X132555000Y-79346627D01*
X132555000Y-80673373D01*
X133062723Y-81899126D01*
X134000874Y-82837277D01*
X135226627Y-83345000D01*
X136553373Y-83345000D01*
X137779126Y-82837277D01*
X138717277Y-81899126D01*
X139225000Y-80673373D01*
X139225000Y-79346627D01*
X138717277Y-78120874D01*
X137779126Y-77182723D01*
X136553373Y-76675000D01*
X135226627Y-76675000D01*
X134000874Y-77182723D01*
X133062723Y-78120874D01*
X132555000Y-79346627D01*
X90965000Y-79346627D01*
X90457277Y-78120874D01*
X89519126Y-77182723D01*
X88293373Y-76675000D01*
X86966627Y-76675000D01*
X85740874Y-77182723D01*
X84802723Y-78120874D01*
X84295000Y-79346627D01*
X83260000Y-79346627D01*
X83260000Y-77514666D01*
X83322958Y-77016302D01*
X83491305Y-76591107D01*
X83760101Y-76221142D01*
X84112462Y-75929644D01*
X84526244Y-75734933D01*
X85008662Y-75642907D01*
X85101164Y-75640000D01*
X138385334Y-75640000D01*
X138883698Y-75702958D01*
X138883698Y-75702958D01*
G37*
X138883698Y-75702958D02*
X139308893Y-75871305D01*
X139678858Y-76140101D01*
X139970356Y-76492462D01*
X140165067Y-76906244D01*
X140257093Y-77388662D01*
X140260000Y-77481164D01*
X140260001Y-138385326D01*
X140197042Y-138883699D01*
X140028697Y-139308889D01*
X139759899Y-139678859D01*
X139407541Y-139970355D01*
X138993756Y-140165067D01*
X138511339Y-140257093D01*
X138418836Y-140260000D01*
X85134667Y-140260000D01*
X84636301Y-140197042D01*
X84211111Y-140028697D01*
X83841141Y-139759899D01*
X83549645Y-139407541D01*
X83354933Y-138993756D01*
X83262907Y-138511339D01*
X83260000Y-138418836D01*
X83260000Y-135226627D01*
X84295000Y-135226627D01*
X84295000Y-136553373D01*
X84802723Y-137779126D01*
X85740874Y-138717277D01*
X86966627Y-139225000D01*
X88293373Y-139225000D01*
X89519126Y-138717277D01*
X90457277Y-137779126D01*
X90965000Y-136553373D01*
X90965000Y-135890000D01*
X91195908Y-135890000D01*
X91311161Y-136469418D01*
X91639375Y-136960625D01*
X91657619Y-136972816D01*
X91612235Y-136981843D01*
X91402191Y-137122191D01*
X91261843Y-137332235D01*
X91212560Y-137580000D01*
X91212560Y-139280000D01*
X91261843Y-139527765D01*
X91402191Y-139737809D01*
X91612235Y-139878157D01*
X91860000Y-139927440D01*
X93560000Y-139927440D01*
X93807765Y-139878157D01*
X94017809Y-139737809D01*
X94158157Y-139527765D01*
X94167184Y-139482381D01*
X94179375Y-139500625D01*
X94670582Y-139828839D01*
X95103744Y-139915000D01*
X95396256Y-139915000D01*
X95829418Y-139828839D01*
X96320625Y-139500625D01*
X96520000Y-139202239D01*
X96719375Y-139500625D01*
X97210582Y-139828839D01*
X97643744Y-139915000D01*
X97936256Y-139915000D01*
X98369418Y-139828839D01*
X98860625Y-139500625D01*
X99060000Y-139202239D01*
X99259375Y-139500625D01*
X99750582Y-139828839D01*
X100183744Y-139915000D01*
X100476256Y-139915000D01*
X100909418Y-139828839D01*
X101400625Y-139500625D01*
X101600000Y-139202239D01*
X101799375Y-139500625D01*
X102290582Y-139828839D01*
X102723744Y-139915000D01*
X103016256Y-139915000D01*
X103449418Y-139828839D01*
X103940625Y-139500625D01*
X104140000Y-139202239D01*
X104339375Y-139500625D01*
X104830582Y-139828839D01*
X105263744Y-139915000D01*
X105556256Y-139915000D01*
X105989418Y-139828839D01*
X106480625Y-139500625D01*
X106680000Y-139202239D01*
X106879375Y-139500625D01*
X107370582Y-139828839D01*
X107803744Y-139915000D01*
X108096256Y-139915000D01*
X108529418Y-139828839D01*
X109020625Y-139500625D01*
X109220000Y-139202239D01*
X109419375Y-139500625D01*
X109910582Y-139828839D01*
X110343744Y-139915000D01*
X110636256Y-139915000D01*
X111069418Y-139828839D01*
X111560625Y-139500625D01*
X111760000Y-139202239D01*
X111959375Y-139500625D01*
X112450582Y-139828839D01*
X112883744Y-139915000D01*
X113176256Y-139915000D01*
X113609418Y-139828839D01*
X114100625Y-139500625D01*
X114300000Y-139202239D01*
X114499375Y-139500625D01*
X114990582Y-139828839D01*
X115423744Y-139915000D01*
X115716256Y-139915000D01*
X116149418Y-139828839D01*
X116640625Y-139500625D01*
X116840000Y-139202239D01*
X117039375Y-139500625D01*
X117530582Y-139828839D01*
X117963744Y-139915000D01*
X118256256Y-139915000D01*
X118689418Y-139828839D01*
X119180625Y-139500625D01*
X119380000Y-139202239D01*
X119579375Y-139500625D01*
X120070582Y-139828839D01*
X120503744Y-139915000D01*
X120796256Y-139915000D01*
X121229418Y-139828839D01*
X121720625Y-139500625D01*
X121920000Y-139202239D01*
X122119375Y-139500625D01*
X122610582Y-139828839D01*
X123043744Y-139915000D01*
X123336256Y-139915000D01*
X123769418Y-139828839D01*
X124260625Y-139500625D01*
X124460000Y-139202239D01*
X124659375Y-139500625D01*
X125150582Y-139828839D01*
X125583744Y-139915000D01*
X125876256Y-139915000D01*
X126309418Y-139828839D01*
X126800625Y-139500625D01*
X127000000Y-139202239D01*
X127199375Y-139500625D01*
X127690582Y-139828839D01*
X128123744Y-139915000D01*
X128416256Y-139915000D01*
X128849418Y-139828839D01*
X129340625Y-139500625D01*
X129540000Y-139202239D01*
X129739375Y-139500625D01*
X130230582Y-139828839D01*
X130663744Y-139915000D01*
X130956256Y-139915000D01*
X131389418Y-139828839D01*
X131880625Y-139500625D01*
X132208839Y-139009418D01*
X132324092Y-138430000D01*
X132208839Y-137850582D01*
X131880625Y-137359375D01*
X131582239Y-137160000D01*
X131880625Y-136960625D01*
X132208839Y-136469418D01*
X132324092Y-135890000D01*
X132208839Y-135310582D01*
X132152743Y-135226627D01*
X132555000Y-135226627D01*
X132555000Y-136553373D01*
X133062723Y-137779126D01*
X134000874Y-138717277D01*
X135226627Y-139225000D01*
X136553373Y-139225000D01*
X137779126Y-138717277D01*
X138717277Y-137779126D01*
X139225000Y-136553373D01*
X139225000Y-135226627D01*
X138717277Y-134000874D01*
X137779126Y-133062723D01*
X136553373Y-132555000D01*
X135226627Y-132555000D01*
X134000874Y-133062723D01*
X133062723Y-134000874D01*
X132555000Y-135226627D01*
X132152743Y-135226627D01*
X131880625Y-134819375D01*
X131389418Y-134491161D01*
X130956256Y-134405000D01*
X130663744Y-134405000D01*
X130230582Y-134491161D01*
X129739375Y-134819375D01*
X129540000Y-135117761D01*
X129340625Y-134819375D01*
X128849418Y-134491161D01*
X128416256Y-134405000D01*
X128123744Y-134405000D01*
X127690582Y-134491161D01*
X127199375Y-134819375D01*
X127000000Y-135117761D01*
X126800625Y-134819375D01*
X126309418Y-134491161D01*
X125876256Y-134405000D01*
X125583744Y-134405000D01*
X125150582Y-134491161D01*
X124659375Y-134819375D01*
X124460000Y-135117761D01*
X124260625Y-134819375D01*
X123769418Y-134491161D01*
X123336256Y-134405000D01*
X123043744Y-134405000D01*
X122610582Y-134491161D01*
X122119375Y-134819375D01*
X121920000Y-135117761D01*
X121720625Y-134819375D01*
X121229418Y-134491161D01*
X120796256Y-134405000D01*
X120503744Y-134405000D01*
X120070582Y-134491161D01*
X119579375Y-134819375D01*
X119380000Y-135117761D01*
X119180625Y-134819375D01*
X118689418Y-134491161D01*
X118256256Y-134405000D01*
X117963744Y-134405000D01*
X117530582Y-134491161D01*
X117039375Y-134819375D01*
X116840000Y-135117761D01*
X116640625Y-134819375D01*
X116149418Y-134491161D01*
X115716256Y-134405000D01*
X115423744Y-134405000D01*
X114990582Y-134491161D01*
X114499375Y-134819375D01*
X114300000Y-135117761D01*
X114100625Y-134819375D01*
X113609418Y-134491161D01*
X113176256Y-134405000D01*
X112883744Y-134405000D01*
X112450582Y-134491161D01*
X111959375Y-134819375D01*
X111760000Y-135117761D01*
X111560625Y-134819375D01*
X111069418Y-134491161D01*
X110636256Y-134405000D01*
X110343744Y-134405000D01*
X109910582Y-134491161D01*
X109419375Y-134819375D01*
X109220000Y-135117761D01*
X109020625Y-134819375D01*
X108529418Y-134491161D01*
X108096256Y-134405000D01*
X107803744Y-134405000D01*
X107370582Y-134491161D01*
X106879375Y-134819375D01*
X106680000Y-135117761D01*
X106480625Y-134819375D01*
X105989418Y-134491161D01*
X105556256Y-134405000D01*
X105263744Y-134405000D01*
X104830582Y-134491161D01*
X104339375Y-134819375D01*
X104140000Y-135117761D01*
X103940625Y-134819375D01*
X103449418Y-134491161D01*
X103016256Y-134405000D01*
X102723744Y-134405000D01*
X102290582Y-134491161D01*
X101799375Y-134819375D01*
X101600000Y-135117761D01*
X101400625Y-134819375D01*
X100909418Y-134491161D01*
X100476256Y-134405000D01*
X100183744Y-134405000D01*
X99750582Y-134491161D01*
X99259375Y-134819375D01*
X99060000Y-135117761D01*
X98860625Y-134819375D01*
X98369418Y-134491161D01*
X97936256Y-134405000D01*
X97643744Y-134405000D01*
X97210582Y-134491161D01*
X96719375Y-134819375D01*
X96520000Y-135117761D01*
X96320625Y-134819375D01*
X95829418Y-134491161D01*
X95396256Y-134405000D01*
X95103744Y-134405000D01*
X94670582Y-134491161D01*
X94179375Y-134819375D01*
X93980000Y-135117761D01*
X93780625Y-134819375D01*
X93289418Y-134491161D01*
X92856256Y-134405000D01*
X92563744Y-134405000D01*
X92130582Y-134491161D01*
X91639375Y-134819375D01*
X91311161Y-135310582D01*
X91195908Y-135890000D01*
X90965000Y-135890000D01*
X90965000Y-135226627D01*
X90457277Y-134000874D01*
X89519126Y-133062723D01*
X88293373Y-132555000D01*
X86966627Y-132555000D01*
X85740874Y-133062723D01*
X84802723Y-134000874D01*
X84295000Y-135226627D01*
X83260000Y-135226627D01*
X83260000Y-123190000D01*
X88655908Y-123190000D01*
X88771161Y-123769418D01*
X89099375Y-124260625D01*
X89397761Y-124460000D01*
X89099375Y-124659375D01*
X88771161Y-125150582D01*
X88655908Y-125730000D01*
X88771161Y-126309418D01*
X89099375Y-126800625D01*
X89397761Y-127000000D01*
X89099375Y-127199375D01*
X88771161Y-127690582D01*
X88655908Y-128270000D01*
X88771161Y-128849418D01*
X89099375Y-129340625D01*
X89590582Y-129668839D01*
X90023744Y-129755000D01*
X90316256Y-129755000D01*
X90749418Y-129668839D01*
X91240625Y-129340625D01*
X91440000Y-129042239D01*
X91639375Y-129340625D01*
X92130582Y-129668839D01*
X92563744Y-129755000D01*
X92856256Y-129755000D01*
X93289418Y-129668839D01*
X93780625Y-129340625D01*
X93988178Y-129030000D01*
X102166289Y-129030000D01*
X102283720Y-129147431D01*
X102664126Y-129305000D01*
X103075874Y-129305000D01*
X103456280Y-129147431D01*
X103747431Y-128856280D01*
X103905000Y-128475874D01*
X103905000Y-128064126D01*
X103747431Y-127683720D01*
X103456280Y-127392569D01*
X103075874Y-127235000D01*
X102664126Y-127235000D01*
X102614405Y-127255595D01*
X102635000Y-127205874D01*
X102635000Y-126794126D01*
X102477431Y-126413720D01*
X102186280Y-126122569D01*
X101805874Y-125965000D01*
X101394126Y-125965000D01*
X101013720Y-126122569D01*
X100896289Y-126240000D01*
X94122647Y-126240000D01*
X94224092Y-125730000D01*
X94108839Y-125150582D01*
X93780625Y-124659375D01*
X93482239Y-124460000D01*
X93780625Y-124260625D01*
X94108839Y-123769418D01*
X94224092Y-123190000D01*
X94108839Y-122610582D01*
X93780625Y-122119375D01*
X93482239Y-121920000D01*
X93780625Y-121720625D01*
X94108839Y-121229418D01*
X94224092Y-120650000D01*
X94108839Y-120070582D01*
X93780625Y-119579375D01*
X93289418Y-119251161D01*
X92856256Y-119165000D01*
X92563744Y-119165000D01*
X92130582Y-119251161D01*
X91639375Y-119579375D01*
X91624904Y-119601032D01*
X91558327Y-119440301D01*
X91379698Y-119261673D01*
X91146309Y-119165000D01*
X90455750Y-119165000D01*
X90297000Y-119323750D01*
X90297000Y-120523000D01*
X90317000Y-120523000D01*
X90317000Y-120777000D01*
X90297000Y-120777000D01*
X90297000Y-120797000D01*
X90043000Y-120797000D01*
X90043000Y-120777000D01*
X88843750Y-120777000D01*
X88685000Y-120935750D01*
X88685000Y-121626310D01*
X88781673Y-121859699D01*
X88960302Y-122038327D01*
X89121033Y-122104904D01*
X89099375Y-122119375D01*
X88771161Y-122610582D01*
X88655908Y-123190000D01*
X83260000Y-123190000D01*
X83260000Y-119673690D01*
X88685000Y-119673690D01*
X88685000Y-120364250D01*
X88843750Y-120523000D01*
X90043000Y-120523000D01*
X90043000Y-119323750D01*
X89884250Y-119165000D01*
X89193691Y-119165000D01*
X88960302Y-119261673D01*
X88781673Y-119440301D01*
X88685000Y-119673690D01*
X83260000Y-119673690D01*
X83260000Y-95250000D01*
X88655908Y-95250000D01*
X88771161Y-95829418D01*
X89099375Y-96320625D01*
X89397761Y-96520000D01*
X89099375Y-96719375D01*
X88771161Y-97210582D01*
X88655908Y-97790000D01*
X88771161Y-98369418D01*
X89099375Y-98860625D01*
X89397761Y-99060000D01*
X89099375Y-99259375D01*
X88771161Y-99750582D01*
X88655908Y-100330000D01*
X88771161Y-100909418D01*
X89099375Y-101400625D01*
X89397761Y-101600000D01*
X89099375Y-101799375D01*
X88771161Y-102290582D01*
X88655908Y-102870000D01*
X88771161Y-103449418D01*
X89099375Y-103940625D01*
X89397761Y-104140000D01*
X89099375Y-104339375D01*
X88771161Y-104830582D01*
X88655908Y-105410000D01*
X88771161Y-105989418D01*
X89099375Y-106480625D01*
X89397761Y-106680000D01*
X89099375Y-106879375D01*
X88771161Y-107370582D01*
X88655908Y-107950000D01*
X88771161Y-108529418D01*
X89099375Y-109020625D01*
X89397761Y-109220000D01*
X89099375Y-109419375D01*
X88771161Y-109910582D01*
X88655908Y-110490000D01*
X88771161Y-111069418D01*
X89099375Y-111560625D01*
X89397761Y-111760000D01*
X89099375Y-111959375D01*
X88771161Y-112450582D01*
X88655908Y-113030000D01*
X88771161Y-113609418D01*
X89099375Y-114100625D01*
X89590582Y-114428839D01*
X90023744Y-114515000D01*
X90316256Y-114515000D01*
X90749418Y-114428839D01*
X91240625Y-114100625D01*
X91448178Y-113790000D01*
X92635153Y-113790000D01*
X92710000Y-113804888D01*
X92784847Y-113790000D01*
X92784852Y-113790000D01*
X93006537Y-113745904D01*
X93257929Y-113577929D01*
X93300331Y-113514470D01*
X94294802Y-112520000D01*
X98968332Y-112520000D01*
X98866887Y-113030000D01*
X98978260Y-113589909D01*
X99295423Y-114064577D01*
X99647758Y-114300000D01*
X99295423Y-114535423D01*
X98978260Y-115010091D01*
X98866887Y-115570000D01*
X98978260Y-116129909D01*
X99295423Y-116604577D01*
X99647758Y-116840000D01*
X99295423Y-117075423D01*
X98978260Y-117550091D01*
X98866887Y-118110000D01*
X98978260Y-118669909D01*
X99295423Y-119144577D01*
X99647758Y-119380000D01*
X99295423Y-119615423D01*
X98978260Y-120090091D01*
X98866887Y-120650000D01*
X98978260Y-121209909D01*
X99295423Y-121684577D01*
X99647758Y-121920000D01*
X99295423Y-122155423D01*
X98978260Y-122630091D01*
X98866887Y-123190000D01*
X98978260Y-123749909D01*
X99295423Y-124224577D01*
X99770091Y-124541740D01*
X100188667Y-124625000D01*
X100471333Y-124625000D01*
X100653887Y-124588688D01*
X106089671Y-130024473D01*
X106132071Y-130087929D01*
X106383463Y-130255904D01*
X106605148Y-130300000D01*
X106605152Y-130300000D01*
X106679999Y-130314888D01*
X106754846Y-130300000D01*
X112120973Y-130300000D01*
X111995000Y-130604126D01*
X111995000Y-131015874D01*
X112152569Y-131396280D01*
X112443720Y-131687431D01*
X112824126Y-131845000D01*
X113235874Y-131845000D01*
X113616280Y-131687431D01*
X113733711Y-131570000D01*
X127566289Y-131570000D01*
X127683720Y-131687431D01*
X128064126Y-131845000D01*
X128475874Y-131845000D01*
X128856280Y-131687431D01*
X129147431Y-131396280D01*
X129305000Y-131015874D01*
X129305000Y-130604126D01*
X129147431Y-130223720D01*
X128856280Y-129932569D01*
X128796849Y-129907952D01*
X129167058Y-129537743D01*
X129362235Y-129668157D01*
X129610000Y-129717440D01*
X132010000Y-129717440D01*
X132257765Y-129668157D01*
X132467809Y-129527809D01*
X132608157Y-129317765D01*
X132657440Y-129070000D01*
X132657440Y-127771151D01*
X132763720Y-127877431D01*
X133144126Y-128035000D01*
X133555874Y-128035000D01*
X133936280Y-127877431D01*
X134227431Y-127586280D01*
X134385000Y-127205874D01*
X134385000Y-126794126D01*
X134227431Y-126413720D01*
X133936280Y-126122569D01*
X133555874Y-125965000D01*
X133144126Y-125965000D01*
X132763720Y-126122569D01*
X132646289Y-126240000D01*
X132571668Y-126240000D01*
X132673113Y-125730000D01*
X132561740Y-125170091D01*
X132244577Y-124695423D01*
X131892242Y-124460000D01*
X132244577Y-124224577D01*
X132428043Y-123950000D01*
X133916289Y-123950000D01*
X134033720Y-124067431D01*
X134414126Y-124225000D01*
X134825874Y-124225000D01*
X135206280Y-124067431D01*
X135497431Y-123776280D01*
X135655000Y-123395874D01*
X135655000Y-122984126D01*
X135497431Y-122603720D01*
X135206280Y-122312569D01*
X134825874Y-122155000D01*
X134414126Y-122155000D01*
X134033720Y-122312569D01*
X133916289Y-122430000D01*
X132428043Y-122430000D01*
X132244577Y-122155423D01*
X131892242Y-121920000D01*
X132244577Y-121684577D01*
X132561740Y-121209909D01*
X132673113Y-120650000D01*
X132561740Y-120090091D01*
X132244577Y-119615423D01*
X131892242Y-119380000D01*
X132244577Y-119144577D01*
X132561740Y-118669909D01*
X132673113Y-118110000D01*
X132561740Y-117550091D01*
X132244577Y-117075423D01*
X131892242Y-116840000D01*
X132244577Y-116604577D01*
X132315959Y-116497745D01*
X135061861Y-116497745D01*
X135135995Y-116743864D01*
X135673223Y-116936965D01*
X136243454Y-116909778D01*
X136644005Y-116743864D01*
X136718139Y-116497745D01*
X135890000Y-115669605D01*
X135061861Y-116497745D01*
X132315959Y-116497745D01*
X132561740Y-116129909D01*
X132673113Y-115570000D01*
X132614081Y-115273223D01*
X134443035Y-115273223D01*
X134470222Y-115843454D01*
X134636136Y-116244005D01*
X134882255Y-116318139D01*
X135710395Y-115490000D01*
X136069605Y-115490000D01*
X136897745Y-116318139D01*
X137143864Y-116244005D01*
X137336965Y-115706777D01*
X137309778Y-115136546D01*
X137143864Y-114735995D01*
X136897745Y-114661861D01*
X136069605Y-115490000D01*
X135710395Y-115490000D01*
X134882255Y-114661861D01*
X134636136Y-114735995D01*
X134443035Y-115273223D01*
X132614081Y-115273223D01*
X132561740Y-115010091D01*
X132244577Y-114535423D01*
X132165006Y-114482255D01*
X135061861Y-114482255D01*
X135890000Y-115310395D01*
X136718139Y-114482255D01*
X136644005Y-114236136D01*
X136106777Y-114043035D01*
X135536546Y-114070222D01*
X135135995Y-114236136D01*
X135061861Y-114482255D01*
X132165006Y-114482255D01*
X131892242Y-114300000D01*
X132244577Y-114064577D01*
X132561740Y-113589909D01*
X132673113Y-113030000D01*
X132561740Y-112470091D01*
X132244577Y-111995423D01*
X131892242Y-111760000D01*
X132244577Y-111524577D01*
X132561740Y-111049909D01*
X132673113Y-110490000D01*
X132616336Y-110204561D01*
X134455000Y-110204561D01*
X134455000Y-110775439D01*
X134673466Y-111302862D01*
X135077138Y-111706534D01*
X135604561Y-111925000D01*
X136175439Y-111925000D01*
X136702862Y-111706534D01*
X137106534Y-111302862D01*
X137325000Y-110775439D01*
X137325000Y-110204561D01*
X137106534Y-109677138D01*
X136702862Y-109273466D01*
X136175439Y-109055000D01*
X135604561Y-109055000D01*
X135077138Y-109273466D01*
X134673466Y-109677138D01*
X134455000Y-110204561D01*
X132616336Y-110204561D01*
X132561740Y-109930091D01*
X132244577Y-109455423D01*
X131769909Y-109138260D01*
X131351333Y-109055000D01*
X130268667Y-109055000D01*
X129850091Y-109138260D01*
X129375423Y-109455423D01*
X129058260Y-109930091D01*
X128946887Y-110490000D01*
X129058260Y-111049909D01*
X129375423Y-111524577D01*
X129727758Y-111760000D01*
X129375423Y-111995423D01*
X129058260Y-112470091D01*
X128946887Y-113030000D01*
X129058260Y-113589909D01*
X129375423Y-114064577D01*
X129727758Y-114300000D01*
X129375423Y-114535423D01*
X129058260Y-115010091D01*
X128946887Y-115570000D01*
X129058260Y-116129909D01*
X129375423Y-116604577D01*
X129727758Y-116840000D01*
X129375423Y-117075423D01*
X129058260Y-117550091D01*
X128946887Y-118110000D01*
X129058260Y-118669909D01*
X129375423Y-119144577D01*
X129727758Y-119380000D01*
X129375423Y-119615423D01*
X129058260Y-120090091D01*
X128946887Y-120650000D01*
X129058260Y-121209909D01*
X129375423Y-121684577D01*
X129727758Y-121920000D01*
X129375423Y-122155423D01*
X129058260Y-122630091D01*
X128946887Y-123190000D01*
X129058260Y-123749909D01*
X129128014Y-123854303D01*
X128856280Y-123582569D01*
X128475874Y-123425000D01*
X128064126Y-123425000D01*
X127683720Y-123582569D01*
X127566289Y-123700000D01*
X124951668Y-123700000D01*
X125053113Y-123190000D01*
X124951668Y-122680000D01*
X125026289Y-122680000D01*
X125143720Y-122797431D01*
X125524126Y-122955000D01*
X125935874Y-122955000D01*
X126316280Y-122797431D01*
X126607431Y-122506280D01*
X126765000Y-122125874D01*
X126765000Y-121714126D01*
X126607431Y-121333720D01*
X126316280Y-121042569D01*
X125935874Y-120885000D01*
X125524126Y-120885000D01*
X125143720Y-121042569D01*
X125026289Y-121160000D01*
X124951668Y-121160000D01*
X125053113Y-120650000D01*
X124941740Y-120090091D01*
X124624577Y-119615423D01*
X124272242Y-119380000D01*
X124624577Y-119144577D01*
X124941740Y-118669909D01*
X125053113Y-118110000D01*
X124951668Y-117600000D01*
X126296289Y-117600000D01*
X126413720Y-117717431D01*
X126794126Y-117875000D01*
X127205874Y-117875000D01*
X127586280Y-117717431D01*
X127877431Y-117426280D01*
X128035000Y-117045874D01*
X128035000Y-116634126D01*
X127877431Y-116253720D01*
X127586280Y-115962569D01*
X127205874Y-115805000D01*
X126794126Y-115805000D01*
X126413720Y-115962569D01*
X126296289Y-116080000D01*
X124951668Y-116080000D01*
X125053113Y-115570000D01*
X124941740Y-115010091D01*
X124624577Y-114535423D01*
X124272242Y-114300000D01*
X124624577Y-114064577D01*
X124941740Y-113589909D01*
X125053113Y-113030000D01*
X124951668Y-112520000D01*
X126296289Y-112520000D01*
X126413720Y-112637431D01*
X126794126Y-112795000D01*
X127205874Y-112795000D01*
X127586280Y-112637431D01*
X127877431Y-112346280D01*
X128035000Y-111965874D01*
X128035000Y-111554126D01*
X127877431Y-111173720D01*
X127586280Y-110882569D01*
X127205874Y-110725000D01*
X126794126Y-110725000D01*
X126413720Y-110882569D01*
X126296289Y-111000000D01*
X124951668Y-111000000D01*
X125053113Y-110490000D01*
X124941740Y-109930091D01*
X124624577Y-109455423D01*
X124149909Y-109138260D01*
X123731333Y-109055000D01*
X122648667Y-109055000D01*
X122230091Y-109138260D01*
X121755423Y-109455423D01*
X121438260Y-109930091D01*
X121326887Y-110490000D01*
X121428332Y-111000000D01*
X116931668Y-111000000D01*
X117033113Y-110490000D01*
X116921740Y-109930091D01*
X116604577Y-109455423D01*
X116252242Y-109220000D01*
X116604577Y-108984577D01*
X116921740Y-108509909D01*
X117033113Y-107950000D01*
X116921740Y-107390091D01*
X116604577Y-106915423D01*
X116252242Y-106680000D01*
X116604577Y-106444577D01*
X116921740Y-105969909D01*
X117033113Y-105410000D01*
X116980293Y-105144452D01*
X134555000Y-105144452D01*
X134555000Y-105675548D01*
X134758242Y-106166217D01*
X135133783Y-106541758D01*
X135624452Y-106745000D01*
X136155548Y-106745000D01*
X136646217Y-106541758D01*
X137021758Y-106166217D01*
X137225000Y-105675548D01*
X137225000Y-105144452D01*
X137021758Y-104653783D01*
X136646217Y-104278242D01*
X136155548Y-104075000D01*
X135624452Y-104075000D01*
X135133783Y-104278242D01*
X134758242Y-104653783D01*
X134555000Y-105144452D01*
X116980293Y-105144452D01*
X116921740Y-104850091D01*
X116604577Y-104375423D01*
X116252242Y-104140000D01*
X116604577Y-103904577D01*
X116921740Y-103429909D01*
X117033113Y-102870000D01*
X116931668Y-102360000D01*
X117406289Y-102360000D01*
X117523720Y-102477431D01*
X117904126Y-102635000D01*
X118315874Y-102635000D01*
X118696280Y-102477431D01*
X118987431Y-102186280D01*
X119145000Y-101805874D01*
X119145000Y-101394126D01*
X118987431Y-101013720D01*
X118696280Y-100722569D01*
X118315874Y-100565000D01*
X117904126Y-100565000D01*
X117523720Y-100722569D01*
X117406289Y-100840000D01*
X116931668Y-100840000D01*
X117033113Y-100330000D01*
X116931668Y-99820000D01*
X118676289Y-99820000D01*
X118793720Y-99937431D01*
X119174126Y-100095000D01*
X119585874Y-100095000D01*
X119966280Y-99937431D01*
X120257431Y-99646280D01*
X120415000Y-99265874D01*
X120415000Y-98854126D01*
X120257431Y-98473720D01*
X119966280Y-98182569D01*
X119585874Y-98025000D01*
X119174126Y-98025000D01*
X118793720Y-98182569D01*
X118676289Y-98300000D01*
X116931668Y-98300000D01*
X117033113Y-97790000D01*
X116931668Y-97280000D01*
X119946289Y-97280000D01*
X120063720Y-97397431D01*
X120444126Y-97555000D01*
X120855874Y-97555000D01*
X121236280Y-97397431D01*
X121508014Y-97125697D01*
X121438260Y-97230091D01*
X121326887Y-97790000D01*
X121438260Y-98349909D01*
X121755423Y-98824577D01*
X122107758Y-99060000D01*
X121755423Y-99295423D01*
X121438260Y-99770091D01*
X121326887Y-100330000D01*
X121438260Y-100889909D01*
X121755423Y-101364577D01*
X122107758Y-101600000D01*
X121755423Y-101835423D01*
X121438260Y-102310091D01*
X121326887Y-102870000D01*
X121438260Y-103429909D01*
X121755423Y-103904577D01*
X122230091Y-104221740D01*
X122648667Y-104305000D01*
X123731333Y-104305000D01*
X124149909Y-104221740D01*
X124624577Y-103904577D01*
X124941740Y-103429909D01*
X125053113Y-102870000D01*
X124941740Y-102310091D01*
X124624577Y-101835423D01*
X124272242Y-101600000D01*
X124624577Y-101364577D01*
X124941740Y-100889909D01*
X125053113Y-100330000D01*
X125012163Y-100124126D01*
X125965000Y-100124126D01*
X125965000Y-100535874D01*
X126122569Y-100916280D01*
X126413720Y-101207431D01*
X126794126Y-101365000D01*
X127205874Y-101365000D01*
X127586280Y-101207431D01*
X127703711Y-101090000D01*
X129191957Y-101090000D01*
X129375423Y-101364577D01*
X129496106Y-101445215D01*
X129362235Y-101471843D01*
X129152191Y-101612191D01*
X129011843Y-101822235D01*
X128962560Y-102070000D01*
X128962560Y-103670000D01*
X129011843Y-103917765D01*
X129152191Y-104127809D01*
X129362235Y-104268157D01*
X129610000Y-104317440D01*
X132010000Y-104317440D01*
X132257765Y-104268157D01*
X132467809Y-104127809D01*
X132608157Y-103917765D01*
X132657440Y-103670000D01*
X132657440Y-102070000D01*
X132608157Y-101822235D01*
X132467809Y-101612191D01*
X132257765Y-101471843D01*
X132123894Y-101445215D01*
X132244577Y-101364577D01*
X132561740Y-100889909D01*
X132673113Y-100330000D01*
X132561740Y-99770091D01*
X132244577Y-99295423D01*
X131888501Y-99057501D01*
X132314500Y-98714896D01*
X132584367Y-98221819D01*
X132601904Y-98139039D01*
X132479915Y-97917000D01*
X130937000Y-97917000D01*
X130937000Y-97937000D01*
X130683000Y-97937000D01*
X130683000Y-97917000D01*
X129140085Y-97917000D01*
X129018096Y-98139039D01*
X129035633Y-98221819D01*
X129305500Y-98714896D01*
X129731499Y-99057501D01*
X129375423Y-99295423D01*
X129191957Y-99570000D01*
X127703711Y-99570000D01*
X127586280Y-99452569D01*
X127205874Y-99295000D01*
X126794126Y-99295000D01*
X126413720Y-99452569D01*
X126122569Y-99743720D01*
X125965000Y-100124126D01*
X125012163Y-100124126D01*
X124941740Y-99770091D01*
X124624577Y-99295423D01*
X124272242Y-99060000D01*
X124624577Y-98824577D01*
X124941740Y-98349909D01*
X125053113Y-97790000D01*
X124941740Y-97230091D01*
X124624577Y-96755423D01*
X124272242Y-96520000D01*
X124624577Y-96284577D01*
X124941740Y-95809909D01*
X125053113Y-95250000D01*
X124941740Y-94690091D01*
X124624577Y-94215423D01*
X124272242Y-93980000D01*
X124624577Y-93744577D01*
X124941740Y-93269909D01*
X125053113Y-92710000D01*
X124941740Y-92150091D01*
X124624577Y-91675423D01*
X124272242Y-91440000D01*
X124624577Y-91204577D01*
X124941740Y-90729909D01*
X125053113Y-90170000D01*
X124941740Y-89610091D01*
X124624577Y-89135423D01*
X124272242Y-88900000D01*
X124624577Y-88664577D01*
X124941740Y-88189909D01*
X125053113Y-87630000D01*
X128946887Y-87630000D01*
X129058260Y-88189909D01*
X129375423Y-88664577D01*
X129727758Y-88900000D01*
X129375423Y-89135423D01*
X129058260Y-89610091D01*
X128946887Y-90170000D01*
X129058260Y-90729909D01*
X129375423Y-91204577D01*
X129727758Y-91440000D01*
X129375423Y-91675423D01*
X129058260Y-92150091D01*
X128946887Y-92710000D01*
X129058260Y-93269909D01*
X129375423Y-93744577D01*
X129727758Y-93980000D01*
X129375423Y-94215423D01*
X129058260Y-94690091D01*
X128946887Y-95250000D01*
X129058260Y-95809909D01*
X129375423Y-96284577D01*
X129731499Y-96522499D01*
X129305500Y-96865104D01*
X129035633Y-97358181D01*
X129018096Y-97440961D01*
X129140085Y-97663000D01*
X130683000Y-97663000D01*
X130683000Y-97643000D01*
X130937000Y-97643000D01*
X130937000Y-97663000D01*
X132479915Y-97663000D01*
X132601904Y-97440961D01*
X132584367Y-97358181D01*
X132314500Y-96865104D01*
X131888501Y-96522499D01*
X132244577Y-96284577D01*
X132428043Y-96010000D01*
X134762025Y-96010000D01*
X135130000Y-96377975D01*
X135130001Y-96692225D01*
X134927519Y-96827519D01*
X134632458Y-97269109D01*
X134528846Y-97790000D01*
X134632458Y-98310891D01*
X134927519Y-98752481D01*
X135369109Y-99047542D01*
X135758515Y-99125000D01*
X136021485Y-99125000D01*
X136410891Y-99047542D01*
X136852481Y-98752481D01*
X137147542Y-98310891D01*
X137251154Y-97790000D01*
X137147542Y-97269109D01*
X136852481Y-96827519D01*
X136650000Y-96692226D01*
X136650000Y-96377975D01*
X137021758Y-96006217D01*
X137225000Y-95515548D01*
X137225000Y-94984452D01*
X137021758Y-94493783D01*
X136646217Y-94118242D01*
X136155548Y-93915000D01*
X135624452Y-93915000D01*
X135133783Y-94118242D01*
X134762025Y-94490000D01*
X132428043Y-94490000D01*
X132244577Y-94215423D01*
X131892242Y-93980000D01*
X132244577Y-93744577D01*
X132561740Y-93269909D01*
X132673113Y-92710000D01*
X132561740Y-92150091D01*
X132244577Y-91675423D01*
X131892242Y-91440000D01*
X132244577Y-91204577D01*
X132561740Y-90729909D01*
X132673113Y-90170000D01*
X132561740Y-89610091D01*
X132244577Y-89135423D01*
X131892242Y-88900000D01*
X132244577Y-88664577D01*
X132561740Y-88189909D01*
X132606809Y-87963331D01*
X134597273Y-87963331D01*
X134823236Y-88432663D01*
X135211604Y-88779797D01*
X135556671Y-88922716D01*
X135763000Y-88799374D01*
X135763000Y-87757000D01*
X136017000Y-87757000D01*
X136017000Y-88799374D01*
X136223329Y-88922716D01*
X136568396Y-88779797D01*
X136956764Y-88432663D01*
X137182727Y-87963331D01*
X137060206Y-87757000D01*
X136017000Y-87757000D01*
X135763000Y-87757000D01*
X134719794Y-87757000D01*
X134597273Y-87963331D01*
X132606809Y-87963331D01*
X132673113Y-87630000D01*
X132606810Y-87296669D01*
X134597273Y-87296669D01*
X134719794Y-87503000D01*
X135763000Y-87503000D01*
X135763000Y-86460626D01*
X136017000Y-86460626D01*
X136017000Y-87503000D01*
X137060206Y-87503000D01*
X137182727Y-87296669D01*
X136956764Y-86827337D01*
X136568396Y-86480203D01*
X136223329Y-86337284D01*
X136017000Y-86460626D01*
X135763000Y-86460626D01*
X135556671Y-86337284D01*
X135211604Y-86480203D01*
X134823236Y-86827337D01*
X134597273Y-87296669D01*
X132606810Y-87296669D01*
X132561740Y-87070091D01*
X132244577Y-86595423D01*
X131769909Y-86278260D01*
X131351333Y-86195000D01*
X130268667Y-86195000D01*
X129850091Y-86278260D01*
X129375423Y-86595423D01*
X129058260Y-87070091D01*
X128946887Y-87630000D01*
X125053113Y-87630000D01*
X124941740Y-87070091D01*
X124624577Y-86595423D01*
X124149909Y-86278260D01*
X123731333Y-86195000D01*
X122648667Y-86195000D01*
X122230091Y-86278260D01*
X121755423Y-86595423D01*
X121438260Y-87070091D01*
X121326887Y-87630000D01*
X121438260Y-88189909D01*
X121755423Y-88664577D01*
X122107758Y-88900000D01*
X121755423Y-89135423D01*
X121438260Y-89610091D01*
X121326887Y-90170000D01*
X121438260Y-90729909D01*
X121755423Y-91204577D01*
X122107758Y-91440000D01*
X121755423Y-91675423D01*
X121438260Y-92150091D01*
X121326887Y-92710000D01*
X121438260Y-93269909D01*
X121755423Y-93744577D01*
X122107758Y-93980000D01*
X121755423Y-94215423D01*
X121438260Y-94690091D01*
X121326887Y-95250000D01*
X121438260Y-95809909D01*
X121508014Y-95914303D01*
X121236280Y-95642569D01*
X120855874Y-95485000D01*
X120444126Y-95485000D01*
X120063720Y-95642569D01*
X119946289Y-95760000D01*
X116895236Y-95760000D01*
X116961904Y-95599039D01*
X116839915Y-95377000D01*
X115697000Y-95377000D01*
X115697000Y-95397000D01*
X115443000Y-95397000D01*
X115443000Y-95377000D01*
X114300085Y-95377000D01*
X114178096Y-95599039D01*
X114244764Y-95760000D01*
X101691668Y-95760000D01*
X101793113Y-95250000D01*
X101681740Y-94690091D01*
X101364577Y-94215423D01*
X101012242Y-93980000D01*
X101364577Y-93744577D01*
X101681740Y-93269909D01*
X101793113Y-92710000D01*
X101681740Y-92150091D01*
X101364577Y-91675423D01*
X101012242Y-91440000D01*
X101364577Y-91204577D01*
X101681740Y-90729909D01*
X101793113Y-90170000D01*
X101681740Y-89610091D01*
X101364577Y-89135423D01*
X101243894Y-89054785D01*
X101377765Y-89028157D01*
X101587809Y-88887809D01*
X101728157Y-88677765D01*
X101777440Y-88430000D01*
X101777440Y-87630000D01*
X114106887Y-87630000D01*
X114218260Y-88189909D01*
X114535423Y-88664577D01*
X114887758Y-88900000D01*
X114535423Y-89135423D01*
X114218260Y-89610091D01*
X114106887Y-90170000D01*
X114218260Y-90729909D01*
X114535423Y-91204577D01*
X114887758Y-91440000D01*
X114535423Y-91675423D01*
X114218260Y-92150091D01*
X114106887Y-92710000D01*
X114218260Y-93269909D01*
X114535423Y-93744577D01*
X114919108Y-94000947D01*
X114714866Y-94097611D01*
X114338959Y-94512577D01*
X114178096Y-94900961D01*
X114300085Y-95123000D01*
X115443000Y-95123000D01*
X115443000Y-95103000D01*
X115697000Y-95103000D01*
X115697000Y-95123000D01*
X116839915Y-95123000D01*
X116961904Y-94900961D01*
X116801041Y-94512577D01*
X116425134Y-94097611D01*
X116220892Y-94000947D01*
X116604577Y-93744577D01*
X116921740Y-93269909D01*
X117033113Y-92710000D01*
X116921740Y-92150091D01*
X116604577Y-91675423D01*
X116252242Y-91440000D01*
X116604577Y-91204577D01*
X116921740Y-90729909D01*
X117033113Y-90170000D01*
X116921740Y-89610091D01*
X116604577Y-89135423D01*
X116252242Y-88900000D01*
X116604577Y-88664577D01*
X116921740Y-88189909D01*
X117033113Y-87630000D01*
X116921740Y-87070091D01*
X116604577Y-86595423D01*
X116129909Y-86278260D01*
X115711333Y-86195000D01*
X115428667Y-86195000D01*
X115010091Y-86278260D01*
X114535423Y-86595423D01*
X114218260Y-87070091D01*
X114106887Y-87630000D01*
X101777440Y-87630000D01*
X101777440Y-86830000D01*
X101728157Y-86582235D01*
X101587809Y-86372191D01*
X101377765Y-86231843D01*
X101130000Y-86182560D01*
X99530000Y-86182560D01*
X99282235Y-86231843D01*
X99072191Y-86372191D01*
X98931843Y-86582235D01*
X98882560Y-86830000D01*
X98882560Y-88430000D01*
X98931843Y-88677765D01*
X99072191Y-88887809D01*
X99282235Y-89028157D01*
X99416106Y-89054785D01*
X99295423Y-89135423D01*
X98978260Y-89610091D01*
X98866887Y-90170000D01*
X98978260Y-90729909D01*
X99295423Y-91204577D01*
X99647758Y-91440000D01*
X99295423Y-91675423D01*
X98978260Y-92150091D01*
X98866887Y-92710000D01*
X98978260Y-93269909D01*
X99295423Y-93744577D01*
X99647758Y-93980000D01*
X99295423Y-94215423D01*
X98978260Y-94690091D01*
X98866887Y-95250000D01*
X98968332Y-95760000D01*
X94294802Y-95760000D01*
X93300331Y-94765530D01*
X93257929Y-94702071D01*
X93006537Y-94534096D01*
X92784852Y-94490000D01*
X92784847Y-94490000D01*
X92710000Y-94475112D01*
X92635153Y-94490000D01*
X91448178Y-94490000D01*
X91240625Y-94179375D01*
X90921522Y-93966157D01*
X91051358Y-93905183D01*
X91441645Y-93476924D01*
X91611476Y-93066890D01*
X91490155Y-92837000D01*
X90297000Y-92837000D01*
X90297000Y-92857000D01*
X90043000Y-92857000D01*
X90043000Y-92837000D01*
X88849845Y-92837000D01*
X88728524Y-93066890D01*
X88898355Y-93476924D01*
X89288642Y-93905183D01*
X89418478Y-93966157D01*
X89099375Y-94179375D01*
X88771161Y-94670582D01*
X88655908Y-95250000D01*
X83260000Y-95250000D01*
X83260000Y-90170000D01*
X88655908Y-90170000D01*
X88771161Y-90749418D01*
X89099375Y-91240625D01*
X89418478Y-91453843D01*
X89288642Y-91514817D01*
X88898355Y-91943076D01*
X88728524Y-92353110D01*
X88849845Y-92583000D01*
X90043000Y-92583000D01*
X90043000Y-92563000D01*
X90297000Y-92563000D01*
X90297000Y-92583000D01*
X91490155Y-92583000D01*
X91573768Y-92424561D01*
X93815000Y-92424561D01*
X93815000Y-92995439D01*
X94033466Y-93522862D01*
X94437138Y-93926534D01*
X94964561Y-94145000D01*
X95535439Y-94145000D01*
X96062862Y-93926534D01*
X96466534Y-93522862D01*
X96685000Y-92995439D01*
X96685000Y-92424561D01*
X96466534Y-91897138D01*
X96062862Y-91493466D01*
X95535439Y-91275000D01*
X94964561Y-91275000D01*
X94437138Y-91493466D01*
X94033466Y-91897138D01*
X93815000Y-92424561D01*
X91573768Y-92424561D01*
X91611476Y-92353110D01*
X91441645Y-91943076D01*
X91051358Y-91514817D01*
X90921522Y-91453843D01*
X91240625Y-91240625D01*
X91568839Y-90749418D01*
X91684092Y-90170000D01*
X91568839Y-89590582D01*
X91240625Y-89099375D01*
X91222381Y-89087184D01*
X91267765Y-89078157D01*
X91477809Y-88937809D01*
X91618157Y-88727765D01*
X91667440Y-88480000D01*
X91667440Y-88390000D01*
X93978433Y-88390000D01*
X94033466Y-88522862D01*
X94437138Y-88926534D01*
X94964561Y-89145000D01*
X95535439Y-89145000D01*
X96062862Y-88926534D01*
X96466534Y-88522862D01*
X96685000Y-87995439D01*
X96685000Y-87424561D01*
X96466534Y-86897138D01*
X96062862Y-86493466D01*
X95535439Y-86275000D01*
X94964561Y-86275000D01*
X94437138Y-86493466D01*
X94060604Y-86870000D01*
X91667440Y-86870000D01*
X91667440Y-86780000D01*
X91618157Y-86532235D01*
X91477809Y-86322191D01*
X91267765Y-86181843D01*
X91020000Y-86132560D01*
X89320000Y-86132560D01*
X89072235Y-86181843D01*
X88862191Y-86322191D01*
X88721843Y-86532235D01*
X88672560Y-86780000D01*
X88672560Y-88480000D01*
X88721843Y-88727765D01*
X88862191Y-88937809D01*
X89072235Y-89078157D01*
X89117619Y-89087184D01*
X89099375Y-89099375D01*
X88771161Y-89590582D01*
X88655908Y-90170000D01*
X83260000Y-90170000D01*
X83260000Y-79346627D01*
X84295000Y-79346627D01*
X84295000Y-80673373D01*
X84802723Y-81899126D01*
X85740874Y-82837277D01*
X86966627Y-83345000D01*
X88293373Y-83345000D01*
X89519126Y-82837277D01*
X90457277Y-81899126D01*
X90965000Y-80673373D01*
X90965000Y-79346627D01*
X132555000Y-79346627D01*
X132555000Y-80673373D01*
X133062723Y-81899126D01*
X134000874Y-82837277D01*
X135226627Y-83345000D01*
X136553373Y-83345000D01*
X137779126Y-82837277D01*
X138717277Y-81899126D01*
X139225000Y-80673373D01*
X139225000Y-79346627D01*
X138717277Y-78120874D01*
X137779126Y-77182723D01*
X136553373Y-76675000D01*
X135226627Y-76675000D01*
X134000874Y-77182723D01*
X133062723Y-78120874D01*
X132555000Y-79346627D01*
X90965000Y-79346627D01*
X90457277Y-78120874D01*
X89519126Y-77182723D01*
X88293373Y-76675000D01*
X86966627Y-76675000D01*
X85740874Y-77182723D01*
X84802723Y-78120874D01*
X84295000Y-79346627D01*
X83260000Y-79346627D01*
X83260000Y-77514666D01*
X83322958Y-77016302D01*
X83491305Y-76591107D01*
X83760101Y-76221142D01*
X84112462Y-75929644D01*
X84526244Y-75734933D01*
X85008662Y-75642907D01*
X85101164Y-75640000D01*
X138385334Y-75640000D01*
X138883698Y-75702958D01*
G36*
X114106887Y-123190000D02*
X114218260Y-123749909D01*
X114535423Y-124224577D01*
X115010091Y-124541740D01*
X115428667Y-124625000D01*
X115711333Y-124625000D01*
X115893886Y-124588688D01*
X116249671Y-124944473D01*
X116292071Y-125007929D01*
X116543463Y-125175904D01*
X116765148Y-125220000D01*
X116765152Y-125220000D01*
X116839999Y-125234888D01*
X116914846Y-125220000D01*
X121428332Y-125220000D01*
X121326887Y-125730000D01*
X121428332Y-126240000D01*
X115003711Y-126240000D01*
X114886280Y-126122569D01*
X114505874Y-125965000D01*
X114094126Y-125965000D01*
X113713720Y-126122569D01*
X113422569Y-126413720D01*
X113265000Y-126794126D01*
X113265000Y-127205874D01*
X113422569Y-127586280D01*
X113713720Y-127877431D01*
X114094126Y-128035000D01*
X114505874Y-128035000D01*
X114886280Y-127877431D01*
X115003711Y-127760000D01*
X121458422Y-127760000D01*
X121415633Y-127838181D01*
X121398096Y-127920961D01*
X121520085Y-128143000D01*
X123063000Y-128143000D01*
X123063000Y-128123000D01*
X123317000Y-128123000D01*
X123317000Y-128143000D01*
X124859915Y-128143000D01*
X124981904Y-127920961D01*
X124964367Y-127838181D01*
X124921578Y-127760000D01*
X128786728Y-127760000D01*
X128769671Y-127785527D01*
X127775199Y-128780000D01*
X124921578Y-128780000D01*
X124964367Y-128701819D01*
X124981904Y-128619039D01*
X124859915Y-128397000D01*
X123317000Y-128397000D01*
X123317000Y-128417000D01*
X123063000Y-128417000D01*
X123063000Y-128397000D01*
X121520085Y-128397000D01*
X121398096Y-128619039D01*
X121415633Y-128701819D01*
X121458422Y-128780000D01*
X106994802Y-128780000D01*
X101728688Y-123513887D01*
X101793113Y-123190000D01*
X101691668Y-122680000D01*
X114208332Y-122680000D01*
X114106887Y-123190000D01*
X114106887Y-123190000D01*
G37*
X114106887Y-123190000D02*
X114218260Y-123749909D01*
X114535423Y-124224577D01*
X115010091Y-124541740D01*
X115428667Y-124625000D01*
X115711333Y-124625000D01*
X115893886Y-124588688D01*
X116249671Y-124944473D01*
X116292071Y-125007929D01*
X116543463Y-125175904D01*
X116765148Y-125220000D01*
X116765152Y-125220000D01*
X116839999Y-125234888D01*
X116914846Y-125220000D01*
X121428332Y-125220000D01*
X121326887Y-125730000D01*
X121428332Y-126240000D01*
X115003711Y-126240000D01*
X114886280Y-126122569D01*
X114505874Y-125965000D01*
X114094126Y-125965000D01*
X113713720Y-126122569D01*
X113422569Y-126413720D01*
X113265000Y-126794126D01*
X113265000Y-127205874D01*
X113422569Y-127586280D01*
X113713720Y-127877431D01*
X114094126Y-128035000D01*
X114505874Y-128035000D01*
X114886280Y-127877431D01*
X115003711Y-127760000D01*
X121458422Y-127760000D01*
X121415633Y-127838181D01*
X121398096Y-127920961D01*
X121520085Y-128143000D01*
X123063000Y-128143000D01*
X123063000Y-128123000D01*
X123317000Y-128123000D01*
X123317000Y-128143000D01*
X124859915Y-128143000D01*
X124981904Y-127920961D01*
X124964367Y-127838181D01*
X124921578Y-127760000D01*
X128786728Y-127760000D01*
X128769671Y-127785527D01*
X127775199Y-128780000D01*
X124921578Y-128780000D01*
X124964367Y-128701819D01*
X124981904Y-128619039D01*
X124859915Y-128397000D01*
X123317000Y-128397000D01*
X123317000Y-128417000D01*
X123063000Y-128417000D01*
X123063000Y-128397000D01*
X121520085Y-128397000D01*
X121398096Y-128619039D01*
X121415633Y-128701819D01*
X121458422Y-128780000D01*
X106994802Y-128780000D01*
X101728688Y-123513887D01*
X101793113Y-123190000D01*
X101691668Y-122680000D01*
X114208332Y-122680000D01*
X114106887Y-123190000D01*
G04 #@! TD*
M02*
